/* XPM */
static char *bush1[] = {
/* columns rows colors chars-per-pixel */
"64 64 6 1 ",
"  c #622C0C",
". c #0B5101",
"X c #BA7417",
"o c #159D02",
"O c #17B200",
"+ c None",
/* pixels */
"++++++++++++++++++++........................++++++++++++++++++++",
"++++++++++++++++++++........................++++++++++++++++++++",
"++++++++++++++++++++........................++++++++++++++++++++",
"++++++++++++++++++++........................++++++++++++++++++++",
"++++++++++++++++....OOOOOOOOoooooooooooooooo....++++++++++++++++",
"++++++++++++++++....OOOOOOOOoooooooooooooooo....++++++++++++++++",
"++++++++++++++++....OOOOOOOOoooooooooooooooo....++++++++++++++++",
"++++++++++++++++....OOOOOOOOoooooooooooooooo....++++++++++++++++",
"++++++++++++....oooooooooooooooooooooooooooooooo....++++++++++++",
"++++++++++++....oooooooooooooooooooooooooooooooo....++++++++++++",
"++++++++++++....oooooooooooooooooooooooooooooooo....++++++++++++",
"++++++++++++....oooooooooooooooooooooooooooooooo....++++++++++++",
"++++++++++++....oooooooooooooooooooooooooooooooo....++++++++++++",
"++++++++++++....oooooooooooooooooooooooooooooooo....++++++++++++",
"++++++++++++....oooooooooooooooooooooooooooooooo....++++++++++++",
"++++++++++++....oooooooooooooooooooooooooooooooo....++++++++++++",
"++++++++....ooooooooOOOOOOOOooooooooooooooooOOOOoooo....++++++++",
"++++++++....ooooooooOOOOOOOOooooooooooooooooOOOOoooo....++++++++",
"++++++++....ooooooooOOOOOOOOooooooooooooooooOOOOoooo....++++++++",
"++++++++....ooooooooOOOOOOOOooooooooooooooooOOOOoooo....++++++++",
"++++++++....oooooooooooooooooooooooooooooooooooooooo....++++++++",
"++++++++....oooooooooooooooooooooooooooooooooooooooo....++++++++",
"++++++++....oooooooooooooooooooooooooooooooooooooooo....++++++++",
"++++++++....oooooooooooooooooooooooooooooooooooooooo....++++++++",
"++++....oooooooooooooooooooooooooooooooooooooooooooooooo....++++",
"++++....oooooooooooooooooooooooooooooooooooooooooooooooo....++++",
"++++....oooooooooooooooooooooooooooooooooooooooooooooooo....++++",
"++++....oooooooooooooooooooooooooooooooooooooooooooooooo....++++",
"++++....ooooooooooooooooOOOOooooooooooooooooooooooooOOOO....++++",
"++++....ooooooooooooooooOOOOooooooooooooooooooooooooOOOO....++++",
"++++....ooooooooooooooooOOOOooooooooooooooooooooooooOOOO....++++",
"++++....ooooooooooooooooOOOOooooooooooooooooooooooooOOOO....++++",
"....ooooooooOOOOoooooooooooooooooooooooooooooooooooooooooooo....",
"....ooooooooOOOOoooooooooooooooooooooooooooooooooooooooooooo....",
"....ooooooooOOOOoooooooooooooooooooooooooooooooooooooooooooo....",
"....ooooooooOOOOoooooooooooooooooooooooooooooooooooooooooooo....",
"........oooooooooooooooooooooooooooooooooooooooooooooooo........",
"........oooooooooooooooooooooooooooooooooooooooooooooooo........",
"........oooooooooooooooooooooooooooooooooooooooooooooooo........",
"........oooooooooooooooooooooooooooooooooooooooooooooooo........",
"................oooooooooooooooooooooooooooooooo................",
"................oooooooooooooooooooooooooooooooo................",
"................oooooooooooooooooooooooooooooooo................",
"................oooooooooooooooooooooooooooooooo................",
"................................................................",
"................................................................",
"................................................................",
"................................................................",
"++++........................................................++++",
"++++........................................................++++",
"++++........................................................++++",
"++++........................................................++++",
"++++++++............        XXXXXXXX        ............++++++++",
"++++++++............        XXXXXXXX        ............++++++++",
"++++++++............        XXXXXXXX        ............++++++++",
"++++++++............        XXXXXXXX        ............++++++++",
"++++++++++++++++++++        XXXXXXXX        ++++++++++++++++++++",
"++++++++++++++++++++        XXXXXXXX        ++++++++++++++++++++",
"++++++++++++++++++++        XXXXXXXX        ++++++++++++++++++++",
"++++++++++++++++++++        XXXXXXXX        ++++++++++++++++++++",
"++++++++++++++++++++++++    XXXXXXXX    ++++++++++++++++++++++++",
"++++++++++++++++++++++++    XXXXXXXX    ++++++++++++++++++++++++",
"++++++++++++++++++++++++    XXXXXXXX    ++++++++++++++++++++++++",
"++++++++++++++++++++++++    XXXXXXXX    ++++++++++++++++++++++++"
};
