/* XPM */
static char *deb978b60fe94401a282cff51f3ab102JMCjxZUDtWzdd8GS[] = {
/* columns rows colors chars-per-pixel */
"38 64 214 2 ",
"   c None",
".  c #33302F",
"X  c #2B2B35",
"o  c #2E2D3B",
"O  c #272B39",
"+  c #322D3C",
"@  c #34293B",
"#  c #2D303B",
"$  c #2E3037",
"%  c #35353B",
"&  c #3D393E",
"*  c #363339",
"=  c #4A353E",
"-  c #4A3036",
";  c #51373D",
":  c #2B2E41",
">  c #2A2C4C",
",  c #312F43",
"<  c #2E3244",
"1  c #333243",
"2  c #3A3542",
"3  c #3D3A45",
"4  c #33334A",
"5  c #3B3B4A",
"6  c #323843",
"7  c #3C3C51",
"8  c #3E3E5A",
"9  c #282C52",
"0  c #443B44",
"q  c #443649",
"w  c #473847",
"e  c #423E52",
"r  c #423E5B",
"t  c #423151",
"y  c #3F4155",
"u  c #3F405C",
"i  c #584747",
"p  c #56524E",
"a  c #59554A",
"s  c #434154",
"d  c #44435B",
"f  c #4B4957",
"g  c #544D55",
"h  c #54475E",
"j  c #5B5653",
"k  c #5C575A",
"l  c #6C4A46",
"z  c #674947",
"x  c #714D4B",
"c  c #744C46",
"v  c #6B504C",
"b  c #75534D",
"n  c #7C564D",
"m  c #7F5347",
"M  c #6C4E50",
"N  c #6B5452",
"B  c #685656",
"V  c #775956",
"C  c #7B6157",
"Z  c #564C65",
"A  c #4D5665",
"S  c #5B5A64",
"D  c #585568",
"F  c #504F75",
"G  c #484460",
"H  c #615E6A",
"J  c #7A5D67",
"K  c #6C6665",
"L  c #7C6866",
"P  c #6D6F78",
"I  c #716D78",
"U  c #757474",
"Y  c #73737A",
"T  c #83594A",
"R  c #815C53",
"E  c #885C56",
"W  c #8F654F",
"Q  c #9C694F",
"!  c #8C6255",
"~  c #896257",
"^  c #946654",
"/  c #9D6654",
"(  c #9D6952",
")  c #9E6A5C",
"_  c #936B5C",
"`  c #9F705E",
"'  c #A4664D",
"]  c #A56553",
"[  c #A16A54",
"{  c #A56B58",
"}  c #B17A5E",
"|  c #A4725B",
" . c #876A67",
".. c #956C61",
"X. c #8F7164",
"o. c #9C7462",
"O. c #97766A",
"+. c #867675",
"@. c #957877",
"#. c #AE7761",
"$. c #A47C6C",
"%. c #AD7C6C",
"&. c #AA7A63",
"*. c #B87E67",
"=. c #A77E73",
"-. c #A96C63",
";. c #9D8379",
":. c #B9856A",
">. c #AB8977",
",. c #BA8E79",
"<. c #B68177",
"1. c #B9967B",
"2. c #C68665",
"3. c #C5846D",
"4. c #C2886C",
"5. c #C98A69",
"6. c #C5926B",
"7. c #CA916C",
"8. c #D2916F",
"9. c #C99675",
"0. c #D59978",
"q. c #C28B74",
"w. c #D7A26F",
"e. c #CCA07B",
"r. c #D4A27A",
"t. c #D3A076",
"y. c #7E8087",
"u. c #938183",
"i. c #9F8985",
"p. c #8C8A96",
"a. c #918B94",
"s. c #948B9C",
"d. c #95889A",
"f. c #8E9297",
"g. c #929296",
"h. c #92929B",
"j. c #A38C87",
"k. c #AC8F85",
"l. c #A3918C",
"z. c #BD9D8C",
"x. c #BA9789",
"c. c #AC9695",
"v. c #A69797",
"b. c #B9969B",
"n. c #BCA099",
"m. c #B7A58F",
"M. c #9286A8",
"N. c #A59AA5",
"B. c #A09EB2",
"V. c #B699A4",
"C. c #ABA6B1",
"Z. c #B2A6B8",
"A. c #BCA7AE",
"S. c #C79884",
"D. c #D59C92",
"F. c #DB9B82",
"G. c #CBA187",
"H. c #D6A686",
"J. c #CBAA9A",
"K. c #D4AA98",
"L. c #C8AAA8",
"P. c #D4A9A7",
"I. c #DFBDA3",
"U. c #C8B5B5",
"Y. c #E9BCA5",
"T. c #F3CE9E",
"R. c #F3CFAD",
"E. c #F4D0AB",
"W. c #F4CFB7",
"Q. c #F9D8BC",
"!. c #BAB8C5",
"~. c #B9BAE6",
"^. c #CEAEC3",
"/. c #C6B3C2",
"(. c #DCBECF",
"). c #E2BBD1",
"_. c #BEC6D1",
"`. c #C2C1CC",
"'. c #C9C9D8",
"]. c #D1CCDB",
"[. c #D7C8D7",
"{. c #CCD0DF",
"}. c #D9D4D0",
"|. c #EDD3C1",
" X c #FEDBC5",
".X c #E5D1DF",
"XX c #EEE3DF",
"oX c #CBCFE2",
"OX c #DFD7E4",
"+X c #D4DBE2",
"@X c #DCDAE5",
"#X c #D6D4E8",
"$X c #D9D7F4",
"%X c #E3CFE3",
"&X c #E1D3E1",
"*X c #E5DDEE",
"=X c #EDDCED",
"-X c #ECDDEF",
";X c #E5E6EC",
":X c #E9E7E7",
">X c #FAEDEC",
",X c #FCF7EF",
"<X c #E5ECF3",
"1X c #EDEBF4",
"2X c #EBE4F6",
"3X c #F3ECF4",
"4X c #F7EBF9",
"5X c #EEF9FA",
"6X c #ECF7F3",
"7X c #F5F4F4",
"8X c #F5F5FA",
"9X c #FAF4FC",
"0X c #F4FAFB",
"qX c #F7F9F6",
/* pixels */
"                                                                            ",
"                                                                            ",
"                                                                            ",
"                                                                            ",
"                                                                            ",
"                                    j.+.                                    ",
"                                @.O.$. .@.;.                                ",
"                              z O.,.%.<.S.K.o.O. .K                         ",
"                            C _ :.4.4.3.3.3.:.)  .                          ",
"                          V ~ %.4.2.2.2.2.2.0.*...                          ",
"                        i.~ ` 4.2.8.5.6.0.6.7.q.$.u.                        ",
"                        l...{ *.5.0.5.9.e.6.:.:...z                         ",
"                        L T / ' { } #.#.#.#.Q W R L                         ",
"                         ._ / ] ' [ ( { ] ] ( ^ n u.                        ",
"                        V n E ) [ Q [ ( [ / ^ b B K                         ",
"                          v R ! / [ ( Q ^ ) E z v.                          ",
"                            N V R ! ! T m E V L                             ",
"                            +.N V n n n n R V u.                            ",
"                              +.v b b x x M B                               ",
"                                V z l c z i                                 ",
"                                  M x l i                                   ",
"                              !.N.J @.@.J N.`.                              ",
"                        `._.'.oX]./.(.).^.].{.'.`.[.                        ",
"                      ].'.5X5X<X*X%X&X.X[.*X<X8X9X].].                      ",
"                      C.2X8X6X6X9X4X;X:X1X8X9X,X9X2XB.                      ",
"                      N.=X>X:X6X9X9X9XqX8X8X8XXX>X=XB.                      ",
"                      @.P.P.c.6X8X8X8XqX8X2X4Xc.J.L.u.                      ",
"                      X.D.D.@.:X0X7X:X7X8X2X=X@.G.G.+.                      ",
"                      $.F.-.A.@X5X7X7X@X@X$X&XL.| t.>.                      ",
"                      ,.0.%./.@X0X,X9X3X@XoXOXU.%.t.>.                      ",
"                    [.S.r.z.OX#X9X,X8X9X3X+X+X&Xb.H.1.                      ",
"                    ^.Y.H.m.@X~.4X,X0X9X9X6X+XOXV.H.I.U.                    ",
"                    b. X1.}.!.$X#X1X8X9X8X0X<X!.[.S.Q.c.                    ",
"                    x. X=.9XZ.#X#X$X2X1X1X3X;XC.9X&.Q.c.                    ",
"                    x. X@.Z.h I p.M.a.a.d.d.I f C.$. Xv.                    ",
"                    k.W.;.s.@ & q t w 0 w q + o d.>.W.v.                    ",
"                    >.R.|.= q g Z Z q 2 f Z Z 3 w W.R.j.                    ",
"                    S.E.I.; w S D F 7 5 d D S 3 = Y.T.z.                    ",
"                    J.r.S.- @ * 4 9 A A < < 6 $ = 9.w.K.                    ",
"                    J.H.z.w @ * : >     O < # # w S.0.J.                    ",
"                    n.X.N s.+ $ # o     H 1 o : d.c o.                      ",
"                          s.o * + o     a.+ 1 : s.                          ",
"                          g.o 1 , X     h.1 , o g.                          ",
"                          g.o 1 , X     p.1 , o g.                          ",
"                          g.o 1 , X     y.1 , o g.                          ",
"                          g.o 1 , X     P 1 , o g.                          ",
"                          g.o 1 1       Y , 1 o g.                          ",
"                          g.o 1 1       p.+ 1 o g.                          ",
"                          g.2 s 7       g.1 e 5 g.                          ",
"                          g.3 s 7       g.5 s 5 g.                          ",
"                          h.5 s s       h.s s 5 g.                          ",
"                          h.7 u s H     h.s y 5 f.                          ",
"                          h.7 8 d %     h.s y 5 f.                          ",
"                          h.5 8 8 2     h.s r 8 f                           ",
"                          h.5 r r 1     g.s r r 4                           ",
"                          a.5 d r 1     g.e G r 4                           ",
"                          & 0 s e 1     g.s e e e                           ",
"                          . & 2 3 f     U 2 q 3 2                           ",
"                          p p g g         & g g p j                         ",
"                          j j j k         U k j a                           ",
"                                                                            ",
"                                                                            ",
"                                                                            ",
"                                                                            "
};
