/* XPM */
static char *_d446542d2864214bfafbfaa5ac5318eXdycGyKmYV81cZp9[] = {
/* columns rows colors chars-per-pixel */
"33 64 208 2 ",
"   c None",
".  c #250F0C",
"X  c #3C2B29",
"o  c #2B2B3A",
"O  c #262B3B",
"+  c #322C3A",
"@  c #2E313E",
"#  c #32323D",
"$  c #37313A",
"%  c #54351A",
"&  c #613F1C",
"*  c #412A21",
"=  c #5E3E25",
"-  c #4A3A3A",
";  c #5A3D34",
":  c #5D472F",
">  c #5E423B",
",  c #57473B",
"<  c #47413C",
"1  c #64482B",
"2  c #654736",
"3  c #65533D",
"4  c #312F45",
"5  c #2F3344",
"6  c #343443",
"7  c #3A3647",
"8  c #3B3A49",
"9  c #35354A",
"0  c #3D3C52",
"q  c #3B3F5A",
"w  c #3B3F60",
"e  c #443948",
"r  c #453E56",
"t  c #3F4055",
"y  c #3C405F",
"u  c #3C4262",
"i  c #4F4343",
"p  c #594746",
"a  c #42425A",
"s  c #4A445B",
"d  c #4B4A5D",
"f  c #484453",
"g  c #574754",
"h  c #54505C",
"j  c #704D49",
"k  c #655B4C",
"l  c #7E5345",
"z  c #79594B",
"x  c #665356",
"c  c #775555",
"v  c #755A55",
"b  c #654C56",
"n  c #7B645E",
"m  c #7E6056",
"M  c #6D665B",
"N  c #474762",
"B  c #4D4E61",
"V  c #585669",
"C  c #5F5F7B",
"Z  c #775E65",
"A  c #645C77",
"S  c #675A61",
"D  c #5F6065",
"F  c #7F6363",
"G  c #61617B",
"H  c #6C657E",
"J  c #6D6C69",
"K  c #845B3B",
"L  c #845A49",
"P  c #845D52",
"I  c #885F58",
"U  c #935C49",
"Y  c #96654B",
"T  c #83645B",
"R  c #8A6758",
"E  c #946453",
"W  c #996855",
"Q  c #87715B",
"!  c #9C755F",
"~  c #8B6148",
"^  c #A0654E",
"/  c #A26D5A",
"(  c #A9775E",
")  c #A2795D",
"_  c #BF7F5D",
"`  c #B4785D",
"'  c #846A6C",
"]  c #956F61",
"[  c #9A7364",
"{  c #957469",
"}  c #987468",
"|  c #8B7676",
" . c #9A7675",
".. c #A77D6A",
"X. c #A07766",
"o. c #B57E62",
"O. c #A97E76",
"+. c #7E847E",
"@. c #A9815E",
"#. c #89857B",
"$. c #9C8478",
"%. c #9A856E",
"&. c #BC8569",
"*. c #BB8468",
"=. c #A78473",
"-. c #BB8C74",
";. c #B78778",
":. c #BA947F",
">. c #C48566",
",. c #C28669",
"<. c #C98C6A",
"1. c #C98664",
"2. c #C69478",
"3. c #C28D77",
"4. c #6F6583",
"5. c #817E90",
"6. c #8B8B88",
"7. c #938B81",
"8. c #978481",
"9. c #8B8696",
"0. c #9C988C",
"q. c #AD8B83",
"w. c #A78B89",
"e. c #B68C86",
"r. c #AE9289",
"t. c #A89A8C",
"y. c #B4968C",
"u. c #B99C83",
"i. c #AD9592",
"p. c #B69D94",
"a. c #B29491",
"s. c #B8A386",
"d. c #ACA69A",
"f. c #B7A297",
"g. c #9E9BA8",
"h. c #A99DAB",
"j. c #A6A1AD",
"k. c #B1ACB8",
"l. c #CA9B82",
"z. c #C49C8C",
"x. c #D19C82",
"c. c #C79490",
"v. c #D4A289",
"b. c #DDA081",
"n. c #C2A192",
"m. c #C5AB99",
"M. c #D5A995",
"N. c #CFB197",
"B. c #C7A689",
"V. c #E1A98F",
"C. c #ECB89E",
"Z. c #CCA3A4",
"A. c #C9ABA6",
"S. c #D6B4A6",
"D. c #C1B0B4",
"F. c #DEB0B0",
"G. c #C4B1AD",
"H. c #E0AAA1",
"J. c #E5BEAA",
"K. c #DEC7A5",
"L. c #E8C8A8",
"P. c #F4CAA9",
"I. c #EAC7B3",
"U. c #EACCBF",
"Y. c #FDDCBC",
"T. c #F7D7BB",
"R. c #F0CAB8",
"E. c #FDE0BB",
"W. c #BDBBC6",
"Q. c #D8BFC9",
"!. c #CBBAC3",
"~. c #BAC2CC",
"^. c #C2C6C8",
"/. c #D8CFDB",
"(. c #DBD4DD",
"). c #DCD2D2",
"_. c #F4CFC0",
"`. c #FDDCC4",
"'. c #FCDBC6",
"]. c #E8CCDA",
"[. c #E6D9C1",
"{. c #FDE3C9",
"}. c #DBD4E3",
"|. c #DCDAE1",
" X c #DDDBEA",
".X c #D6D2EC",
"XX c #D3D4F5",
"oX c #DDCBEA",
"OX c #E0DCE9",
"+X c #E7DEE6",
"@X c #E3CEE9",
"#X c #DFEAF3",
"$X c #EAE9EE",
"%X c #E6E3ED",
"&X c #F2F3EE",
"*X c #EEECF2",
"=X c #E7E5F1",
"-X c #F2EDF5",
";X c #F2EDFA",
":X c #EEF2FA",
">X c #F5F5F5",
",X c #F9F9F4",
"<X c #F6F6FB",
"1X c #F9F7FD",
"2X c #F5F8FE",
"3X c #FCF8FE",
"4X c #F7F7F7",
"5X c #F5E1E8",
/* pixels */
"                                                                  ",
"                                                                  ",
"                                                                  ",
"                                                                  ",
"                                                                  ",
"                                i 2                               ",
"                            =.$.n W X.{ R                         ",
"                      n { [ l.v.-._ &.( W z                       ",
"                        P -.,.,.&.1.1.,.*.~ m                     ",
"                      $.z.v.<._ <.1.>.>.,.W E >                   ",
"                      8.[ 3.b.<.2.l.*.o.` ^ W R v                 ",
"                      p e.E o.&.) R L Y E U E L R T               ",
"                    | ' R ;.( ~ N.T.:.l l P I } c n               ",
"                      > l / 2.T.m.B.T.=.z j c v x                 ",
"                      x v ] I.Q k K.E.P.W R c b g                 ",
"                        p.=.S.. 0.%.E.Y.2.M.' g                   ",
"                        f.n.'.%.[.L.E.P.v.O.F x                   ",
"                        i.y.J.`.{.Y.L.M...; c                     ",
"                          T I.{.Y.P.l.! Q                         ",
"                          | A.R.L.x...=.                          ",
"                            | [ Y / }                             ",
"                            i.T -.;. .j.~.                        ",
"                          h.!.S.J.c.Q. X#X~.                      ",
"                          9./.(.).Q.-X2X2X$X^.                    ",
"                          5.}.-X*X;X2X<X3X+Xk.                    ",
"                          j.;X1X1X3X*X+X5X].D.                    ",
"                          g.=X=X$X4X$X| Z.Z.w.                    ",
"                          g.OXOX>X,X-X' F.H.q.                    ",
"                          j.%X*X4X,X*XD.e.C.;.                    ",
"                          j.<X<X4X4X;X].O.V.:.                    ",
"                          W.$X<X,X:XXX@Xr.C.u.                    ",
"                          |.|.1X&X XXXoXa.Y.s.                    ",
"                          (.|.-X X.XXX}.r.`.n.                    ",
"                            }.OX.XXXXX/.r.'.y.                    ",
"                            f 9.e 4.H Z r._.y.                    ",
"                            f + s s e * n.U.w.                    ",
"                            # d s b x R '.q.p.                    ",
"                            6 d d x T L.{.$.                      ",
"                            # @ 0 S f.T.T.t.                      ",
"                            # O a V A.S.m.f.                      ",
"                            6 o t A Z P p                         ",
"                            7 o a G A g $                         ",
"                            8 6 0 G G d 6                         ",
"                            8 9 4 G G d 6                         ",
"                            8 7 9 G G d 6                         ",
"                            6 6 4 G G d 6                         ",
"                            V # o C G B 6                         ",
"                            D # O N V a #                         ",
"                            D # O a a t 6                         ",
"                            D # o a a t 7                         ",
"                            f # + r r f #                         ",
"                            o # o s s 0 7                         ",
"                            o 5 O u w y 9                         ",
"                          < $ @ O y u w q                         ",
"                        , k p - $ f 0 N t B                       ",
"                    M k : 1 = % R > - - e h                       ",
"                    #.d.3 % % @.K & 1 * - p                       ",
"                      J k G.Q z K 1 2 , X                         ",
"                        +.^.d.f.u.s.t.0.D                         ",
"                          6.6.7.7.#.7.6.                          ",
"                                                                  ",
"                                                                  ",
"                                                                  ",
"                                                                  "
};
