/* XPM */
static char *_31b978deba34addd2bc5808097d9076NhUGjNzAskVHmfoU[] = {
/* columns rows colors chars-per-pixel */
"33 64 218 2 ",
"   c None",
".  c #382D2F",
"X  c #2E2A35",
"o  c #2D2C3B",
"O  c #392C39",
"+  c #3B3233",
"@  c #39343D",
"#  c #402D2F",
"$  c #473839",
"%  c #593D37",
"&  c #564135",
"*  c #56463B",
"=  c #65463F",
"-  c #282E40",
";  c #353344",
":  c #3C3343",
">  c #323348",
",  c #36384B",
"<  c #3A3B4A",
"1  c #3D3A47",
"2  c #3E3E55",
"3  c #363F50",
"4  c #2B364C",
"5  c #443E4A",
"6  c #443844",
"7  c #423F54",
"8  c #423F5B",
"9  c #3E425C",
"0  c #3E4156",
"q  c #4A424D",
"w  c #47424B",
"e  c #524449",
"r  c #574946",
"t  c #424154",
"y  c #4B4152",
"u  c #414159",
"i  c #4A495C",
"p  c #534958",
"a  c #5D5B46",
"s  c #684D46",
"d  c #68564C",
"f  c #785346",
"g  c #6E5B55",
"h  c #675556",
"j  c #785C56",
"k  c #746E5A",
"l  c #796458",
"z  c #6E6255",
"x  c #494C63",
"c  c #514D63",
"v  c #4D5165",
"b  c #585668",
"n  c #5B5B73",
"m  c #5B5B75",
"M  c #6A5F64",
"N  c #665F6A",
"B  c #605E79",
"V  c #5F6273",
"C  c #64626C",
"Z  c #6A6368",
"A  c #7D6C65",
"S  c #736A62",
"D  c #616272",
"F  c #62617A",
"G  c #756E74",
"H  c #79716D",
"J  c #8B5D4B",
"K  c #875A44",
"L  c #865D53",
"P  c #925B49",
"I  c #84624E",
"U  c #836356",
"Y  c #876459",
"T  c #886B5E",
"R  c #966B5A",
"E  c #A4725C",
"W  c #A7745A",
"Q  c #B17E5F",
"!  c #A16D58",
"~  c #9B6B66",
"^  c #85736C",
"/  c #867769",
"(  c #9C7A6E",
")  c #96766A",
"_  c #857576",
"`  c #9A7C77",
"'  c #846E68",
"]  c #A57B64",
"[  c #A47F6C",
"{  c #AA7563",
"}  c #AE7976",
"|  c #8F827B",
" . c #9A8278",
".. c #BB8668",
"X. c #A38375",
"o. c #A7897B",
"O. c #BA8371",
"+. c #B88B77",
"@. c #B4937D",
"#. c #B79179",
"$. c #A8806B",
"%. c #C1866C",
"&. c #C58965",
"*. c #C99A7C",
"=. c #C89376",
"-. c #D39473",
";. c #C08974",
":. c #C5A17D",
">. c #7A7B87",
",. c #837B84",
"<. c #918185",
"1. c #868691",
"2. c #8D9098",
"3. c #9A9094",
"4. c #AC8C84",
"5. c #A88C87",
"6. c #B38F83",
"7. c #A99489",
"8. c #BA9C8E",
"9. c #B39385",
"0. c #AA9494",
"q. c #A89995",
"w. c #B59693",
"e. c #B49B97",
"r. c #AF8795",
"t. c #BCA386",
"y. c #B9A796",
"u. c #B3A197",
"i. c #9798A8",
"p. c #9B8CA9",
"a. c #B18EA6",
"s. c #A59CA7",
"d. c #B29AA2",
"f. c #A58EA2",
"g. c #ACA2A6",
"h. c #A8A6B6",
"j. c #B9ADB1",
"k. c #BDB3B5",
"l. c #C69985",
"z. c #C69F91",
"x. c #C18685",
"c. c #D9A68F",
"v. c #D4AA8B",
"b. c #DFB28F",
"n. c #C9A597",
"m. c #DFAE93",
"M. c #D6B196",
"N. c #C9A88C",
"B. c #F1AC9F",
"V. c #E5B698",
"C. c #EAAB96",
"Z. c #C8ACA1",
"A. c #DFA6A8",
"S. c #C6B6A9",
"D. c #D7B9A2",
"F. c #D6BAA7",
"G. c #D6B6B9",
"H. c #E8BDA9",
"J. c #E0B1B9",
"K. c #EBC09F",
"L. c #DDC0AB",
"P. c #E8CAAD",
"I. c #F3D0AE",
"U. c #E4C9B8",
"Y. c #F4CDB7",
"T. c #EFD3B3",
"R. c #FADBBD",
"E. c #F5D1B7",
"W. c #F5CCA7",
"Q. c #ACAFC7",
"!. c #B9B9C8",
"~. c #BBBCD1",
"^. c #C2BACB",
"/. c #C5B4C6",
"(. c #C1BED1",
"). c #BCC1CE",
"_. c #C1C1CB",
"`. c #C7C0C7",
"'. c #D4CACD",
"]. c #C8C6D7",
"[. c #D5C6D8",
"{. c #D8D0DD",
"}. c #FCDDC2",
"|. c #FDDCC9",
" X c #FCDDD5",
".X c #E8D3DA",
"XX c #F6E3C4",
"oX c #FCE1C4",
"OX c #FBE4CB",
"+X c #EEE6D7",
"@X c #FEE1D7",
"#X c #CDCDEC",
"$X c #D2CDE1",
"%X c #D7D7E7",
"&X c #D5D3F5",
"*X c #CDD6E7",
"=X c #E7DDEB",
"-X c #E5D7E6",
";X c #E4DCF4",
":X c #E3DEFB",
">X c #D8E3EC",
",X c #DEE0F8",
"<X c #E4E1EB",
"1X c #EAE6E8",
"2X c #ECF2EE",
"3X c #F9F5EB",
"4X c #EBEFF8",
"5X c #E7E6F4",
"6X c #F5E9F8",
"7X c #ECF8F9",
"8X c #F4F5F5",
"9X c #FAF6F6",
"0X c #F4FAF4",
"qX c #F4F4FC",
"wX c #FBF4FC",
"eX c #F4FAFD",
"rX c #FBFBFB",
"tX c #F0E5E6",
/* pixels */
"                                                                  ",
"                                                                  ",
"                                                                  ",
"                                                                  ",
"                                                                  ",
"                                                                  ",
"                              d ~ )                               ",
"                  r r g g w.6.( ! +.( g                           ",
"                    ' 9.z.l.O.;.&...] f j                         ",
"                      K c.%.&.&.&.&.%.{ L j                       ",
"                    Y ] =.-.-.&.&.=.%.O.~ s                       ",
"                  g L O...-.-.&.+.l.W { R T '                     ",
"                  % ( E W ..Q W ] #.+.J J U /                     ",
"                    f J { R ] D.}.oXoXP.I T h                     ",
"                  r = f R [ L.XXXXP.t.@.o.g h                     ",
"                      T U % l XXOX& & 4.Z.s g                     ",
"                      5.X.S.U XXXX& y. .Z.A                       ",
"                      0.F.}.oX@.oXOX}.U.l                         ",
"                        ` T.R.H.:.}.U.l  .                        ",
"                        7.t.}.n.v.}.8.e.                          ",
"                          7.@.H.K.M.n.                            ",
"                        '.k.Y P K R 5.j.                          ",
"                    _.i.!.[.~ =.c.R 0.{.i.h.                      ",
"                  ^.%X2XqX6XG.n.U.w..XwX4X>X).!.                  ",
"                _.&XeX8XrXeX5X{.*X=XwX0XeXeX6Xp.                  ",
"                ^.;X9X3X8XwXeX9XeXwXwX0X2XwX6Xf.                  ",
"                j.F.F.y.tX%XwX0XwXqXqX0Xj.G.G.`                   ",
"                u.N.M.( -X;XqX0X6X1X0X0X<.A.A.L                   ",
"                u.b.l.w./.:X4X%X<X0X0X8Xg.x.B.J                   ",
"                X.V.l.e.^.#X%X<XrX3X0XeX^.} C.V.0.                ",
"                [ m.4.wX!.*X<XwXeX3X0XeX(.8.*.m.d.                ",
"                #.H.r.wX!.>X8XwXeX3X9X,X~.u.*.H.a.                ",
"              q.R.Y.d.[.*X7X8XwXeX3X=X&XQ.S.t.}.r.                ",
"              g.|.D.'.).5XqXeX7XwX;X&X#Xh.wXe. X6.                ",
"              s.OXD.k.>.5X1X1X1X=X%X%X$Xs.`.q.@X6.                ",
"              g.|.F.q.X y O # e h . @ y 5 3.q. X9.                ",
"              q.E.E.^ O : 6 e Z M p q : O h S.@X$.                ",
"              5.E.R.j O c p y , 1 t i c q $ Z.|.*.                ",
"              @.I.*.s : B b v 4 3 9 v n p $ ( Y.W.7.              ",
"              4.m.v.h 1 F n ,     4 x m b $ 4.U.V.q.              ",
"              4.@.) ^ t F c 1     o i m F ,._ o.l.                ",
"                      u F 5 @     X i F F 1.                      ",
"                      t F u <     o u F D 1.                      ",
"                      t B 2 <     o 2 n V 2.                      ",
"                      t F 2 <     o t n D 1.                      ",
"                      7 F 2 <     o t n n >.                      ",
"                      ; c u i     o t x u                         ",
"                      ; u u D     o u u >                         ",
"                      ; u u D     o u u >                         ",
"                      ; u u D     o u u >                         ",
"                      ; u u D     o u u >                         ",
"                      ; 8 u C     o u 7 ;                         ",
"                      > 8 u D     o u u t t                       ",
"                    b 2 9 9 V     - 9 9 0 v                       ",
"                    C 5 t t C     o t t t n                       ",
"                    Z 5 q 5 C     X w 6 w N                       ",
"                    M $ + r +     + $ r . .                       ",
"                    S A / z $     r * / | $                       ",
"                    _ +X+Xz H       d S.3X3.,.                    ",
"                    Z S k k         a k S G G                     ",
"                                                                  ",
"                                                                  ",
"                                                                  ",
"                                                                  "
};
