/* XPM */
static const char *VHJlZSUyODElMjk_[] = {
/* columns rows colors chars-per-pixel */
"42 64 150 2 ",
"   c #161C2E",
".  c #171F31",
"X  c #172132",
"o  c #182435",
"O  c #182937",
"+  c #1A2639",
"@  c #1B2B3B",
"#  c #1F3034",
"$  c #1A313C",
"%  c #1C393D",
"&  c #252533",
"*  c #2B2936",
"=  c #262F3F",
"-  c #203334",
";  c #2E3736",
":  c #223B39",
">  c #373139",
",  c #3C343B",
"<  c #40363D",
"1  c #43383D",
"2  c #493C3F",
"3  c #274238",
"4  c #29483A",
"5  c #1D2C40",
"6  c #1C3542",
"7  c #1D3B45",
"8  c #1E3F49",
"9  c #203346",
"0  c #21364A",
"q  c #23394D",
"w  c #253C51",
"e  c #4D3E41",
"r  c #1E4342",
"t  c #1F4944",
"y  c #1E444C",
"u  c #1F4A51",
"i  c #204E47",
"p  c #284E44",
"a  c #255C4C",
"s  c #244254",
"d  c #204D53",
"f  c #28455A",
"g  c #254D5B",
"h  c #2A495E",
"j  c #215257",
"k  c #225956",
"l  c #23545B",
"z  c #2B505F",
"x  c #225A5D",
"c  c #366E49",
"v  c #3E7747",
"b  c #31724F",
"n  c #246251",
"m  c #24635B",
"M  c #2C6558",
"N  c #266B5E",
"B  c #28745A",
"V  c #2A7C5E",
"C  c #337550",
"Z  c #2A4D60",
"A  c #275461",
"S  c #295462",
"D  c #255D62",
"F  c #295C65",
"G  c #285F68",
"H  c #256465",
"J  c #2C6262",
"K  c #276F64",
"L  c #2C6E65",
"P  c #266668",
"I  c #286469",
"U  c #276C6C",
"Y  c #28696B",
"T  c #2B7264",
"R  c #2D7E66",
"E  c #27716F",
"W  c #28756D",
"Q  c #2A7C6D",
"!  c #4E4041",
"~  c #554344",
"^  c #584644",
"/  c #5E4A46",
"(  c #634D44",
")  c #654E49",
"_  c #74584B",
"`  c #795B4D",
"'  c #647447",
"]  c #846253",
"[  c #886552",
"{  c #8F6A53",
"}  c #916B53",
"|  c #A77A54",
" . c #3C8251",
".. c #2D8364",
"X. c #2D8C65",
"o. c #2B836C",
"O. c #2D8C6B",
"+. c #318F66",
"@. c #388E67",
"#. c #358D69",
"$. c #2F956A",
"%. c #369464",
"&. c #3B9463",
"*. c #379B67",
"=. c #3A9D66",
"-. c #319669",
";. c #349A68",
":. c #3DA065",
">. c #5B814A",
",. c #4B934F",
"<. c #5B914F",
"1. c #419B5D",
"2. c #4C9E59",
"3. c #759951",
"4. c #45A25F",
"5. c #4FA75E",
"6. c #4CAB5E",
"7. c #52AE5C",
"8. c #57B057",
"9. c #55B25B",
"0. c #5AB659",
"q. c #6BA655",
"w. c #63B95A",
"e. c #6ABB5B",
"r. c #76BF5C",
"t. c #419464",
"y. c #429C63",
"u. c #42A563",
"i. c #45A661",
"p. c #46A761",
"a. c #44A562",
"s. c #42A462",
"d. c #49A060",
"f. c #47A861",
"g. c #48A960",
"h. c #49AA60",
"j. c #48A860",
"k. c #7CC15C",
"l. c #A2B85A",
"z. c #88C55E",
"x. c #8FC85E",
"c. c #95CA5F",
"v. c #AFC85F",
"b. c #9ECD60",
"n. c #ADD261",
"m. c #A9D061",
"M. c #B1D362",
"N. c #BDD763",
"B. c None",
"V. c black",
/* pixels */
"B.B.B.B.B.B.B.B.B.B.B.B.B.B.B.B.B.B.B.B.B.B.B.B.B.B.B.B.B.B.B.B.B.B.B.B.B.B.B.B.B.B.",
"B.B.B.B.B.B.B.B.B.B.B.B.B.B.B.B.B.B.B.B.B.B.B.B.B.B.B.B.B.B.B.B.B.B.B.B.B.B.B.B.B.B.",
"B.B.B.B.B.B.B.B.B.B.B.B.B.B.B.B.B.B.B.B.B.  B.B.B.B.B.B.B.B.B.B.B.B.B.B.B.B.B.B.B.B.",
"B.B.B.B.B.B.B.B.B.B.B.B.B.B.B.B.B.B.B.B.B.  B.B.B.B.B.B.B.B.B.B.B.B.B.B.B.B.B.B.B.B.",
"B.B.B.B.B.B.B.B.B.B.B.B.B.B.B.B.B.B.B.B.  l.B.B.B.B.B.B.B.B.B.B.B.B.B.B.B.B.B.B.B.B.",
"B.B.B.B.B.B.B.B.B.B.B.B.B.B.B.B.B.B.B.B.' N.; B.B.B.B.B.B.B.B.B.B.B.B.B.B.B.B.B.B.B.",
"B.B.B.B.B.B.B.B.B.B.B.B.B.B.B.B.B.B.B.B.v.N.>.B.B.B.B.B.B.B.B.B.B.B.B.B.B.B.B.B.B.B.",
"B.B.B.B.B.B.B.B.B.B.B.B.B.B.B.B.B.B.B.; N.N.c.  B.B.B.B.B.B.B.B.B.B.B.B.B.B.B.B.B.B.",
"B.B.B.B.B.B.B.B.B.B.B.B.B.B.B.B.B.B.B.3.N.N.N.4 B.B.B.B.B.B.B.B.B.B.B.B.B.B.B.B.B.B.",
"B.B.B.B.B.B.B.B.B.B.B.B.B.B.B.B.B.B.3 n.b.N.m.q.  B.B.B.B.B.B.B.B.B.B.B.B.B.B.B.B.B.",
"B.B.B.B.B.B.B.B.B.B.B.B.B.B.B.B.B.B.<.M.b.x.e.n.: B.B.B.B.B.B.B.B.B.B.B.B.B.B.B.B.B.",
"B.B.B.B.B.B.B.B.B.B.B.B.B.B.B.B.B.- n.e.x.z.0.r.1.  B.B.B.B.B.B.B.B.B.B.B.B.B.B.B.B.",
"B.B.B.B.B.B.B.B.B.B.B.B.B.B.B.B.B.v w.0.w.x.6.9.9.n B.B.B.B.B.B.B.B.B.B.B.B.B.B.B.B.",
"B.B.B.B.B.B.B.B.B.B.B.B.B.B.B.B.- 0.0.7.w.k.9.&.7.6.r B.B.B.B.B.B.B.B.B.B.B.B.B.B.B.",
"B.B.B.B.B.B.B.B.B.B.B.B.B.B.B.B. .0.6.6.0.r.0.6.a 4.+.% B.B.B.B.B.B.B.B.B.B.B.B.B.B.",
"B.B.B.B.B.B.B.B.B.B.B.B.B.B.$ B 7.4.b 0.0.0.0.0.%.r V X.i B.B.B.B.B.B.B.B.B.B.B.B.B.",
"B.B.B.B.B.B.B.B.B.B.B.B.B.t ..=.C % 2.7.&.6.:.6.9.m O r O B.B.B.B.B.B.B.B.B.B.B.B.B.",
"B.B.B.B.B.B.B.B.B.B.B.B.B.  % r . M 7.W a.=.=.$.a.O.d B.B.B.B.B.B.B.B.B.B.B.B.B.B.B.",
"B.B.B.B.B.B.B.B.B.B.B.B.B.B.B.  x =.o.o.=.g.$.$.;.;.W X B.B.B.B.B.B.B.B.B.B.B.B.B.B.",
"B.B.B.B.B.B.B.B.B.B.B.B.B.B.B.y o.-.$.o.$.a.$.$.$.$.O.d B.B.B.B.B.B.B.B.B.B.B.B.B.B.",
"B.B.B.B.B.B.B.B.B.B.B.B.B.B.@ W -.g.$.$.;.$.$.O.O.$.$.W X B.B.B.B.B.B.B.B.B.B.B.B.B.",
"B.B.B.B.B.B.B.B.B.B.B.B.B.6 W -.6.a.$.$.u.*.-.y.W ;.f.$.k y X B.B.B.B.B.B.B.B.B.B.B.",
"B.B.B.B.B.B.B.B.B.B.B.O y Q #.7.g.&.$.u.6.9.a.9.t.#.0.-.*.y x u B.B.B.B.B.B.B.B.B.B.",
"B.B.B.B.B.B.B.B.B.  6 P P x 0.8.c V =.0.9.0.0.0.0.@.6.a.6.V O X B.B.B.B.B.B.B.B.B.B.",
"B.B.B.B.B.B.B.B.B.B.  X : ,.,.p K $.6.0.9.0.a.d.0.9.-.9.=.;.u B.B.B.B.B.B.B.B.B.B.B.",
"B.B.B.B.B.B.B.B.B.B.B.B.# - @ E $.*.0.7.;.6.0.o.y.0.u.-.-.$.Q @ B.B.B.B.B.B.B.B.B.B.",
"B.B.B.B.B.B.B.B.B.B.B.B.B.y W $.=.9.y.O.;.-.9.:.Q *.9.;...$.$.W $ B.B.B.B.B.B.B.B.B.",
"B.B.B.B.B.B.B.B.B.B.B.B.y o.$.;.g.-.O.9.0.;.*.9.;.O.$.$...n W O.E j B.B.B.B.B.B.B.B.",
"B.B.B.B.B.B.B.B.B.B.X y o.O.O.$.$.%.9.0.0.-.$.-.u.$.$.O.$.V O j D d X B.B.B.B.B.B.B.",
"B.B.B.B.B.B.B.B.B.$ D E W P $.O.W 7.0.0.a.:.=.$.$.O.$.N N o.y     B.B.B.B.B.B.B.B.B.",
"B.B.B.B.B.B.B.B.8 P P j 6 K Q W 5.0.0.9.-.6.$.$.$.O.W $.a y H B $ B.B.B.B.B.B.B.B.B.",
"B.B.B.B.B.B.B.B.B.    @ U o.Q 5.0.a.=.=.;.=.$.$.$.W E o.$.O.w 6 O B.B.B.B.B.B.B.B.B.",
"B.B.B.B.B.B.B.B.B.B.X P O.O.5.f.u.6.$.$.$.$.$.-.$.O.o.W O.$.J f . B.B.B.B.B.B.B.B.B.",
"B.B.B.B.B.B.B.B.B.6 P o.$.$.;.$.;.-.$.$.$.$.$.:.$.$.=.$.o.$.O.S x 6 B.B.B.B.B.B.B.B.",
"B.B.B.B.B.B.  6 H W O.O.o.Q $.$.o.O.$.$.$.o.o.6.-.$.6.$.$.$.a ..E U y B.B.B.B.B.B.B.",
"B.B.B.B.B.B.B.  O O y j W $.;.O.O.-.$.;.$.W W 6.6.9.u.7.$.$.$.7 u P E y   B.B.B.B.B.",
"B.B.B.B.B.B.B.B.B.O g Q $.a.u.$.$.g.*.u.$.Q O.=.0.0.0.0.:.V V W u O $ B.B.B.B.B.B.B.",
"B.B.B.B.B.B.B.o w h T $.a.=.$.$.a.6.6.;.$.$.o.$.0.;.7.9.9.$.d n T H o B.B.B.B.B.B.B.",
"B.B.B.B.B.y x G T O.$.o.o.Q $.=.9.-.6.$.O.$.O.$.:.=.-.:.0.$.Y f + B.B.B.B.B.B.B.B.B.",
"B.B.B.B.B.@ x E W E P 8 z R =.9.*.$.$.R L -.$.$.$.-.E O.u.$.o.h w B.B.B.B.B.B.B.B.B.",
"B.B.B.B.B.B.  O O O q f F ;.6.*...R $.S E =.*.O.$.$.W W O.$.$.F h o B.B.B.B.B.B.B.B.",
"B.B.B.B.  @ q 0 5 f h S +.a.%.J J $.W U E O.g...S $.O.E E W o.W h s X B.B.B.B.B.B.B.",
"B.B.B.B.+ w @ 0 h Z L ..T J z L $.o.o.W E Q ;.O.I F o.W U E I E F h g 8   B.B.B.B.B.",
"B.B.B.B.B.@ s S Y S S h h h h Y W O.o.E E O.o.$.Q E E E Y I I s Y F Z Y P d y   B.B.",
"B.B.B.6 d P U E U S f h h F Y E o.Q E Y E Q Q Q O.E E E E F E d 9 D U P j y O B.B.B.",
"B.B.B.X y D I F h q 0 S Y E E E U E Y Y E E W E W E E F E U E Q d . O O   B.B.B.B.B.",
"B.B.B.B.B.. + + X 6 h h h Z S F S E S Y U E U Y E E E S x W O.O.O.N t $   B.B.B.B.B.",
"B.B.B.B.B.B.B.  7 I F S h h h s F Y I F Y E S F I E E U y P Q O.O.o.Q P O B.B.B.B.B.",
"B.B.B.B.B.  d P E U S S G I 6 w U E I f Y Y f f h U Y E U y x E W H y O B.B.B.B.B.B.",
"B.B.B.B.B.B.X $ j x x x y O X f Z Z s w Y h w S w s S U U G 7 @ O . B.B.B.B.B.B.B.B.",
"B.B.B.B.B.B.B.B.B.      B.  l S h f O f h 6 = Y S @ 9 s g F U P D O B.B.B.B.B.B.B.B.",
"B.B.B.B.B.B.B.B.B.B.B.  s D U E A o 7 E f & < s E F g d O 9 g y O B.B.B.B.B.B.B.B.B.",
"B.B.B.B.B.B.B.B.B.B.B.B.@ s x y   8 P P @ & ) * j P E j   B.B.B.B.B.B.B.B.B.B.B.B.B.",
"B.B.B.B.B.B.B.B.B.B.B.B.B.B.B.      , & _ ( } e         B.B.B.B.B.B.B.B.B.B.B.B.B.B.",
"B.B.B.B.B.B.B.B.B.B.B.B.B.B.B.  > > [ 1 { / | , 2 B.B.B.B.B.B.B.B.B.B.B.B.B.B.B.B.B.",
"B.B.B.B.B.B.B.B.B.B.B.B.B.B.B.B.^ ( ( e ~ e ` 2 e , B.B.B.B.B.B.B.B.B.B.B.B.B.B.B.B.",
"B.B.B.B.B.B.B.B.B.B.B.B.B.B.B.B., ] * ) * ] , / B.B.B.B.B.B.B.B.B.B.B.B.B.B.B.B.B.B.",
"B.B.B.B.B.B.B.B.B.B.B.B.B.B.B.B.B.B.! B.B.B.B.B.B.B.B.B.B.B.B.B.B.B.B.B.B.B.B.B.B.B.",
"B.B.B.B.B.B.B.B.B.B.B.B.B.B.B.B.B.B.B.B.B.B.B.B.B.B.B.B.B.B.B.B.B.B.B.B.B.B.B.B.B.B.",
"B.B.B.B.B.B.B.B.B.B.B.B.B.B.B.B.B.B.B.B.B.B.B.B.B.B.B.B.B.B.B.B.B.B.B.B.B.B.B.B.B.B.",
"B.B.B.B.B.B.B.B.B.B.B.B.B.B.B.B.B.B.B.B.B.B.B.B.B.B.B.B.B.B.B.B.B.B.B.B.B.B.B.B.B.B.",
"B.B.B.B.B.B.B.B.B.B.B.B.B.B.B.B.B.B.B.B.B.B.B.B.B.B.B.B.B.B.B.B.B.B.B.B.B.B.B.B.B.B.",
"B.B.B.B.B.B.B.B.B.B.B.B.B.B.B.B.B.B.B.B.B.B.B.B.B.B.B.B.B.B.B.B.B.B.B.B.B.B.B.B.B.B.",
"B.B.B.B.B.B.B.B.B.B.B.B.B.B.B.B.B.B.B.B.B.B.B.B.B.B.B.B.B.B.B.B.B.B.B.B.B.B.B.B.B.B."
};
