/* XPM */
static char *test1[] = {
/* columns rows colors chars-per-pixel */
"64 64 252 2 ",
"   c #143CB8",
".  c #343EBA",
"X  c #2F3DB7",
"o  c #1B45B8",
"O  c #1D4ABA",
"+  c #1557B9",
"@  c #1959B7",
"#  c #1250B2",
"$  c #2548BB",
"%  c #3746BD",
"&  c #2959B9",
"*  c #3855BD",
"=  c #2A57AC",
"-  c #1C67BB",
";  c #2B69BC",
":  c #3266BA",
">  c #3074BE",
",  c #454CBD",
"<  c #4051B9",
"1  c #4265BD",
"2  c #193DDA",
"3  c #113DC7",
"4  c #263DDC",
"5  c #363AD4",
"6  c #1948CA",
"7  c #1A54C6",
"8  c #1A45DA",
"9  c #1C4AD7",
"0  c #1B5CDA",
"q  c #1D5AD4",
"w  c #254BC1",
"e  c #2B4CC5",
"r  c #2847CA",
"t  c #3346C2",
"y  c #3B4DCB",
"u  c #344DC7",
"i  c #2958CA",
"p  c #2856C7",
"a  c #345ACE",
"s  c #3C5CCB",
"d  c #3855C9",
"f  c #2A46D5",
"g  c #264AD8",
"h  c #3446D6",
"j  c #3B4ED5",
"k  c #3443DD",
"l  c #364BD7",
"z  c #2A54D4",
"x  c #2A54DC",
"c  c #2758D9",
"v  c #3D54D4",
"b  c #345BD4",
"n  c #3C5BD4",
"m  c #3C56DC",
"M  c #335CDA",
"N  c #3C5BDC",
"B  c #3355D8",
"V  c #1967C7",
"C  c #1B69D5",
"Z  c #1867D6",
"A  c #196ECD",
"S  c #2564C9",
"D  c #2B68C9",
"F  c #336DCD",
"G  c #3868C7",
"H  c #2B73CD",
"J  c #2576C8",
"K  c #3874C8",
"L  c #2D63DC",
"P  c #2A68D6",
"I  c #3463D2",
"U  c #3B64D5",
"Y  c #346CD3",
"T  c #3C6CD5",
"R  c #3C63DB",
"E  c #3C6BDC",
"W  c #3468DB",
"Q  c #2C73DD",
"!  c #2974D3",
"~  c #3B75D4",
"^  c #3776D8",
"/  c #1C4AE2",
"(  c #1B58E3",
")  c #254CE3",
"_  c #374AE3",
"`  c #2B54E3",
"'  c #2459E6",
"]  c #2B52EC",
"[  c #295AE9",
"{  c #2959E5",
"}  c #3B57E6",
"|  c #335DE4",
" . c #3A5AE5",
".. c #3D5CEB",
"X. c #3658E9",
"o. c #395AF9",
"O. c #385AF4",
"+. c #2F56F6",
"@. c #1C62E9",
"#. c #2C65E7",
"$. c #3463E4",
"%. c #3C64E3",
"&. c #346CE5",
"*. c #3D6BE2",
"=. c #3365EB",
"-. c #3B65EB",
";. c #346CEB",
":. c #3B6DEC",
">. c #2B73E6",
",. c #2D75EC",
"<. c #3D72E3",
"1. c #3372EB",
"2. c #3D73EC",
"3. c #3A78E6",
"4. c #2A66F2",
"5. c #3968F5",
"6. c #3C73F4",
"7. c #3979F8",
"8. c #474BC7",
"9. c #455ACE",
"0. c #4757C9",
"q. c #525ECA",
"w. c #444CDB",
"e. c #445BD3",
"r. c #445DDC",
"t. c #4758D6",
"y. c #535CDB",
"u. c #5459D7",
"i. c #426BCD",
"p. c #4766CA",
"a. c #5465CB",
"s. c #4475CB",
"d. c #4464D5",
"f. c #456BD5",
"g. c #4C6BD4",
"h. c #4463DC",
"j. c #4B65DA",
"k. c #456BDC",
"l. c #4A6BDB",
"z. c #4A65D4",
"x. c #536DD6",
"c. c #5564DA",
"v. c #5668D8",
"b. c #4674D4",
"n. c #4A73D4",
"m. c #4B7BD6",
"M. c #4573DC",
"N. c #4C73DC",
"B. c #4D7ADA",
"V. c #437ADB",
"C. c #5575D9",
"Z. c #557ADC",
"A. c #5477D7",
"S. c #5174C7",
"D. c #6073DC",
"F. c #4446E5",
"G. c #4C5BE3",
"H. c #4A5AEB",
"J. c #4558E6",
"K. c #5258E5",
"L. c #525CEE",
"P. c #414FF0",
"I. c #495BF7",
"U. c #515EF8",
"Y. c #4564E3",
"T. c #4B63E3",
"R. c #446BE4",
"E. c #4B6BE4",
"W. c #4463EB",
"Q. c #4A64EA",
"!. c #436DEB",
"~. c #4C6BEB",
"^. c #5363E4",
"/. c #536BE4",
"(. c #5263EC",
"). c #546CEA",
"_. c #5B69E5",
"`. c #4473E4",
"'. c #4473EA",
"]. c #4B73ED",
"[. c #437BEC",
"{. c #4D7AEC",
"}. c #4978E3",
"|. c #5373E4",
" X c #527BE3",
".X c #5473EB",
"XX c #547AEB",
"oX c #5C77E9",
"OX c #4C6DF4",
"+X c #4B6AFA",
"@X c #4765F5",
"#X c #5363F4",
"$X c #526BF3",
"%X c #5B6AF4",
"&X c #536AF9",
"*X c #5867FA",
"=X c #4C74F3",
"-X c #427AF3",
";X c #4D7BF3",
":X c #4B73FC",
">X c #417AFF",
",X c #4C7AFB",
"<X c #4274F4",
"1X c #5273F4",
"2X c #5473FB",
"3X c #5B75FB",
"4X c #537BFD",
"5X c #5B76F7",
"6X c #6669E5",
"7X c #636BEB",
"8X c #6277E9",
"9X c #636BFC",
"0X c #6869FA",
"qX c #716DFF",
"wX c #6678F9",
"eX c #717AF9",
"rX c #3882D6",
"tX c #2D82D0",
"yX c #3985E6",
"uX c #3D82FA",
"iX c #3A88FB",
"pX c #2B80F4",
"aX c #4C85DD",
"sX c #4686DB",
"dX c #5381DC",
"fX c #5C83DC",
"gX c #4491DE",
"hX c #678DDB",
"jX c #4D85EB",
"kX c #4A8AEE",
"lX c #4884E4",
"zX c #5E8CE3",
"xX c #5787E9",
"cX c #5D91E7",
"vX c #4787F7",
"bX c #5A84F3",
"nX c #5C8AF4",
"mX c #5584FE",
"MX c #5D8AFD",
"NX c #5688F8",
"BX c #4895FB",
"VX c #5493FC",
"CX c #5992F8",
"ZX c #4492EE",
"AX c #6487E9",
"SX c #6895E4",
"DX c #6389F5",
"FX c #6B86FF",
"GX c #6587F8",
"HX c #6C94FF",
"JX c #6695F8",
"KX c #7191FA",
/* pixels */
"+X+X:XBXBXh f l !.!.;.>.L t t M =.=.FXFX}.! ! i G s w.w.-.:. .r w ;.>X,XqXqX8XA.A.% % e z c uXuX'.9.9.&.>.1._._.#X#X#X+XOX2.Q Q ",
"+X+X-XBXBXg r l ~.!.>.1.$.t t M =.=.FXFX'.! ! D a d w.F.-.-.M w w 5.7.,XqXqX8XA.C.% % w z z uXuX'.9.0.Q >.1._._.*X&X+XOXOX:.&.Q ",
"m } :.vXvXM x M R.R.c c c W R *.!.'.N.N.^ ^ ^ h.R m } l ;.*.&.%.%.;XmXJXwXeX8X7XoXU I U b b &.P *.|.|.{.[.{././.~.:X$X).~.=X'.'.",
". . n 6.7.,.,.1.%.%.z 6 c vXvXjXXX X= = ~ jXkX#XU.O./ / >.,.yXmXmXHXHXHXAXAXwX0X0XyXyX^ T Y O o a MXmXGXFXGX'.'.{.;X{.x.x.8XwXwX",
". . n -X6.,.,.;.Y.R z 6 c vXvXjX{.}.= = K jXjXU.U.O./ / >.>.3.mXNXHXHXKXAXAXwX0X9XyXyX3.T T O o I mXmXFXGXGX}.].{.;XXXx.x.8XwXFX",
"D ; D ! ! M { | '.'.$X&XOXk.k.P V V R R  .=.=...J._ k _ B  .N t.t.s.dXn.8.0.a.x.C.F.P. .$.#.{ { | R h.j.l.E.3X4X).c.^.eXeXE.b i ",
"; : H H ! { ` | '.'.*X*X$Xk.d.S 7 V %.R $.| 4.} } _ _ _ m m v t.9.g.s.s.8.8.z.n.n.F.F.} #.$.[ [ | n n d.j.E.wX3X_.c.c.eXeXk.i i ",
"i.K G H H c x | ].].1X$X).Y.*.P C C '.'.:.6.;.m m B k k B  .N r.r.n.m.m.%.d.l.Z.C.F.J. .| { [ [ ` b M k.M.`.,X;Xc.c.y.eXeXl.I I ",
"7X7Xh.S 7 0 0 L 1X1XN.b.M.4.5.5.:.2.xXkXZXiXiX; & $ t % L $.$.5.-.xXAXcXvXvXkX X X).).Q.} } ' ' ) 0 c <.}.3.>.>.f.a.a.6X6X|.`.}.",
"6X7Xh.i S 0 0 #.;X1XN.n.M.5.5.;.;.:.xXCXBXiXiX& & & t t W &.-.5.5.xXcXcXiXvXkX X X).).Q.} ..' ' ' x c *.`.3.>.1.f.a.a.6X6X|.V.`.",
"=.-.&.P P Y.~.R. XXXd.G G U R p.i.S.[.}.}.Z.B.M R L D I 2.2.!.G.G.h.k.k.`.}.=XOXOXoX5X1X1X,X-.5.=.b b N d.e.8.y 9.f.f.}.lXxXAXSX",
"4.4.#.P P ~.).). X XG d d p.p.p.S.S.`.'.N.A.A.|  .L ! ! '.<X'.y.K.r.n N M.`.~.+X+X5X5X3XmXmX<X6.-.b b v t.8.. 8.9.k.d.yXyXcXSXKX",
";.;.;.E E l./.C.Z. Xb a a s s n.S.S.<.E l.N.Z.W.-.-.^ Q '.[.].^.T.h.N h.*.*.!.+X+X).).].,X1X!.:.*.h.h.e.p.9.8.0.9.R d.yXyXjXAXAX",
"Q.Q.XXJXJXi.K i.d.f.| ] ` f g N.cXdX$ $ n ].].*X9X3X:X:XxXjXjXkXkXQ.J...' ( <XmXmX; ; z k _ Y Y }.FXFXm.s.m.HXHXU $ p bXmXE.n e.",
"Q.Q.XXJXJXs.G K f.n.[ [ ) g g M.zXdX$ $ b =X=X9X9X3X,X:XjXjXjXkXkXQ.H.J.( ( 6.mXmX; - i k k T T }.GXFXsXsXsXHXHXU $ p bXbXE.n e.",
"OXOX@X!.!.p * d l.Y.:.7.5.N N R.[.'.#.$.=.@X@X9X9X9X&X&X . .%.=X=X} k k p r b N n r r M R  .1.1.;. . .E ^ <.J.H.z q c m.m.M.:.!.",
":X:X5.[ [ w $ u T.T.-XuXvXY.Y.:.:.:.4.7.5.5.o.9X9X9X%X#Xk f ] +X+X_ 5 5 w w w % % 5 5 m `.M.7.7.4.8 2 ;.3.&.4 4 x 0 Z s.s.V.-X-X",
":X:X-.c ` e w d h.Y.-XuX7.Y.Y.:.:.:.7.4.5.o.o.9X9X%X*X%X_ ) _ +X+X_ k h e p t t t k k N M.3.7.iX4.8 8 &.<.&.5 f c 0 c s.i.M.6.<X",
"7X7Xt.  # Y.~.*.H H -...<XCXCXoX_.^.4 4 g i z M.M.{.mXVX9X9X#Xg g ,.pXuX4X4X~.T.Y.4.4.yXyXgXJXJXxXd d t.t.v S S -XmXmX'.'.!.6.<X",
"7X7Xe.o   %.!.*.H H ;.5.!.CXCX5X_.^.4 4 g i i M.M.{.VXmX9X9X#X8 g ,.iX7.4X4X~.T.Y.4.4.yXgXgXJXHXXXd y t.t.n S S [.mXmX'.'.<X6.:.",
"_.).d.* * j.j.l.rX^ `.R.'.ZXlX{.1X].z c z I S L P 3.VXVX5X5XOXI.O.:.6.2.^ V.E.G.G.L L ! tXtXCXCXxXC.A.9.d 9.^ ^ 2.7.6.&XOXY.M M ",
"Q.E.z.a.a.a.y.v.sXsXA.x.g.! ! [.,X,XV D H F F 0 0 1.VXVXvX{.1X*X*X#X!.`.> > d.K.G.D S J tXJ jXxXAXSXhXG * G rXrX4.@.4.*X*XN w $ ",
"~.E.z.a.a.c.c.x.sXsXN.x.N.! ! -X,X,XS S H Y F 0 0 1.VXVX;XXX;X*X*X~.~.*.> > d.L.G.D S J J J xXxXcXSXhXp.d G rXrX>.@.4.*X*Xm w w ",
"GXGXwXwXwXv.x.|.3X3XG.n r.4X:X<.Q E JXJXnXxXbXm.m.C.x.x.g 8 M aXlXxXfXZ././.T.Q.Q.6 6 L 3.[.DXJXDX4X4Xy % u ~ ~ e.8.0.N N T.).^.",
"GXGXGXwXwXx.x./.5X3XY.v r.,X4X'.W E JXHXJXNXNXZ.m.C.v.v.g 8 c lXaXdXfXZ./.^.T.Q.W.6 6 L [.-XJXJXMX4X4Xy % u ~ ~ 9.8.8.N N T.).).",
"oXbXoX).XX~.~.].bX8XU b R $X+X%.M R NXCXXX1X.X}.lX}.|.|.x 9 c <.k.|.oXoXXXXXY. .X.] ` | %.-.XXoXXXOXOXu % u f.p.9.0.9.G.T.h.z.z.",
"'.].}.M.N.6.5.-XzXcXF D S (.Q.J.k _ 3.3.E.K.L.uX7.vXmXmX#.c x f g K.7X%XkXkX$.) ) I.5.O.h h K.y.J.} ..t % % 0.1 n b N 5X5Xf.: = ",
"'.`.`.M.}.5.5.-XSXcXF S I (.(._ k k 3.rXY.K.K.7.vXvXmXmX#.c c g g ^.7X8XkXkX| ) ) 5.I.} h h y.K.J...| t % % 1 p.a b R 5X5Xg.= : ",
", % 8.u.a.2X4X;XlX Xr.w.r.4XmX%.z M hXzXM.B B u l p - V k.^.).vXvX^ ! ! f.b.g 8 2 vXBX:X#XI.~.E.J._ _ t.q.u.l l b P Y 7.7.iXvXZX",
". . , u.u.3X4X;X}.lXJ.w.J.mXmX%.z z SXSXn.z z t t $ + + v.6XoXBXBXQ ! H i.f.x 2 / BXBX,X&X*X~.~.Y._ _ u.a.u.f h b Y Q pXyXvXBXBX",
", , 8.y.c.OX~.].lXsXY.G.Q.5XbXR.R U xX Xk.b n u u p + + l.x. XZXvXQ ! H l.R.x 2 4 kXvX'.W.@X~.!.J._ _ y.c.t.l _ M P W ;.1.7.NXkX",
"_.^.%X%X%X8.y U gXgXkXvX;X_._.|.fXdX( ( R c.c.v v u o O G K K 3.yXK K ~ 3XwXF.5 5 a d D G G R.!.W.} } -.-.5.I.I.N R n r r e.x.C.",
").).).#X%X8.y U gXgXkXvX;X_._.Z.fXZ.( ' N v.c.n v u $ $ K K K 3.3.~ K ~ MX3XJ.5 5 a a G D G !.!.Q.} } -.:.-.I.P. .U b r r e.x.x.",
"K G `.;X:XT.G.Q.;XvXbXDXDX_.)._.C.C.R.:.~.OX=Xm.m.i.& & x.Z.m.tXrXJ A C :.!.j.c.z.xXdXm.K J V.^ W f g | ;.6.4XmX,X-X=X#XL.*.H H ",
"> K ~ iXuXQ.(.).,X,XnXJXDX).).C.C.Z.{.XX;X<X:XlXaXn.* * C.8X X^ tXC Z C &.&.M.C.A.cXSXgXtXtXrX^ b 3 2 [ 5.6.VXVXVXmXvX9X9X<.A J ",
"K : ^ uXuX(.(.(.=X:X5XAXXX/.~.C.C.C.{.;X;X:X:XXXlXn.0.9.v.8X}.rXtXQ C C &.1.k.x.g.cXcXlXtXtXF F b 8 g =.1.6.VXBXvX,X:X9X*X<.A ! ",
"S.n.V.iXiXc.u.u.F.F.5 r r 9.s n.dXdXmX4XmXvXvXI.I.#X6X6X_ _ } lXlXT b U kXkXN r f xXkXzXhXhX6 3 9 5.5.iXiXvXlXlXK.y.y.T.Q.3.yXrX",
"p.g.}.iXiXy.u.u.F.F.f r r a s n.dXdX4XmX4XvXvXI.I.#X6X6X_ _ } lXlXU a U kXkXM r r xXcXzXhXfX6 3 9 1.;.iXiXiXlXaXc.u.y.W.Q.`.yXyX",
"E <.2.6.6.r.e.K.%X7Xt.t.t.u y s d.d.3.`.:.-.-.5X5X].T W P.I.@X;X-Xj.r.r.k.h.B g g ~.~.l.S.a.i i P 3.E L c c s.i.n l B b b $.#.$.",
",.,.;.5.-.} m Q.eXeX6Xa.q.h h l j v Q Q L  .` GXGX}.Z Z @X&X*X+X:XT.y.y.v v ] ) ) H.H.e.p.p.T T T ~ ^ 6 6 r p.1 z 8 9 p i x ] ] ",
",.,.;.5.5.n m Y.FXeXD.a.u.h h l j v Q ! L ` x GXAX}.C C @X#X#X:X:X^.y.y.v v x ) ) J.J.r.i.p.T U ~ ^ ~ 6 3 r 1 p.g 9 8 i i x ] ] ",
"4.#.$. . .G > ~ VXVXQ Z c . % % < * ! ! U y.y.s.sX> : : u y 0.hXhX .) x X X T.mX4Xg 8 -.MXmX8.* z.MXGX|./.k.c c [ +.+.o.o.B & & ",
">.#.&.$.%.D ; ~ VXVX>.Z q % X % < * ! ! d.y.y.s.~ K : ; u u 9.hXhX%.` x X X E.mXmX8 8 ;.VXVX8., z.GXMXXXN.T.c { [ +.+.o.o.b = & ",
"7.7.2.-X].}.V.lXNXNX&.c c u u e.g.j.U G n t.t.sXaXf.p d f f m xXoXr.m v 9.d h.k.E.[ | -.:.2.M.`.'.].].~.T.Y.;.;.[ ] ] L M T i.G ",
"BXBXVXDXDXMXMXmX;X;XJ.}  .M M =XmXmX0.t.t.j v xXxX'._ k / 2 ] ,X4Xj.0.9..X~.s u u OXOX..) ) vXBXvXL L J.H.W.>X>X[ 9 z G D b.XXXX",
"BXBXVXGXMXMXMXNX;X;XW. . .M b =XbX5Xt.0.d j v xXxXR.4 k 2 2 ) vX4Xz.0.9.~.).n % u OX+X=./ x BXBXyXM P J.H.H.>X>X{ g q D G n.oXxX",
"_.7Xx.K G  XxXXX~.Q.vXiXuXrXrXsXaXaXF.F.#X4X4X5.5.4.6 7 ( @.0 + + 9 / / ] ] g 3 6 M.M.h.e.t./ ' ) j j y.y.y.i.n.N.}.<.0 ( Z A C ",
"6X6Xx.: : m. XE.Q.Y.uXiXiXrXrXsXsXV.F.F.@X4X4X5.7.( # 7 ( +.Z + + 0 / / ] ] 9 3 3 M.M.h.e.r./ / ) j j t.u.c.p.p.C. X<.( ( Z C C ",
"7X7XE.F D `.'.'.E.E.-XvXkX^ V.m.A.m._ _ J.E.).5.@X#.q c @.( @.V C Z ( '  .| L c c g.z.p.9.e.z c m J.} G.(.T.n.i.N.XX}.;.;.&.! P ",
"3X3X=XQ >.5.5.:.m.m.{.=X=XT.T.v.6XD.c g d , , G.H.J.;.;.( ( @.pX7.,.,.1.g.l.lXZXZX8.8.0.p.p.i.p.j.*X*X:X,X;Xm.m.E.Q.~.HXHXAXC.C.",
"3X4X[.>.Q 6.5.:.m.m.{.;X=Xj.T.v.v.v.c g d , , G.H.W.5.;.( ( @.,.pX,.,.1.g.x.jXZXZX8.8.0.p.9.p.p.Y.*X*X:X,X;Xm.m.E.Q.~.HXHXAXC.C.",
"S & ~ fXdXbXnXXXh.*.~ ~ ~ N.Z.z.9.e.+.O.~.oXD.2X&X=X].;Xw.j B D I #.+.5.+X=X:.;.:.T.G.~.;X].q.1 a.C.|.m l  .NXVXoXoXoXG G '.1X1X",
"@ @ G SXfXJXJXbX%.%.F K K m.m.p.d v o.o..XAXAX2X2X1X XXXw.w.w.d d X.+.o.:X+X5.=.=.W.T.OX4X4Xq.q.p.A.dX8.5 j CXCXAXAX Xp & *.:X:X",
"- & K Z.fXoX8X.XR.~.^ K b.b.n.z.e.r.o.5.].oXAX$XOX).E.N.8.y y U U | =.X.'.2.;.=.=.~.@X~.~.=Xp.9.n.dXm.t.k J.jXNXoXoX X& & L -X=X",
"H ! f.v.c.F.F.H.5X5XlXdXV.r r ).FXFX].~.~.Y.W.s s s G G - - H 2X2XT H H - V P [ #.>X>X$.t r :.<X[.jXjX3.3.&.d d <.[.3.o o D ^ sX",
"H H T v.v.F.F.K.5X%XxXaXV.r r .XFXFX=X].~.W.T.s s s i : - - D 2X2X~ H D ; V Z [ [ >X7.%.e e :.:.[.lXjX[.2.*.s s <.-X<.o   F rX^ ",
"z.a.g.XX|.L.L.H.....NXxXkX&.&.T.y.j.}.N.R.-.-.&.:.E U I R.!.].&X&Xf.G T ^ 3.F D F R.E.R B z %X%XOX=.&.D S G XXXX.XXX.Xn.n.h.b n ",
"v.v.x.{.{.%X%XI.] ] kXCXVX6.6.r.j 8.n.m.<.=.4.6.7.;.T T :X2X2X&X$Xj.i.f.NX;X~ : : f.j.R M M 0X0X#X' ' 7 & D GXDX8X7X7XzXxXh.h k ",
"a.v.v.;X.X$X#XQ.] X.;XCXkX1.1.N y 9.aXdX`.;.$.6.5.*.T E ~.:X&X#X*Xl.f.d.vXkX~ G : j.j.R M M 9X0X#X{ { p @ i DXnX5X7X5XAXzXh.h l ",
"T G {.wXwXE T R.wXwXi @ @ + + i c M SXSXfXb.b.N m Y._._.r 6 z H.H.I.@X+XyXyX~ G G W Q I i i T.(.H.O.P.f r b vXZX1X2X&X(.(.U p & ",
"F F `.wXwX<.W '.wXwXD @ @ + + q c c SXSXfXn.n.m m r._._.z 6 g H.H.U.@X@XyXyX~ G G E Q I i p (.L.H.O.P.f w z vXvX4X2X2X^.(.n p & ",
"R h./.AX8XM.E `.~.).p $ $ + + D 1.<.kXjXY p i s n r.^.^.c L &.;X;X@X@XW.~ b.b.E E i i i i i d.z.Y...-.b a U CXZX4X+X2X%X%Xr.z b ",
"H.H./.fXfX}.2.'.W.W.e $ $ + + ^ kXlX,.,.c     s 9.t.K.K.&.>.yXBXBX=XQ.T.1 1 T '.<.w w e i i G G Y ,.;.Y T n.NXCX,X:X:X%X%XW.} ..",
"J.H./.fXfX`.'.'.W.:.p $ $ + + ^ kXlX,.>.q     s s e.K.K.&.>.7.VXBX=XQ.T.1 : f.2.<.w w p i i G G Y ,.,.T T M.nXnX1X+X2X%X%XH.} } "
};
