/* XPM */
static char * bush1_xpm[] = {
"64 64 190 2",
"  	c #A6D563",
". 	c #A7D568",
"+ 	c #A4D35D",
"@ 	c #ACDB69",
"# 	c #AAD964",
"$ 	c #A0CF5C",
"% 	c #C1F276",
"& 	c #B1E166",
"* 	c #A9DA5E",
"= 	c #BCEC74",
"- 	c #A9D76A",
"; 	c #A8D764",
"> 	c #A6D85E",
", 	c #B9E96F",
"' 	c #9BCB55",
") 	c #B3E36B",
"! 	c #C3F37C",
"~ 	c #9ECD5A",
"{ 	c #161C2E",
"] 	c #A2D357",
"^ 	c #98C754",
"/ 	c #95C552",
"( 	c #A2B85A",
"_ 	c #A7D862",
": 	c #647447",
"< 	c #BDD763",
"[ 	c #2E3736",
"} 	c #AFC85F",
"| 	c #5B814A",
"1 	c #95CA5F",
"2 	c #83B33E",
"3 	c #93C34D",
"4 	c #759951",
"5 	c #29483A",
"6 	c #274238",
"7 	c #ADD261",
"8 	c #9ECD60",
"9 	c #A9D061",
"0 	c #6BA655",
"a 	c #90C046",
"b 	c #8BBA46",
"c 	c #5B914F",
"d 	c #B1D362",
"e 	c #8FC85E",
"f 	c #6ABB5B",
"g 	c #223B39",
"h 	c #203334",
"i 	c #88C55E",
"j 	c #5AB659",
"k 	c #76BF5C",
"l 	c #419B5D",
"m 	c #3E7747",
"n 	c #63B95A",
"o 	c #4CAB5E",
"p 	c #55B25B",
"q 	c #246251",
"r 	c #90BF4C",
"s 	c #52AE5C",
"t 	c #7CC15C",
"u 	c #3B9463",
"v 	c #1E4342",
"w 	c #88B744",
"x 	c #3C8251",
"y 	c #255C4C",
"z 	c #45A25F",
"A 	c #318F66",
"B 	c #1C393D",
"C 	c #B8E773",
"D 	c #1A313C",
"E 	c #28745A",
"F 	c #31724F",
"G 	c #369464",
"H 	c #2A7C5E",
"I 	c #2D8C65",
"J 	c #204E47",
"K 	c #C6F87E",
"L 	c #9FD05A",
"M 	c #AFE06A",
"N 	c #AEE067",
"O 	c #1F4944",
"P 	c #2D8364",
"Q 	c #3A9D66",
"R 	c #337550",
"S 	c #4C9E59",
"T 	c #3DA065",
"U 	c #24635B",
"V 	c #182937",
"W 	c #99CA4D",
"X 	c #B6E570",
"Y 	c #BFF079",
"Z 	c #B7EA6A",
"` 	c #C7F882",
" .	c #171F31",
"..	c #2C6558",
"+.	c #28756D",
"@.	c #44A562",
"#.	c #2F956A",
"$.	c #2D8C6B",
"%.	c #204D53",
"&.	c #225A5D",
"*.	c #2B836C",
"=.	c #48A960",
"-.	c #349A68",
";.	c #172132",
">.	c #BEF075",
",.	c #1E444C",
"'.	c #319669",
").	c #1B2B3B",
"!.	c #9FD056",
"~.	c #97C854",
"{.	c #1C3542",
"].	c #42A563",
"^.	c #379B67",
"/.	c #429C63",
"(.	c #47A861",
"_.	c #225956",
":.	c #96C84F",
"<.	c #2A7C6D",
"[.	c #358D69",
"}.	c #419464",
"|.	c #1F4A51",
"1.	c #266668",
"2.	c #57B057",
"3.	c #366E49",
"4.	c #388E67",
"5.	c #4B934F",
"6.	c #284E44",
"7.	c #276F64",
"8.	c #49A060",
"9.	c #1F3034",
"0.	c #27716F",
"a.	c #215257",
"b.	c #255D62",
"c.	c #266B5E",
"d.	c #8DBC4A",
"e.	c #1E3F49",
"f.	c #4FA75E",
"g.	c #256465",
"h.	c #85B541",
"i.	c #276C6C",
"j.	c #253C51",
"k.	c #2C6262",
"l.	c #28455A",
"m.	c #295462",
"n.	c #1D3B45",
"o.	c #254D5B",
"p.	c #182435",
"q.	c #2A495E",
"r.	c #2B7264",
"s.	c #285F68",
"t.	c #28696B",
"u.	c #1A2639",
"v.	c #2B505F",
"w.	c #2D7E66",
"x.	c #2C6E65",
"y.	c #23394D",
"z.	c #295C65",
"A.	c #21364A",
"B.	c #1D2C40",
"C.	c #244254",
"D.	c #BEEE79",
"E.	c #2A4D60",
"F.	c #286469",
"G.	c #CBFB83",
"H.	c #203346",
"I.	c #23545B",
"J.	c #262F3F",
"K.	c #275461",
"L.	c #252533",
"M.	c #40363D",
"N.	c #654E49",
"O.	c #2B2936",
"P.	c #3C343B",
"Q.	c #74584B",
"R.	c #634D44",
"S.	c #916B53",
"T.	c #4D3E41",
"U.	c #373139",
"V.	c #886552",
"W.	c #43383D",
"X.	c #8F6A53",
"Y.	c #5E4A46",
"Z.	c #A77A54",
"`.	c #493C3F",
" +	c #584644",
".+	c #554344",
"++	c #795B4D",
"@+	c #846253",
"#+	c #4E4041",
"$+	c #C5F681",
"      .           +   +   + + + + @ # $ # % % & * & % = @ $ + - ; ;             ; . + + . + + ; ; ; ; + + + + + ; ; $ ; ; ;     ",
"  -   .     ; ;     * # >   * # +     + * # & , % , & ; ; ; ; $ ; ;         .   + . ; . . ; ; + + + ; + ; ; ; ; ; + ; ; ; ;     ",
".   .       +     ; # + $ $ + # ; + + # * ' * ) ! , + ~   @ ; $ {               . + ; + + + . . ; + + ; ; ; ; + $ + ; ;       ; ",
"  .             ; # * $ ] ^ ] * -     - * $ ] & ) & * ] + ; + ; {               ; + . . ; . + ; ; + + ; ; + $ ^ ~ + ; + $ $     ",
"              +   ; ; $ ^ / $ $ . . . . ; + + ; ~ + ; * + + + { (           .   ; . + ; $ .     ; + $ ; ; $ ' / ~ + ; ; ; $ + ; ",
"  . -   ; - _ _ + + * + ] $ + * $ .   $ ; # # $ + * * * + * * : < [             + . . + ;       ; + - + ; ; $ ~ $ + + ; + ; + ; ",
"          +           ; ; + ; ;   . . +   -   $ ; ; + + * * * } < |             + ; ; + ; . ;     + -   ; ; ; + ; + ; ; + ; + ; ",
"  $ + $ + + + $     ; * ; ;     . - - - - ;   $ + + ; * + + [ < < 1 {           . + . . ; + ; ; + - +   $   ; ; ; ; + + ; ; ; + ",
"; 2 2   @ 3 2 / + ;   + ; + ; ; . . . . .       # *     * ] 4 < < < 5 @ ; $ $ - -   +   ;     ;   -             $ ; # + ] ; ; ] ",
"$ 3 / +   ^ 3 / ; + ; + + ;       . .   . . .   ;   + * + 6 7 8 < 9 0 { ; ; ; ;     ;   .     $                 ; ; + + ; + ; ; ",
"+ + $ a b ^ +         ;           .     . . . . ; +   + * c d 8 e f 7 g - @ - $ $ ; -   ; ; ;   - $   -         ; $ $ ; ; ] ] + ",
"# & + a 2 $ # # +                   .   $ . . . .       h 7 f e i j k l { $ + ; - + $   ; ; ; - - -   -         ] # & ; ] & # + ",
"+ * + + +     $         .   -     +       . . $ .       m n j n e o p p q r / - @ ^ r $ - ; ; ;   - - .         ; ! % ; ] , % & ",
"+ + + ; # * + +                         . . . . . . . h j j s n t p u s o v r   ; r w ~ - ; $   - $ . . - -     @ ! ! ; ] = ! , ",
"# * + + + + ; ;             .             . . . . . . x j o o j k j o y z A B ^ ^ ^ ^ +   ;     $ . . $     + ; - , C , ) , , & ",
"+ ; ; +       ;                   $           . . D E s z F j j j j j G v H I J b $ -   $ ; ;   - . . -     ; ; ; ^ # ! K ) ] $ ",
"+ + ;           L . M M _ _ _ N M _ $ . . _ L _ O P Q R B S s u o T o p U V v V W $ + + + ; ; +     - $           - - , X - ; ; ",
"    ; ; . ; - ; _ M Y Y > L Z ` M . $   - _ + > { B v  ...s +.@.Q Q #.@.$.%.$ $ $ + ; ; * ; * +       -         $ $ ; - - ; + $ ",
"      +         L M Y X N _ Z Y M . .   . + _ > * + { &.Q *.*.Q =.#.#.-.-.+.;.+ ; ; ; + ~ + ; ;             $ -   + ;   ; + ; ; ",
";   + ;     +   . L _ M >.>.Z > M . .   _ _ + > + ] ,.*.'.#.*.#.@.#.#.#.#.$.%.; + ; ; ~ W W ] +         -   -   - - ; ; ; ; ; ; ",
"N L + _       _ M L L M Y Y M L - .     _ _ $ _ ; ).+.'.=.#.#.-.#.#.$.$.#.#.+.;.+ ; $ ^ W ^ + ;                   $           $ ",
"!.~.~.L       _ _ . . M - _ M _ _ . .   . $ $ _ {.+.'.o @.#.#.].^.'./.+.-.(.#._.,.;.; + ' $ ; ;         -       $               ",
"~.:.:.!.$ + $ _ L . . . . ~.L .   .         V ,.<.[.s =.u #.].o p @.p }.[.j '.^.,.&.|.; $ ; - ;                 - ; ;   + -     ",
"!.!.!.+ # $   _ . _ . . . M . L         { {.1.1.&.j 2.3.H Q j p j j j j 4.o @.o H V ;.; ; ; ; $                     - $ $       ",
"> * > !._ L . _ L . . . . . . L -   $ - - { ;.g 5.5.6.7.#.o j p j @.8.j p '.p Q -.|.; ; + ;         - ; ; - -     - - - - ;   ; ",
"!.* * > _ L _ . . . . L L L . .       _       9.h ).0.#.^.j s -.o j *./.j ].'.'.#.<.).$ ; +     ; + ; $ $ ^ $ - ; ^ ^ $ ; ;   ; ",
"> > > > _ _ L . . . . . L . _ _             .   ,.+.#.Q p /.$.-.'.p T <.^.p -.P #.#.+.D ; ; +           ^ b /   $ r b ~ - ; $ - ",
"> > > L _ . . . . . . . _ . _ _   _ -       - ,.*.#.-.=.'.$.p j -.^.p -.$.#.#.P q +.$.0.a.+ ;       ;   $ r / $ $ / / $ - ; + ; ",
"> _ +       L . . L . . . _ . _ + _ _     ;.,.*.$.$.#.#.G p j j '.#.'.].#.#.$.#.H V a.b.%.;.  -         +   ^ r ^ $ + ; ; ; ; $ ",
"+ _       _ . . . . L . . L L _ + L $ + D b.0.+.1.#.$.+.s j j @.T Q #.#.$.#.c.c.*.,.{ { - -     $     $ ; - $ b r $ - ; $ ; - ; ",
"_ + _   _   . . L . . . ~.d.L _ ~ 3 ~.e.1.1.a.{.7.<.+.f.j j p '.o #.#.#.$.+.#.y ,.g.E D . .             ;     ^ $ $ ; ; ; ; ; ; ",
"+ _ + _       . . . - . b h.~.M ~.b b + { { ).i.*.<.f.j @.Q Q -.Q #.#.#.+.0.*.#.$.j.{.V - $ ; ; -     - ; ; - @ @ ; $ ; - - $ $ ",
", ] ] , % & $ ; -   + $ $ $ ^ r / ~ + - $ ;.1.$.$.f.(.].o #.#.#.#.#.'.#.$.*.+.$.#.k.l. .W ' * ; + ; ; ;     ; ; $ ;     ;       ",
"% * ] % ! & + ; + +   - - $ ^ r ^ $ ; ; {.1.*.#.#.-.#.-.'.#.#.#.#.#.T #.#.Q #.*.#.$.m.&.{.' ] + ; + ; +     $ -     ; -     - $ ",
", & & , , & + ; + + - - - . ^ r $ { {.g.+.$.$.*.<.#.#.*.$.#.#.#.*.*.o '.#.o #.#.#.y P 0.i.,.+ + $ ; ; ; ;   ; ; $     $     ; $ ",
"& % K & $ + * + ; ; $     - ; ; + - { V V ,.a.+.#.-.$.$.'.#.-.#.+.+.o o p ].s #.#.#.n.|.1.0.,.{ ; ; ; $ ; ; $ ; - ;   ;   ;   ; ",
"+ % ! & ' + ; + ; ; + + + ; * @ +   + + V o.<.#.@.].#.#.=.^.].#.<.$.Q j j j j T H H +.|.V D ; $ ; ; ; $ ; ; ; $ ; ; ; ;   -   $ ",
"# * ; ; ; + ; ; ; ; ; ; ; ; + +     p.j.q.r.#.@.Q #.#.@.o o -.#.#.*.#.j -.s p p #.%.q r.g.p.+ ; ; $ ; ; $ ; ; ;   ; $ ;   $ $ ; ",
"- $ ~ + ; + $ ; ; + ; + * + + + ,.&.s.r.$.#.*.*.<.#.Q p '.o #.$.#.$.#.T Q '.T j #.t.l.u.; ; ; $ ; ; $ ; ; $ ; + ; ; + ; ; $ ; $ ",
"; ; ; ; + + ; ; + ; ; * + * + + ).&.0.+.0.1.e.v.w.Q p ^.#.#.w.x.'.#.#.#.'.0.$.].#.*.q.j.; ; ; $ + ; ; + ; ; + ; ; $ ; ; ; ; ; $ ",
"- . . $ .       ; + ; * ; + ; * & { V V V y.l.z.-.o ^.P w.#.m.0.Q ^.$.#.#.+.+.$.#.#.z.q.p.      ; ; $ ; $ ; ; $ ; $ $ ; ; + + ; ",
". . . . .       + + ~ ' + * * { ).y.A.B.l.q.m.A @.G k.k.#.+.i.0.$.=.P m.#.$.0.0.+.*.+.q.C.;.    $ ) C C & ; - D.C @ + ; ; + + + ",
". - . .   .   . ; $ / ^ $ ; ; u.j.).A.q.E.x.P r.k.v.x.#.*.*.+.0.<.-.$.F.z.*.+.i.0.F.0.z.q.o.e.{ ; @ D.! C ; & G.C & ; ; ; ; ; + ",
". $ . . .       ; + ^ ^ + * ; + ).C.m.t.m.m.q.q.q.q.t.+.$.*.0.0.$.*.#.<.0.0.0.t.F.F.C.t.z.E.t.1.%.,.{ C C ) , , , ; $ + ; + ; ; ",
"  . -     $ -   - ; + + ; ; {.%.1.i.0.i.m.l.q.q.z.t.0.*.<.0.t.0.<.<.<.$.0.0.0.0.z.0.%.H.b.i.1.a.,.V + # = ! C ; ; ; * ; * + ; ; ",
"      - .       ; ; - - ; + ;.,.b.F.z.q.y.A.m.t.0.0.0.i.0.t.t.0.0.+.0.+.0.0.z.0.i.0.<.%. .V V { ; ; ; + & = , + + ; # * + + + ; ",
"                    - ;     ; ;  .u.u.;.{.q.q.q.E.m.z.m.0.m.t.i.0.i.t.0.0.0.m.&.+.$.$.$.c.O D { $ ; ; + + & # ] * ; ; ; ; + * + ",
"                        - ; ; ; # $ { n.F.z.m.q.q.q.C.z.t.F.z.t.0.m.z.F.0.0.i.,.1.<.$.$.*.<.1.V + + + ; ; + + ; + + + $ * ; ; ; ",
". r w ^ # ; + ; + ; * ; ; + ; ; { %.1.0.i.m.m.s.F.{.j.i.0.F.l.t.t.l.l.q.i.t.0.i.,.&.0.+.g.,.V _ + ; ; + + ; * + + ;             ",
"^ r / $ # + + # * + + ; ; ; ; ; ; ;.D a.&.&.&.,.V ;.l.E.E.C.j.t.q.j.m.j.C.m.i.i.s.n.).V  ._ + + + * ; ;   $   ;   ;           ; ",
"r ^ $ . ; ] + * * + + ] - ; ;   ; ;   - { { { . { I.m.q.l.V l.q.{.J.t.m.).H.C.o.z.i.1.b.V   $ _ + + * ; $ W ' @                 ",
"/ ~ - - + + ; ; * ; ; ;     -       -   . . { C.b.i.0.K.p.n.0.l.L.M.C.0.z.o.%.V H.o.,.V   + _ + * + ; ; ~ 3 ^ +     ;           ",
"^ - ; - + ; + $ ^ ~ ; ;           ; . .   -   ).C.&.,.{ e.1.1.).L.N.O.a.1.0.a.{         + + . . # + + + + ' ~ ;   _ .           ",
"$ ; - ; + ; ; ' a ^ $   $     ; ;   . ; -   - ;   + { { { P.L.Q.R.S.T.{ { { { _         . .   . ; + $ ; ; + + @   + _ _     _ . ",
". - $ + ; ; ; $ ^ ~ + +   $   ;   ;   ;     ;   - $ { U.U.V.W.X.Y.Z.P.`.@ ] + -         . . . . ; + + * ; ; # ; +     + . _     ",
"    + $ + ; ; + ; ; ; ;   +   - -   ; ;   ;   ; ; + +  +R.R.T..+T.++`.T.P.; ~         . $ . . . + * * * + * * + +   + + .     _ ",
"$ + ; $ $       ; ; + ; ; ; ; ; .     $ - # ; + + + ; P.@+O.N.O.@+P.Y.% X + + ; .     . $ . . . _ L > _ _ L L _ _ _   _ _ _ _ _ ",
"; + ; ; ; +     ; ; # + r b ^ ; ^ d.d.  # $ + # ; ; + + + #+; @ % % % & * + + ;     .   . . . + _ > L > > _ X K Y   L Y $+M L   ",
"; ] $ ; - +     $ - # $ a b ^ # / w r   @ + $ # *           $ $ % ! C + ] + ; +         . . . . > L > > > > Z Y Y _ _ Y $+M L . ",
"+ ^ ^ $ -   + ; + ; ; ; + ~ ^ ^ / $   $ ; # ; ' ^ ] $ ; ; ; .     ) @ + $ ; ; + +     . . + + + :.:.L > > L > N M C Y M _ _ . _ ",
"] W 3 $     $ - - + $ ; # ; 3 2 ^ - # $ $ @ * 3 r ^ + ;       . $ + ; + + +   + +     _     _ L :.:.:.] > > L > M K ` M ~.L _ + ",
"+ ~ ~ + -   - - ; ; ; ; # + ' 3 ~   - + + + * $ W ] ; ; . $ .   - + + ; ; + + ; +     + +   _ _ L L ] ] > L _ > _ M M _ _ _ _ _ ",
"+ ; + + - + -     - # ; $ ; ; ; ; + ; # # * ; * * ; # # .     . @ ; + . ;   + ; +   _ + _ + _ > > > > > > > > L _ !.L _ _ _ + _ ",
"+ * ; ; $         - # + + + * * - ; ; + + $ ] + ] + +                 ; ; . ; + _   _   + + > _ :.!.> > > > _ _ _ _ _ + _   L _ "};
