/* XPM */
static char *bush1[] = {
/* columns rows colors chars-per-pixel */
"64 64 229 2 ",
"   c #5D2E0B",
".  c #55320A",
"X  c #58340B",
"o  c #622C0C",
"O  c #602F17",
"+  c #613119",
"@  c #603017",
"#  c #0B5101",
"$  c #0C5A01",
"%  c #0E520D",
"&  c #155401",
"*  c #1A5506",
"=  c #195801",
"-  c #19570F",
";  c #0E5212",
":  c #115313",
">  c #165416",
",  c #225718",
"<  c #185726",
"1  c #9C6C13",
"2  c #A06F14",
"3  c #B67016",
"4  c #BA7417",
"5  c #149602",
"6  c #159D02",
"7  c #16AD00",
"8  c #17B200",
"9  c #153DB8",
"0  c #343EBA",
"q  c #3B439F",
"w  c #2C5A9F",
"e  c #26629F",
"r  c #1A43BA",
"t  c #1B4BB8",
"y  c #1557B9",
"u  c #1B59B8",
"i  c #1959B7",
"p  c #2857AC",
"a  c #3259AC",
"s  c #2549BB",
"d  c #3B4DB1",
"f  c #295ABB",
"g  c #2A56B5",
"h  c #3659BA",
"j  c #2C4CAC",
"k  c #2664A9",
"l  c #3769A9",
"z  c #2A6BB7",
"x  c #3D62BC",
"c  c #3567B8",
"v  c #3C72BB",
"b  c #3672AC",
"n  c #40489F",
"m  c #4755A2",
"M  c #444BBD",
"N  c #4659BA",
"B  c #5664AD",
"V  c #4767B5",
"C  c #587ABD",
"Z  c #5266B6",
"A  c #1B59C4",
"S  c #1C5BD8",
"D  c #1A49CB",
"F  c #264CC3",
"G  c #294BC9",
"H  c #384CC6",
"J  c #2956C7",
"K  c #2A54CA",
"L  c #2B59CB",
"P  c #2A5AC6",
"I  c #345ACD",
"U  c #3758C8",
"Y  c #3449D6",
"T  c #2B55D4",
"R  c #2A53DC",
"E  c #2759D9",
"W  c #295ADA",
"Q  c #2558D7",
"!  c #345BD4",
"~  c #3C5BD4",
"^  c #335CDB",
"/  c #3D5ADC",
"(  c #2A48D4",
")  c #1966D6",
"_  c #2E68C2",
"`  c #2D68C9",
"'  c #2864C8",
"]  c #3C61C5",
"[  c #3868C7",
"{  c #3B6ACC",
"}  c #3568CA",
"|  c #2B72CD",
" . c #3773C8",
".. c #2B68D7",
"X. c #2E63DC",
"o. c #3B6AD4",
"O. c #3966D8",
"+. c #2A73D5",
"@. c #3474D3",
"#. c #3C72D4",
"$. c #3873DC",
"%. c #2A5AE5",
"&. c #2B57E8",
"*. c #3A57E5",
"=. c #3559E8",
"-. c #375AF3",
";. c #1D63E9",
":. c #2B65E9",
">. c #3D6BE2",
",. c #3769E9",
"<. c #2C73E6",
"1. c #2E75EC",
"2. c #3B78E6",
"3. c #3372EB",
"4. c #3A74E7",
"5. c #2A66F2",
"6. c #3C73F4",
"7. c #3A79F8",
"8. c #3B69F6",
"9. c #464DC9",
"0. c #464BC6",
"q. c #4657CA",
"w. c #455ACE",
"e. c #495BC2",
"r. c #445CD4",
"t. c #455DDB",
"y. c #525BD8",
"u. c #4967C9",
"i. c #5465CB",
"p. c #5468C3",
"a. c #4974C5",
"s. c #4475CB",
"d. c #4A7ACB",
"f. c #5776C6",
"g. c #597BC6",
"h. c #4464D5",
"j. c #446BD4",
"k. c #4B6CD4",
"l. c #4463DC",
"z. c #4A65DA",
"x. c #446BDC",
"c. c #4A6BDB",
"v. c #4A65D5",
"b. c #546CD6",
"n. c #5C6CD1",
"m. c #5565DA",
"M. c #556AD9",
"N. c #5A69DE",
"B. c #4672D6",
"V. c #4B73D5",
"C. c #4B7BD5",
"Z. c #4573DD",
"A. c #4C74DD",
"S. c #4A7BDC",
"D. c #437ADB",
"F. c #5676D8",
"G. c #646AC5",
"H. c #607CD1",
"J. c #4649E5",
"K. c #4A5BEB",
"L. c #4855E6",
"P. c #505AEB",
"I. c #4656F2",
"U. c #4564E3",
"Y. c #4C6BE4",
"T. c #4A6AEA",
"R. c #4668E8",
"E. c #526BE4",
"W. c #546CEB",
"Q. c #5665E8",
"!. c #4473E3",
"~. c #4A78E3",
"^. c #4473EA",
"/. c #4A73EC",
"(. c #447AEC",
"). c #4D7AEC",
"_. c #4977E4",
"`. c #5373E4",
"'. c #527BE3",
"]. c #5274EB",
"[. c #5379EB",
"{. c #5D7AE9",
"}. c #4B6BF6",
"|. c #5A69F3",
" X c #5867FA",
".X c #546AF8",
"XX c #5368F5",
"oX c #4C7AF2",
"OX c #4975F7",
"+X c #5274F4",
"@X c #5B74F5",
"#X c #5676FB",
"$X c #6669E5",
"%X c #626CEB",
"&X c #6177E9",
"*X c #657AE8",
"=X c #6569FA",
"-X c #6477F6",
";X c #6278F7",
":X c #6678F9",
">X c #6377F8",
",X c #717AF9",
"<X c #3880D6",
"1X c #3985E6",
"2X c #3C83F9",
"3X c #4783C9",
"4X c #4788D7",
"5X c #5C82DD",
"6X c #5487D8",
"7X c #6688D2",
"8X c #4985E9",
"9X c #5887E6",
"0X c #4A91E7",
"qX c #5792E6",
"wX c #4685F6",
"eX c #4A89F4",
"rX c #5483FD",
"tX c #5988F5",
"yX c #4793F8",
"uX c #5691F7",
"iX c #6386E9",
"pX c #6589E5",
"aX c #6693E4",
"sX c #6586F9",
"dX c #6B86FF",
"fX c #6288F6",
"gX c #6B93FE",
"hX c #6493F7",
"jX c #728DE5",
/* pixels */
"p.E._.qX0XH H H V.k.o.@.} j d U O.O.*XjX- & = & & & & = & & = & & & & = & & = & = & & = f I 8X1XV.N N B.@.@.G.G.E.N.E.E.M.D. .v ",
"b.}.(.yXyXR G Y T.^.<.3.,.H H ! ,.:.dXdX: # # # # # # # # # # # # # # # # # # # # # # # K T 7.2X!.w.q.+.<.3.W.Q. X.X}.}.}.,.<. .",
"N *.,.wXwX^ R ^ U.U.E T W X./ O./.^.A.A.% # # # # # # # # # # # # # # # # # # # # # # # ! ! ,...R.`.`.[.(.).E.E.T.OX.XW.T./.!.V.",
"q 0 ~ 6.7.1.1.3.>.,.T D E wXeX8X[.'.p p % # # # # # # # # # # # # # # # # # # # # # # # { @.t r I uXrXsXdXsX^./.[.oX).M.b.*X:X*X",
"q 0 ~ (.6.1.1.3.U.O.T D E wXwX8X; # # % 7 8 8 8 8 8 8 8 6 6 6 6 6 6 6 6 5 6 6 6 6 6 6 5 # # # # } rXrXdXdXfX)./.).oX[.b.b.&X:XpX",
"c z ` +.+.^ %.X.^.^.XXXX}.x.x.X.; # # # 7 8 8 8 8 8 8 8 6 6 6 6 6 6 6 6 6 6 6 6 6 6 6 6 # # # # =.O.l.z.c.Y.#X#XW.m.E.,X,XY.! h ",
"l z | | +.%.%.=.^.^. X X.Xx.v.' ; # # # 7 8 8 8 8 8 8 8 6 6 6 6 6 6 6 6 6 6 6 6 6 6 6 6 # # # # W ~ ~ h.z.T.:X@XQ.m.m.,X,Xx.L h ",
"m  .[ | | Q T =././.+X+XW.U.>...; # # # 7 8 8 8 8 8 8 8 7 5 6 6 6 6 6 6 6 6 6 6 6 6 6 6 # # # # %.! ^ x.B.!.OXoXm.m.y.,X,Xx.O.x ",
"G.%Xl.' A S S X.}.+X~.V.: # % # 5 6 6 6 6 6 6 6 6 6 6 6 6 6 6 6 6 6 6 6 6 6 6 6 6 6 6 6 6 6 6 6 # % # # Z.2.1.1.j.i.i.$X$X`.!.d.",
"G.%XU.L L S S :.oX+XA.V.; # # # 5 6 6 6 6 6 6 6 6 6 6 6 6 6 6 6 6 6 6 6 6 6 6 6 6 6 6 6 6 6 6 6 # # # # !.4.<.3.k.i.i.$X$X`.D.V.",
"] ,.,.....>.T.!.~.[.v.[ ; # # # 5 6 6 6 6 6 6 6 6 6 6 6 6 6 6 6 6 6 6 6 6 6 6 6 6 6 6 6 6 6 6 6 # # # # h.r.0.H w.j.j._.8X9XiX7X",
"[ 5.:.....R.W.W.'.'.{ U ; # # # 5 6 6 6 6 6 6 6 6 6 6 6 6 6 6 6 6 6 6 6 6 6 6 6 6 6 6 6 6 6 6 6 # # # # r.0.0 0.w.x.v.1X1XqXaXjX",
"[ ,.,.O.O.c.E.F.F.'.! ! % # # # 5 6 6 6 6 6 6 6 6 6 6 6 6 6 6 6 6 6 6 6 6 6 6 6 6 6 6 6 6 6 6 6 # # # # u.w.0.q.w.O.h.2.1X8XpX7X",
"i.R.[.hXhXj. .j.h.v.,.&.; # # # 5 5 6 6 6 6 6 6 6 6 6 6 6 6 6 6 6 6 6 6 6 6 6 6 6 6 6 6 6 6 6 6 # # # # a.V.hXgXO.s J tXtXY.r.u.",
"i.R.[.hXhXs.[  .j.B.&.&.; # # # 5 7 5 7 6 6 6 6 6 6 6 6 6 6 6 6 6 6 6 6 6 6 6 6 6 6 6 6 6 6 6 6 # # # # 4X4XgXgXo.s J tXtXY.~ p.",
"u.}.}.R./.L h U c.U.,.6.; # # # 5 6 5 6 6 6 6 6 6 6 6 6 6 6 6 6 6 6 6 6 6 6 6 6 6 6 6 6 6 6 6 6 # # $ # @.4.K.L.T Q E C.C.Z.,.h.",
"b.OX8.&.&.G s G > % % % 5 5 6 5 6 6 6 6 8 8 8 7 8 8 8 8 6 6 6 6 6 6 6 6 6 6 6 6 6 6 6 6 8 8 8 8 6 5 6 5 % % % % E S ) s.s.#.(.~.",
"c.OXR.W &.G F U ; # # # 5 6 6 6 6 6 6 6 8 8 8 8 8 8 8 8 7 6 6 6 6 6 6 6 6 6 6 6 6 6 6 6 8 8 8 8 6 6 5 7 # # # # E S Q s.j.Z.7.S.",
"G.%Xt.9 t t.T.O.: # # # 5 6 6 6 6 6 6 6 8 8 8 8 8 8 8 7 5 6 6 6 6 6 6 6 6 6 6 6 6 6 6 6 8 8 8 8 6 6 5 6 # # # # (.rXrX^.^.,.6.Z.",
"G.%Xt.s 9 ,.^.R.: # # # 5 6 6 6 6 6 6 6 8 8 8 8 8 8 8 7 6 6 6 6 6 6 6 6 6 6 6 6 6 6 6 6 8 8 8 7 6 6 6 6 # # # # (.rXrX^.^.OX7.j.",
"p.Q.l.h g h.z.c.: # # # 5 6 6 6 6 6 6 6 7 6 6 6 6 6 6 7 6 6 5 6 6 6 6 6 6 6 6 6 6 6 6 6 7 6 6 6 6 6 7 5 # # # # 4.7.6..X}.U.^ ] ",
"p.T.v.i.i.i.y.m.: # # # 5 6 6 6 6 6 6 6 5 6 6 6 6 6 6 6 6 6 6 6 6 6 6 6 6 6 6 6 6 6 6 6 6 6 6 6 6 6 6 6 # # # # 5.;.5. X X/ F j ",
"p.T.v.i.i.m.m.b.: # # # 5 7 6 6 6 6 6 6 6 6 6 6 6 6 6 6 6 6 6 6 6 6 6 6 6 6 6 6 6 6 6 6 6 6 6 6 6 6 6 6 # # # # <.;.5. X X/ F a ",
"H.fX-X-X-XM.b.`.: # # # 5 5 6 6 6 6 6 6 6 6 6 6 6 6 6 6 6 6 6 6 6 6 6 6 6 6 6 6 6 6 6 6 6 6 6 6 6 6 6 6 # # # # r.9.q.*./ U.Q.i.",
"7XfXfX:X< : % : 5 5 5 5 6 6 6 6 6 6 6 6 6 6 6 6 6 6 6 6 6 6 6 6 6 6 6 6 6 5 6 6 6 6 6 6 6 6 6 6 6 6 6 6 5 6 5 6 % % % : / U.W.n.",
"G.tX&XW.: # # # 5 5 6 5 6 6 6 6 6 6 6 6 6 6 6 6 6 6 6 6 6 6 6 6 6 6 6 6 6 7 6 6 6 6 6 6 6 6 6 6 6 6 6 6 6 6 6 6 # # # # U.l.v.p.",
"a./.~.A.: # # # 5 6 6 6 6 6 6 6 6 6 6 6 6 6 6 6 6 6 6 6 6 6 6 6 6 6 6 6 6 6 6 6 6 6 6 6 6 6 6 6 6 6 6 6 6 6 6 6 # # # # @Xj.c a ",
"a.!.!.Z.: # # # 5 6 6 6 6 6 6 6 6 6 6 6 6 6 6 6 6 6 5 7 6 6 6 6 6 6 6 6 6 6 6 6 6 6 6 6 6 6 6 6 6 6 6 6 6 6 6 6 # # # # @Xk.a l ",
"m H 0.y.% # # # 5 6 6 6 6 6 6 6 6 6 6 6 6 6 6 6 7 7 8 8 6 6 6 6 6 6 6 6 6 6 6 6 6 6 6 6 6 6 6 6 6 6 6 6 8 8 8 8 # # # # 6.2X8X4X",
"q 0 M y.: # # # 5 6 6 6 6 6 6 6 6 6 6 6 6 6 6 6 8 8 8 8 6 6 6 6 6 6 6 6 6 6 6 6 6 6 6 6 6 6 6 6 6 6 6 6 8 8 8 8 # # # # 1XwXyX0X",
"m M 0.y.: # # # 5 6 6 6 6 6 6 6 6 6 6 6 6 6 6 6 8 8 8 8 7 6 6 6 6 6 6 6 6 6 6 6 6 6 6 6 6 6 6 6 6 6 6 6 8 8 8 8 # # # # 3.7.uX4X",
"Z P.%X=X: # # # 5 6 6 6 6 6 6 6 6 6 6 6 6 6 6 6 8 8 8 8 6 6 6 6 6 6 6 6 6 6 6 6 6 6 6 6 6 6 6 6 6 6 6 6 8 8 8 8 # # # # G t.F.g.",
"> > > : 5 5 5 5 6 6 6 6 7 8 8 8 6 6 6 6 6 6 6 6 6 7 6 6 6 6 6 6 6 6 6 6 6 6 6 6 6 6 6 6 6 6 6 6 6 6 6 6 7 6 6 6 5 5 5 5 ; : : > ",
"* # # # 5 6 6 6 6 6 6 6 8 8 8 8 6 6 6 6 6 6 6 6 6 6 6 6 6 6 6 6 6 6 6 6 6 6 6 6 6 6 6 6 6 6 6 6 6 6 6 6 6 6 6 6 6 6 6 6 # # # * ",
"* # # # 5 5 6 6 6 6 6 6 8 8 8 8 6 6 6 6 6 6 6 6 6 6 6 6 6 6 6 6 6 6 6 6 6 6 6 6 6 6 6 6 6 6 6 6 6 6 6 6 6 6 6 6 6 6 6 6 # # # & ",
"* # # # 5 6 6 6 6 6 6 6 8 8 8 8 6 6 6 6 6 6 6 6 6 6 6 6 6 6 6 6 6 6 6 6 6 6 6 6 6 6 6 6 6 6 6 6 6 6 6 6 6 6 6 6 6 6 6 6 # # # & ",
"* # # # $ $ $ $ 6 6 6 6 6 6 6 6 6 6 6 6 6 6 6 6 6 6 6 6 6 6 6 6 6 6 6 6 6 6 6 6 6 6 6 6 6 6 6 6 6 6 6 6 6 6 6 6 $ # $ $ # # # & ",
"* # # # # # # # 5 6 6 6 6 6 6 6 6 6 6 6 6 6 6 6 6 6 6 6 6 6 6 6 6 6 6 6 6 6 6 6 6 6 6 6 6 6 6 6 6 6 6 6 6 6 6 6 # # # # # # # & ",
"- # # # # # # # 5 6 6 6 6 6 6 6 6 6 6 6 6 6 6 6 6 6 6 6 6 6 6 6 6 6 6 6 6 6 6 6 6 6 6 6 6 6 6 6 6 6 6 6 6 6 6 6 # # # # # # # = ",
"* # # # # # # # 5 6 6 6 6 6 6 6 6 6 6 6 6 6 6 6 6 6 6 6 6 6 6 6 6 6 6 6 6 6 6 6 6 6 6 6 6 6 6 5 6 6 6 6 6 6 6 6 # # # # # # # & ",
"* # # # # # # # $ $ $ $ $ $ $ $ 6 6 6 6 6 6 6 6 6 6 6 6 6 6 6 6 6 6 6 6 6 6 6 6 6 6 6 6 6 6 6 7 $ $ $ $ $ $ $ $ # # # # # # # & ",
"* # # # # # # # # # # # # # # # 5 6 6 6 6 6 6 6 6 6 6 6 6 6 6 6 6 6 6 6 6 6 6 6 6 6 6 6 6 6 6 6 # # # # # # # # # # # # # # # = ",
"* # # # # # # # # # # # # # # # 5 6 6 6 6 6 6 6 6 6 6 6 6 6 6 6 6 6 6 6 6 6 6 6 6 6 6 6 6 6 6 6 # # # # # # # # # # # # # # # & ",
"* # # # # # # # # # # # # # # # 6 6 6 6 6 6 6 6 6 6 6 6 6 6 6 6 6 6 6 6 6 6 6 7 6 6 6 6 6 6 6 6 # # # # # # # # # # # # # # # & ",
"* # # # # # # # # # # # # # # # $ $ $ $ $ $ $ $ $ $ $ $ $ $ $ $ $ $ $ $ $ $ $ $ # $ $ $ $ $ $ $ # # # # # # # # # # # # # # # = ",
"* # # # # # # # # # # # # # # # # # # # # # # # # # # # # # # # # # # # # # # # # # # # # # # # # # # # # # # # # # # # # # # & ",
"* # # # # # # # # # # # # # # # # # # # # # # # # # # # # # # # # # # # # # # # # # # # # # # # # # # # # # # # # # # # # # # = ",
"* # # # # # # # # # # # # # # # # # # # # # # # # # # # # # # # # # # # # # # # # # # # # # # # # # # # # # # # # # # # # # # & ",
"B p.u.z ; # # # # # # # # # # # # # # # # # # # # # # # # # # # # # # # # # # # # # # # # # # # # # # # # # # # # # # # ` ` z k ",
"$X=X}.@.; # # # # # # # # # # # # # # # # # # # # # # # # # # # # # # # # # # # # # # # # # # # # # # # # # # # # # # # fX9XA.g.",
"n.#X(.<.: # # # # # # # # # # # # # # # # # # # # # # # # # # # # # # # # # # # # # # # # # # # # # # # # # # # # # # # gXiXF.f.",
"c P #.6X: # # # # # # # # # # # # # # # # # # # # # # # # # # # # # # # # # # # # # # # # # # # # # # # # # # # # # # # #./.].F.",
"e f [ aXC 6X6Xg.; # # # # # # # # # # # . . . . . . . . 1 1 2 2 2 2 2 2   . . . . . . . # # # # # # # # # # # # g.3Xa.p f !.OX`.",
"e f  .S.6X{.&X{.: # # # # # # # # # # # X o o o o o o o 3 4 4 4 3 4 4 4 o o o o o o o o & # # # # # # # # # # # *X{.~.f g X.OX~.",
"b | o.b.M.J.L.L.; # # # # # # # # # # #   o o o   o o o 3 4 4 4 4 4 4 4 o o o o o o o o # # # # # # # # # # # # Z.(.!.t t ' $.3X",
"b | o.b.m.J.J.P.; # # # # # # # # # # #   o o o o o o o 3 4 4 4 4 4 4 4 o o o o o o o o # # # # # # # # # # # # 4.(.4.r 9  .<Xa.",
"V u.k.`.`.P.P.P.I U d.d.3Xz _ ] N N [ V +   o o o o o o 3 4 4 4 4 4 4 4 o o o o o o o o p g i.v.j.' _ k k l a.a.`.[.`.j.j.O.! u.",
"B b.b.).).|. XI.=.&.8XuXuX6.6.t.t.9.V.C.+ o o o o o o o 3 4 4 4 4 4 4 4 o o o o o o o o ! ! =X=XXX%.%.A g ' fXfX&X%X%X9X9Xh.Y H ",
"B N.m.oX].XX.XR.&.-.OXuXeX1.3./ H w.S.6X+ o o o o o o o 3 4 4 4 4 4 4 4 o o o o o o o o ! ^ =X=XXX&.&.F y J fXuX@X%X@XiX9Xt.Y H ",
"V { _.-X-X!.j.R.@X@X! ' z A A L E ~ qXaX+ o o o o o o o 3 4 4 4 4 4 4 4 o o o o o o o o K K T.Q.K.=.-.( F ! wX0X+X#X.XW.Q.o.K a ",
"V } !.-X:X^.O.^.-X-X` u y y y S E W aXaXC Z B M O o o o 4 4 4 4 4 4 4 4 o o o o m V c h L J Q.P.K.-.I.( F T wXwX#X#X#XQ.Q.~ P l ",
"x o.Y.iX&XZ.O.!.W.@XL s s y y ' :.$.8X9XB.' L ~ O o o o 4 4 4 4 4 4 4 4 o o o o o.L ' T J J l.z.K.=.-.T U O.uXeX#X}..X|.|.t.T h ",
"p.K.E.5X5X~.4.^.R.R.G s s y y @.8X8X1.1.E r 9 U O o o o 4 4 4 4 4 4 4 4 o o o o o.F F G L J { [ o.1.,.o.o.V.rXuXOXOXOX X|.R.*.~ ",
"e.L.Q.5X5X!.^.^.R.8.J s s y y @.0X8X1.<.Q 9 9 U O o o o 4 4 4 4 4 4 4 4 o o o o $.F F J L L } } } 1.1.o.o.Z.uXtX#XOX#X|.|.L.*.r."
};
