/* XPM */
static char * coin1_xpm[] = {
"64 64 159 2",
"  	c #A6D563",
". 	c #A7D568",
"+ 	c #A4D35D",
"@ 	c #ACDB69",
"# 	c #AAD964",
"$ 	c #A0CF5C",
"% 	c #C1F276",
"& 	c #B1E166",
"* 	c #A9DA5E",
"= 	c #BCEC74",
"- 	c #A9D76A",
"; 	c #A8D764",
"> 	c #A6D85E",
", 	c #B9E96F",
"' 	c #9BCB55",
") 	c #B3E36B",
"! 	c #C3F37C",
"~ 	c #9ECD5A",
"{ 	c #A2D357",
"] 	c #98C754",
"^ 	c #95C552",
"/ 	c #A7D862",
"( 	c #83B33E",
"_ 	c #93C34D",
": 	c #99CA4D",
"< 	c #90BF4C",
"[ 	c #9FD056",
"} 	c #90C046",
"| 	c #8BBA46",
"1 	c #88B744",
"2 	c #B8E773",
"3 	c #C6F87E",
"4 	c #9FD05A",
"5 	c #AFE06A",
"6 	c #AEE067",
"7 	c #B6E570",
"8 	c #BFF079",
"9 	c #B7EA6A",
"0 	c #C7F882",
"a 	c #242424",
"b 	c #5B5B5B",
"c 	c #969696",
"d 	c #ACACAC",
"e 	c #2A2A2A",
"f 	c #EEEEEE",
"g 	c #DDDDDD",
"h 	c #555555",
"i 	c #BEF075",
"j 	c #737373",
"k 	c #E3E3E3",
"l 	c #141414",
"m 	c #CDCDCD",
"n 	c #1C1C1C",
"o 	c #97C854",
"p 	c #96C84F",
"q 	c #4C4C4C",
"r 	c #343434",
"s 	c #828282",
"t 	c #EDE8E2",
"u 	c #9B9B9B",
"v 	c #6E6D6C",
"w 	c #3A3A3A",
"x 	c #C6C6C6",
"y 	c #D2D2D2",
"z 	c #8C8C8C",
"A 	c #261A0A",
"B 	c #33220D",
"C 	c #5A3B17",
"D 	c #7C5220",
"E 	c #905F25",
"F 	c #9B6729",
"G 	c #AC712D",
"H 	c #B2752E",
"I 	c #A56D2B",
"J 	c #936126",
"K 	c #4B3213",
"L 	c #221608",
"M 	c #6E491C",
"N 	c #C17F32",
"O 	c #D28B37",
"P 	c #DA9039",
"Q 	c #D68D38",
"R 	c #BB7C31",
"S 	c #6A461B",
"T 	c #2D1E0C",
"U 	c #E7DFD5",
"V 	c #A07139",
"W 	c #3A260F",
"X 	c #E4B37A",
"Y 	c #CA8635",
"Z 	c #855823",
"` 	c #D98F39",
" .	c #754D1E",
"..	c #7A7A79",
"+.	c #B4B4B4",
"@.	c #A4A4A4",
"#.	c #E0BD94",
"$.	c #85B541",
"%.	c #9A754A",
"&.	c #7D5B33",
"*.	c #61431F",
"=.	c #C38134",
"-.	c #B47A35",
";.	c #996E3C",
">.	c #A57133",
",.	c #563916",
"'.	c #9E692A",
").	c #9D703B",
"!.	c #C19663",
"~.	c #E8B77D",
"{.	c #BA9263",
"].	c #8C6434",
"^.	c #CC893A",
"/.	c #5C3D18",
"(.	c #A37845",
"_.	c #DCAC75",
":.	c #C29867",
"<.	c #845B2C",
"[.	c #AB783B",
"}.	c #BC905C",
"|.	c #956935",
"1.	c #130D05",
"2.	c #D2A570",
"3.	c #EAB87E",
"4.	c #9F7B51",
"5.	c #96744D",
"6.	c #896A45",
"7.	c #513615",
"8.	c #AC8354",
"9.	c #D7A873",
"0.	c #765733",
"a.	c #BF8036",
"b.	c #B58E60",
"c.	c #835622",
"d.	c #926E45",
"e.	c #6F5538",
"f.	c #95652D",
"g.	c #A46F30",
"h.	c #AD7533",
"i.	c #C38338",
"j.	c #795B38",
"k.	c #B58D5E",
"l.	c #CE8836",
"m.	c #885C28",
"n.	c #B67F3F",
"o.	c #BEEE79",
"p.	c #1C1208",
"q.	c #7C572C",
"r.	c #CBFB83",
"s.	c #AA8558",
"t.	c #3C280F",
"u.	c #B58043",
"v.	c #9F6D33",
"w.	c #BF8745",
"x.	c #462E12",
"y.	c #8D5D25",
"z.	c #1C1307",
"A.	c #8DBC4A",
"B.	c #C5F681",
"      .           +   +   + + + + @ # $ # % % & * & % = @ $ + - ; ;             ; . + + . + + ; ; ; ; + + + + + ; ; $ ; ; ;     ",
"  -   .     ; ;     * # >   * # +     + * # & , % , & ; ; ; ; $ ; ;         .   + . ; . . ; ; + + + ; + ; ; ; ; ; + ; ; ; ;     ",
".   .       +     ; # + $ $ + # ; + + # * ' * ) ! , + ~   @ ; $ ;               . + ; + + + . . ; + + ; ; ; ; + $ + ; ;       ; ",
"  .             ; # * $ { ] { * -     - * $ { & ) & * { + ; + ;                 ; + . . ; . + ; ; + + ; ; + $ ] ~ + ; + $ $     ",
"              +   ; ; $ ] ^ $ $ . . . . ; + + ; ~ + ; * + + + @ .           .   ; . + ; $ .     ; + $ ; ; $ ' ^ ~ + ; ; ; $ + ; ",
"  . -   ; - / / + + * + { $ + * $ .   $ ; # # $ + * * * + * * ; $               + . . + ;       ; + - + ; ; $ ~ $ + + ; + ; + ; ",
"          +           ; ; + ; ;   . . +   -   $ ; ; + + * * * + ; ;             + ; ; + ; . ;     + -   ; ; ; + ; + ; ; + ; + ; ",
"  $ + $ + + + $     ; * ; ;     . - - - - ;   $ + + ; * + + { { + . .           . + . . ; + ; ; + - +   $   ; ; ; ; + + ; ; ; + ",
"; ( (   @ _ ( ^ + ;   + ; + ; ; . . . . .       # *     * { : < + ; - @ ; $ $ - -   +   ;     ;   -             $ ; # + { ; ; { ",
"$ _ ^ +   ] _ ^ ; + ; + + ;       . .   . . .   ;   + * + { [ < $ ; ; ; ; ; ; ;     ;   .     $                 ; ; + + ; + ; ; ",
"+ + $ } | ] +         ;           .     . . . . ; +   + * * + { + $ + . - @ - $ $ ; -   ; ; ;   - $   -         ; $ $ ; ; { { + ",
"# & + } ( $ # # +                   .   $ . . . .         * * + ; . + ; - $ + ; - + $   ; ; ; - - -   -         { # & ; { & # + ",
"+ * + + +     $         .   -     +       . . $ .         + ; ; ; $   @ $ < ^ - @ ] < $ - ; ; ;   - - .         ; ! % ; { , % & ",
"+ + + ; # * + +                         . . . . . . .     + + + - +   - ~ | <   ; < 1 ~ - ; $   - $ . . - -     @ ! ! ; { = ! , ",
"# * + + + + ; ;             .             . . . . . . .   +     + ; ; - $ ] ] ] ] ] ] +   ;     $ . . $     + ; - , 2 , ) , , & ",
"+ ; ; +       ;                   $           . .           ; ; $ - ; + ; @ $ < | $ -   $ ; ;   - . . -     ; ; ; ] # ! 3 ) { $ ",
"+ + ;           4 . 5 5 / / / 6 5 / $ . . / 4 / $   # ; +     ;       - ; + $ ' : $ + + + ; ; +     - $           - - , 7 - ; ; ",
"    ; ; . ; - ; / 5 8 8 > 4 9 0 5 a b c d b + > * * * ; +       $   - - ; ; $ $ $ + ; ; * ; * +       -         $ $ ; - - ; + $ ",
"      +         4 5 8 7 6 / 9 8 e c f f f g h > * + $ {   ; ;   - $     ; ; $ + ; ; ; + ~ + ; ;             $ -   + ;   ; + ; ; ",
";   + ;     +   . 4 / 5 i i 9 > j k f f f f d l + { ^ ] + ; ; ; - - - ; + ; ; ; + ; ; ~ : : { +         -   -   - - ; ; ; ; ; ; ",
"6 4 + /       / 5 4 4 5 8 8 5 l m f f f f f k n ; $ _ ] + # ; ; ; ; ;   ; $ ; ; + ; $ ] : ] + ;                   $           $ ",
"[ o o 4       / / . . 5 - / 5 e k f f f f f k a ; + $ { + ; ; +   -     ; ; ; ; + ; ; + ' $ ; ;         -       $               ",
"o p p [ $ + $ / 4 . . . l q r q m f f f f f m l ; * * ; * + *           ; + ; + ; ; ; ; $ ; - ;                 - ; ;   + -     ",
"[ [ [ + # $   / . / . s g t k s u f f f f f j   + + ; ; ; + + # +     + + ; + ; $ ; ; ; ; ; ; $                     - $ $       ",
"> * > [ / 4 . / 4 . v t f f f k s k f f f m w   ; $ $ / { + # $ ; + + ; ; + + ; $ ; ; ; + ;         - ; ; - -     - - - - ;   ; ",
"[ * * > / 4 / . . w x f f f f f y k f f f z c l   + ; @ # * * $ ; - ; ; ; ; ; $ ; ; ; $ ; +     ; + ; $ $ ] $ - ; ] ] $ ; ;   ; ",
"> > > > / / 4 . . h k f f f f f f f f f g m f s l ; / $ + + + A B C D E F G H H H I J D K L +           ] | ^   $ < | ~ - ; $ - ",
"> > > 4 / . . . . b k f f f f f f f f f f f f t s l + $ K M E N O P P P P P P P P P P P Q R S T     ;   $ < ^ $ $ ^ ^ $ - ; + ; ",
"> / +       4 . . w x f f f f f f f f f f f f f U V W K I Q P P P P P P P P P P P P P P P P Q R K       +   ] < ] $ + ; ; ; ; $ ",
"+ /       / . . . . h g f f f f f f f f f f f t X Y Z O ` P P P P P P P P P P P P P P P P P P ` Y  .  $ ; - $ | < $ - ; $ ; - ; ",
"/ + /   /   . . 4 . . e ..d +.@.v ..s @.y f f #.P G G P P P P P P P P P P P P P P P P P P P P P P O  .  ;     ] $ $ ; ; ; ; ; ; ",
"+ / + /       . . . - . | $.o 5 o | | + w @.f %.Q R N P P P P P P P P P P P P P P P P P P P P P P ` Y W ; ; - @ @ ; $ ; - - $ $ ",
", { { , % & $ ; -   + $ $ $ ] < ^ ~ + - $ l v &.O Q Q P P P P P P P P P ` P P P P P P P P P P P P P P H A   ; ; $ ;     ;       ",
"% * { % ! & + ; + +   - - $ ] < ] $ ; ; ; ; ; *.=.P P P P P P P P P O -.;.>.O P P P P P P P P P P P P O ,.  $ -     ; -     - $ ",
", & & , , & + ; + + - - - . ] < $   ; + + ; + $ '.` P P P P P P P =.).!.~.{.].Y ` P ` Q ^.` P P P P P P J   ; ; $     $     ; $ ",
"& % 3 & $ + * + ; ; $     - ; ; + - ; + + ; + ~ /.` P P P P P P Y (._.~.~.~.:.<.^.P Q [.}.|.Q ` P P P P =.A $ ; - ;   ;   ;   ; ",
"+ % ! & ' + ; + ; ; + + + ; * @ +   + + ; ; + ~ 1.I P P P P P P -.2.3.3.~.3.3.4.'.` Y 5.X 6.Y P P P P P Y T ; $ ; ; ; ;   -   $ ",
"# * ; ; ; + ; ; ; ; ; ; ; ; + +         ; ; ; + + 7.=.P P P P ` 8.~.3.3.~.3.3.9.0.` a.6.b.].O P P P P P O W ; ;   ; $ ;   $ $ ; ",
"- $ ~ + ; + $ ; ; + ; + * + + + + + ; + ; ; ; + ; ; c.P P P P ` d._.#.3.3.3.3.X e.Q ^.f.g.Y P P P P P P Y B ; + ; ; + ; ; $ ; $ ",
"; ; ; ; + + ; ; + ; ; * + * + + + ; ; ; + ;   +   + W H P P P P h.%._.3.3.3.3.9.0.Q P Q i.R ` P P P P P =.T + ; ; $ ; ; ; ; ; $ ",
"- . . $ .       ; + ; * ; + ; * & $ + & # $ $ ;       7.Y P P P ` G j.k._.X X k.g.P l.m.).8.Y ` P P P ` F ; ; $ ; $ $ ; ; + + ; ",
". . . . .       + + ~ ' + * * { $ & ; $ $ * ; +         D ` P P P P O f.<.V n.=.` =.&.{.~.X ].` P P P `  .; - o.2 @ + ; ; + + + ",
". - . .   .   . ; $ ^ ] $ ; ; $ + + ; * ; ; + + .       p.J Q ` P P P ` ` ` ` ` O q.{.3.#.~.%.i.P P P l.*.; & r.2 & ; ; ; ; ; + ",
". $ . . .       ; + ] ] + * ; + & ) & ; ; & ) &           B I ` P P P P P P P ` J b.3.3.~.~.s.-.P P P R 2 ) , , , ; $ + ; + ; ; ",
"  . -     $ -   - ; + + ; ; ; + , 3 ! $ ~ ! r.2     .   . . t.J ` ` P P P P P ` <.2.#.3.3.3.(.Y P P P J = ! 2 ; ; ; * ; * + ; ; ",
"      - .       ; ; - - ; + ; + & = % & & = 2 -       .   . . 1.D l.P P P P P P R <.5.2.~.X u.` P P =.+ & = , + + ; # * + + + ; ",
"                    - ;     ; ; + { # ! ! & $ ;     .   . .     ; B F Y P ` P P P O -.].v.w.` P P Y D + + & # { * ; ; ; ; + * + ",
"                        - ; ; ; # $ ; o.! ; $ ;   . $         + ; ; 1.x.E O P P P P P P ` P ` P Y y.+ ; ; + + ; + + + $ * ; ; ; ",
". < 1 ] # ; + ; + ; * ; ; + ; ;   ;   ; . .   . ;   ; + : ^ $ * ; $   ; ; z./.c.'.R O O Q Y H E /.; ; + + ; * + + ;             ",
"] < ^ $ # + + # * + + ; ; ; ; ; ;   -   - . - . - + + $ : : { * ;     $       #   K C S S c.+ + + * ; ;   $   ;   ;           ; ",
"< ] $ . ; { + * * + + { - ; ;   ; ;   - . . . . - + ; + { ' * { # ;   + $ ;   /     + /     $ / + + * ; $ : ' @                 ",
"^ ~ - - + + ; ; * ; ; ;     -       -   . . -   ; + + ; { { * * + + # # ; ; /     >       + / + * + ; ; ~ _ ] +     ;           ",
"] - ; - + ; + $ ] ~ ; ;           ; . .   -   - ; + ; # * * * $ $ * # + > >   +         + + . . # + + + + ' ~ ;   / .           ",
"$ ; - ; + ; ; ' } ] $   $     ; ;   . ; -   - ;   + + # $ $ * $ * + + * + + $ /         . .   . ; + $ ; ; + + @   + / /     / . ",
". - $ + ; ; ; $ ] ~ + +   $   ;   ;   ;     ;   - $ + + { ; & ) * { # & @ { + -         . . . . ; + + * ; ; # ; +     + . /     ",
"    + $ + ; ; + ; ; ; ;   +   - -   ; ;   ;   ; ; + + ; * @ % ! * * ) ! i ; ~         . $ . . . + * * * + * * + +   + + .     / ",
"$ + ; $ $       ; ; + ; ; ; ; ; .     $ - # ; + + + ;     @ 2 ! & * & % 7 + + ; .     . $ . . . / 4 > / / 4 4 / / /   / / / / / ",
"; + ; ; ; +     ; ; # + < | ] ; ] A.A.  # $ + # ; ; + + +   ; @ % % % & * + + ;     .   . . . + / > 4 > > / 7 3 8   4 8 B.5 4   ",
"; { $ ; - +     $ - # $ } | ] # ^ 1 <   @ + $ # *           $ $ % ! 2 + { + ; +         . . . . > 4 > > > > 9 8 8 / / 8 B.5 4 . ",
"+ ] ] $ -   + ; + ; ; ; + ~ ] ] ^ $   $ ; # ; ' ] { $ ; ; ; .     ) @ + $ ; ; + +     . . + + + p p 4 > > 4 > 6 5 2 8 5 / / . / ",
"{ : _ $     $ - - + $ ; # ; _ ( ] - # $ $ @ * _ < ] + ;       . $ + ; + + +   + +     /     / 4 p p p { > > 4 > 5 3 0 5 o 4 / + ",
"+ ~ ~ + -   - - ; ; ; ; # + ' _ ~   - + + + * $ : { ; ; . $ .   - + + ; ; + + ; +     + +   / / 4 4 { { > 4 / > / 5 5 / / / / / ",
"+ ; + + - + -     - # ; $ ; ; ; ; + ; # # * ; * * ; # # .     . @ ; + . ;   + ; +   / + / + / > > > > > > > > 4 / [ 4 / / / + / ",
"+ * ; ; $         - # + + + * * - ; ; + + $ { + { + +                 ; ; . ; + /   /   + + > / p [ > > > > / / / / / + /   4 / "};
