/* XPM */
static char * coin1_xpm[] = {
"64 64 404 2",
"  	c #4B6AFA",
". 	c #4B73FC",
"+ 	c #4895FB",
"@ 	c #3446D6",
"# 	c #2A46D5",
"$ 	c #364BD7",
"% 	c #436DEB",
"& 	c #346CEB",
"* 	c #2B73E6",
"= 	c #2D63DC",
"- 	c #3346C2",
"; 	c #335CDA",
"> 	c #3365EB",
", 	c #6B86FF",
"' 	c #4978E3",
") 	c #2974D3",
"! 	c #2958CA",
"~ 	c #3868C7",
"{ 	c #3C5CCB",
"] 	c #444CDB",
"^ 	c #3B65EB",
"/ 	c #3B6DEC",
"( 	c #3A5AE5",
"_ 	c #2847CA",
": 	c #254BC1",
"< 	c #417AFF",
"[ 	c #4C7AFB",
"} 	c #716DFF",
"| 	c #6277E9",
"1 	c #5477D7",
"2 	c #3746BD",
"3 	c #2B4CC5",
"4 	c #2A54D4",
"5 	c #2758D9",
"6 	c #3D82FA",
"7 	c #4473EA",
"8 	c #455ACE",
"9 	c #346CE5",
"0 	c #3372EB",
"a 	c #5B69E5",
"b 	c #5363F4",
"c 	c #4C6DF4",
"d 	c #3D73EC",
"e 	c #2C73DD",
"f 	c #427AF3",
"g 	c #264AD8",
"h 	c #4C6BEB",
"i 	c #3463E4",
"j 	c #2B68C9",
"k 	c #345ACE",
"l 	c #3855C9",
"m 	c #4446E5",
"n 	c #3968F5",
"o 	c #3979F8",
"p 	c #5575D9",
"q 	c #4757C9",
"r 	c #5867FA",
"s 	c #536AF9",
"t 	c #3C56DC",
"u 	c #3B57E6",
"v 	c #4787F7",
"w 	c #2A54DC",
"x 	c #446BE4",
"y 	c #3468DB",
"z 	c #3C63DB",
"A 	c #3D6BE2",
"B 	c #4C73DC",
"C 	c #3776D8",
"D 	c #4463DC",
"E 	c #3C64E3",
"F 	c #4D7BF3",
"G 	c #5584FE",
"H 	c #6695F8",
"I 	c #6678F9",
"J 	c #717AF9",
"K 	c #636BEB",
"L 	c #5C77E9",
"M 	c #3B64D5",
"N 	c #3463D2",
"O 	c #345BD4",
"P 	c #2A68D6",
"Q 	c #5373E4",
"R 	c #4D7AEC",
"S 	c #437BEC",
"T 	c #536BE4",
"U 	c #526BF3",
"V 	c #546CEA",
"W 	c #4C74F3",
"X 	c #343EBA",
"Y 	c #3C5BD4",
"Z 	c #3C73F4",
"` 	c #2D75EC",
" .	c #1948CA",
"..	c #4D85EB",
"+.	c #547AEB",
"@.	c #527BE3",
"#.	c #2A57AC",
"$.	c #3B75D4",
"%.	c #4A8AEE",
"&.	c #515EF8",
"*.	c #385AF4",
"=.	c #1C4AE2",
"-.	c #3985E6",
";.	c #6C94FF",
">.	c #6487E9",
",.	c #6869FA",
"'.	c #3C6CD5",
").	c #346CD3",
"!.	c #1D4ABA",
"~.	c #1B45B8",
"{.	c #5D8AFD",
"].	c #6587F8",
"^.	c #536DD6",
"/.	c #4564E3",
"(.	c #3874C8",
"_.	c #3A78E6",
":.	c #5688F8",
"<.	c #7191FA",
"[.	c #636BFC",
"}.	c #4B73ED",
"|.	c #2B69BC",
"1.	c #2959E5",
"2.	c #335DE4",
"3.	c #456BDC",
"4.	c #1967C7",
"5.	c #3D5CEB",
"6.	c #4558E6",
"7.	c #374AE3",
"8.	c #3443DD",
"9.	c #3355D8",
"0.	c #3C5BDC",
"a.	c #4758D6",
"b.	c #4475CB",
"c.	c #5381DC",
"d.	c #4A73D4",
"e.	c #474BC7",
"f.	c #5465CB",
"g.	c #414FF0",
"h.	c #2C65E7",
"i.	c #4B65DA",
"j.	c #4A6BDB",
"k.	c #4B6BE4",
"l.	c #5B75FB",
"m.	c #537BFD",
"n.	c #5564DA",
"o.	c #5363E4",
"p.	c #3266BA",
"q.	c #2B73CD",
"r.	c #2B54E3",
"s.	c #4464D5",
"t.	c #2564C9",
"u.	c #1A54C6",
"v.	c #2A66F2",
"w.	c #3D54D4",
"x.	c #4C6BD4",
"y.	c #4A65D4",
"z.	c #295AE9",
"A.	c #426BCD",
"B.	c #5273F4",
"C.	c #1B69D5",
"D.	c #445DDC",
"E.	c #4B7BD6",
"F.	c #557ADC",
"G.	c #4573DC",
"H.	c #4473E4",
"I.	c #535CDB",
"J.	c #1B5CDA",
"K.	c #4674D4",
"L.	c #5787E9",
"M.	c #4492EE",
"N.	c #3A88FB",
"O.	c #2959B9",
"P.	c #2548BB",
"Q.	c #3C69EF",
"R.	c #4166EF",
"S.	c #5D91E7",
"T.	c #4A64EA",
"U.	c #2459E6",
"V.	c #254CE3",
"W.	c #3D72E3",
"X.	c #456BD5",
"Y.	c #6669E5",
"Z.	c #5992F8",
"`.	c #3C68F2",
" +	c #4A53FB",
".+	c #437ADB",
"++	c #4766CA",
"@+	c #5174C7",
"#+	c #4D7ADA",
"$+	c #4655F7",
"%+	c #3537F2",
"&+	c #3B4AF4",
"*+	c #5B76F7",
"=+	c #445BD3",
"-+	c #3B4DCB",
";+	c #4884E4",
">+	c #6895E4",
",+	c #3446EC",
"'+	c #5CE4F5",
")+	c #5258E5",
"!+	c #4547F1",
"~+	c #4274F4",
"{+	c #3C6BDC",
"]+	c #4463EB",
"^+	c #62DBF5",
"/+	c #50B9EF",
"(+	c #5752F4",
"_+	c #2B52EC",
":+	c #3D5EF1",
"<+	c #6BECF9",
"[+	c #B16DF6",
"}+	c #D25FF5",
"|+	c #58EDF5",
"1+	c #1B58E3",
"2+	c #19C4D2",
"3+	c #2856C7",
"4+	c #5A84F3",
"5+	c #5E8CE3",
"6+	c #4261F6",
"7+	c #4F97F3",
"8+	c #7BC1F5",
"9+	c #9D46F2",
"0+	c #C453F3",
"a+	c #6559F5",
"b+	c #1C67BB",
"c+	c #14CAD6",
"d+	c #4686DB",
"e+	c #4765F5",
"f+	c #3855BD",
"g+	c #29D2DB",
"h+	c #31D2DD",
"i+	c #3EBBCE",
"j+	c #3E5BEE",
"k+	c #63B4F2",
"l+	c #86A3F3",
"m+	c #56D8EE",
"n+	c #6C60EF",
"o+	c #4A5AEB",
"p+	c #1D5AD4",
"q+	c #344DC7",
"r+	c #4B63E3",
"s+	c #29CED9",
"t+	c #23D4DC",
"u+	c #5B6AF4",
"v+	c #6CBEED",
"w+	c #50EAF3",
"x+	c #7855ED",
"y+	c #363AD4",
"z+	c #13D4DC",
"A+	c #1BD2DC",
"B+	c #263DDC",
"C+	c #1867D6",
"D+	c #64B5E6",
"E+	c #8ABCF3",
"F+	c #143CB8",
"G+	c #1250B2",
"H+	c #5493FC",
"I+	c #8CE9F5",
"J+	c #A058F3",
"K+	c #A252F4",
"L+	c #8C55F2",
"M+	c #2B80F4",
"N+	c #4491DE",
"O+	c #24CED8",
"P+	c #A1F3F8",
"Q+	c #1A45DA",
"R+	c #24CAD6",
"S+	c #3882D6",
"T+	c #2AC9D5",
"U+	c #C7F8FB",
"V+	c #E6FAFB",
"W+	c #4C5BE3",
"X+	c #455C16",
"Y+	c #2D82D0",
"Z+	c #5668D8",
"`+	c #336DCD",
" @	c #BBF0F8",
".@	c #3074BE",
"+@	c #3A4E10",
"@@	c #415612",
"#@	c #2576C8",
"$@	c #678DDB",
"%@	c #1C62E9",
"&@	c #25C2D0",
"*@	c #415325",
"=@	c #1D251E",
"-@	c #191D1D",
";@	c #293612",
">@	c #1CCFD8",
",@	c #5C8AF4",
"'@	c #212629",
")@	c #3A491E",
"!@	c #33421E",
"~@	c #4C85DD",
"{@	c #5C83DC",
"]@	c #243431",
"^@	c #1F2528",
"/@	c #0D1513",
"(@	c #6389F5",
"_@	c #32363A",
":@	c #393D3F",
"<@	c #252B2C",
"[@	c #2C3134",
"}@	c #34393C",
"|@	c #293539",
"1@	c #292E31",
"2@	c #141B1B",
"3@	c #212626",
"4@	c #373D40",
"5@	c #2A2E2C",
"6@	c #191E20",
"7@	c #3658E9",
"8@	c #5263EC",
"9@	c #303537",
"0@	c #495BF7",
"a@	c #4265BD",
"b@	c #1D2223",
"c@	c #161C20",
"d@	c #23332D",
"e@	c #1B3D32",
"f@	c #1C342C",
"g@	c #122D23",
"h@	c #0F2A20",
"i@	c #454CBD",
"j@	c #5459D7",
"k@	c #5473FB",
"l@	c #11291E",
"m@	c #224C3D",
"n@	c #1B493A",
"o@	c #143126",
"p@	c #163B2D",
"q@	c #192C25",
"r@	c #193DDA",
"s@	c #525ECA",
"t@	c #183027",
"u@	c #174233",
"v@	c #255142",
"w@	c #194535",
"x@	c #13241D",
"y@	c #0E241C",
"z@	c #153429",
"A@	c #1A3B2E",
"B@	c #233C34",
"C@	c #194837",
"D@	c #0E281E",
"E@	c #0C1C16",
"F@	c #1D4638",
"G@	c #1D3824",
"H@	c #224137",
"I@	c #111916",
"J@	c #1C2E29",
"K@	c #2A4B3E",
"L@	c #111515",
"M@	c #2E471E",
"N@	c #174837",
"O@	c #525CEE",
"P@	c #374124",
"Q@	c #4B6311",
"R@	c #174938",
"S@	c #113DC7",
"T@	c #196ECD",
"U@	c #34432C",
"V@	c #31443E",
"W@	c #234539",
"X@	c #292E25",
"Y@	c #4A5236",
"Z@	c #2D3D0F",
"`@	c #132620",
" #	c #2A3D36",
".#	c #323A2C",
"+#	c #62684E",
"@#	c #484D3B",
"##	c #232B23",
"$#	c #1C4AD7",
"%#	c #3B3F33",
"&#	c #4F5B44",
"*#	c #2E4D40",
"=#	c #2F352B",
"-#	c #3B4ED5",
";#	c #2A443B",
">#	c #2B5649",
",#	c #434937",
"'#	c #4B513E",
")#	c #3D4234",
"!#	c #6073DC",
"~#	c #244E40",
"{#	c #295446",
"]#	c #666B53",
"^#	c #3F4938",
"/#	c #173E30",
"(#	c #243226",
"_#	c #333E31",
":#	c #62674B",
"<#	c #707658",
"[#	c #585E49",
"}#	c #2F56F6",
"|#	c #395AF9",
"1#	c #2F3DB7",
"2#	c #0E1F18",
"3#	c #1F3730",
"4#	c #5473EB",
"5#	c #1557B9",
"6#	c #314840",
"7#	c #1959B7",
"    . + + @ # $ % % & * = - - ; > > , , ' ) ) ! ~ { ] ] ^ / ( _ : & < [ } } | 1 1 2 2 3 4 5 6 6 7 8 8 9 * 0 a a b b b   c d e e ",
"    f + + g _ $ h % * 0 i - - ; > > , , 7 ) ) j k l ] m ^ ^ ; : : n o [ } } | 1 p 2 2 : 4 4 6 6 7 8 q e * 0 a a r s   c c / 9 e ",
"t u / v v ; w ; x x 5 5 5 y z A % 7 B B C C C D z t u $ & A 9 E E F G H I J | K L M N M O O 9 P A Q Q R S R T T h . U V h W 7 7 ",
"X X Y Z o ` ` 0 E E 4  .5 v v ..+.@.#.#.$...%.b &.*.=.=.* ` -.G G ;.;.;.>.>.I ,.,.-.-.C '.).!.~.k {.G ]., ].7 7 R F R ^.^.| I I ",
"X X Y f Z ` ` & /.z 4  .5 v v ..R ' #.#.(.....&.&.*.=.=.* * _.G :.;.;.<.>.>.I ,.[.-.-._.'.'.!.~.N G G , ].].' }.R F +.^.^.| I , ",
"j |.j ) ) ; 1.2.7 7 U s c 3.3.P 4.4.z z ( > > 5.6.7.8.7.9.( 0.a.a.b.c.d.e.q f.^.p m g.( i h.1.1.2.z D i.j.k.l.m.V n.o.J J k.O ! ",
"|.p.q.q.) 1.r.2.7 7 r r U 3.s.t.u.4.E z i 2.v.u u 7.7.7.t t w.a.8 x.b.b.e.e.y.d.d.m m u h.i z.z.2.Y Y s.i.k.I l.a n.n.J J 3.! ! ",
"A.(.~ q.q.5 w 2.}.}.B.U V /.A P C.C.7 7 / Z & t t 9.8.8.9.( 0.D.D.d.E.E.E s.j.F.p m 6.( 2.1.z.z.r.O ; 3.G.H.[ F n.n.I.J J j.N N ",
"K K D t.u.J.J.= B.B.B K.G.v.n n / d L.%.M.N.N.|.O.P.- 2 = i i Q.R.L.>.S.v v %.@.@.V V T.u u U.U.V.J.5 W.' _.* * X.f.f.Y.Y.Q H.' ",
"Y.K D ! t.J.J.h.F B.B d.G.n n & & / L.Z.+ N.N.O.O.O.- - y 9 `. + +L.S.S.N.v %.@.@.V V T.u 5.U.U.U.w 5 A H._.* 0 X.f.f.Y.Y.Q .+H.",
"> ^ 9 P P /.h x @.+.s.~ ~ M z ++A.@+S ' ' F.#+; z = j N d d $+%+&+ +3.3.H.' W c c L *+B.B.[ ^ n > O O 0.s.=+e.-+8 X.X.' ;+L.>.>+",
"v.v.h.P P h V V @.@.~ l l ++++++@+@+H.7 B 1 1 2.( = ) ) 7 $+,+'+)+!+$+0.G.H.h     *+*+l.G G ~+Z ^ O O w.a.e.X e.8 3.s.-.-.S.>+<.",
"& & & {+{+j.T p F.@.O k k { { d.@+@+W.{+j.B F.]+^ ^ C e 7 &+^+'+'+/+(+D A A %     V V }.[ B.% / A D D =+++8 e.q 8 z s.-.-...>.>.",
"T.T.+.H H A.(.A.s.X.2._+r.# g B S.c.P.P.Y }.}.r [.l.. . L.:+<+[+}+|+(+5.U.1+~+G G |.|.4 8.2+2+).' , , E.b.E.;.;.M P.3+4+G k.Y =+",
"T.T.+.H H b.~ (.X.d.z.z.V.g g G.5+c.P.P.O W W [.[.l.[ . 6+7+8+9+0+'+a+6.1+1+Z G G |.b+! 8.c+2+'.' ]., d+d+d+;.;.M P.3+4+4+k.Y =+",
"c c e+% % 3+f+l j././ o n g+g+h+S 7 h.i > e+i+[.[.[.s s j+k+l+W W m+n+8.3+_ O 0.Y _ _ ; c+c+0 0 & ( ( {+C W.6.o+4 p+5 E.E.G./ % ",
". . n z.z.: P.q+r+r+f 6 v s+t+t+/ / v.o n t+t+[.[.[.u+b 8.v+l+    w+x+y+: : : 2 2 y+y+t c+c+o o v.z+A+& _.9 B+B+w J.C+b.b..+f f ",
". . ^ 5 r.3 : l D /.f 6 o /.t+t+t+/ o v.n g+t+[.[.u+r u+7.D+E+9+  7.x+@ 3 3+- - - 8.8.0.c+_.o N.z+z+A+9 W.9 y+# 5 J.5 b.A.G.Z ~+",
"K K a.F+G+/.h A q.q.^ 5.~+Z.Z.t+t+g+B+B+g ! t+G.G.R G H+[.[.I+J+K+L+M+6 m.m.h r+/.v.v.2+-.N+H z+z+z+l a.a.w.t.t.f G G 7 7 % Z ~+",
"K K =+~.F+E % A q.q.& n % Z.Z.*+g+t+B+B+g ! O+G.G.R H+G [.[.P+Q+J+` N.o m.m.h r+/.v.R+-.N+N+H z+z+l -+a.a.Y t.t.S G G 7 7 ~+Z / ",
"a V s.f+f+i.i.j.S+C H.x 7 M.;+R B.t+t+5 4 N T+T+P _.H+H+*+*+c U+V+/ Z d C .+k.W+X+X+= R+Y+Y+z+z+L.p 1 8 l 8 C C d o Z s c /.; ; ",
"T.k.y.f.f.f.I.Z+d+d+1 ^.x.) ) S [ O+A+j q.`+`+J.J.0 H+H+v R B. @V+b % H..@.@s.)++@@@t.#@Y+A+z+L.>.>+$@~ f+~ S+S+v.%@v.r r 0.: P.",
"h k.y.f.f.n.n.^.d+d+B ^.B ) ) f [ [ t.t.&@).`+T+J.0 H+H+F +.*@r r h h A .@.@s.=@-@;@t.#@#@A+A+L.S.>+$@++l ~ S+S+* %@v.r r t : : ",
"].].I I I Z+^.Q l.l.W+Y D.m.. W.e {+R+>@,@L.4+E.E.p ^.^.'@)@!@~@;+L.{@F.T T ]@]@^@/@ .A+A+S (@H (@m.m.-+2 q+$.$.=+e.q 0.0.r+V o.",
"].].].I I ^.^.T *+l./.w.D.[ m.7 y {+H ;.H :.:.F.E.p _@:@<@'@[@}@|@_@[@1@'@2@1@3@-@ . .= A+A+H H {.m.m.-+2 q+$.$.8 e.e.0.0.r+V V ",
"L 4+L V +.h h }.4+| M O z U   E ; z :.Z.+.B._@}@[@}@4@1@5@-@5 '@'@<@[@1@3@/@6@( 7@_+r.2.E ^ +.L +.c c q+2 q+X.++8 q 8 W+r+D y.y.",
"7 }.' G.B Z n f 5+S.`+j t.8@T.6.8.7._._.|@4@5@6@}@}@5@9@[@5 w # g )+K u+%.%.i V.V.0@n *.@ @ )+I.6.u 5.- 2 2 q a@Y O 0.*+*+X.p.#.",
"7 H.H.G.' n n f >+S.`+t.N 8@8@7.8.8._.S+[@b@)+b@c@c@-@b@d@e@e@f@g@g@h@2@%.%.2.V.V.n 0@u @ @ I.)+6.5.2.- 2 2 a@++k O z *+*+x.#.p.",
"i@2 e.j@f.k@m.F ;+@.D.] D.m.G E 4 ; $@b@2@9.^@-@2@l@g@e@m@m@n@e@g@o@p@l@q@q@g Q+r@v + . b 0@h k.6.7.7.a.s@j@$ $ O P ).o o N.v M.",
"X X i@j@j@l.m.F ' ;+6.] 6.G G E 4 4 <@'@d.4 <@b@=@t@u@n@m@v@n@w@l@o@p@x@y@z@A@B@=.+ + [ s r h h /.7.7.j@f.j@# @ O ).e M+-.v + + ",
"i@i@e.I.n.c h }.;+d+/.W+T.*+4+x z M <@6@3.O 1@b@g@p@n@C@C@C@n@n@D@o@u@u@E@D@F@B@]@%.v 7 ]+e+h % 6.7.7.I.n.a.$ 7.; P y & 0 o :.%.",
"a o.u+u+u+e.-+M N+N+%.v F a a Q {@c.<@1+z q@<@2@g@u@C@C@C@C@C@C@p@D@G@u@u@y@g@m@m@B@f@j ~ ~ x % ]+u u ^ ^ n 0@0@0.z Y _ _ =+^.p ",
"V V V b u+e.-+M N+N+%.v F a a F.{@F.<@U.0.H@^@I@y@p@C@n@w@u@z@p@C@u@y@p@C@w@p@g@z@n@u@J@K@~ % % T.u u ^ / ^ 0@g.( M O _ _ =+^.^.",
"(.~ H.F . r+W+T.F v 4+(@(@a V a p b@3@2@f@n@b@L@/@D@p@G@M@l@p@z@l@y@y@/@u@C@N@N@D@D@p@A@=@#@.+C y # g 2.& Z m.G [ f W b O@A q.q.",
".@(.$.N.6 T.8@V [ [ ,@H (@V V p p P@}@5@f@A@L@-@/@/@x@@@Q@G@w@C@R@C@u@y@w@N@N@N@N@z@E@y@t@q@S+C O S@r@z.n Z H+H+H+G v [.[.W.T@#@",
"(.p.C 6 6 8@8@8@W . *+>.+.T h p p U@V@}@W@z@x@b@'@X@Y@Q@Z@o@C@C@C@w@o@y@g@p@u@C@N@w@p@o@q@`@`+`+O Q+g > 0 Z H++ v [ . [.r W.T@) ",
"@+d..+N.N.n.j@j@m m y+_ _ 8 { d.c.c.K@ #d@.#+#@###q@I@l@l@p@C@C@u@g@E@D@D@D@D@y@D@D@D@x@E@$@ .S@$#n n N.N.v ;+;+)+I.I.r+T._.-.S+",
"++x.' N.N.I.j@j@m m # _ _ k { d.c.c.f@B@B@%#&#W@p@g@y@p@p@y@h@h@D@E@D@D@D@D@D@D@D@/@-@2@$@{@ .S@$#0 & N.N.N.;+~@n.j@I.]+T.H.-.-.",
"{+W.d Z Z D.=+)+u+K a.a.a.q+-+{ s.s.B@W@B@d@*#v@H@o@D@D@w@l@y@D@E@E@2@y@I@x@x@=@X@%#=#j.@+f.! ! P _.{+= 5 5 b.A.Y $ 9.O O i h.i ",
"` ` & n ^ u t T.J J Y.f.s@@ @ $ -#;#B@ #f@f@>#>#H@q@g@E@p@w@w@w@u@o@l@X@,#@#'#,#)#o+o+=+++y@D@l@'.$.C  . ._ ++a@4 Q+$#3+! w _+_+",
"` ` & n n Y t /., J !#f.j@@ @ $ ~#W@ # #B@W@>#{#p@g@g@l@D@p@u@p@D@G@@#]#]#^#####V.6.6.D.y@u@q@/#e@C $. .S@_ a@++g $#Q+! ! w _+_+",
"v.h.i ( ( ~ .@$.H+H+e C+5 X 2 2 W@ #~#;# #v@v@C@z@h@h@l@x@(#(#_#)#@#:#<#[#x@q@g@z@g Q+h@A@t@x@W@W@{.].Q T 3.5 5 z.}#}#|#|#9.O.O.",
"* h.9 i E j |.$.H+H+* C+p+2 1#2 F@B@;#H@W@{#m@n@g@h@l@y@/@o@%#]#(#p@^#@#1#D@N@`@u@y@N@w@g@`@g@t@~#].{.+.B r+5 1.z.}#}#|#|#O #.O.",
"o o d f }.' .+;+:.:.9 5 5 q+q+=+e@f@ #H@e@v@{#n@g@o@o@x@y@C@U@'#q@C@o@w.8 E@g@2#y@f@m@z@F@g@l@A@e@}.}.h r+/.& & z._+_+= ; '.A.~ ",
"+ + H+(@(@{.{.G F F 6.u ( ; ; W 3#o@e@B@]@v@~#3#o@p@g@B@e@e@_+[ h@n@/#8 4#y@o@D@x@f@H@~#n@q@t@n@f@= = 6.o+]+< < z.$#4 ~ j K.+.+.",
"+ + H+].{.{.{.:.F F ]+( ( ; O W 4+3#3#<@f@W@m@B@3#x B+W@m@`@V.v `@C@/#8 h z@o@q@t@v@v@F@g@f@f@m@e@; P 6.o+o+< < 1.g p+j ~ d.L L.",
"a K ^.(.~ @.L.+.h T.v N.6 S+S+d+~@B@f@3#t@ #;#H@3#v. .f@m@%@J.5#5#y@h@z@y@o@g@p@f@z@o@`@q@f@A@m@F@-#-#I.I.I.A.d.B ' W.J.1+C+T@C.",
"Y.Y.^.p.p.E.@.k.T./.6 N.N.S+S+d+d+.+B@f@e+m.6#;#o 1+G+`@1+}#C+5#5#J.g@C@/#f@3#F@n@x@G.D =+q@f@~#m@-#-#a.j@n.++++p @.W.1+1+C+C.C.",
"K K k.`+j H.7 7 k.k.f v %.C .+E.1 E.B@d@6.k.B@n e+h.p+5 %@1+%@4.C.C+t@n@z@t@z@W@v@x.y.++8 =+t@m@e@6.u W+8@r+d.A.B +.' & & 9 ) P ",
"l.l.W e * n n / E.E.R W W r+r+Z+Y.!#5 g l i@i@W+o+6.& & 1+1+%@M+o ` ` t@2@g@g@u@v@e.e.q ++++g@f@/@r r . [ F E.E.k.T.h ;.;.>.p p ",
"l.m.S * e Z n / E.E.R F W i.r+Z+Z+Z+5 g l i@i@W+o+]+n & 1+1+%@` M+` ` 0 x.D@h@p@m@F@e.q ++8 ++++/.r r . [ F E.E.k.T.h ;.;.>.p p ",
"t.O.$.{@c.4+,@+.D A $.$.$.B F.y.8 =+}#*.h L !#k@s W }.F ] -#9.j N h.}#n   W D@p@n@e@W+h F }.s@a@f.p Q t $ ( :.H+L L L ~ ~ 7 B.B.",
"7#7#~ >+{@H H 4+E E `+(.(.E.E.++l w.|#|#4#>.>.k@k@B.@.+.] ] ] l l 7@}#|#.   n z@C@e@r+c m.m.s@s@++1 c.e.y+-#Z.Z.>.>.@.3+O.A . . ",
"b+O.(.F.{@L | 4#x h C (.K.K.d.y.=+D.|#n }.L >.U c V k.B e.-+-+M M 2.> 7@7 d & g@u@h e+h h W ++8 d.c.E.a.8.6...:.L L @.O.O.= f W ",
"q.) X.Z+n.m m o+*+*+;+c..+_ _ V , , }.h h /.]+{ { { ~ ~ b+b+q.k@k@'.q.q.b+4.P z.h.< < i - _ / ~+S ...._._.9 l l W.S _.~.~.j C d+",
"q.q.'.Z+Z+m m )+*+u+L.~@.+_ _ 4#, , W }.h ]+r+{ { { ! p.b+b+j k@k@$.q.j |.4.C+z.z.< o E 3 3 / / S ;+..S d A { { W.f W.~.F+`+S+C ",
"y.f.x.+.Q O@O@o+5.5.:.L.%.9 9 r+I.i.' B x ^ ^ 9 / {+M N x % }.s s X.~ '.C _.`+j `+x k.z 9.4 u+u+c > 9 j t.~ +.+.4#+.4#d.d.D O Y ",
"Z+Z+^.R R u+u+0@_+_+%.Z.H+Z Z D.-#e.d.E.W.> v.Z o & '.'.. k@k@s U i.A.X.:.F $.p.p.X.i.z ; ; ,.,.b U.U.u.O.j ].(@| K K 5+L.D @ 8.",
"f.Z+Z+F 4#U b T._+7@F Z.%.0 0 0.-+8 ~@c.H.& i Z n A '.{+h . s b r j.X.s.v %.$.~ p.i.i.z ; ; [.,.b 1.1.3+7#! (@,@*+K *+>.5+D @ $ ",
"'.~ R I I {+'.x I I ! 7#7#5#5#! 5 ; >+>+{@K.K.0.t /.a a _  .4 o+o+0@e+  -.-.$.~ ~ y e N ! ! r+8@o+*.g.# _ O v M.B.k@s 8@8@M 3+O.",
"`+`+H.I I W.y 7 I I j 7#7#5#5#p+5 5 >+>+{@d.d.t t D.a a 4  .g o+o+&.e+e+-.-.$.~ ~ {+e N ! 3+8@O@o+*.g.# : 4 v v m.k@k@o.8@Y 3+O.",
"z D T >.| G.{+H.h V 3+P.P.5#5#j 0 W.%...).3+! { Y D.o.o.5 = 9 F F e+e+]+$.K.K.{+{+! ! ! ! ! s.y./.5.^ O k M Z.M.m.  k@u+u+D.4 O ",
"o+o+T {@{@' d 7 ]+]+3 P.P.5#5#C %.;+` ` 5 F+F+{ 8 a.)+)+9 * -.+ + W T.r+a@a@'.7 W.: : 3 ! ! ~ ~ ).` & ).'.d.:.Z.[ . . u+u+]+u 5.",
"6.o+T {@{@H.7 7 ]+/ 3+P.P.5#5#C %.;+` * p+F+F+{ { =+)+)+9 * o H++ W T.r+a@p.X.d W.: : 3+! ! ~ ~ ).` ` '.'.G.,@,@B.  k@u+u+o+u u "};
