/* XPM */
static char *coin[] = {
/* columns rows colors chars-per-pixel */
"64 64 256 2 ",
"   c #15191D",
".  c #212C18",
"X  c #181D22",
"o  c #1B2325",
"O  c #1C282B",
"+  c #1E3234",
"@  c #242B27",
"#  c #232C2C",
"$  c #28332E",
"%  c #2E3634",
"&  c #283937",
"*  c #1E413D",
"=  c #3B502A",
"-  c #2A443C",
";  c #35453C",
":  c #435835",
">  c #4C6331",
",  c #192C4A",
"<  c #25394E",
"1  c #2C3D63",
"2  c #1F4745",
"3  c #284A45",
"4  c #364944",
"5  c #2B564B",
"6  c #375848",
"7  c #2B5055",
"8  c #3B6953",
"9  c #3B6854",
"0  c #2F4C6A",
"q  c #334A66",
"w  c #355667",
"e  c #3C726A",
"r  c #425348",
"t  c #46664B",
"y  c #436A54",
"u  c #47775B",
"i  c #527352",
"p  c #4C6360",
"a  c #447765",
"s  c #789228",
"d  c #6F9656",
"f  c #4B8765",
"g  c #558D68",
"h  c #56966C",
"j  c #5B9C71",
"k  c #629874",
"l  c #66A878",
"z  c #71AC71",
"x  c #82A02B",
"c  c #A7C736",
"v  c #82A45D",
"b  c #1E3AAB",
"n  c #313EB9",
"m  c #3A4B97",
"M  c #345590",
"N  c #395797",
"B  c #39699B",
"V  c #1D5FAF",
"C  c #1947BA",
"Z  c #1857B9",
"A  c #3858A6",
"S  c #264ABB",
"D  c #3746BE",
"F  c #2A59B9",
"G  c #3955B8",
"H  c #1C67BB",
"J  c #3A65A6",
"K  c #356EAE",
"L  c #2967BC",
"P  c #3767BA",
"I  c #485396",
"U  c #4A6B93",
"Y  c #4856AE",
"T  c #4758B6",
"R  c #4766A8",
"E  c #5666AA",
"W  c #4974AB",
"Q  c #4968B7",
"!  c #5668B7",
"~  c #4978B7",
"^  c #5777B7",
"/  c #636CB6",
"(  c #153EC8",
")  c #313DD6",
"_  c #1A49CB",
"`  c #1C56C8",
"'  c #1C47DA",
"]  c #1D5BD8",
"[  c #284BC6",
"{  c #3649C6",
"}  c #2856C8",
"|  c #2B5ACB",
" . c #3756C9",
".. c #3C5CCC",
"X. c #284AD9",
"o. c #3649D9",
"O. c #2B54D5",
"+. c #2756D8",
"@. c #2B5BDA",
"#. c #3354D6",
"$. c #3C54D4",
"%. c #335BD4",
"&. c #3C5CD4",
"*. c #3B56DD",
"=. c #345CDB",
"-. c #3C5CDB",
";. c #1B68C9",
":. c #1A67D5",
">. c #2B65CD",
",. c #2968C9",
"<. c #3668CA",
"1. c #3B69CB",
"2. c #2A75CC",
"3. c #3874CA",
"4. c #2B66D7",
"5. c #3467D7",
"6. c #3A63D4",
"7. c #3B6BD4",
"8. c #3C63DC",
"9. c #3B6ADA",
"0. c #2B73D5",
"q. c #3B73D4",
"w. c #3776D9",
"e. c #1D4BE2",
"r. c #1C58E3",
"t. c #274DE2",
"y. c #384BE3",
"u. c #2C55E3",
"i. c #2958E7",
"p. c #2B5BEA",
"a. c #3B5AE4",
"s. c #3859E8",
"d. c #2E57F4",
"f. c #385AF6",
"g. c #1C62E8",
"h. c #2C66E7",
"j. c #3463E3",
"k. c #3C64E4",
"l. c #336BE4",
"z. c #3C6BE3",
"x. c #3364EB",
"c. c #3C64EB",
"v. c #346CEB",
"b. c #3C6CEC",
"n. c #2C74E8",
"m. c #3B74E4",
"M. c #3877E6",
"N. c #3372EB",
"B. c #3D72EB",
"V. c #2C67F1",
"C. c #3766F2",
"Z. c #3A6AF3",
"A. c #2E7FF5",
"S. c #3C74F4",
"D. c #3978F6",
"F. c #464CC8",
"G. c #4554CB",
"H. c #4854C9",
"J. c #455BCD",
"K. c #4751D7",
"L. c #445BD3",
"P. c #4858D6",
"I. c #435DDB",
"U. c #535AD5",
"Y. c #525CDB",
"T. c #4767C9",
"R. c #4565CC",
"E. c #5468C9",
"W. c #4574CC",
"Q. c #5576C7",
"!. c #4764D5",
"~. c #446BD4",
"^. c #4A6BD4",
"/. c #4363DB",
"(. c #4A65DC",
"). c #446BDC",
"_. c #4B6BDB",
"`. c #5568D8",
"'. c #4A72D4",
"]. c #4A7AD6",
"[. c #4677DA",
"{. c #4B74DC",
"}. c #5475DB",
"|. c #537BDB",
" X c #567AD8",
".X c #687AC5",
"XX c #4448E4",
"oX c #445BE5",
"OX c #4759E6",
"+X c #4A5BEB",
"@X c #515AE6",
"#X c #495AF3",
"$X c #515EF8",
"%X c #4464E3",
"&X c #4A63E4",
"*X c #446CE4",
"=X c #4C6BE5",
"-X c #4564EA",
";X c #4B64EB",
":X c #436DEB",
">X c #4B6BEC",
",X c #5666E7",
"<X c #536BE4",
"1X c #536CEB",
"2X c #4473E4",
"3X c #4B73E3",
"4X c #4373EB",
"5X c #4B74EC",
"6X c #477AE8",
"7X c #4C7BEB",
"8X c #527BE4",
"9X c #5677E9",
"0X c #4B6DF3",
"qX c #4A68F6",
"wX c #5668F7",
"eX c #536CF4",
"rX c #4374F3",
"tX c #4C73F2",
"yX c #4C7BF4",
"uX c #4D74FB",
"iX c #467AF8",
"pX c #5373F4",
"aX c #5676F7",
"sX c #5B74F4",
"dX c #537BFC",
"fX c #646BE8",
"gX c #6276EB",
"hX c #666BF7",
"jX c #636BFB",
"kX c #6678F7",
"lX c #7175FB",
"zX c #6AB883",
"xX c #5B8EA3",
"cX c #2D81D0",
"vX c #3683D8",
"bX c #3B84E7",
"nX c #3B84F8",
"mX c #4E84C7",
"MX c #4784DB",
"NX c #5983DC",
"BX c #658BDA",
"VX c #4886E7",
"CX c #4B84EB",
"ZX c #5887E8",
"AX c #5191E7",
"SX c #4887F6",
"DX c #5B84F4",
"FX c #5689F7",
"GX c #5483FC",
"HX c #4893FA",
"JX c #5692F9",
"KX c #6386E9",
"LX c #6592E4",
"PX c #6487F8",
"IX c #6893FA",
"UX c #9AB686",
/* pixels */
"U E T ~ ~ I m m R R A R A m I M J Y ^ / E B B M U I I I Y R N m M J Q ! / / E E U I I m m N Q W R I I J J R E E E Y E T E R J M ",
"E.qXtXHXHX@.X.o.-X>Xn.n.l.{ { %.x.x.PXPX6X0.0.>. . .XXXXc.c.=.[ [ C.D.dXlXhXfX X}.D n S O.@.nXnX5XJ.J.n.n.v.,X,XwXwXqXqX0Xb.w.K ",
"T oXb.SXSXj.O.@.*X*X4.4.@.%.$.8.:X:X8X|.w.w.w.6.&.*.a.o.x.z.j.8.&.rXGXJXlXlXgXfX9X....%.%.%.N.0.*X}._.6XB.6X<X<X,XuXeXeX>X5X2XW ",
"m { &.S.D.N.h.l.k.%X+.X.+.D.CX6X7X8XF G q.CXVX;X;Xs.t.t.n.n.bXdXyXPXIXIXKXKXgXhXsXbXw.q.6.>.} [ &.DXyXPXPXDX>X2X9XtX5X}.<X9XsXE.",
"I n ..4XS.N.N.v.%Xk.O._ +.SXSXCX7X6XF F 3.VXCXqX$Xf.e.e.h.n.M.GXFXIXIXIXKXKXkXhXjXbXbXm.7.5.C C 5.GXGXPXPXPX6X5XCXaX9X}.}.gXkX.X",
"N } | w.0.j.h.j.*X:X-X-Xb.2X2X5.2.,.<...8.b.b.#X#Xy.t.y.@.a.8.&X&XNXKX|.U.`.`.`.<Xa.a.c.9.h.+.+.a.*X=X3X<XsXaXaX1X`.,XgXgX<X8.R ",
"B L 2.2.0.h.u.p.4X4XeXwXeX_./.,.` ;.k.8.a.j.V.a.s.y.y.y.*.*.$.P.J.^.W.W.F.F.`.^.^.XXXXa.h.j.i.i.p.&.&.!._.>XkXaX,X`.,XlXkX/.| A ",
"R P <.2.2.@.+.u.4X5XeXeXeX*X9.4.:.:.z.*Xv.b.x.*.*.#.y.) #.s.-.I.I.'.].].I.L._.|.}.XXoXa.p.i.i.i.@.&.-.)._.2XdXpX`.`.`.lXkX). .J ",
"! <X/.>.` ] +.@.>XtX3X_.3Xx.Z.v.l.N.CXCXVXnXnX,.F [ { { 4.a.j.c.k.ZXZXNXiXCXVX|.8X;X&X;Xs.s.i.i.t.+.@.2X2XM.N.M.`.E.U.fXfX}.*XR ",
"/ fX_.| ,.:.] h.yXpX{.'.{.C.Z.v.b.b.ZXFXHXnXnXL F S { { 5.l.c.Z.Z.ZXLXZXnXSXCX7X8X1X1X;Xa.s.i.i.r.O.@.m.2XM.n.N.!.E.E.fXfX8X[.Q ",
"T -Xz.4.4.j.k.z.7X9X).1.1.8.k.~.7.^.CX7XVX6X6X%.6.@.>. .b.B.:X+X&X=X3X|.6X6XyXtX5XsXsX>X>XrXx.C.h.#.%.a.!.~.G.$.P.^.^.8X8XDXZXxX",
"P V.h.4.4.%X1X>X8X8X1... .R.R.R.W.Q.2X6X{.|. X=.a.4.,.0.4XS.:XY.@XI.6.-.2X3X0XqXwXsXsXaXGXGXZ.Z.c.%.%.$.L.F.D H.L.).!.bXVXKXLX.X",
"Q V.v.5.7.).<X}.|.8X6.$.%.J...W.Q.Q.w.)._.}.|.c.k.k.w.z v 7X5X(.+X/.-./.z.*X:XqXqX1XeXtXdXyXB.S.z././.L.J.G.F.G.J.6.7.bXbXZXKXmX",
"T :X5XDXFX^.W.~.!.{.=.u.@.X.O.^.NXNX} [ &.3X5XwXwXuXrX.Xx v y pXCX&XoXs.i.i.rXdXdX<.<.%.y.a.9.9.3XsXaX'.W.|.KXsX6.[ 6.FXSX3X`.E ",
"! -X9XIXIX].1.3.~.'.p.p.t.X.X.).ZXNXS S %.tXtXjXjXaXuXuXmX> ; q CX&X+XoXr.r.S.GXGXL H O.o.o.5.7.8XPXPXMXMXMXIXIX6.S | DXDX=XG.Y ",
"Q 0X0X4XyX>.G ..!.).v.N.C.*.#.*X7X6X@.@.j.qXqXjXjXjXuXeX*XG 4 4 0 a.y.o.} O.5.k./.} } %.a.a.l.m.N.-X-X[.w.2X;X;X+.} @.|.].*Xz.R ",
"T.0XqXp.x.} S { /.&X4XD.SX%X/.b.B.b.V.V.C.Z.f.jXjXjXwXwXy.o.S ; % q ) ) S [ [ { { ) o.-.m.).D.D.V.' X.l.m.l.o.t.X.] :.W.W.[.D.Q ",
"Q.uXc.+.u.[ [  ./.(.rXnXD.-X%Xb.b.b.D.V.Z.f.f.jXjXwXwXwXy.X.y.J.% ; 1 o.[ } D { D o.) -.).m.D.nXV.' ' v.m.j.) X.+.] @.W.W.2XB.W.",
"! wXY._ C &.k.8.5.5.b.c.S.FXFX9X<X&Xy.t.u.@.u.3X=X9XdXFXwXwX#Xu.D & < 1 4XtX(.I.-.p.V.M.bXVXJXJX3X#. .I.I.=.} @.B.iXyX2X2X:XS.Q ",
"/ fXP.[ C -.:Xz.2.2.v.C.4XJXFXsX1X,XX.) X.| | ).[.6XHXFXjXjXwX' X.<.& 4 dXdX>X&X&XV.n.bXvXAXIXIX8X . .K.L. .,.>.iXGXGX2X4XrXD.Q ",
"/ ,X!. .S /.(._.w.2.2X:XB.HXCX7XpX>XO.X.X.UX,.9.5.m.JXJXsXw w 0 s.w = - 0 6X=XOXoX4.j.0.cXvXJXIX8X_.^.J...J.q.w.D.D.rX0X0X-X8.R ",
"T <X!.J.T.E.Y.`.MXMX].}.^.vXw.6XyXuX:.>.,.c d 4.] 0.JXxXU e f a B 9 t & ; q (.@XOX>.,.2.cXcXAXZXKXLXNX.. .1.vXvXV.V.C.wXqX=.[ m ",
"! =X!.E.E.`.`.`.MXMX{.}.{.0.2.rXuXdX| ;.L x c d 7 xXxXl j l l k f l g 9 ; - 1 +X&X,.,.2.2.2.ZXZXLXLXBXR. .<.vXvXn.g.C.wXeX-._ M ",
".XDXgXsXgX`.`.<X9XaX&XL./.5XrXB.m.m.e e e = s s : 8 g l l l l l l l l f y 6 < q -X_ ` 4.w.bXDXPXDXDX9X..D  .3.q.&.$.&.oXoX(.&XY ",
"^ PXPXkXkX}.`.<XsXsX>XL.I.uXdX4X5.w 9 e f i : > 6 6 ; y h g zXzXzXzXzXh u 8 4 3 q _ _ 4.B.iXIXIXFXdXpX{ D  .q.q.J.F.H.-.-.&X1X! ",
"/ DXsXsX9X>X=X5XaXgX/.%.-.0XuX%Xw 6 6 e f h f ; 6 ; ; ; r 4 t i f e u u y y 6 & & , q =.z.b.ZXsXaXtX0X{ D  .~.R.J.G.G.oX&X/.!.E ",
"Q 5X8X{.|.rXZ.rXZXZXq.>.>.;X=XU t 6 5 9 8 f u f h h 9 ; ; ; 4 6 ; ; 6 6 9 y 6 & # o = f.o.o.,X`.;Xa.%X{ D D J.T.L.$.I.sX5X~...M ",
"Q 6X2X).3XZ.Z.rXLXLX7.,.<.&X,XH.6 6 3 5 6 8 9 y h h h h g u g h j h 9 ; 4 3 5 o O X $ s.o.o.Y.@X+Xa.p.D D D T R.%.%./.aXsXT.J N ",
"I J.F.U.`.eXuXyXVXZX/.$.I.uXdXk.G G 7 3 3 5 5 5 f u u j h f l j h h y 6 6 4 3 O @ O W.rX+X#X<X&XoXy.y.L.G.K. .#.%.4.9.S.rXnXM.mX",
"m D D U.U.sXdXyX3XVXoXK.oXdXGX%X+.| Q.2 * 5 3 5 8 8 6 f f 8 f f f e y 9 y & < & % W.HXdXwXwX>X;XoXy.y.U.E.U.o.o.6.5.0.A.bXSXAXmX",
"I T F.U.Y.eX>X5XVXMX*XI.+XsXDX*X8.6.ZX3 * 2 - 5 8 5 5 f u 8 u f a u 9 9 3 & $ & < w w 0 -XqX>X:XoXy.y.Y.`.K.o.o.=.4.9.N.M.iXSXmX",
"E Y.@X$X,XU.L.8.MXMXVXiX7X1X1X9X|.].h.C 2 * 3 6 5 5 5 8 8 8 u f u e 9 6 $ o $ % r 4 6 4 1 6.*X:XoXs.s.%X-Xc.f.#X-.5.%.O.O.!.}.W ",
"! 1X,XwXwXF.{ 6.vXAXVXSXGX,X,X XNX Xr.i.- - t 6 5 5 5 y 8 6 8 a 8 8 - - o o o ; % % ; & < 1.:X:X-Xa.a.c.b.c.#X#Xs.&.%.[ [ P.`.E ",
"R 1.*XuXaX&XoX&XCXSXFXDXDXfX,X,X X].z.c.1.8 6 5 7 3 t y 8 6 8 8 8 5 2 + O - @ % % # % & & < 2Xw.8.X.X.s.Z.S.uXdXrXB.5X+X+X8.w.B ",
"B 3.q.SXiX:X@X1XyXSXDXIXPX9X1X}.}. X6X7Xk r 5 3 2 8 8 8 6 6 8 5 5 2 +     $ % : R @ $ # @ O w.w.=.( ' p.Z.D.GXJXGXGXiXwXwXM.2.B ",
"B P q.nXnX;XwX,XtXuXDXKX9X<X>X}.}. X9X9X Xi 8 - - i 8 5 5 4 5 5 2 +     . : T ! '.Q.~ R # K 0.3.%.' X.x.N.D.JXHXSXGXuXjXeX0.;.K ",
"U W.[.nXnX<XY.Y.XX+XXX#. .L.&.'. X|.GXdXGXMXr : d t 5 7 5 3 2 + O X X X ~ mX&.{  .ZXZXZXW NX_ _ X.V.C.nXnXSXVXVX@X&X,X&X>XM.vXW ",
"E '.[.nXnX(.Y.U.XXXX) [ [ %...'.|.NXdXGXuX7 r d d > 6 5 5 5 + + X X     , < q w q ZXAXLXBX X_ _ ' v.N.nXnXnXCX|.`.Y.Y.;X-X2XbXK ",
"R ).m.D.rX%XP.Y.wX@XK.$.G.{  ...^.w w q < O - ; : = ; - 4 & + o o G         $ - < w q }.Q.E.} } 4.m.z.h.h.j.W.W.L.o.#.=.-.l.n.Q ",
"P n.B.Z.Z.s.$.&XhXlXfXE.U.o.o.{ $.G - @ O @ @ O + $ @ H 1.- O o X (.Y   X   # & $ $ # !.T.^.5.7.w.w.5.` _ [ R.1.O.X.+.} O.@.p.G ",
"K A.v.Z.Z.-.-.%XkXlXgXE.U.o.o.o.#.$.L + & & O o o Q H :.1 - + . X ,XY.Y     o @ # # O < 1.R.7.6.q.q.w._ _ [ Q R.X.' ' } } X.d.G ",
"P h.l.s.s.6.3.7.FXJX2X0.O.{ { { T  .0.L P & O B K 3.L L & - - @ ^ a.t.o.m b Y @ # X X O DXyXG. ._.FX9X*XI.&.@.@.i.d.d.f.s.O.} N ",
"P h.l.l.k.,.L 3.HXJXn.:.] D D D D G 0.2./.T Y W.q.3.P L + - $ ^ BXa.u.O.n D =X^.T.o X o JXJXF.F.^.PXDX9X=X/.+.i.i.d.d.f.f. .F M ",
"Q D.N.S.5X{.q.6XFXFXM.@.+.{ S G.R.L.6.1.&.P.P.[.MX~.}  .S # G ZX9XI.a.#.G.{ /.2X5XS [ { 6XB.~.).=XyX5X5X&X%Xx.C.i.d.d.@.=.1.<.B ",
"mXHXHXFXDXDXDXGXyXyX&Xs.s.%.%.5XDXGXJ.L.L.K.$.ZXZX4Xo.o.e.O u.D.aX_.J.J.=X&XJ. ...qXqXs.u.p.SXSXSX5.j.oXoX-XD.D.i.] @.<.>.'.8X! ",
"~ HXJXPXDXJXJXFXyXyX-Xa.s.=.%.rXDXaXP.J...o.$.ZXZX*Xt.o.' b t.SXdX^.G.J.>X1X%.D { 0XqXx.e.u.HXHXbX@.4.+X+X#XiXD.u.' | ,.1.{.9X^ ",
"^ sX}.[.W.7XDX9X5X>XSXnXD.w.w.MXVX|.XXXX@X0X0Xb.Z.V.' ` e.r.] ` } +.X.e.p.s.X.( [ 2X2X8.&.$.p.h.u.$.$.Y.Y.Y.~.[.*X9.l.+.:.:.2.K ",
"E fX`.<.P ].8X9X-X%XiXnXnXvXvXMXMX[.XXXXqXdXdXZ.S.r.Z _ r.d.:.Z Z ] e.e.d.t.' _ _ 9.).(.L.I.e.e.t.$.o.P.Y.`.T.^. X7Xl.r.r.:.:.J ",
"/ fX<X1.,.{.4X5X=X=XrXSXSXw.[.MX X].$.y.OX>X1XZ.qXh.` O.r.r.g.;.:.:.r.i.s.a.@.O.O.^.!.R.J.P.+.+.y.oXy.Y.,X(.^.^.{.8X2XV.l.w.0.A ",
"E.hXtXw.0.Z.Z.b.{.[.6XyXyX*X/.}.fXfX@.X...H.H.OX+XoXh.h.r.r.g.nXn.n.n.v.).).w.bXbXH.G.J.R.R.6.T.(.wXqXuXuX5X].'.=X>X5XPXJX9X{.W ",
"E.uXrXn.l.B.Z.b.].].7XyXtX(.&X`.`.`.@.X. .T F.P.oX-XC.v.r.r.g.n.A.n.n.N.^.}.CXHXVXF.F.J.R.J.T.T.&XwXwXuXiX7X].].=X-X1XIXIXKX XE ",
"R <.q. XMXyXDX6X).*Xw.[.[._. X!.J.P.d.d.&X<X`.wXwX0X5XiX*.#.u.>.4.V.d.C.>X5X4XN.B.oXY.&X7X=XG.T.E.<X1Xa.a.%XDXFX9X9X9X'.'.6XtX! ",
"M Z <.NXNXIXIXDX*Xk.5.3.3.[.].^...L.f.f.1XKXKXaXuXpX8X9XK.XXK. . .p.d.f.uXuXC.x.v.;X&X0XdXpXE.E.^. X|.F.) -.JXJXKXKX3X} | *XuXQ.",
"M L 3.|.NXZXgX9X*X*Xw.3.W.[.'.R.L.I.f.C.5X9XKXeXuX1X=X{.F.$.$.6.6.s.x.f.4X4Xv.x.x.>X;X>X5XpXJ.J.'.|.'.L.o.oXCXFX9X9X|.F F l.rXQ ",
"B 2.3.`.`.Y.XX+XpXsX6XNX[.O.O.<XkXkX0X>X>X&X>X6.L.&.1.1.L Z 2.eXtX9.0.<.,.;.4.p.V.iXiXj.{ #.b.4X6XVXCXz.b.j.6.R.3X7Xw.C S 4.m.W ",
"K 2.5.^.`.XXXX@XsXwXZXMX[.[ [ <XPXPXtX5X>X-X&X&.....| P H H >.aXaXq.2.,.,.;.:.p.p.D.D.a.[ [ b.:X6XCXCX6XB.k.....M.rX9.C C 3.vXW ",
"R T.^.8X9X@X+X+X+X-XGXZXVXl.4.&X&X<X3X3X=Xc.c.5.z.9.6.6.9.*X4XwXwX/.<.7.0.w.4.>.5.4X*X8.#.O.wX;XrXl.m.2.>.7.3X5X9X7X8XR.~.~.6.A ",
"E `.`.9X8XwXwX#Xd.p.VXJXJXB.S.oXK.F.'.].2Xv.V.Z.D.l.7.7.uXuXuXqXeX_.1.~.ZXyXq.L P !._.8.%.=.jXhX;Xi.i.` F <.PXKX9XfX,XZX8X-.o.Y ",
"E E.`.6X1XeXeX;Xy.s.tXFXCXN.N.-.$.G.].VX2Xv.j.S.C.z.7.9.>XuXwXwXwX_.~.~.SXVXq.<.L _./.8.=.=.jXhXwXi.i.} Z 6.IXFXkXfXsXKXZX-.o.A ",
"R R.3XsXkX*X/.*XsXaX=.,.,.;.` | O.%.LXLXNX).[.8.a.%X<X`.O.X.=.+X+X#XqXqXVXbXq.<.<.9.5.6.| O.,XwX+Xf.y.X.[ 6.SXVXpXeXeXsX<X6.[ m ",
"R <.2XkXkX2X9.:XkXkX<.Z Z Z Z ` +.+.LXLXBX].'.=.*.I.,X,XO._ X.oX#X$XqXqXbXbXq.3.1.9.0.5.} | ;X@XoXf.s.X.[ @.SXSXdXeXeX,X;X$.} N ",
"J -.,XZXgX2Xw.2X>XpX| S S Z Z ,.l.l.VXAX7.| | ..&.I.,X,XO.@.4.tXtX#XqX-Xw.[.W.7.7.| | | | | (.!.oXs.a.#. .7.JXSXdXuXsXwX,X-.O.N ",
"! oX<X XNX3XB.4X-X-X[ [ S Z Z 0.VXVXN.N.@.C (  .J.P.@XY.l.n.bXHXHX0X;X&XQ 1.7.4Xm.[ [ [ | } 1.1.5.N.b.5.7.{.FXJXuXuXuXwXeXc.a.T ",
"T +X1X XNX{.5X4X-X:X} S S Z Z 0.VXCXN.n.] C b ....P.@X@Xl.n.D.HXHXtX;X&XP P ~.B.m.S [ } } | <.<.5.n.N.7.9.{.FXFXeXuXeXhXeXoXa.T "
};
