/* XPM */
static char * enemy3_xpm[] = {
"64 64 493 2",
"  	c #A6D563",
". 	c #A7D568",
"+ 	c #A4D35D",
"@ 	c #ACDB69",
"# 	c #AAD964",
"$ 	c #A0CF5C",
"% 	c #C1F276",
"& 	c #B1E166",
"* 	c #A9DA5E",
"= 	c #BCEC74",
"- 	c #A9D76A",
"; 	c #A8D764",
"> 	c #A6D85E",
", 	c #B9E96F",
"' 	c #9BCB55",
") 	c #B3E36B",
"! 	c #C3F37C",
"~ 	c #9ECD5A",
"{ 	c #A2D357",
"] 	c #98C754",
"^ 	c #95C552",
"/ 	c #A7D862",
"( 	c #83B33E",
"_ 	c #93C34D",
": 	c #99CA4D",
"< 	c #90BF4C",
"[ 	c #9FD056",
"} 	c #90C046",
"| 	c #8BBA46",
"1 	c #88B744",
"2 	c #B8E773",
"3 	c #C6F87E",
"4 	c #9FD05A",
"5 	c #AFE06A",
"6 	c #AEE067",
"7 	c #B6E570",
"8 	c #BFF079",
"9 	c #B7EA6A",
"0 	c #C7F882",
"a 	c #BEF075",
"b 	c #97C854",
"c 	c #96C84F",
"d 	c #A4C09B",
"e 	c #9E99C8",
"f 	c #9994C5",
"g 	c #A1B7A5",
"h 	c #A3C292",
"i 	c #9D9DBD",
"j 	c #A5C788",
"k 	c #A0B5A2",
"l 	c #9A84D6",
"m 	c #9767E6",
"n 	c #998CCC",
"o 	c #A2C195",
"p 	c #A6D175",
"q 	c #9EB0A4",
"r 	c #9562E1",
"s 	c #9EA9B5",
"t 	c #A4C88A",
"u 	c #A9D66C",
"v 	c #A2C486",
"w 	c #9C7FD9",
"x 	c #9660E8",
"y 	c #947BDB",
"z 	c #A4C493",
"A 	c #9EB1A5",
"B 	c #935CE5",
"C 	c #9365E7",
"D 	c #9C9EC5",
"E 	c #CBFB83",
"F 	c #A8CF7F",
"G 	c #9982D7",
"H 	c #9558ED",
"I 	c #9563E8",
"J 	c #9D99CB",
"K 	c #9887D0",
"L 	c #9757EC",
"M 	c #925AEA",
"N 	c #9998C6",
"O 	c #AED680",
"P 	c #9756EF",
"Q 	c #9855F0",
"R 	c #9358EA",
"S 	c #9557EB",
"T 	c #9B53F2",
"U 	c #9459EC",
"V 	c #8DBC4A",
"W 	c #B8E189",
"X 	c #A28FD7",
"Y 	c #9A54F0",
"Z 	c #9E51F7",
"` 	c #9D52F6",
" .	c #9E52F6",
"..	c #9E52F5",
"+.	c #9757F0",
"@.	c #9C97C9",
"#.	c #85B541",
"$.	c #BDE68B",
"%.	c #A390DA",
"&.	c #9A54F1",
"*.	c #9F51F7",
"=.	c #9E51F6",
"-.	c #9657EF",
";.	c #9793C8",
">.	c #A4D066",
",.	c #A5C988",
"'.	c #A8C894",
").	c #A7BFA4",
"!.	c #9D7CE0",
"~.	c #9C53F3",
"{.	c #A051F7",
"].	c #9F51F6",
"^.	c #9E54F5",
"/.	c #9976E1",
"(.	c #9BA4B7",
"_.	c #A6CC80",
":.	c #9A8FCD",
"<.	c #9B73E4",
"[.	c #9F6DEB",
"}.	c #9E5AF4",
"|.	c #A051F8",
"1.	c #A14FF9",
"2.	c #9F5CF4",
"3.	c #A1B0AE",
"4.	c #A7D374",
"5.	c #9DC671",
"6.	c #9AA9AA",
"7.	c #9FA5BA",
"8.	c #A29DC8",
"9.	c #9B6AE9",
"0.	c #9B54F3",
"a.	c #9D53F5",
"b.	c #A150F9",
"c.	c #A24FF9",
"d.	c #9F51F5",
"e.	c #9E51F5",
"f.	c #9F57F4",
"g.	c #9A91CA",
"h.	c #9FBA9D",
"i.	c #93B57E",
"j.	c #9677D8",
"k.	c #9856EC",
"l.	c #9D51F2",
"m.	c #9F50F8",
"n.	c #9E52F7",
"o.	c #9D54F4",
"p.	c #A050F8",
"q.	c #9E51F4",
"r.	c #968EC9",
"s.	c #A0C481",
"t.	c #A7D270",
"u.	c #98B984",
"v.	c #9A75DF",
"w.	c #9D52F4",
"x.	c #A150F8",
"y.	c #A051F6",
"z.	c #A151F6",
"A.	c #A04FF8",
"B.	c #9B53F1",
"C.	c #9764E5",
"D.	c #917CCF",
"E.	c #9EBC91",
"F.	c #A2C389",
"G.	c #9B75E0",
"H.	c #A350F6",
"I.	c #A050F7",
"J.	c #9F51F8",
"K.	c #9B54EF",
"L.	c #925AE6",
"M.	c #9593C3",
"N.	c #9BB799",
"O.	c #A8D666",
"P.	c #A5C78D",
"Q.	c #9B77E1",
"R.	c #9B53F3",
"S.	c #A051F5",
"T.	c #A151F4",
"U.	c #9E52F4",
"V.	c #A050FA",
"W.	c #9F50F7",
"X.	c #A150F7",
"Y.	c #9F52F4",
"Z.	c #8E5AE7",
"`.	c #928DCA",
" +	c #A1C680",
".+	c #A7D36F",
"++	c #A4C58E",
"@+	c #9E74E5",
"#+	c #9C52F3",
"$+	c #9A55EB",
"%+	c #9758E9",
"&+	c #9856EE",
"*+	c #9C52F6",
"=+	c #9E50F7",
"-+	c #9E50F6",
";+	c #9D52F3",
">+	c #9D52F5",
",+	c #9955F0",
"'+	c #9567E5",
")+	c #927FD0",
"!+	c #A1BE97",
"~+	c #9FC776",
"{+	c #9EACAC",
"]+	c #A3ABBA",
"^+	c #A29EC8",
"/+	c #9C68EC",
"(+	c #9D80DC",
"_+	c #A0A0C1",
":+	c #9FA0BF",
"<+	c #9FA1BC",
"[+	c #9DA1BA",
"}+	c #9A8AD1",
"|+	c #9657ED",
"1+	c #9C52F4",
"2+	c #9C54F1",
"3+	c #9657EC",
"4+	c #9F93CE",
"5+	c #A3AABA",
"6+	c #A3AABB",
"7+	c #A2AAB6",
"8+	c #A2B7A3",
"9+	c #A7D46E",
"0+	c #A7D56B",
"a+	c #9FC679",
"b+	c #A5BE9E",
"c+	c #9D6EE7",
"d+	c #9D53F6",
"e+	c #9559F0",
"f+	c #9DA6BB",
"g+	c #8FA29C",
"h+	c #906BDA",
"i+	c #9B5AEE",
"j+	c #9F51FA",
"k+	c #9E52F2",
"l+	c #9F5AED",
"m+	c #A46BEB",
"n+	c #A25AF2",
"o+	c #9B55F0",
"p+	c #9C87D3",
"q+	c #9FC872",
"r+	c #BEEE79",
"s+	c #A4C78C",
"t+	c #9992CD",
"u+	c #9D7BDF",
"v+	c #9E59F4",
"w+	c #9559EC",
"x+	c #8C5FE4",
"y+	c #99A8B2",
"z+	c #8BB365",
"A+	c #91AA90",
"B+	c #9D76E0",
"C+	c #9D51F7",
"D+	c #9A54EF",
"E+	c #957BCF",
"F+	c #A7C199",
"G+	c #9A86D4",
"H+	c #9658ED",
"I+	c #9954F1",
"J+	c #9657F0",
"K+	c #9B54F2",
"L+	c #9458EA",
"M+	c #9589CD",
"N+	c #A6D076",
"O+	c #ACCB99",
"P+	c #A2A6C2",
"Q+	c #9A63EA",
"R+	c #9C55F0",
"S+	c #9D54F2",
"T+	c #9C54F5",
"U+	c #9F87DC",
"V+	c #9B9EBF",
"W+	c #96A0B8",
"X+	c #9EBD95",
"Y+	c #9EC089",
"Z+	c #979FB7",
"`+	c #9E6EE6",
" @	c #9A7DD9",
".@	c #9CB0A9",
"+@	c #9AA4B7",
"@@	c #9C9FC0",
"#@	c #9E9EC4",
"$@	c #9999C2",
"%@	c #9D9EC4",
"&@	c #9D98C4",
"*@	c #9DB0AB",
"=@	c #A3CF69",
"-@	c #A7D370",
";@	c #A3CD71",
">@	c #B7E281",
",@	c #AAACCC",
"'@	c #9956EE",
")@	c #A151F5",
"!@	c #A251F5",
"~@	c #A059F3",
"{@	c #9B6EEC",
"]@	c #AABBB7",
"^@	c #A6D465",
"/@	c #A8D278",
"(@	c #9FAABA",
"_@	c #9656F4",
":@	c #9F52F5",
"<@	c #A150F6",
"[@	c #9955F1",
"}@	c #8C5EE2",
"|@	c #9EB3A5",
"1@	c #A5CE76",
"2@	c #9FC970",
"3@	c #A8D570",
"4@	c #9DADB0",
"5@	c #9988D2",
"6@	c #A58BDB",
"7@	c #A371EA",
"8@	c #9F53F3",
"9@	c #9D53F2",
"0@	c #9B80DB",
"a@	c #ACC3AC",
"b@	c #A7CC85",
"c@	c #A6CE7C",
"d@	c #A09FC4",
"e@	c #9D75E5",
"f@	c #9C52F7",
"g@	c #A250F6",
"h@	c #9856ED",
"i@	c #9C78DE",
"j@	c #9C87D4",
"k@	c #978BCF",
"l@	c #A0BE96",
"m@	c #A3CB7C",
"n@	c #9DB3A3",
"o@	c #9984D6",
"p@	c #9956F0",
"q@	c #9E6BEA",
"r@	c #ABA4D1",
"s@	c #A8ABC8",
"t@	c #A1B2B0",
"u@	c #9FC96F",
"v@	c #A4C68E",
"w@	c #A0AAB6",
"x@	c #9D72E5",
"y@	c #A052F5",
"z@	c #9C53F2",
"A@	c #9E52F3",
"B@	c #9B54F0",
"C@	c #9458EB",
"D@	c #9E99C9",
"E@	c #A3B3B0",
"F@	c #A1B4AC",
"G@	c #A6CA88",
"H@	c #A5D36A",
"I@	c #A0B8A1",
"J@	c #9062E1",
"K@	c #9955EF",
"L@	c #A050F9",
"M@	c #995BF0",
"N@	c #9A8CD3",
"O@	c #BBE589",
"P@	c #9FAAB5",
"Q@	c #9854F0",
"R@	c #A151F7",
"S@	c #9D58F4",
"T@	c #9B60EF",
"U@	c #9B60EE",
"V@	c #9B5FEF",
"W@	c #A056F3",
"X@	c #A051F4",
"Y@	c #9C52F1",
"Z@	c #9B53F4",
"`@	c #9955F2",
" #	c #9558EB",
".#	c #A1B0B0",
"+#	c #A0CC65",
"@#	c #A4D35E",
"##	c #A9DA5F",
"$#	c #99AEAA",
"%#	c #9383D1",
"&#	c #9659EB",
"*#	c #9A55EF",
"=#	c #A09DC7",
"-#	c #A2C292",
";#	c #999EB3",
">#	c #9E53F3",
",#	c #9D8AD6",
"'#	c #A4BCA1",
")#	c #A3BAA0",
"!#	c #9EB59E",
"~#	c #A1B8A0",
"{#	c #9A86D5",
"]#	c #9759ED",
"^#	c #9A7BDB",
"/#	c #9DA7B5",
"(#	c #A3CE6C",
"_#	c #A2C97C",
":#	c #9DB3A4",
"<#	c #9685D4",
"[#	c #945AEB",
"}#	c #9A55F1",
"|#	c #9D82DA",
"1#	c #9F95CB",
"2#	c #9F95CD",
"3#	c #A3BE9A",
"4#	c #9FCB6C",
"5#	c #98B395",
"6#	c #9B8CCC",
"7#	c #9F52F3",
"8#	c #9C53F4",
"9#	c #985DEB",
"0#	c #9A88D5",
"a#	c #9BADA9",
"b#	c #AAD867",
"c#	c #9CAFAB",
"d#	c #9787D2",
"e#	c #965AEB",
"f#	c #9D53F4",
"g#	c #9A78DB",
"h#	c #9EAEAA",
"i#	c #A6CD81",
"j#	c #9EB5A2",
"k#	c #915AEB",
"l#	c #9C53F5",
"m#	c #A052F8",
"n#	c #9B58F2",
"o#	c #A3B5AC",
"p#	c #A2C684",
"q#	c #987DDD",
"r#	c #9856F0",
"s#	c #9C52F2",
"t#	c #936CE2",
"u#	c #A1BE96",
"v#	c #9FB999",
"w#	c #8F64DC",
"x#	c #9957EE",
"y#	c #9F53F4",
"z#	c #9DADAC",
"A#	c #A2B7A6",
"B#	c #9557EE",
"C#	c #9855F2",
"D#	c #9D7FDF",
"E#	c #A2B5A9",
"F#	c #A7CC86",
"G#	c #9FB69B",
"H#	c #9A8DCB",
"I#	c #9468E1",
"J#	c #9C67EA",
"K#	c #A6C19B",
"L#	c #A4CF76",
"M#	c #9FB99A",
"N#	c #9588CF",
"O#	c #935AEA",
"P#	c #9658EE",
"Q#	c #9259EA",
"R#	c #9CBA91",
"S#	c #9D90CF",
"T#	c #9C91D0",
"U#	c #9FAAB7",
"V#	c #A6D368",
"W#	c #9FA8B5",
"X#	c #9763E4",
"Y#	c #998BCC",
"Z#	c #9E92CC",
"`#	c #A28BD8",
" $	c #9E63EF",
".$	c #9D68EA",
"+$	c #99B0A6",
"@$	c #9492C5",
"#$	c #9D8ECF",
"$$	c #9B90CE",
"%$	c #9991CC",
"&$	c #9A93CA",
"*$	c #9FBA98",
"=$	c #98C657",
"-$	c #A0CD62",
";$	c #A0CE61",
">$	c #9FA4BA",
",$	c #9C75E3",
"'$	c #9FBD8E",
")$	c #A7CE80",
"!$	c #9B7EDB",
"~$	c #956AE2",
"{$	c #A0BD94",
"]$	c #A6D466",
"^$	c #A7D36C",
"/$	c #A7D36D",
"($	c #A8D569",
"_$	c #A4D25F",
":$	c #A2C489",
"<$	c #A1B89F",
"[$	c #A1CD6C",
"}$	c #B0DD71",
"|$	c #ACC8A0",
"1$	c #A3B8A6",
"2$	c #9DB69E",
"3$	c #A8D179",
"4$	c #C5F681",
"      .           +   +   + + + + @ # $ # % % & * & % = @ $ + - ; ;             ; . + + . + + ; ; ; ; + + + + + ; ; $ ; ; ;     ",
"  -   .     ; ;     * # >   * # +     + * # & , % , & ; ; ; ; $ ; ;         .   + . ; . . ; ; + + + ; + ; ; ; ; ; + ; ; ; ;     ",
".   .       +     ; # + $ $ + # ; + + # * ' * ) ! , + ~   @ ; $ ;               . + ; + + + . . ; + + ; ; ; ; + $ + ; ;       ; ",
"  .             ; # * $ { ] { * -     - * $ { & ) & * { + ; + ;                 ; + . . ; . + ; ; + + ; ; + $ ] ~ + ; + $ $     ",
"              +   ; ; $ ] ^ $ $ . . . . ; + + ; ~ + ; * + + + @ .           .   ; . + ; $ .     ; + $ ; ; $ ' ^ ~ + ; ; ; $ + ; ",
"  . -   ; - / / + + * + { $ + * $ .   $ ; # # $ + * * * + * * ; $               + . . + ;       ; + - + ; ; $ ~ $ + + ; + ; + ; ",
"          +           ; ; + ; ;   . . +   -   $ ; ; + + * * * + ; ;             + ; ; + ; . ;     + -   ; ; ; + ; + ; ; + ; + ; ",
"  $ + $ + + + $     ; * ; ;     . - - - - ;   $ + + ; * + + { { + . .           . + . . ; + ; ; + - +   $   ; ; ; ; + + ; ; ; + ",
"; ( (   @ _ ( ^ + ;   + ; + ; ; . . . . .       # *     * { : < + ; - @ ; $ $ - -   +   ;     ;   -             $ ; # + { ; ; { ",
"$ _ ^ +   ] _ ^ ; + ; + + ;       . .   . . .   ;   + * + { [ < $ ; ; ; ; ; ; ;     ;   .     $                 ; ; + + ; + ; ; ",
"+ + $ } | ] +         ;           .     . . . . ; +   + * * + { + $ + . - @ - $ $ ; -   ; ; ;   - $   -         ; $ $ ; ; { { + ",
"# & + } ( $ # # +                   .   $ . . . .         * * + ; . + ; - $ + ; - + $   ; ; ; - - -   -         { # & ; { & # + ",
"+ * + + +     $         .   -     +       . . $ .         + ; ; ; $   @ $ < ^ - @ ] < $ - ; ; ;   - - .         ; ! % ; { , % & ",
"+ + + ; # * + +                         . . . . . . .     + + + - +   - ~ | <   ; < 1 ~ - ; $   - $ . . - -     @ ! ! ; { = ! , ",
"# * + + + + ; ;             .             . . . . . . .   +     + ; ; - $ ] ] ] ] ] ] +   ;     $ . . $     + ; - , 2 , ) , , & ",
"+ ; ; +       ;                   $           . .           ; ; $ - ; + ; @ $ < | $ -   $ ; ;   - . . -     ; ; ; ] # ! 3 ) { $ ",
"+ + ;           4 . 5 5 / / / 6 5 / $ . . / 4 / $   # ; +     ;       - ; + $ ' : $ + + + ; ; +     - $           - - , 7 - ; ; ",
"    ; ; . ; - ; / 5 8 8 > 4 9 0 5 . $   - / + > * * * ; +       $   - - ; ; $ $ $ + ; ; * ; * +       -         $ $ ; - - ; + $ ",
"      +         4 5 8 7 6 / 9 8 5 . .   . + / > * + $ {   ; ;   - $     ; ; $ + ; ; ; + ~ + ; ;             $ -   + ;   ; + ; ; ",
";   + ;     +   . 4 / 5 a a 9 > 5 . .   / / + > + { ^ ] + ; ; ; - - - ; + ; ; ; + ; ; ~ : : { +         -   -   - - ; ; ; ; ; ; ",
"6 4 + /       / 5 4 4 5 8 8 5 4 - .     / / $ / ; $ _ ] + # ; ; ; ; ;   ; $ ; ; + ; $ ] : ] + ;                   $           $ ",
"[ b b 4       / / . . 5 - / 5 / / . .   . $ $ / ; + $ { + ; ; +   -     ; ; ; ; + ; ; + ' $ ; ;         -       $               ",
"b c c [ $ + $ / 4 . . . . b 4 .   .         / / ; * * ; * + *           ; + ; + ; ; ; ; $ ; - ;                 - ; ;   + -     ",
"[ [ [ + # $   / . / . . . 5 . 4                 + + ; ; ; + + # +     + + ; + ; $ ; ; ; ; ; ; $                     - $ $       ",
"> * > [ / 4 . / 4 . . . . . . 4 -   $ - -       ; $ $ / { + # $ ; + + ; ; + + ; $ ; ; ; + ;         - ; ; - -     - - - - ;   ; ",
"[ * * > / 4 / . . . . 4 4 4 . .       /           + ; @ # d e f g - ; h i j ; $ ; ; ; $ ; +     ; + ; $ $ ] $ - ; ] ] $ ; ;   ; ",
"> > > > / / 4 . . . . . 4 . / /             .     ; / $ + k l m n o p q r s t + $ ;     ; ; +           ] | ^   $ < | ~ - ; $ - ",
"> > > 4 / . . . . . . . / . / /   / -       -   ; @ + $ & u v w x y z A B C D $         ; + ;       ;   $ < ^ $ $ ^ ^ $ - ; + ; ",
"> / +       4 . . 4 . . . / . / + / /       .   $ ;   ) E ! F G H I J K L M N $ + ; ;         -         +   ] < ] $ + ; ; ; ; $ ",
"+ /       / . . . . 4 . . 4 4 / + 4 $ + .     . . ; ; ) ! ! O G P Q R S T U N +         - -     $     $ ; - $ | < $ - ; $ ; - ; ",
"/ + /   /   . . 4 . . . b V 4 / ~ _ b + -   . . - $   > ; & W X Y Z `  ...+.@.; ;     ; . .             ;     ] $ $ ; ; ; ; ; ; ",
"+ / + /       . . . - . | #.b 5 b | | + @   $ -   $ ; - $ # $.%.&.*.*.*.=.-.;.; +     $ - $ ; ; -     - ; ; - @ @ ; $ ; - - $ $ ",
", { { , % & $ ; -   + $ $ $ ] < ^ ~ + - $ ; ; ; @ ; + >.,.'.).!.~.{.].].^./.(.; + & ; ] : ' * ; + ; ; ;     ; ; $ ;     ;       ",
"% * { % ! & + ; + +   - - $ ] < ] $ ; ; ; ; ; + + ; ; _.:.<.[.}.|.1.{.*.2.3.4.+ { ; $ : } ' { + ; + ; +     $ -     ; -     - $ ",
", & & , , & + ; + + - - - . ] < $   ; + + ; + $ 5.6.7.8.9.0.a.|.b.c.d.e.f.g.h.+ + * + { ' { + + $ ; ; ; ;   ; ; $     $     ; $ ",
"& % 3 & $ + * + ; ; $     - ; ; + - ; + + ; + ~ i.j.k.l.m.n.o.p.1.b.q.q.=.R r.s.t.# * + + ; * + ; ; ; $ ; ; $ ; - ;   ;   ;   ; ",
"+ % ! & ' + ; + ; ; + + + ; * @ +   + + ; ; + ~ u.v.w.x.{.y.z.A.p.*.*.*.*.B.C.D.E.; ; + + { ; $ ; ; ; $ ; ; ; $ ; ; ; ;   -   $ ",
"# * ; ; ; + ; ; ; ; ; ; ; ; + +         ; ; ; + F.G.w.p.].z.H.I.m.p.*.*.J.d.K.L.M.N.O.+ ; ; + ; ; $ ; ; $ ; ; ;   ; $ ;   $ $ ; ",
"- $ ~ + ; + $ ; ; + ; + * + + + + + ; + ; ; ; + P.Q.R.e.e.S.T.U.=.V.W.*.*.X.Y.Q Z.`. +.+; ; ; $ ; ; $ ; ; $ ; + ; ; + ; ; $ ; $ ",
"; ; ; ; + + ; ; + ; ; * + * + + + ; ; ; + ;   + ++@+#+T T K.$+%+&+*+=+-+;+*.J.>+,+'+)+!+; ; ; $ + ; ; + ; ; + ; ; $ ; ; ; ; ; $ ",
"- . . $ .       ; + ; * ; + ; * & $ + & # ~+{+]+^+/+(+_+_+:+<+[+}+|+1+Z ` d.S.z.Y.2+3+4+5+6+7+8+9+; $ ; $ ; ; $ ; $ $ ; ; + + ; ",
". . . . .       + + ~ ' + * * { $ & 0+~+a+b+c+>+d+e+f+      .   g+h+i+J.j+k+l+m+n+S.e... .Z o+p+q+) 2 2 & ; - r+2 @ + ; ; + + + ",
". - . .   .   . ; $ ^ ] $ ; ; $ + + s+t+l u+v+0.w+x+y+      .   z+A+B+Z C+D+E+F+G+H+I+J+J+K+L+M+N+@ r+! 2 ; & E 2 & ; ; ; ; ; + ",
". $ . . .       ; + ] ] + * ; + & O+P+Q+R+S+T+U+V+W+X+    .     Y+Z+`+y.=.T  @.@+@@@#@$@%@&@@@*@=@; & 2 2 ) , , , ; $ + ; + ; ; ",
"  . -     $ -   - ; + + ; ; -@;@>@,@'@)@!@~@{@]@    .   . . ^@/@(@_@:@<@].J.[@}@|@1@2@3@- - - $ ; + + # = ! 2 ; ; ; * ; * + ; ; ",
"      - .       ; ; - - ; + 4@5@6@7@8@9@k.0@a@b@      .   . c@d@e@f@Z y.g@p.>+h@i@j@k@l@- $ -   ; ; ; + & = , + + ; # * + + + ; ",
"                    - ; m@n@o@p@x.:@q@r@s@t@u@;     .   . v@w@x@..{.*.].y@ .>+z@A@B@C@D@E@F@G@- $ ; ; + + & # { * ; ; ; ; + * + ",
"                      H@I@J@K@*.L@M@N@O@! ; $ ;   . $     P@Q@` R@g@{.S@T@U@U@V@W@X@Y@Z@`@ #.#+#@#+ + ; ; + + ; + + + $ * ; ; ; ",
". < 1 ] # ; + ; + ; ##$#%#&#*#2+~.=#-#0+. .   . ;   ; + : ;#>#*.].k+[@,#'#)#!#~#{#]#K+ .*.~.^#/#(#; ; + + ; * + + ;             ",
"] < ^ $ # + + # * _#:#<#[#}#|#1#2#3#-   - . - . - + + 4#5#6#7#*.8#9#0#a#      b#c#d#e#f#x.y.R+g#h#i#; ;   $   ;   ;           ; ",
"< ] $ . ; { + * * j#k#l#m#n#o#  ; ;   - . . . . - + O.p#q#r#s#=.`@t#u#+ $ ;   /   v#w#x#y.H.H.y# #z#* ; $ : ' @                 ",
"^ ~ - - + + ; ; * A#B#C#D#E#F#      -   . . -   ; + G#H#I#h@e.*.>+J#K## ; ; /     L#M#N#O#z@}#P#Q#z#; ; ~ _ ] +     ;           ",
"] - ; - + ; + $ ] R#S#T#U#V#      ; . .   -   - ; + W#X#Y#Z#`# $f#.$K#+ > >   +       +$@$#$$$%$&$*$+ + + ' ~ ;   / .           ",
"$ ; - ; + ; ; ' } =$-$V#;$    ; ;   . ; -   - ;   + >$,$'$-$)$!$&+~${$* + + $ /       ]$^$/$V#/$($_$$ ; ; + + @   + / /     / . ",
". - $ + ; ; ; $ ] ~ + +   $   ;   ;   ;     ;   - $ :$<$[$; }$|$1$2$3$& @ { + -         . . . . ; + + * ; ; # ; +     + . /     ",
"    + $ + ; ; + ; ; ; ;   +   - -   ; ;   ;   ; ; + + ; * @ % ! * * ) ! a ; ~         . $ . . . + * * * + * * + +   + + .     / ",
"$ + ; $ $       ; ; + ; ; ; ; ; .     $ - # ; + + + ;     @ 2 ! & * & % 7 + + ; .     . $ . . . / 4 > / / 4 4 / / /   / / / / / ",
"; + ; ; ; +     ; ; # + < | ] ; ] V V   # $ + # ; ; + + +   ; @ % % % & * + + ;     .   . . . + / > 4 > > / 7 3 8   4 8 4$5 4   ",
"; { $ ; - +     $ - # $ } | ] # ^ 1 <   @ + $ # *           $ $ % ! 2 + { + ; +         . . . . > 4 > > > > 9 8 8 / / 8 4$5 4 . ",
"+ ] ] $ -   + ; + ; ; ; + ~ ] ] ^ $   $ ; # ; ' ] { $ ; ; ; .     ) @ + $ ; ; + +     . . + + + c c 4 > > 4 > 6 5 2 8 5 / / . / ",
"{ : _ $     $ - - + $ ; # ; _ ( ] - # $ $ @ * _ < ] + ;       . $ + ; + + +   + +     /     / 4 c c c { > > 4 > 5 3 0 5 b 4 / + ",
"+ ~ ~ + -   - - ; ; ; ; # + ' _ ~   - + + + * $ : { ; ; . $ .   - + + ; ; + + ; +     + +   / / 4 4 { { > 4 / > / 5 5 / / / / / ",
"+ ; + + - + -     - # ; $ ; ; ; ; + ; # # * ; * * ; # # .     . @ ; + . ;   + ; +   / + / + / > > > > > > > > 4 / [ 4 / / / + / ",
"+ * ; ; $         - # + + + * * - ; ; + + $ { + { + +                 ; ; . ; + /   /   + + > / c [ > > > > / / / / / + /   4 / "};
