/* XPM */
static char * enemy5_xpm[] = {
"64 64 202 2",
"  	c #A6D563",
". 	c #A7D568",
"+ 	c #A4D35D",
"@ 	c #ACDB69",
"# 	c #AAD964",
"$ 	c #A0CF5C",
"% 	c #C1F276",
"& 	c #B1E166",
"* 	c #A9DA5E",
"= 	c #BCEC74",
"- 	c #A9D76A",
"; 	c #A8D764",
"> 	c #A6D85E",
", 	c #B9E96F",
"' 	c #9BCB55",
") 	c #B3E36B",
"! 	c #C3F37C",
"~ 	c #9ECD5A",
"{ 	c #A2D357",
"] 	c #98C754",
"^ 	c #95C552",
"/ 	c #A7D862",
"( 	c #83B33E",
"_ 	c #93C34D",
": 	c #99CA4D",
"< 	c #90BF4C",
"[ 	c #9FD056",
"} 	c #90C046",
"| 	c #8BBA46",
"1 	c #88B744",
"2 	c #B8E773",
"3 	c #C6F87E",
"4 	c #9FD05A",
"5 	c #AFE06A",
"6 	c #AEE067",
"7 	c #B6E570",
"8 	c #BFF079",
"9 	c #B7EA6A",
"0 	c #C7F882",
"a 	c #BEF075",
"b 	c #97C854",
"c 	c #96C84F",
"d 	c #9CCA5C",
"e 	c #8EB94C",
"f 	c #90B951",
"g 	c #95BE57",
"h 	c #8CB650",
"i 	c #93BD57",
"j 	c #90BA51",
"k 	c #A3D15C",
"l 	c #9BC858",
"m 	c #9BC65C",
"n 	c #6E8D43",
"o 	c #020509",
"p 	c #030202",
"q 	c #020203",
"r 	c #010305",
"s 	c #0F180B",
"t 	c #95C059",
"u 	c #A4D261",
"v 	c #A1CF60",
"w 	c #A0CE5F",
"x 	c #597435",
"y 	c #01040A",
"z 	c #010307",
"A 	c #040000",
"B 	c #010308",
"C 	c #00040D",
"D 	c #86AC4F",
"E 	c #A2D060",
"F 	c #A1CF5B",
"G 	c #3A4D21",
"H 	c #151C0B",
"I 	c #090A03",
"J 	c #030101",
"K 	c #010306",
"L 	c #0B1208",
"M 	c #131D10",
"N 	c #729542",
"O 	c #9AC65C",
"P 	c #384A25",
"Q 	c #384B24",
"R 	c #101709",
"S 	c #030203",
"T 	c #253314",
"U 	c #374A1F",
"V 	c #6B8A3F",
"W 	c #93BE53",
"X 	c #475D2C",
"Y 	c #020205",
"Z 	c #030103",
"` 	c #030102",
" .	c #040203",
"..	c #2A391A",
"+.	c #68873F",
"@.	c #8DBC4A",
"#.	c #84B049",
"$.	c #4F672B",
"%.	c #020305",
"&.	c #030304",
"*.	c #2A3919",
"=.	c #6A893E",
"-.	c #85B541",
";.	c #729939",
">.	c #030303",
",.	c #3B4F21",
"'.	c #8BB54F",
").	c #5E7A34",
"!.	c #020204",
"~.	c #253313",
"{.	c #6D9136",
"].	c #99C854",
"^.	c #7BA046",
"/.	c #18240E",
"(.	c #97C653",
"_.	c #91BC53",
":.	c #67863C",
"<.	c #131D0B",
"[.	c #80A844",
"}.	c #A0CE5B",
"|.	c #749741",
"1.	c #030404",
"2.	c #9DCB57",
"3.	c #A3D063",
"4.	c #6A893A",
"5.	c #9CC85D",
"6.	c #69893A",
"7.	c #92BC52",
"8.	c #69883A",
"9.	c #000306",
"0.	c #8EB851",
"a.	c #6D8D3A",
"b.	c #688936",
"c.	c #BEEE79",
"d.	c #668639",
"e.	c #CBFB83",
"f.	c #00030A",
"g.	c #96BF5E",
"h.	c #89B14D",
"i.	c #5C7535",
"j.	c #6F8E45",
"k.	c #97C357",
"l.	c #7EA147",
"m.	c #9DC862",
"n.	c #749641",
"o.	c #0D1206",
"p.	c #5D7839",
"q.	c #A1CD65",
"r.	c #84AA4E",
"s.	c #394C21",
"t.	c #1E2913",
"u.	c #9CC959",
"v.	c #2E3E1C",
"w.	c #040101",
"x.	c #0E180C",
"y.	c #415629",
"z.	c #A2D061",
"A.	c #8BB256",
"B.	c #3D5124",
"C.	c #89B051",
"D.	c #3D5223",
"E.	c #A5D267",
"F.	c #86AD4F",
"G.	c #020306",
"H.	c #030204",
"I.	c #49612C",
"J.	c #9BC75C",
"K.	c #A2CF65",
"L.	c #01040E",
"M.	c #010405",
"N.	c #010408",
"O.	c #536C31",
"P.	c #97C25A",
"Q.	c #A4D167",
"R.	c #8AB252",
"S.	c #8DB358",
"T.	c #2C3B18",
"U.	c #020207",
"V.	c #628139",
"W.	c #93BD58",
"X.	c #85AC4F",
"Y.	c #84A852",
"Z.	c #435824",
"`.	c #678836",
" +	c #80A548",
".+	c #97C05E",
"++	c #85AB4B",
"@+	c #769942",
"#+	c #000307",
"$+	c #01050B",
"%+	c #82A352",
"&+	c #89AE54",
"*+	c #9AC55B",
"=+	c #6C8D40",
"-+	c #719143",
";+	c #79994A",
">+	c #80A150",
",+	c #749541",
"'+	c #6E903C",
")+	c #749542",
"!+	c #B8E770",
"~+	c #C5F681",
"      .           +   +   + + + + @ # $ # % % & * & % = @ $ + - ; ;             ; . + + . + + ; ; ; ; + + + + + ; ; $ ; ; ;     ",
"  -   .     ; ;     * # >   * # +     + * # & , % , & ; ; ; ; $ ; ;         .   + . ; . . ; ; + + + ; + ; ; ; ; ; + ; ; ; ;     ",
".   .       +     ; # + $ $ + # ; + + # * ' * ) ! , + ~   @ ; $ ;               . + ; + + + . . ; + + ; ; ; ; + $ + ; ;       ; ",
"  .             ; # * $ { ] { * -     - * $ { & ) & * { + ; + ;                 ; + . . ; . + ; ; + + ; ; + $ ] ~ + ; + $ $     ",
"              +   ; ; $ ] ^ $ $ . . . . ; + + ; ~ + ; * + + + @ .           .   ; . + ; $ .     ; + $ ; ; $ ' ^ ~ + ; ; ; $ + ; ",
"  . -   ; - / / + + * + { $ + * $ .   $ ; # # $ + * * * + * * ; $               + . . + ;       ; + - + ; ; $ ~ $ + + ; + ; + ; ",
"          +           ; ; + ; ;   . . +   -   $ ; ; + + * * * + ; ;             + ; ; + ; . ;     + -   ; ; ; + ; + ; ; + ; + ; ",
"  $ + $ + + + $     ; * ; ;     . - - - - ;   $ + + ; * + + { { + . .           . + . . ; + ; ; + - +   $   ; ; ; ; + + ; ; ; + ",
"; ( (   @ _ ( ^ + ;   + ; + ; ; . . . . .       # *     * { : < + ; - @ ; $ $ - -   +   ;     ;   -             $ ; # + { ; ; { ",
"$ _ ^ +   ] _ ^ ; + ; + + ;       . .   . . .   ;   + * + { [ < $ ; ; ; ; ; ; ;     ;   .     $                 ; ; + + ; + ; ; ",
"+ + $ } | ] +         ;           .     . . . . ; +   + * * + { + $ + . - @ - $ $ ; -   ; ; ;   - $   -         ; $ $ ; ; { { + ",
"# & + } ( $ # # +                   .   $ . . . .         * * + ; . + ; - $ + ; - + $   ; ; ; - - -   -         { # & ; { & # + ",
"+ * + + +     $         .   -     +       . . $ .         + ; ; ; $   @ $ < ^ - @ ] < $ - ; ; ;   - - .         ; ! % ; { , % & ",
"+ + + ; # * + +                         . . . . . . .     + + + - +   - ~ | <   ; < 1 ~ - ; $   - $ . . - -     @ ! ! ; { = ! , ",
"# * + + + + ; ;             .             . . . . . . .   +     + ; ; - $ ] ] ] ] ] ] +   ;     $ . . $     + ; - , 2 , ) , , & ",
"+ ; ; +       ;                   $           . .           ; ; $ - ; + ; @ $ < | $ -   $ ; ;   - . . -     ; ; ; ] # ! 3 ) { $ ",
"+ + ;           4 . 5 5 / / / 6 5 / $ . . / 4 / $   # ; +     ;       - ; + $ ' : $ + + + ; ; +     - $           - - , 7 - ; ; ",
"    ; ; . ; - ; / 5 8 8 > 4 9 0 5 . $   - / + > * * * ; +       $   - - ; ; $ $ $ + ; ; * ; * +       -         $ $ ; - - ; + $ ",
"      +         4 5 8 7 6 / 9 8 5 . .   . + / > * + $ {   ; ;   - $     ; ; $ + ; ; ; + ~ + ; ;             $ -   + ;   ; + ; ; ",
";   + ;     +   . 4 / 5 a a 9 > 5 . .   / / + > + { ^ ] + ; ; ; - - - ; + ; ; ; + ; ; ~ : : { +         -   -   - - ; ; ; ; ; ; ",
"6 4 + /       / 5 4 4 5 8 8 5 4 - .     / / $ / ; $ _ ] + # ; ; ; ; ;   ; $ ; ; + ; $ ] : ] + ;                   $           $ ",
"[ b b 4       / / . . 5 - / 5 / / . .   . $ $ / ; + $ { + ; ; +   -     ; ; ; ; + ; ; + ' $ ; ;         -       $               ",
"b c c [ $ + $ / 4 . . . . b 4 .   .         / / ; * * ; * + *           ; + ; + ; ; ; ; $ ; - ;                 - ; ;   + -     ",
"[ [ [ + # $   / . / . . . 5 . 4                 + + ; ; ; + + # +     + + ; + ; $ ; ; ; ; ; ; $                     - $ $       ",
"> * > [ / 4 . / 4 . . . . . . 4 -   $ - -       ; $ $ d e f g h i j k ; ; + + ; $ ; ; ; + ;         - ; ; - -     - - - - ;   ; ",
"[ * * > / 4 / . . . . 4 4 4 . .       /           l m n o p q r p s t m m u ; $ ; ; ; $ ; +     ; + ; $ $ ] $ - ; ] ] $ ; ;   ; ",
"> > > > / / 4 . . . . . 4 . / /             . v w x y z r p p p p A z B C D E F $ ;     ; ; +           ] | ^   $ < | ~ - ; $ - ",
"> > > 4 / . . . . . . . / . / /   / -       - G H I J p p p p p p p p K q L M N         ; + ;       ;   $ < ^ $ $ ^ ^ $ - ; + ; ",
"> / +       4 . . 4 . . . / . / + / /   O P Q R p p p p p p p p p p p p p p S T U V ;         -         +   ] < ] $ + ; ; ; ; $ ",
"+ /       / . . . . 4 . . 4 4 / + 4 $ W X Y Z p p p p p p p p p p p p p p p p `  ...+.  - -     $     $ ; - $ | < $ - ; $ ; - ; ",
"/ + /   /   . . 4 . . . b @.4 / ~ _ #.$.%.p J p p p p p p p p p p p p p p p p p p &.*.=.. .             ;     ] $ $ ; ; ; ; ; ; ",
"+ / + /       . . . - . | -.b 5 b | ;.K p p p p p p p p p p p p p p p p p p p p p p >.,.- $ ; ; -     - ; ; - @ @ ; $ ; - - $ $ ",
", { { , % & $ ; -   + $ $ $ ] < ^ '.).!.p p p p p p p p p p p p p p p p p p p p p p S ~.{.].* ; + ; ; ;     ; ; $ ;     ;       ",
"% * { % ! & + ; + +   - - $ ] < ] ^.!.p p p p p p p p p p p p p p p p p p p p p p p p S /.(.{ + ; + ; +     $ -     ; -     - $ ",
", & & , , & + ; + + - - - . ] < _.:.p p p p p p p p p p p p p p p p p p p p p p p p p p <.[.}.+ $ ; ; ; ;   ; ; $     $     ; $ ",
"& % 3 & $ + * + ; ; $     - ; ; |.1.p p p p p p p p p p p p p p p p p p p p p p p p p p p z 2.+ ; ; ; $ ; ; $ ; - ;   ;   ;   ; ",
"+ % ! & ' + ; + ; ; + + + ; * 3.4.p p p p p p p p p p p p p p p p p p p p p p p p p p p p K 5.$ ; ; ; $ ; ; ; $ ; ; ; ;   -   $ ",
"# * ; ; ; + ; ; ; ; ; ; ; ; + 6.!.p p p p p p p p p p p p p p p p p p p p p p p p p p p p p 7.  ; $ ; ; $ ; ; ;   ; $ ;   $ $ ; ",
"- $ ~ + ; + $ ; ; + ; + * + + 8.p p p p p p p p p p p p p p p p p p p p p p p p p p p p p p 9.0.; ; $ ; ; $ ; + ; ; + ; ; $ ; $ ",
"; ; ; ; + + ; ; + ; ; * + * + 8.p p p p p p p p p p p p p p p p p p p p p p p p p p p p p p p 0.+ ; ; + ; ; + ; ; $ ; ; ; ; ; $ ",
"- . . $ .       ; + ; * ; + ; a.p p p p p p p p p p p p p p p p p p p p p p p p p p p p p p K i ; ; $ ; $ ; ; $ ; $ $ ; ; + + ; ",
". . . . .       + + ~ ' + * * b.!.p p p p p p p p p p p p p p p p p p p p p p p p p p p p p 9.i $ ) 2 2 & ; - c.2 @ + ; ; + + + ",
". - . .   .   . ; $ ^ ] $ ; ; d.S p p p p p p p p p p p p p p p p p p p p p p p p p p p p p 9.i ; @ c.! 2 ; & e.2 & ; ; ; ; ; + ",
". $ . . .       ; + ] ] + * ; 6.q p p p p p p p p p p p p p p p p p p p p p p p p p p p p p f.g.+ ; & 2 2 ) , , , ; $ + ; + ; ; ",
"  . -     $ -   - ; + + ; ; ; h.i.p p p p p p p p p p p p p p p p p p p p p p p p p p p p Y j.k.; + + # = ! 2 ; ; ; * ; * + ; ; ",
"      - .       ; ; - - ; + ; + l.q p p p p p p p p p p p p p p p p p p p p p p p p p p p B m.  ; ; ; + & = , + + ; # * + + + ; ",
"                    - ;     ; ; n.K p p p p p p p p p p p p p p p p p p p p p p p p p p o.p.q.- $ ; ; + + & # { * ; ; ; ; + * + ",
"                        - ; ; ; r.s.>.p p p p p p p p p p p p p p p p p p p p p p p p q t.u.- $ + + + ; ; + + ; + + + $ * ; ; ; ",
". < 1 ] # ; + ; + ; * ; ; + ; ;   D v.w.p p p p p p p p p p p p p p p p p p p p p p q x.y.z.  / + ; ; + + ; * + + ;             ",
"] < ^ $ # + + # * + + ; ; ; ; ; ;   A.p p p p p p p p p p p p p p p p p p p p p p p >.B.  / + + + * ; ;   $   ;   ;           ; ",
"< ] $ . ; { + * * + + { - ; ;   ; ; C.r p p p p p p p p p p p p p p p p p p p p p p S D.    $ / + + * ; $ : ' @                 ",
"^ ~ - - + + ; ; * ; ; ;     -       E.F.G.p p p p p p p p p p p p p p p p p p p J H.I.J.  + / + * + ; ; ~ _ ] +     ;           ",
"] - ; - + ; + $ ] ~ ; ;           ; . K.F.L.M.w.p p p p p p p p p p p p p p p !.N.O.P.  + + . . # + + + + ' ~ ;   / .           ",
"$ ; - ; + ; ; ' } ] $   $     ; ;   . ; Q.R.S.T.p p J J p p p p p p p p p J U.V.R.W.    . .   . ; + $ ; ; + + @   + / /     / . ",
". - $ + ; ; ; $ ] ~ + +   $   ;   ;   ;     ; X.Y.Z.Y Y !.p p p p r %.r %.`. +.+        . . . . ; + + * ; ; # ; +     + . /     ",
"    + $ + ; ; + ; ; ; ;   +   - -   ; ;   ;   ; ; ++@+O.N.!.p p S #+$+%+&+*+~         . $ . . . + * * * + * * + +   + + .     / ",
"$ + ; $ $       ; ; + ; ; ; ; ; .     $ - # ; + + + ; R.=+-+;+>+,+'+)+!+7 + + ; .     . $ . . . / 4 > / / 4 4 / / /   / / / / / ",
"; + ; ; ; +     ; ; # + < | ] ; ] @.@.  # $ + # ; ; + + +   ; @ % % % & * + + ;     .   . . . + / > 4 > > / 7 3 8   4 8 ~+5 4   ",
"; { $ ; - +     $ - # $ } | ] # ^ 1 <   @ + $ # *           $ $ % ! 2 + { + ; +         . . . . > 4 > > > > 9 8 8 / / 8 ~+5 4 . ",
"+ ] ] $ -   + ; + ; ; ; + ~ ] ] ^ $   $ ; # ; ' ] { $ ; ; ; .     ) @ + $ ; ; + +     . . + + + c c 4 > > 4 > 6 5 2 8 5 / / . / ",
"{ : _ $     $ - - + $ ; # ; _ ( ] - # $ $ @ * _ < ] + ;       . $ + ; + + +   + +     /     / 4 c c c { > > 4 > 5 3 0 5 b 4 / + ",
"+ ~ ~ + -   - - ; ; ; ; # + ' _ ~   - + + + * $ : { ; ; . $ .   - + + ; ; + + ; +     + +   / / 4 4 { { > 4 / > / 5 5 / / / / / ",
"+ ; + + - + -     - # ; $ ; ; ; ; + ; # # * ; * * ; # # .     . @ ; + . ;   + ; +   / + / + / > > > > > > > > 4 / [ 4 / / / + / ",
"+ * ; ; $         - # + + + * * - ; ; + + $ { + { + +                 ; ; . ; + /   /   + + > / c [ > > > > / / / / / + /   4 / "};
