/* XPM */
static char * enemy7_xpm[] = {
"64 64 171 2",
"  	c #A6D563",
". 	c #A7D568",
"+ 	c #A4D35D",
"@ 	c #ACDB69",
"# 	c #AAD964",
"$ 	c #A0CF5C",
"% 	c #C1F276",
"& 	c #B1E166",
"* 	c #A9DA5E",
"= 	c #BCEC74",
"- 	c #A9D76A",
"; 	c #A8D764",
"> 	c #A6D85E",
", 	c #B9E96F",
"' 	c #9BCB55",
") 	c #B3E36B",
"! 	c #C3F37C",
"~ 	c #9ECD5A",
"{ 	c #A2D357",
"] 	c #98C754",
"^ 	c #95C552",
"/ 	c #A7D862",
"( 	c #83B33E",
"_ 	c #93C34D",
": 	c #99CA4D",
"< 	c #90BF4C",
"[ 	c #9FD056",
"} 	c #90C046",
"| 	c #8BBA46",
"1 	c #88B744",
"2 	c #B8E773",
"3 	c #C6F87E",
"4 	c #9FD05A",
"5 	c #AFE06A",
"6 	c #AEE067",
"7 	c #B6E570",
"8 	c #BFF079",
"9 	c #B7EA6A",
"0 	c #C7F882",
"a 	c #9B5AEB",
"b 	c #9B54ED",
"c 	c #9459EB",
"d 	c #945AE4",
"e 	c #8D5EE3",
"f 	c #8B60E1",
"g 	c #A150F5",
"h 	c #9E51F9",
"i 	c #9656F1",
"j 	c #A050F8",
"k 	c #9D52F4",
"l 	c #9756EE",
"m 	c #EEFFFE",
"n 	c #F5FCFD",
"o 	c #97C854",
"p 	c #8265D6",
"q 	c #A888D7",
"r 	c #E2D1EE",
"s 	c #FBFBFB",
"t 	c #EDECF8",
"u 	c #96C84F",
"v 	c #C198EA",
"w 	c #F6F3F5",
"x 	c #CCBBEB",
"y 	c #B58BE4",
"z 	c #D8BDEB",
"A 	c #E6D9F4",
"B 	c #EEE6F9",
"C 	c #BD95EC",
"D 	c #8C5EDE",
"E 	c #955BDC",
"F 	c #8B61DD",
"G 	c #9359F1",
"H 	c #9D5CE6",
"I 	c #C7ADE6",
"J 	c #FDF6FC",
"K 	c #F7FCF6",
"L 	c #A35BF1",
"M 	c #CAACE5",
"N 	c #B073EB",
"O 	c #D4B6ED",
"P 	c #E4D3F1",
"Q 	c #FBFCF6",
"R 	c #A052ED",
"S 	c #CCA7F2",
"T 	c #CCA8F2",
"U 	c #DAC4F1",
"V 	c #C6A2EA",
"W 	c #AB6DEA",
"X 	c #B985EB",
"Y 	c #A24FF6",
"Z 	c #DAC4EC",
"` 	c #E9D6F5",
" .	c #9A56E5",
"..	c #EDF7FB",
"+.	c #A57CE4",
"@.	c #E9D6F8",
"#.	c #CAA4EC",
"$.	c #DBBEF2",
"%.	c #EDE4F4",
"&.	c #A465EB",
"*.	c #AD75EA",
"=.	c #CBA9EC",
"-.	c #A56AEA",
";.	c #DFCFF3",
">.	c #BD99EB",
",.	c #8DBC4A",
"'.	c #9E4FF7",
").	c #AF74F2",
"!.	c #BC8DEA",
"~.	c #F3EDF5",
"{.	c #BC95E4",
"].	c #CCB3E3",
"^.	c #CEB0E9",
"/.	c #D6C4ED",
"(.	c #8F5CE9",
"_.	c #85B541",
":.	c #A063E6",
"<.	c #AA79E4",
"[.	c #AA79DB",
"}.	c #AC75E4",
"|.	c #A57CDB",
"1.	c #F6F4F9",
"2.	c #EDE8F3",
"3.	c #AA78E9",
"4.	c #A966EB",
"5.	c #D4BBEC",
"6.	c #B396D6",
"7.	c #B68AE8",
"8.	c #E3CEF2",
"9.	c #D9B7F0",
"0.	c #F3EBF8",
"a.	c #C196E6",
"b.	c #F0E5F6",
"c.	c #C5A4DF",
"d.	c #D5B6F3",
"e.	c #AB6EE6",
"f.	c #BB86E5",
"g.	c #EADCF4",
"h.	c #BD98E5",
"i.	c #B27AEB",
"j.	c #D3B6E6",
"k.	c #A14FF9",
"l.	c #C29DE2",
"m.	c #9462E7",
"n.	c #D5BFE6",
"o.	c #BB8EE7",
"p.	c #C5A2E5",
"q.	c #8565DD",
"r.	c #C394F2",
"s.	c #A772E5",
"t.	c #9F4FFB",
"u.	c #A56BE5",
"v.	c #B993DE",
"w.	c #AD6BF2",
"x.	c #BEEE79",
"y.	c #C89FEC",
"z.	c #B78BDF",
"A.	c #C196EB",
"B.	c #CBFB83",
"C.	c #A35CED",
"D.	c #AA65F0",
"E.	c #AB92DD",
"F.	c #AC77DF",
"G.	c #D7C8E7",
"H.	c #A573DB",
"I.	c #BD9CDF",
"J.	c #BFA2E1",
"K.	c #9C68E4",
"L.	c #C7AEDE",
"M.	c #B49BE4",
"N.	c #C5F681",
"      .           +   +   + + + + @ # $ # % % & * & % = @ $ + - ; ;             ; . + + . + + ; ; ; ; + + + + + ; ; $ ; ; ;     ",
"  -   .     ; ;     * # >   * # +     + * # & , % , & ; ; ; ; $ ; ;         .   + . ; . . ; ; + + + ; + ; ; ; ; ; + ; ; ; ;     ",
".   .       +     ; # + $ $ + # ; + + # * ' * ) ! , + ~   @ ; $ ;               . + ; + + + . . ; + + ; ; ; ; + $ + ; ;       ; ",
"  .             ; # * $ { ] { * -     - * $ { & ) & * { + ; + ;                 ; + . . ; . + ; ; + + ; ; + $ ] ~ + ; + $ $     ",
"              +   ; ; $ ] ^ $ $ . . . . ; + + ; ~ + ; * + + + @ .           .   ; . + ; $ .     ; + $ ; ; $ ' ^ ~ + ; ; ; $ + ; ",
"  . -   ; - / / + + * + { $ + * $ .   $ ; # # $ + * * * + * * ; $               + . . + ;       ; + - + ; ; $ ~ $ + + ; + ; + ; ",
"          +           ; ; + ; ;   . . +   -   $ ; ; + + * * * + ; ;             + ; ; + ; . ;     + -   ; ; ; + ; + ; ; + ; + ; ",
"  $ + $ + + + $     ; * ; ;     . - - - - ;   $ + + ; * + + { { + . .           . + . . ; + ; ; + - +   $   ; ; ; ; + + ; ; ; + ",
"; ( (   @ _ ( ^ + ;   + ; + ; ; . . . . .       # *     * { : < + ; - @ ; $ $ - -   +   ;     ;   -             $ ; # + { ; ; { ",
"$ _ ^ +   ] _ ^ ; + ; + + ;       . .   . . .   ;   + * + { [ < $ ; ; ; ; ; ; ;     ;   .     $                 ; ; + + ; + ; ; ",
"+ + $ } | ] +         ;           .     . . . . ; +   + * * + { + $ + . - @ - $ $ ; -   ; ; ;   - $   -         ; $ $ ; ; { { + ",
"# & + } ( $ # # +                   .   $ . . . .         * * + ; . + ; - $ + ; - + $   ; ; ; - - -   -         { # & ; { & # + ",
"+ * + + +     $         .   -     +       . . $ .         + ; ; ; $   @ $ < ^ - @ ] < $ - ; ; ;   - - .         ; ! % ; { , % & ",
"+ + + ; # * + +                         . . . . . . .     + + + - +   - ~ | <   ; < 1 ~ - ; $   - $ . . - -     @ ! ! ; { = ! , ",
"# * + + + + ; ;             .             . . . . . . .   +     + ; ; - $ ] ] ] ] ] ] +   ;     $ . . $     + ; - , 2 , ) , , & ",
"+ ; ; +       ;                   $           . .           ; ; $ - ; + ; @ $ < | $ -   $ ; ;   - . . -     ; ; ; ] # ! 3 ) { $ ",
"+ + ;           4 . 5 5 / / / 6 5 / $ . . / 4 / $   # ; +     ;       - ; + $ ' : $ + + + ; ; +     - $           - - , 7 - ; ; ",
"    ; ; . ; - ; / 5 8 8 > 4 9 0 5 . $   - / + > * * * ; +       $   - - ; ; $ $ $ + ; a b ; * +       -         $ $ ; - - ; + $ ",
"      +         4 5 c d e f 9 8 5 . c c . + / > * + $ {   ; ;   - $     ; ; $ + ; ; f g h i ; ;             $ -   + ;   ; + ; ; ",
";   + ;     +   . c h g i c 9 > 5 c h j k / + > + { ^ ] + ; ; ; - - - ; + ; ; ; + ; ; c k g c +         -   -   - - ; ; ; ; ; ; ",
"6 4 + /       / 5 i j c 8 8 5 4 - l i k i k $ / ; m n n + # ; ; ; ; ;   ; $ ; ; + ; $ ] c j g ;                   $           $ ",
"[ o o 4       / / k c 5 - / 5 / / p .   . c g f q r s s t ; ; +   -     ; ; ; ; + ; ; + ' c f ;         -       $               ",
"o u u [ $ + $ / 4 c . . . o 4 .   .         k k k v s s w x y           ; + k + ; ; ; ; $ ; - ;                 - ; ;   + -     ",
"[ [ [ + # $   / . f . . . 5 . 4             d z A B s s s s C D +     + D c b d E e f c F ; ; $                     - $ $       ",
"> * > [ / 4 . / 4 . . . . . . 4 -   $ G H I J s s s s s s K s J q + + i L M J s s s J N i ;         - ; ; - -     - - - - ;   ; ",
"[ * * > / 4 / . . . . 4 4 4 . .       i N s s s s s s s O P s Q P d d R S s s s s s s T ; +     ; + ; $ $ ] $ - ; ] ] $ ; ;   ; ",
"> > > > / / 4 . . . . . 4 . / /       a U s s s s K s s V W v v X b Y V s s s s s Q Q J ; ; +           ] | ^   $ < | ~ - ; $ - ",
"> > > 4 / . . . . . . . / . / /   / - E s s s Q s Z Z J ` b  .b b  .b ` s Q s s s s s s A + ;       ;   $ < ^ $ $ ^ ^ $ - ; + ; ",
"> / +       4 . . 4 . . . / d c + ..s +.J s s s z y @.A U #.s J s J #.$.%.s K Q Q Q s K %.    -         +   ] < ] $ + ; ; ; ; $ ",
"+ /       / . . . . 4 . . 4 c Y &.P Q *.Z K n J a Y k y =.K s s s s s I -.;.s Z Z s s s s s >.  $     $ ; F c g e $ - ; $ ; - ; ",
"/ + /   /   . . 4 . . . o ,.c '.b W r ).L z J J b k !.~.s K J s s s K J V W {.].^./.s s s s >.          ;     c (.$ ; ; ; ; ; ; ",
"+ / + /       . . . - . | _.c z ` A ~.).g :.<.[.Y Y O J s Z }.|.s s s s ` y ` w 1.2.s Q Q s >.; -     - ; ; - @ @ ; $ ; - - $ $ ",
", { { , % & $ ; -   + $ $ 3.Z s s s Q *.*.J J J }.4.5.s A H U Q s s s J 6.s s s J 2.K s 1.A 7.; + ; ; ;     ; ; $ F     ;       ",
"% * { % ! & + ; + +   - n s s s s s 8.-.S %.9.0.s O O s A a.J s s s s Q s K s s b.c.d.d.#.b b + ; + ; +     $ - a i ; -     - $ ",
", & & , , & + ; + + - %.s s Q s s P e.V s O i f.a.V g.s ` h.s s s s z 2.J K s s s g.i.g '.k k + $ ; ; ; ;   ; ; k k   $     ; $ ",
"& % 3 & $ + * + ; ; b @.s s s Q s B P 1.s j.V ` A b.I 3.}.L $.J g.N M 1.g.M J K Q Q b.g.` V b + ; ; ; $ ; ; $ i k e   ;   ;   ; ",
"+ % ! & ' + ; + ; ; k.E J s s g.|.s s s 1.%.s s J A l.g.` g b  .b k O Q s j.d z s s s s Q J S m.; ; ; $ ; ; i l c ; ; ;   -   $ ",
"# * ; ; ; + ; ; ; x a.h.0.5.O l.M s s s %.n.s K V W r s ` k j k.R '.o.O O !.g k s s s s s s s <.p.$ ; ; $ ; q.;   ; $ ;   $ $ ; ",
"- $ ~ + ; + $ ; ; Q s s 0.!.b ` s s s s s s s J a r.s J !.'.k h k.k.Y k b i.i.a s s s s s Q s N I ;.$ ; d (.; + ; ; + ; ; $ ; $ ",
"; ; ; ; + + ; ; + s s s s ~.X s.s s s s s s K J b L Z !.k Y g g g t.k k e.b.C 5.s s s s s s s *.}.d.; + q.; + ; ; $ ; ; ; ; ; $ ",
"- . . $ .       q J s s s 5.b u.s s s s s s s 3.Y k &.}.W h h Y g k.Y ` J j.O s Q s s s s s s v.J 5.k F $ ; ; $ ; $ $ ; ; + + ; ",
". . . . .       <.s s s s P e.` n s s s s s P -.k w.8.s ` k k t.g k g A 0.M I 0.s s s s s s s s s d.k 2 & ; - x.2 @ + ; ; + + + ",
". - . .   .   . <.s s s Q s P p.s s s s s Q P u.y.v Q s ~.O i.t.j k.g z.0.P P ~.s s s s s s s M A.i.k ! 2 ; & B.2 & ; ; ; ; ; + ",
". $ . . .       C.S Q s s s s g.{.J s s s s K g.` a.s Q s s v g Y k k b J s K s s s s s s J J *.Y k.j 2 2 ) , , , ; $ + ; + ; ; ",
"  . -     $ -   c r.K Q s s s s {.s s s A b.K s s Z Z s s Q v w.N D.Y  .J s s J %.s b.A $.c b k k k a # = ! 2 ; ; ; * ; * + ; ; ",
"      - .       ; E.%.s Q s s s s s s Z  .v s s K s s Q s %.p.%.s P W  .J %.j.O M %.i.h g Y g j t.b ; + & = , + + ; # * + + + ; ",
"                    i.B s s s Q s Q s *.b W r J s s s K %.p.g.s s s r O J O k V %.i.g g k h k h g c ; + + & # { * ; ; ; ; + * + ",
"                    (.s.J Q s s s s s g.` V -.*.F.=.Q K w ].G.K s s Q v.}.&.k e.W '.j h j g j h g i + ; ; + + ; + + + $ * ; ; ; ",
". < 1 ] # ; + ; + ; (. .J s %.H.J Q s s s Z i.}.J Z M A s s J s s s s g.9.C.}.*.*.}.}.N N *.N a k ; ; + + ; * + + ;             ",
"] < ^ $ # + + # * f c E Z s v k s s s s s s s s K s z I.J s s s s g.d.J.v $.s s s s s s s J P &.+ * ; ;   $   ;   ;           ; ",
"< ] $ . ; { + * * + + { K.v W k #.s s s s s s Q s s K Q s s s Q %.i.k ` Q s s s s s s s b.>.*./ + + * ; $ : ' @                 ",
"^ ~ - - + + ; ; * ; ; ;     k k L T s Q s s s s s s Q s s J S N *.y A J Q s s s s s L.g.1.#.b + * + ; ; ~ _ ] +     ;           ",
"] - ; - F ; + $ ] ~ ; ;       g g b #.J s s Q s s s %.A z d k Y *.J s s Q ~.~.s s ~.0.J s /.i . # + + + + ' ~ ;   / .           ",
"$ ; c h i ; ; ' } ] $   $     c C.v h.].s s s s O O i.k g j k X I s s s ~.o.!.O 9.!.O Q n .   F ; + $ ; ; + + @   + / /     / . ",
". - k k k ; ; $ ] ~ + +   $   ; *.J J G.s 8.r.v a g Y g k Y A.b.Q s s K ` b k k k k M.  . . . . ; + + * ; ; # ; +     + . /     ",
"    + $ c c ; + ; ; ; ;   +   - k =.s s %.u.b k k b b R g h d.s s s s 1.H.g k g k c   . $ . . . + * * * + * * + +   + + .     / ",
"$ + ; $ $     a k c + ; ; ; a k k k j.s Q s s s J s s C *.N Z Q s Z [.g.1.y.h h l     . $ . . . / 4 > / / 4 4 / / /   / / / / / ",
"; + ; ; ; +     k a k k l i k i b a !.0.n s s s s s s s s s s s Q n s U #.b g g c   .   . . . + / f 4 > > / 7 3 8   4 8 N.5 4   ",
"; { $ ; - +     $ c k i } | ] # ^ 1 < h.=.s s s s s s s s s s s J r r + { + ; a k       . . . . c h > > > > 9 8 8 / / 8 N.5 4 . ",
"+ ] ] $ -   + ; + ; f ; + ~ ] ] ^ $   $ ; s s s s s s s s s s s n ~.~.+ $ ; ; + k k   . . + + c j k 4 > > 4 > 6 5 2 8 5 / / . / ",
"{ : _ $     $ - - + $ ; # ; _ ( ] - # $ $ @ 2.A s s s s s s %.A s s n + + +   + c i   /     c k j k u { > > 4 > 5 3 0 5 o 4 / + ",
"+ ~ ~ + -   - - ; ; ; ; # + ' _ ~   - + + + * F n n n n n n J.  - + + ; ; + + ; +     + + k g g c 4 { { > 4 / > / 5 5 / / / / / ",
"+ ; + + - + -     - # ; $ ; ; ; ; + ; # # * ; * * ; # # .     . @ ; + . ;   + ; +   / + / + / > > > > > > > > 4 / [ 4 / / / + / ",
"+ * ; ; $         - # + + + * * - ; ; + + $ { + { + +                 ; ; . ; + /   /   + + > / u [ > > > > / / / / / + /   4 / "};
