/* XPM */
static char * enemy4_xpm[] = {
"64 64 343 2",
"  	c #A6D563",
". 	c #A7D568",
"+ 	c #A4D35D",
"@ 	c #ACDB69",
"# 	c #AAD964",
"$ 	c #A0CF5C",
"% 	c #C1F276",
"& 	c #B1E166",
"* 	c #A9DA5E",
"= 	c #BCEC74",
"- 	c #A9D76A",
"; 	c #A8D764",
"> 	c #A6D85E",
", 	c #B9E96F",
"' 	c #9BCB55",
") 	c #B3E36B",
"! 	c #C3F37C",
"~ 	c #9ECD5A",
"{ 	c #A2D357",
"] 	c #98C754",
"^ 	c #95C552",
"/ 	c #A7D862",
"( 	c #83B33E",
"_ 	c #93C34D",
": 	c #99CA4D",
"< 	c #90BF4C",
"[ 	c #9FD056",
"} 	c #90C046",
"| 	c #8BBA46",
"1 	c #88B744",
"2 	c #B8E773",
"3 	c #C6F87E",
"4 	c #9FD05A",
"5 	c #AFE06A",
"6 	c #AEE067",
"7 	c #B6E570",
"8 	c #BFF079",
"9 	c #B7EA6A",
"0 	c #C7F882",
"a 	c #BEF075",
"b 	c #97C854",
"c 	c #96C84F",
"d 	c #CBFB83",
"e 	c #81A844",
"f 	c #82A44E",
"g 	c #84A650",
"h 	c #AAD666",
"i 	c #A1D05B",
"j 	c #83A948",
"k 	c #8BB252",
"l 	c #627F36",
"m 	c #030306",
"n 	c #1C2511",
"o 	c #8AAE52",
"p 	c #9BC75C",
"q 	c #9DCD54",
"r 	c #5B7534",
"s 	c #617E38",
"t 	c #91BB52",
"u 	c #A2CF60",
"v 	c #8DBC4A",
"w 	c #749346",
"x 	c #070203",
"y 	c #253112",
"z 	c #719242",
"A 	c #587330",
"B 	c #19230D",
"C 	c #455A27",
"D 	c #97C159",
"E 	c #85B541",
"F 	c #ACD870",
"G 	c #6E8E40",
"H 	c #030202",
"I 	c #020203",
"J 	c #435823",
"K 	c #69883D",
"L 	c #37491C",
"M 	c #010202",
"N 	c #36481E",
"O 	c #92BC52",
"P 	c #8AB151",
"Q 	c #36481D",
"R 	c #030205",
"S 	c #020304",
"T 	c #020303",
"U 	c #35461B",
"V 	c #90BC4D",
"W 	c #83AA4B",
"X 	c #010203",
"Y 	c #35461C",
"Z 	c #9CC958",
"` 	c #89B14D",
" .	c #8CB453",
"..	c #739443",
"+.	c #020204",
"@.	c #35471D",
"#.	c #95BF58",
"$.	c #8BB352",
"%.	c #090C06",
"&.	c #010307",
"*.	c #000306",
"=.	c #010304",
"-.	c #99C655",
";.	c #67853B",
">.	c #628039",
",.	c #4E672B",
"'.	c #060203",
").	c #37481F",
"!.	c #8EB754",
"~.	c #1F2B10",
"{.	c #020202",
"].	c #050203",
"^.	c #030303",
"/.	c #2B3918",
"(.	c #779A42",
"_.	c #98C35A",
":.	c #030304",
"<.	c #6F913E",
"[.	c #A0D056",
"}.	c #A7D664",
"|.	c #1F2B11",
"1.	c #3E5221",
"2.	c #6B8B3F",
"3.	c #9DC95D",
"4.	c #212B11",
"5.	c #040204",
"6.	c #030203",
"7.	c #30401B",
"8.	c #739641",
"9.	c #96C059",
"0.	c #BEEE79",
"a.	c #A3D25C",
"b.	c #A2CF65",
"c.	c #A1CF60",
"d.	c #1F280F",
"e.	c #243012",
"f.	c #2C3C18",
"g.	c #2D3C19",
"h.	c #24330F",
"i.	c #24330E",
"j.	c #151C09",
"k.	c #040203",
"l.	c #050204",
"m.	c #759648",
"n.	c #A4D261",
"o.	c #ABDA69",
"p.	c #A1CD5C",
"q.	c #607D38",
"r.	c #587332",
"s.	c #4C622B",
"t.	c #101106",
"u.	c #779945",
"v.	c #92BB5A",
"w.	c #91BB56",
"x.	c #8CB650",
"y.	c #83AC48",
"z.	c #4B6327",
"A.	c #030204",
"B.	c #3F5125",
"C.	c #556F2F",
"D.	c #5A7436",
"E.	c #6B8B3B",
"F.	c #A0CD5F",
"G.	c #97C456",
"H.	c #9DC563",
"I.	c #9FC566",
"J.	c #7E9F4D",
"K.	c #222E11",
"L.	c #040205",
"M.	c #89AF54",
"N.	c #9FCE5B",
"O.	c #759C3F",
"P.	c #496422",
"Q.	c #202C0F",
"R.	c #638039",
"S.	c #546D30",
"T.	c #4D642C",
"U.	c #9AC657",
"V.	c #ADDB63",
"W.	c #97C056",
"X.	c #3D4E24",
"Y.	c #020205",
"Z.	c #2A3816",
"`.	c #37491E",
" +	c #374922",
".+	c #96C452",
"++	c #74993F",
"@+	c #33431B",
"#+	c #8DB553",
"$+	c #7DA24A",
"%+	c #384921",
"&+	c #37491F",
"*+	c #34461B",
"=+	c #384920",
"-+	c #5B7635",
";+	c #9ECB5E",
">+	c #98BE60",
",+	c #576E36",
"'+	c #1D250E",
")+	c #769845",
"!+	c #95BE5C",
"~+	c #94BE58",
"{+	c #A1CD64",
"]+	c #9ECD5B",
"^+	c #72943F",
"/+	c #425624",
"(+	c #161F0A",
"_+	c #4A602C",
":+	c #779946",
"<+	c #97C05E",
"[+	c #92BD54",
"}+	c #A6D463",
"|+	c #97C158",
"1+	c #7A9E45",
"2+	c #80A44B",
"3+	c #647F3E",
"4+	c #040405",
"5+	c #050306",
"6+	c #3D5022",
"7+	c #709142",
"8+	c #96C05D",
"9+	c #7EA24A",
"0+	c #475D28",
"a+	c #587135",
"b+	c #81A450",
"c+	c #96BF5D",
"d+	c #A7D563",
"e+	c #9FCC5F",
"f+	c #6F9041",
"g+	c #1C2610",
"h+	c #3D4F25",
"i+	c #3F5324",
"j+	c #67853F",
"k+	c #A3D161",
"l+	c #A2D15A",
"m+	c #81A74C",
"n+	c #040304",
"o+	c #9CC85D",
"p+	c #A2D25F",
"q+	c #9ECA5E",
"r+	c #64813A",
"s+	c #4C622E",
"t+	c #91B95A",
"u+	c #99C460",
"v+	c #9CC761",
"w+	c #A8D669",
"x+	c #769940",
"y+	c #3F5323",
"z+	c #36471E",
"A+	c #4D662C",
"B+	c #4C6329",
"C+	c #82A849",
"D+	c #739343",
"E+	c #33431C",
"F+	c #5C7638",
"G+	c #84AA52",
"H+	c #A3D065",
"I+	c #607F32",
"J+	c #1C270E",
"K+	c #69873C",
"L+	c #779A46",
"M+	c #789C45",
"N+	c #5A7534",
"O+	c #5A7633",
"P+	c #83A949",
"Q+	c #9FCD5A",
"R+	c #060206",
"S+	c #040303",
"T+	c #1D290F",
"U+	c #445828",
"V+	c #86AC4F",
"W+	c #9ECE55",
"X+	c #9CCA56",
"Y+	c #5D7932",
"Z+	c #2D3B18",
"`+	c #526A2F",
" @	c #96C159",
".@	c #86AF4B",
"+@	c #425725",
"@@	c #1E2910",
"#@	c #475D25",
"$@	c #8EB750",
"%@	c #A2D060",
"&@	c #62803A",
"*@	c #32431C",
"=@	c #A1CE64",
"-@	c #93BE51",
";@	c #496026",
">@	c #253214",
",@	c #617E35",
"'@	c #9AC957",
")@	c #A3D45C",
"!@	c #A1CE60",
"~@	c #90BA56",
"{@	c #475D29",
"]@	c #010305",
"^@	c #040202",
"/@	c #20290F",
"(@	c #415623",
"_@	c #84AA4A",
":@	c #4A6129",
"<@	c #32431B",
"[@	c #729343",
"}@	c #7CA049",
"|@	c #84AB4E",
"1@	c #85AD4C",
"2@	c #607D36",
"3@	c #060204",
"4@	c #6D8E3B",
"5@	c #85AB4F",
"6@	c #5B7637",
"7@	c #010205",
"8@	c #020306",
"9@	c #799D45",
"0@	c #66853B",
"a@	c #4A6128",
"b@	c #658535",
"c@	c #536A2D",
"d@	c #536B2F",
"e@	c #405420",
"f@	c #729340",
"g@	c #85AB53",
"h@	c #4D642F",
"i@	c #4E652D",
"j@	c #4C642A",
"k@	c #85AC4B",
"l@	c #A8D569",
"m@	c #6A8939",
"n@	c #607B38",
"o@	c #B5E36E",
"p@	c #B7E574",
"q@	c #82A947",
"r@	c #7E9F4F",
"s@	c #9BC959",
"t@	c #9DC861",
"u@	c #9FCD58",
"v@	c #A4D45B",
"w@	c #92BA58",
"x@	c #A4D05E",
"y@	c #81A746",
"z@	c #87AC4D",
"A@	c #A7D265",
"B@	c #C5F681",
"      .           +   +   + + + + @ # $ # % % & * & % = @ $ + - ; ;             ; . + + . + + ; ; ; ; + + + + + ; ; $ ; ; ;     ",
"  -   .     ; ;     * # >   * # +     + * # & , % , & ; ; ; ; $ ; ;         .   + . ; . . ; ; + + + ; + ; ; ; ; ; + ; ; ; ;     ",
".   .       +     ; # + $ $ + # ; + + # * ' * ) ! , + ~   @ ; $ ;               . + ; + + + . . ; + + ; ; ; ; + $ + ; ;       ; ",
"  .             ; # * $ { ] { * -     - * $ { & ) & * { + ; + ;                 ; + . . ; . + ; ; + + ; ; + $ ] ~ + ; + $ $     ",
"              +   ; ; $ ] ^ $ $ . . . . ; + + ; ~ + ; * + + + @ .           .   ; . + ; $ .     ; + $ ; ; $ ' ^ ~ + ; ; ; $ + ; ",
"  . -   ; - / / + + * + { $ + * $ .   $ ; # # $ + * * * + * * ; $               + . . + ;       ; + - + ; ; $ ~ $ + + ; + ; + ; ",
"          +           ; ; + ; ;   . . +   -   $ ; ; + + * * * + ; ;             + ; ; + ; . ;     + -   ; ; ; + ; + ; ; + ; + ; ",
"  $ + $ + + + $     ; * ; ;     . - - - - ;   $ + + ; * + + { { + . .           . + . . ; + ; ; + - +   $   ; ; ; ; + + ; ; ; + ",
"; ( (   @ _ ( ^ + ;   + ; + ; ; . . . . .       # *     * { : < + ; - @ ; $ $ - -   +   ;     ;   -             $ ; # + { ; ; { ",
"$ _ ^ +   ] _ ^ ; + ; + + ;       . .   . . .   ;   + * + { [ < $ ; ; ; ; ; ; ;     ;   .     $                 ; ; + + ; + ; ; ",
"+ + $ } | ] +         ;           .     . . . . ; +   + * * + { + $ + . - @ - $ $ ; -   ; ; ;   - $   -         ; $ $ ; ; { { + ",
"# & + } ( $ # # +                   .   $ . . . .         * * + ; . + ; - $ + ; - + $   ; ; ; - - -   -         { # & ; { & # + ",
"+ * + + +     $         .   -     +       . . $ .         + ; ; ; $   @ $ < ^ - @ ] < $ - ; ; ;   - - .         ; ! % ; { , % & ",
"+ + + ; # * + +                         . . . . . . .     + + + - +   - ~ | <   ; < 1 ~ - ; $   - $ . . - -     @ ! ! ; { = ! , ",
"# * + + + + ; ;             .             . . . . . . .   +     + ; ; - $ ] ] ] ] ] ] +   ;     $ . . $     + ; - , 2 , ) , , & ",
"+ ; ; +       ;                   $           . .           ; ; $ - ; + ; @ $ < | $ -   $ ; ;   - . . -     ; ; ; ] # ! 3 ) { $ ",
"+ + ;           4 . 5 5 / / / 6 5 / $ . . / 4 / $   # ; +     ;       - ; + $ ' : $ + + + ; ; +     - $           - - , 7 - ; ; ",
"    ; ; . ; - ; / 5 8 8 > 4 9 0 5 . $   - / + > * * * ; +       $   - - ; ; $ $ $ + ; ; * ; * +       -         $ $ ; - - ; + $ ",
"      +         4 5 8 7 6 / 9 8 5 . .   . + / > * + $ {   ; ;   - $     ; ; $ + ; ; ; + ~ + ; ;             $ -   + ;   ; + ; ; ",
";   + ;     +   . 4 / 5 a a 9 > 5 . .   / / + > + { ^ ] + ; ; ; - - - ; + ; ; ; + ; ; ~ : : { +         -   -   - - ; ; ; ; ; ; ",
"6 4 + /       / 5 4 4 5 8 8 5 4 - .     / / $ / ; $ _ ] + # ; ; ; ; ;   ; $ ; ; + ; $ ] : ] + ;                   $           $ ",
"[ b b 4       / / . . 5 - / 5 / / . .   . $ $ / ; + $ { + ; ; +   -     ; ; ; ; + ; ; + ' $ ; ;         -       $               ",
"b c c [ $ + $ / 4 . . . . b 4 .   .         / / ; * * ; * + *           ; + ; + ; ; ; ; $ ; - ;                 - ; ;   + -     ",
"[ [ [ + # $   / . / . . . 5 . 4                 + + ; ; ; + + # +     + + ; + ; $ ; ; ; ; ; ; $                     - $ $       ",
"> * > [ / 4 . / 4 . . . . . . 4 -   $ - -       ; $ $ / { + # $ ; + + ; ; + + ; $ ; ; ; + ;         - ; ; - -     - - - - ;   ; ",
"[ * * > / 4 / . . . . 4 4 4 . .       /           + ; @ # * * $ ; - ; ; ; ; ; $ ; ; ; $ ; +     ; + ; $ $ ] $ - ; ] ] $ ; ;   ; ",
"> > > > / / 4 . . . . . 4 . / /             .     ; / $ + + + # $ ; ; + ; ; ; + $ ;     ; ; +           ] | ^   $ < | ~ - ; $ - ",
"> > > 4 / . . . . . . . / . / /   / -       -   ; @ + $ & # + + ; & # + $ ; # $         ; + ;       ;   $ < ^ $ $ ^ ^ $ - ; + ; ",
"> / +       4 . . 4 . . . / . / + / /       .   $ ;   ) d ! # e f g h ; i j k $ + ; ;         -         +   ] < ] $ + ; ; ; ; $ ",
"+ /       / . . . . 4 . . 4 4 / + 4 $ + .     . . ; ; ) ! ! & l m n o p q r s t u       - -     $     $ ; - $ | < $ - ; $ ; - ; ",
"/ + /   /   . . 4 . . . b v 4 / ~ _ b + -   . . - $   > ; & = w m x y z q A B C D     ; . .             ;     ] $ $ ; ; ; ; ; ; ",
"+ / + /       . . . - . | E b 5 b | | + @   $ -   $ ; - $ # % F G H I J K L M N O     $ - $ ; ; -     - ; ; - @ @ ; $ ; - - $ $ ",
", { { , % & $ ; -   + $ $ $ ] < ^ ~ + - $ ; ; ; @ ; + + ; @ @ @ P I M M M M M Q O & ; ] : ' * ; + ; ; ;     ; ; $ ;     ;       ",
"% * { % ! & + ; + +   - - $ ] < ] $ ; ; ; ; ; + + ; ; ; ; ; ; ; P R S T M M M U V ; $ : } ' { + ; + ; +     $ -     ; -     - $ ",
", & & , , & + ; + + - - - . ] < $   ; + + ; + $ ~ $ ; @ ; + + + W I X M M M I Y O * + { ' { + + $ ; ; ; ;   ; ; $     $     ; $ ",
"& % 3 & $ + * + ; ; $     - ; ; + - ; + + ; + ~ _ ~ + ; ; Z `  ...M M M M M +.@.#.# * + + ; * + ; ; ; $ ; ; $ ; - ;   ;   ;   ; ",
"+ % ! & ' + ; + ; ; + + + ; * @ +   + + ; ; + ~ ] $ + ; ; $.%.&.*.M M M M M =.@.O ; ; + + { ; $ ; ; ; $ ; ; ; $ ; ; ; ;   -   $ ",
"# * ; ; ; + ; ; ; ; ; ; ; ; + +         ; ; ; + + + -.;.>.,.'.+.X M M M M M S ).O + ; + ; ; + ; ; $ ; ; $ ; ; ;   ; $ ;   $ $ ; ",
"- $ ~ + ; + $ ; ; + ; + * + + + + + ; + ; ; ; + ; ; !.~.M {.].{.M M M M M M ^./.(._.+ ; ; ; ; $ ; ; $ ; ; $ ; + ; ; + ; ; $ ; $ ",
"; ; ; ; + + ; ; + ; ; * + * + + + ; ; ; + ;   +   + !.~.M M M M M M M M M M H '.:.<.[.}.; ; ; $ + ; ; + ; ; + ; ; $ ; ; ; ; ; $ ",
"- . . $ .       ; + ; * ; + ; * & $ + & # $ $ ;     !.|.I M M M M M +.I M M {.H I 1.2.3.        ; ; $ ; $ ; ; $ ; $ $ ; ; + + ; ",
". . . . .       + + ~ ' + * * { $ & ; $ $ * ; +     !.4.I M M M M M 5.6.M M M M I S 7.8.9.      $ ) 2 2 & ; - 0.2 @ + ; ; + + + ",
". - . .   .   . ; $ ^ ] $ ; ; $ + + ; * ; ; + a.b.c.P d.e.f.g.f.h.i.j.k.M M M M +.l.'.:.m.c.c.c.n.o.0.! 2 ; & d 2 & ; ; ; ; ; + ",
". $ . . .       ; + ] ] + * ; + & ) & ; ; & ) p.q.r.s.t.u.v.w.w.x.y.z.{.M M M M X I 6.A.B.C.D.D.E.F.& 2 2 ) , , , ; $ + ; + ; ; ",
"  . -     $ -   - ; + + ; ; ; + , 3 ! $ G.H.I.J.K.k.k.L.M..   - ; N.O.P.M M M Q.R.S.I R A.I M 6.T.U.+ # = ! 2 ; ; ; * ; * + ; ; ",
"      - .       ; ; - - ; + ; + & = % V.W.X.Y.M M Z.`. +$.. . ; ; ; .+++M M M @+#+$+%+&+%+*+=+`.-+;+; + & = , + + ; # * + + + ; ",
"                    - ;     ; ; + { # >+,+'+6.X +.)+!+~+{+.     ; ]+^+/+M M M (+_+:+9.<+<+<+<+<+[+}+; + + & # { * ; ; ; ; + * + ",
"                        - ; ; ; |+1+2+3+4+5+:.6+7+8+$         + p 9+0+M M M M M M a+1+b+c+$ - $ + + + ; ; + + ; + + + $ * ; ; ; ",
". < 1 ] # ; + ; + ; * ; ; + d+e+f+:.'.l.g+h+i+j+k+  ; + : ^ $ l+m+M M M M M M M M I R n+f+o+o+p++ ; ; + + ; * + + ;             ",
"] < ^ $ # + + # * + + ; ; ; q+r+N M {.A.s+t+u+v+w++ + $ : : { x+y+M M M M M M M M M I ].z+A+B+C++ * ; ;   $   ;   ;           ; ",
"< ] $ . ; { + * * + + { - #.D+E+T T T F+G+H+. . - + ; + { ' * I+A.I 6.6.J+K+L+M+L+N+6.].5.+.+.O+P+Q+* ; $ : ' @                 ",
"^ ~ - - + + ; ; * ; ; d+o+z R+S+^.T+U+V+. . -   ; + + ; { W+X+Y+R A.].Z+`+ @/     .@+@@@T M M M #@$@%@; ~ _ ] +     ;           ",
"] - ; - + ; + $ ] ~ ; e+&@*@:.{.T 0+t+=@  -   - ; + ; # * -@;@>@+.M {.,@'@)@  +   !@~@{@]@M M ^@/@(@_@+ + ' ~ ;   / .           ",
"$ ; - ; + ; ; ' } ] $ o+:@n+<@[@}@|@b.; -   - ;   + + # 1@2@3@A.6.k.{.4@+ + $ /     u 5@6@7@+.R m 8@9@; ; + + @   + / /     / . ",
". - $ + ; ; ; $ ] ~ + Z 0@a@>.q+  ;   ;     ;   - $ + + b@Z+c@d@e@'.H f@@ { + -         g@h@h@h@i@j@k@* ; ; # ; +     + . /     ",
"    + $ + ; ; + ; ; ; d+;+U.q+l@-   ; ;   ;   ; ; + + ; m@n@o@p@q@{.T r@a ; ~         . s@t@t@t@U.u@v@* + * * + +   + + .     / ",
"$ + ; $ $       ; ; + ; ; ; ; ; .     $ - # ; + + + ;   !.w@2 ! x@y@z@A@7 + + ; .     . $ . . . / 4 > / / 4 4 / / /   / / / / / ",
"; + ; ; ; +     ; ; # + < | ] ; ] v v   # $ + # ; ; + + +   ; @ % % % & * + + ;     .   . . . + / > 4 > > / 7 3 8   4 8 B@5 4   ",
"; { $ ; - +     $ - # $ } | ] # ^ 1 <   @ + $ # *           $ $ % ! 2 + { + ; +         . . . . > 4 > > > > 9 8 8 / / 8 B@5 4 . ",
"+ ] ] $ -   + ; + ; ; ; + ~ ] ] ^ $   $ ; # ; ' ] { $ ; ; ; .     ) @ + $ ; ; + +     . . + + + c c 4 > > 4 > 6 5 2 8 5 / / . / ",
"{ : _ $     $ - - + $ ; # ; _ ( ] - # $ $ @ * _ < ] + ;       . $ + ; + + +   + +     /     / 4 c c c { > > 4 > 5 3 0 5 b 4 / + ",
"+ ~ ~ + -   - - ; ; ; ; # + ' _ ~   - + + + * $ : { ; ; . $ .   - + + ; ; + + ; +     + +   / / 4 4 { { > 4 / > / 5 5 / / / / / ",
"+ ; + + - + -     - # ; $ ; ; ; ; + ; # # * ; * * ; # # .     . @ ; + . ;   + ; +   / + / + / > > > > > > > > 4 / [ 4 / / / + / ",
"+ * ; ; $         - # + + + * * - ; ; + + $ { + { + +                 ; ; . ; + /   /   + + > / c [ > > > > / / / / / + /   4 / "};
