/* XPM */
static char * enemy6_xpm[] = {
"64 64 63 1",
" 	c #A6D563",
".	c #A7D568",
"+	c #A4D35D",
"@	c #ACDB69",
"#	c #AAD964",
"$	c #A0CF5C",
"%	c #C1F276",
"&	c #B1E166",
"*	c #A9DA5E",
"=	c #BCEC74",
"-	c #A9D76A",
";	c #A8D764",
">	c #A6D85E",
",	c #B9E96F",
"'	c #9BCB55",
")	c #B3E36B",
"!	c #C3F37C",
"~	c #9ECD5A",
"{	c #A2D357",
"]	c #98C754",
"^	c #95C552",
"/	c #A7D862",
"(	c #83B33E",
"_	c #93C34D",
":	c #99CA4D",
"<	c #90BF4C",
"[	c #9FD056",
"}	c #90C046",
"|	c #8BBA46",
"1	c #945AE5",
"2	c #9459EA",
"3	c #9A55EE",
"4	c #9F50F6",
"5	c #9F50F9",
"6	c #9756F1",
"7	c #88B744",
"8	c #A34FF6",
"9	c #A050F8",
"0	c #B8E773",
"a	c #C6F87E",
"b	c #9FD05A",
"c	c #AFE06A",
"d	c #AEE067",
"e	c #8D60E3",
"f	c #B6E570",
"g	c #BFF079",
"h	c #B7EA6A",
"i	c #C7F882",
"j	c #A050F6",
"k	c #8D5DE4",
"l	c #9858EB",
"m	c #8763DE",
"n	c #9756ED",
"o	c #97C854",
"p	c #96C84F",
"q	c #9F4FF7",
"r	c #A14FF9",
"s	c #8DBC4A",
"t	c #85B541",
"u	c #BEEE79",
"v	c #CBFB83",
"w	c #C5F681",
"x	c #9160E8",
"   .     + + ++++@#$#%%&*&%=@$+-;;      ;.++.++;;;;+++++;;$;;;  ",
" - .  ;;  *#> *#+  +*#&,%,&;;;;$;;    . +.;..;;+++;+;;;;;+;;;;  ",
". .   +  ;#+$$+#;++#*'*)!,+~ @;$;       .+;+++..;++;;;;+$+;;   ;",
" .      ;#*${]{*-  -*${&)&*{+;+;        ;+..;.+;;++;;+$]~+;+$$  ",
"       + ;;$]^$$....;++;~+;*+++@.     . ;.+;$.  ;+$;;$'^~+;;;$+;",
" .- ;-//++*+{$+*$. $;##$+***+**;$       +..+;   ;+-+;;$~$++;+;+;",
"     +     ;;+;; ..+ - $;;++***+;;      +;;+;.;  +- ;;;+;+;;+;+;",
" $+$+++$  ;*;;  .----; $++;*++{{+..     .+..;+;;+-+ $ ;;;;++;;;+",
";(( @_(^+; +;+;;.....   #*  *{:<+;-@;$$-- + ;  ; -      $;#+{;;{",
"$_^+ ]_^;+;++;   .. ... ; +*+{[<$;;;;;;;  ; .  $        ;;++;+;;",
"++$}|]+    ;     .  ....;+ +**+{+$+.-@-$$;- ;;; -$ -    ;$$;;{{+",
"#&+}($##+         . $....    **+;.+1-$+;-+$ ;;;--- -    {#&;{&#+",
"+*+++  $    . -  +   ..$.    +;;;$23$<^-@]<$-;;; --.    ;!%;{,%&",
"+++;#*++            .......  +++-+456|< ;<7~-;$ -$..--  @!!;{=!,",
"#*++++;;      .      ....... +  +6894]]]]]]+ ;  $..$  +;-,0,),,&",
"+;;+   ;         $     ..     ;;$6994@$<|$- $;; -..-  ;;;]#!a){$",
"++;     b.cc///dc/$../b/$ #;+  ; 4944e$':$+++;;+  -$     --,f-;;",
"  ;;.;-;/cgg>bhic.$ -/+>***;+   45j44k$$$+;;*;*+   -  lm$$;--;+$",
"   +    bcg26/hgc.. .+/>*+${ ;;24454jk$+;;;+~+;;    j42- +; ;+;;",
"; +;  + .b/24kh>c.. //+>+{^]+;;j94544k;;+;;~::{+  6496- --;;;;;;",
"db+/   /cbbc666n-.  n61/;$_]+#66jj44je;;+;$]:]+k638j4    $     $",
"[oob   //..c295jj.. 396/;+${+;4jj54991;;+;;+'$;j9j94-   $       ",
"opp[$+$/b....l44jj669jj3l4j634qj94j962;+;;;;n6jj994e    -;; +-  ",
"[[[+#$ /./...c85jjjj449954j86444444544+;$;;jjj4946k       -$$   ",
">*>[/b./b.....68j9994j44jjj5544q4444j8j2$355488583-;;--  ----; ;",
"[**>/b/....bbb6jj4j54r444j449j4449j444589j49949j4+;$$]$-;]]$;; ;",
">>>>//b.....b./6j545545854454q4444qrq4q5jq995446    ]|^ $<|~-;$-",
">>>b/......././kj54jq444rq4j44rq5j45944q54q94j6   ; $<^$$^^$-;+;",
">/+   b..b..././6j4944q444q44rj55j4944944j54j4 -    + ]<]$+;;;;$",
"+/   /....b..bb/j945945jq45j44q4q4q44qr4454jj4  $  $;-$|<$-;$;-;",
"/+/ / ..b...osb3jj5j4j444j5444q444q4q444j49jj91     ;  ]$$;;;;;;",
"+/+/   ...-.|t45j44445544q4qq449584944q454j4jr4;-  -;;-@@;$;--$$",
",{{,132;- +$$$45j444944q845j44454q485454q488444n+;;;  ;;$;  ;   ",
"%*{%14j66+ --64844q54q4454q44r4q444q4q4q455q54j4;+;+  $-  ;-  -$",
",&&,,1jj9j3144q48548q444444qq44j54q5444qqj4q55992;;;; ;;$  $  ;$",
"&%a&$+6j9996j445454q5jr45q94q4q4q44j4r54449444jj9;;$;;$;-; ; ; ;",
"+%!&'+;44j9j454q44q5q4j444q4q4454q4qqqj4q4j4445j4n;$;;;$;;;; - $",
"#*;;;+;;jj494444q4q445q5q4r544qj45j444q55j5q44r4j462$;;; ;$; $$;",
"-$~+;+$;2j995554qj4jqj444444r4q485q4r44jq444q4j594955936;;+;;$;$",
";;;;++;;+66j8q4q44q544q4r4q44444444444q544q4r44q444849962$;;;;;$",
"-..$.   ;+j9j454544484q5q4j448r4qq444q45445q54j594jj59l$;$$;;++;",
".....   ++~jj4844rq554q4445q4554454q94484q44q4q4445362-u0@+;;+++",
".-.. . .;$^2j444444jq4445q4544qq58j5q44444q4qj5j99420;&v0&;;;;;+",
".$...   ;+]4j5j54qq4494q4q48q544444q5jq98q5j54494l&00),,,;$+;+;;",
" .-  $- -;+244j44q4q4q4j4j5454444q94q4q454q49454jl+#=!0;;;*;*+;;",
"   -.   ;;--lq5q45j494q5q4q4qjqq454q5j44q4444q4j42;+&=,++;#*+++;",
"          -;24445r49q444q4r44j44qq44qr4q5449j445j2;++&#{*;;;;+*+",
"            -j5j44q4444r4444q54r449444444qq45qq9n++;;++;+++$*;;;",
".<7]#;+;+;*;;295r44j4444q44qq4454q4qr44445454444k;;++;*++;      ",
"]<^$#++#*++;;3455r4q4qq4499445q445j444q4q4q8j446+*;; $ ; ;     ;",
"<]$.;{+**++{-j9jj4q4j4444q4qq44485j544r444444541++*;$:'@        ",
"^~--++;;*;;;644455445qr445j4458qq4q44q544q5j444+*+;;~_]+  ;     ",
"]-;-+;+$]~;1j5j54444445jr4q44rj5444444qq544q5j4.#++++'~; /.     ",
"$;-;+;;'}]$49544444545j94454444q5q4qq544r444q54e;+$;;++@ +//  /.",
".-$+;;;$]~2jr45j44j4949jq55444q4q45r444445qj5556;++*;;#;+  +./  ",
"  +$+;;+;;6j49594444449j844qq4j544j454554458q8q6+***+**++ ++.  /",
"$+;$$   ;69jjj44r9 2jj964r44849j4458r4j48j844j84lb>//bb/// /////",
";+;;;+  ;n99j4462ss 149j484q59j95q4j4j4j9498448j4>b>>/fag bgwcb ",
";{$;-+  3j49j2]#^7< @+$j4444449jj4449j6846jj844933>>>>hgg//gwcb.",
"+]]$- +3j4j3k~]]^$ $;#;']34r5q988542k;;184xk658943b>>b>dc0gc//./",
"{:_$  ejj66;#;_(]-#$$@*_<]68666363;+++ +l6 / 33j8je{>>b>caicob/+",
"+~~+- 6j;;;;#+'_~ -+++*$:{;3j$. -++;;++;+  ++ //6r5{>b/>/cc/////",
"+;++-+-  -#;$;;;;+;##*;**;##.  .@;+.; +;+ /+/+/>>>>>>>>b/[b///+/",
"+*;;$    -#+++**-;;++${+{++        ;;.;+/ / ++>/p[>>>>/////+/ b/"};
