/* XPM */
static char * enemy10_xpm[] = {
"64 64 110 2",
"  	c #A6D563",
". 	c #A7D568",
"+ 	c #A4D35D",
"@ 	c #ACDB69",
"# 	c #AAD964",
"$ 	c #A0CF5C",
"% 	c #C1F276",
"& 	c #B1E166",
"* 	c #A9DA5E",
"= 	c #BCEC74",
"- 	c #A9D76A",
"; 	c #A8D764",
"> 	c #A6D85E",
", 	c #B9E96F",
"' 	c #9BCB55",
") 	c #B3E36B",
"! 	c #C3F37C",
"~ 	c #9ECD5A",
"{ 	c #A2D357",
"] 	c #98C754",
"^ 	c #95C552",
"/ 	c #A7D862",
"( 	c #83B33E",
"_ 	c #93C34D",
": 	c #99CA4D",
"< 	c #90BF4C",
"[ 	c #9FD056",
"} 	c #90C046",
"| 	c #8BBA46",
"1 	c #88B744",
"2 	c #B8E773",
"3 	c #C6F87E",
"4 	c #9FD05A",
"5 	c #AFE06A",
"6 	c #AEE067",
"7 	c #B6E570",
"8 	c #BFF079",
"9 	c #B7EA6A",
"0 	c #C7F882",
"a 	c #BEF075",
"b 	c #97C854",
"c 	c #96C84F",
"d 	c #CBFB83",
"e 	c #8DBC4A",
"f 	c #85B541",
"g 	c #AE9ADD",
"h 	c #C5F681",
"i 	c #8C5CE1",
"j 	c #B88BE6",
"k 	c #E0BCF0",
"l 	c #EEDEFA",
"m 	c #BE77ED",
"n 	c #9D52F0",
"o 	c #A151F4",
"p 	c #9E52F6",
"q 	c #A456F5",
"r 	c #C679F8",
"s 	c #A063E7",
"t 	c #F1F6FA",
"u 	c #9659E4",
"v 	c #A557EE",
"w 	c #A355F8",
"x 	c #A050F7",
"y 	c #A151F3",
"z 	c #A374DF",
"A 	c #D7D4EE",
"B 	c #F2F9FC",
"C 	c #EED4F0",
"D 	c #B064F3",
"E 	c #B05EF0",
"F 	c #A14FF8",
"G 	c #A04FFC",
"H 	c #9E51F8",
"I 	c #A456F3",
"J 	c #D0A3F0",
"K 	c #C8BFE5",
"L 	c #E6D4F3",
"M 	c #AF66F0",
"N 	c #A54EF7",
"O 	c #BB78F4",
"P 	c #AB6EEB",
"Q 	c #B182EC",
"R 	c #9857E6",
"S 	c #9B54F5",
"T 	c #BE8CED",
"U 	c #ECF2FB",
"V 	c #F1DCF7",
"W 	c #9E53EC",
"X 	c #E8D1F5",
"Y 	c #CA9EEE",
"Z 	c #BC6EF5",
"` 	c #AC5AEE",
" .	c #B580E5",
"..	c #C88FED",
"+.	c #796ABF",
"@.	c #DAB9F2",
"#.	c #CDA3F2",
"$.	c #B870F3",
"%.	c #B773EE",
"&.	c #B17AEB",
"*.	c #A14FF6",
"=.	c #BEEE79",
"-.	c #B375EA",
";.	c #BF78F0",
">.	c #C7A1EB",
",.	c #DABBED",
"'.	c #DFD3EE",
").	c #8F61E2",
"!.	c #9D5FED",
"~.	c #7F5AD7",
"      .           +   +   + + + + @ # $ # % % & * & % = @ $ + - ; ;             ; . + + . + + ; ; ; ; + + + + + ; ; $ ; ; ;     ",
"  -   .     ; ;     * # >   * # +     + * # & , % , & ; ; ; ; $ ; ;         .   + . ; . . ; ; + + + ; + ; ; ; ; ; + ; ; ; ;     ",
".   .       +     ; # + $ $ + # ; + + # * ' * ) ! , + ~   @ ; $ ;               . + ; + + + . . ; + + ; ; ; ; + $ + ; ;       ; ",
"  .             ; # * $ { ] { * -     - * $ { & ) & * { + ; + ;                 ; + . . ; . + ; ; + + ; ; + $ ] ~ + ; + $ $     ",
"              +   ; ; $ ] ^ $ $ . . . . ; + + ; ~ + ; * + + + @ .           .   ; . + ; $ .     ; + $ ; ; $ ' ^ ~ + ; ; ; $ + ; ",
"  . -   ; - / / + + * + { $ + * $ .   $ ; # # $ + * * * + * * ; $               + . . + ;       ; + - + ; ; $ ~ $ + + ; + ; + ; ",
"          +           ; ; + ; ;   . . +   -   $ ; ; + + * * * + ; ;             + ; ; + ; . ;     + -   ; ; ; + ; + ; ; + ; + ; ",
"  $ + $ + + + $     ; * ; ;     . - - - - ;   $ + + ; * + + { { + . .           . + . . ; + ; ; + - +   $   ; ; ; ; + + ; ; ; + ",
"; ( (   @ _ ( ^ + ;   + ; + ; ; . . . . .       # *     * { : < + ; - @ ; $ $ - -   +   ;     ;   -             $ ; # + { ; ; { ",
"$ _ ^ +   ] _ ^ ; + ; + + ;       . .   . . .   ;   + * + { [ < $ ; ; ; ; ; ; ;     ;   .     $                 ; ; + + ; + ; ; ",
"+ + $ } | ] +         ;           .     . . . . ; +   + * * + { + $ + . - @ - $ $ ; -   ; ; ;   - $   -         ; $ $ ; ; { { + ",
"# & + } ( $ # # +                   .   $ . . . .         * * + ; . + ; - $ + ; - + $   ; ; ; - - -   -         { # & ; { & # + ",
"+ * + + +     $         .   -     +       . . $ .         + ; ; ; $   @ $ < ^ - @ ] < $ - ; ; ;   - - .         ; ! % ; { , % & ",
"+ + + ; # * + +                         . . . . . . .     + + + - +   - ~ | <   ; < 1 ~ - ; $   - $ . . - -     @ ! ! ; { = ! , ",
"# * + + + + ; ;             .             . . . . . . .   +     + ; ; - $ ] ] ] ] ] ] +   ;     $ . . $     + ; - , 2 , ) , , & ",
"+ ; ; +       ;                   $           . .           ; ; $ - ; + ; @ $ < | $ -   $ ; ;   - . . -     ; ; ; ] # ! 3 ) { $ ",
"+ + ;           4 . 5 5 / / / 6 5 / $ . . / 4 / $   # ; +     ;       - ; + $ ' : $ + + + ; ; +     - $           - - , 7 - ; ; ",
"    ; ; . ; - ; / 5 8 8 > 4 9 0 5 . $   - / + > * * * ; +       $   - - ; ; $ $ $ + ; ; * ; * +       -         $ $ ; - - ; + $ ",
"      +         4 5 8 7 6 / 9 8 5 . .   . + / > * + $ {   ; ;   - $     ; ; $ + ; ; ; + ~ + ; ;             $ -   + ;   ; + ; ; ",
";   + ;     +   . 4 / 5 a a 9 > 5 . .   / / + > + { ^ ] + ; ; ; - - - ; + ; ; ; + ; ; ~ : : { +         -   -   - - ; ; ; ; ; ; ",
"6 4 + /       / 5 4 4 5 8 8 5 4 - .     / / $ / ; $ _ ] + # ; ; ; ; ;   ; $ ; ; + ; $ ] : ] + ;                   $           $ ",
"[ b b 4       / / . . 5 - / 5 / / . .   . $ $ / ; + $ { + ; ; +   -     ; ; ; ; + ; ; + ' $ ; ;         -       $               ",
"b c c [ $ + $ / 4 . . . . b 4 .   .         / / ; * * ; * + *           ; + ; + ; ; ; ; $ ; - ;                 - ; ;   + -     ",
"[ [ [ + # $   / . / . . . 5 . 4                 + + ; ; ; + + # +     + + ; + ; $ ; ; ; ; ; ; $                     - $ $       ",
"> * > [ / 4 . / 4 . . . . . . 4 -   $ - -       ; $ $ / { + # $ ; + + ; ; + + ; $ ; ; ; + ;         - ; ; - -     - - - - ;   ; ",
"[ * * > / 4 / . . . . 4 4 4 . .       /           + ; @ # * * $ ; - ; ; ; ; ; $ ; ; ; $ ; +     ; + ; $ $ ] $ - ; ] ] $ ; ;   ; ",
"> > > > / / 4 . . . . . 4 . / /             .     ; / $ + + + # $ ; ; + ; ; ; + $ ;     ; ; +           ] | ^   $ < | ~ - ; $ - ",
"> > > 4 / . . . . . . . / . / /   / -       -   ; @ + $ & # + + ; & # + $ ; # $         ; + ;       ;   $ < ^ $ $ ^ ^ $ - ; + ; ",
"> / +       4 . . 4 . . . / . / + / /       .   $ ;   ) d ! # { % % , ; + * ; $ + ; ;         -         +   ] < ] $ + ; ; ; ; $ ",
"+ /       / . . . . 4 . . 4 4 / + 4 $ + .     . . ; ; ) ! ! & + ! % , ; { ; ; +         - -     $     $ ; - $ | < $ - ; $ ; - ; ",
"/ + /   /   . . 4 . . . b e 4 / ~ _ b + -   . . - $   > ; & = % & - * ; { + ; ; ;     ; . .             ;     ] $ $ ; ; ; ; ; ; ",
"+ / + /       . . . - . | f b 5 b | | + @   $ -   $ g - $ # % h ; ; + + ; + $ ; +     $ - $ ; ; -     - ; ; - @ @ ; $ ; - - $ $ ",
", { { , % & $ ; -   + $ $ $ ] < ^ ~ + - $ ; ; ; @ ; + + ; @ @ @ ; ; ; ; $ ; + ; + & ; ] : ' * ; + ; ; ;     ; ; $ ;     ;       ",
"% * { % ! & + ; + +   - - $ ] < ] $ ; ; ; ; ; + + ; ; ; ; ; ; ; ; ; ; $ ; + * + { ; $ : } ' { + ; + ; +     $ -     ; -     - $ ",
", & & , , & + ; + + - - - . ] < $   ; + + ; + $ ~ $ ; i i j k + $ ; $ ; ; + ; + + * + { ' { + + $ ; ; ; ;   ; ; $     $     ; $ ",
"& % 3 & $ + * + ; ; $     - ; ; + - ; + + ; + ~ l m n o p q r s ; ; ; ; + ; ; + ; # * + + ; * + ; ; ; $ ; ; $ ; - ;   ;   ;   ; ",
"+ % ! & ' + ; + ; ; + + + ; * @ +   + + ; ; + t u v w o x x y y z A ; ; ; + ; + + ; ; + + { ; $ ; ; ; $ ; ; ; $ ; ; ; ;   -   $ ",
"# * ; ; ; + ; ; ; ; ; ; ; ; + +         ; ; B C D E E F G p H H I J K + + ; ; ; + + ; + ; ; + ; ; $ ; ; $ ; ; ;   ; $ ;   $ $ ; ",
"- $ ~ + ; + $ ; ; + ; + * + + + + + ; + ; ; ; L M F H H H F n N I O P Q + ; { ; + ; + ; ; ; ; $ ; ; $ ; ; $ ; + ; ; + ; ; $ ; $ ",
"; ; ; ; + + ; ; + ; ; * + * + + + ; ; ; + ;   + R n n y S y p F p y n T ; + ; + ; + { ; ; ; ; $ + ; ; + ; ; + ; ; $ ; ; ; ; ; $ ",
"- . . $ .       ; + ; * ; + ; * & $ + & # $ $ ; U V T W X Y Z `  ...+.$ ; @ @ ; ; + ; ;         ; ; $ ; $ ; ; $ ; $ $ ; ; + + ; ",
". . . . .       + + ~ ' + * * { $ & ; $ $ * ; +   @.#.$.%.&.*.n @.V $ & $ | } ; + ; ; $         $ ) 2 2 & ; - =.2 @ + ; ; + + + ",
". - . .   .   . ; $ ^ ] $ ; ; $ + + ; * ; ; + + . A ..-.;...W >.,.'.] - ~ ( 1 ;   ; ; ; -       ; @ =.! 2 ; & d 2 & ; ; ; ; ; + ",
". $ . . .       ; + ] ] + * ; + & ) & ; ; & ) &         ).!.~.  $ ] ] ] ^ ] $ ;   ; ; $ - $ - - + ; & 2 2 ) , , , ; $ + ; + ; ; ",
"  . -     $ -   - ; + + ; ; ; + , 3 ! $ ~ ! d 2     .   . .   - ; $ ^ | } ; - $     $ - - - - $ ; + + # = ! 2 ; ; ; * ; * + ; ; ",
"      - .       ; ; - - ; + ; + & = % & & = 2 -       .   . . ; ; ; ' ] ' + ; ;     -   - $ -   ; ; ; + & = , + + ; # * + + + ; ",
"                    - ;     ; ; + { # ! ! & $ ;     .   . .     ; $ + ; ; + ; ; - ; ; - - - - - $ ; ; + + & # { * ; ; ; ; + * + ",
"                        - ; ; ; # $ ; =.! ; $ ;   . $         + ; ; ; $ + ; ; $ $ - $ - - $ - $ + + + ; ; + + ; + + + $ * ; ; ; ",
". < 1 ] # ; + ; + ; * ; ; + ; ;   ;   ; . .   . ;   ; + : ^ $ * ; $   ; ;   $ + >   / +       / + ; ; + + ; * + + ;             ",
"] < ^ $ # + + # * + + ; ; ; ; ; ;   -   - . - . - + + $ : : { * ;     $       #           / + + + * ; ;   $   ;   ;           ; ",
"< ] $ . ; { + * * + + { - ; ;   ; ;   - . . . . - + ; + { ' * { # ;   + $ ;   /     + /     $ / + + * ; $ : ' @                 ",
"^ ~ - - + + ; ; * ; ; ;     -       -   . . -   ; + + ; { { * * + + # # ; ; /     >       + / + * + ; ; ~ _ ] +     ;           ",
"] - ; - + ; + $ ] ~ ; ;           ; . .   -   - ; + ; # * * * $ $ * # + > >   +         + + . . # + + + + ' ~ ;   / .           ",
"$ ; - ; + ; ; ' } ] $   $     ; ;   . ; -   - ;   + + # $ $ * $ * + + * + + $ /         . .   . ; + $ ; ; + + @   + / /     / . ",
". - $ + ; ; ; $ ] ~ + +   $   ;   ;   ;     ;   - $ + + { ; & ) * { # & @ { + -         . . . . ; + + * ; ; # ; +     + . /     ",
"    + $ + ; ; + ; ; ; ;   +   - -   ; ;   ;   ; ; + + ; * @ % ! * * ) ! a ; ~         . $ . . . + * * * + * * + +   + + .     / ",
"$ + ; $ $       ; ; + ; ; ; ; ; .     $ - # ; + + + ;     @ 2 ! & * & % 7 + + ; .     . $ . . . / 4 > / / 4 4 / / /   / / / / / ",
"; + ; ; ; +     ; ; # + < | ] ; ] e e   # $ + # ; ; + + +   ; @ % % % & * + + ;     .   . . . + / > 4 > > / 7 3 8   4 8 h 5 4   ",
"; { $ ; - +     $ - # $ } | ] # ^ 1 <   @ + $ # *           $ $ % ! 2 + { + ; +         . . . . > 4 > > > > 9 8 8 / / 8 h 5 4 . ",
"+ ] ] $ -   + ; + ; ; ; + ~ ] ] ^ $   $ ; # ; ' ] { $ ; ; ; .     ) @ + $ ; ; + +     . . + + + c c 4 > > 4 > 6 5 2 8 5 / / . / ",
"{ : _ $     $ - - + $ ; # ; _ ( ] - # $ $ @ * _ < ] + ;       . $ + ; + + +   + +     /     / 4 c c c { > > 4 > 5 3 0 5 b 4 / + ",
"+ ~ ~ + -   - - ; ; ; ; # + ' _ ~   - + + + * $ : { ; ; . $ .   - + + ; ; + + ; +     + +   / / 4 4 { { > 4 / > / 5 5 / / / / / ",
"+ ; + + - + -     - # ; $ ; ; ; ; + ; # # * ; * * ; # # .     . @ ; + . ;   + ; +   / + / + / > > > > > > > > 4 / [ 4 / / / + / ",
"+ * ; ; $         - # + + + * * - ; ; + + $ { + { + +                 ; ; . ; + /   /   + + > / c [ > > > > / / / / / + /   4 / "};
