/* XPM */
static char * enemy2_xpm[] = {
"64 64 694 2",
"  	c #A6D563",
". 	c #A7D568",
"+ 	c #A4D35D",
"@ 	c #ACDB69",
"# 	c #AAD964",
"$ 	c #A0CF5C",
"% 	c #C1F276",
"& 	c #B1E166",
"* 	c #A9DA5E",
"= 	c #BCEC74",
"- 	c #A9D76A",
"; 	c #A8D764",
"> 	c #A6D85E",
", 	c #B9E96F",
"' 	c #9BCB55",
") 	c #B3E36B",
"! 	c #C3F37C",
"~ 	c #9ECD5A",
"{ 	c #A2D357",
"] 	c #98C754",
"^ 	c #95C552",
"/ 	c #A7D862",
"( 	c #83B33E",
"_ 	c #93C34D",
": 	c #99CA4D",
"< 	c #90BF4C",
"[ 	c #9FD056",
"} 	c #90C046",
"| 	c #8BBA46",
"1 	c #88B744",
"2 	c #B8E773",
"3 	c #C6F87E",
"4 	c #9FD05A",
"5 	c #AFE06A",
"6 	c #AEE067",
"7 	c #B6E570",
"8 	c #BFF079",
"9 	c #B7EA6A",
"0 	c #C7F882",
"a 	c #BEF075",
"b 	c #94C452",
"c 	c #86AE50",
"d 	c #688C3D",
"e 	c #8CB84F",
"f 	c #97C854",
"g 	c #749748",
"h 	c #364C33",
"i 	c #7FA648",
"j 	c #94BF56",
"k 	c #98C35C",
"l 	c #A0CE60",
"m 	c #A4D167",
"n 	c #9ECB5F",
"o 	c #96C84F",
"p 	c #789C4A",
"q 	c #1F3333",
"r 	c #465D38",
"s 	c #516C3A",
"t 	c #4E683C",
"u 	c #88B050",
"v 	c #92BD59",
"w 	c #5C793F",
"x 	c #84AA52",
"y 	c #8AB252",
"z 	c #6E904B",
"A 	c #6F9048",
"B 	c #5C7940",
"C 	c #22332F",
"D 	c #617F41",
"E 	c #8CB455",
"F 	c #9BC859",
"G 	c #8DB556",
"H 	c #384C2F",
"I 	c #5F7D3D",
"J 	c #86AE4F",
"K 	c #9FCB5F",
"L 	c #9FCE5C",
"M 	c #A6D762",
"N 	c #88B14C",
"O 	c #354831",
"P 	c #12232C",
"Q 	c #3C5435",
"R 	c #90BA58",
"S 	c #8BB450",
"T 	c #374A28",
"U 	c #0E1C24",
"V 	c #3B5232",
"W 	c #8BB451",
"X 	c #8FB858",
"Y 	c #394F3B",
"Z 	c #122431",
"` 	c #273A2F",
" .	c #607D42",
"..	c #5F7C42",
"+.	c #243223",
"@.	c #091823",
"#.	c #394F32",
"$.	c #8FB757",
"%.	c #8AB353",
"&.	c #384D3C",
"*.	c #132431",
"=.	c #0E1E2B",
"-.	c #0E1E2C",
";.	c #0E1C2A",
">.	c #0E1824",
",.	c #0D1B26",
"'.	c #95BE58",
").	c #364931",
"!.	c #0D1C28",
"~.	c #0D1D29",
"{.	c #131F2E",
"].	c #172230",
"^.	c #192631",
"/.	c #13222E",
"(.	c #364C32",
"_.	c #ABD46F",
":.	c #3D5030",
"<.	c #0A1723",
"[.	c #0F1C28",
"}.	c #15202E",
"|.	c #1A2633",
"1.	c #1D2C37",
"2.	c #162633",
"3.	c #384D34",
"4.	c #8FBA53",
"5.	c #A4CD69",
"6.	c #3D4F2E",
"7.	c #0C1621",
"8.	c #111B26",
"9.	c #16212D",
"0.	c #1A2834",
"a.	c #1E2F3A",
"b.	c #162735",
"c.	c #374D35",
"d.	c #8FB758",
"e.	c #8DBC4A",
"f.	c #88B155",
"g.	c #729551",
"h.	c #73974D",
"i.	c #627F46",
"j.	c #28382E",
"k.	c #111E28",
"l.	c #111F29",
"m.	c #15242F",
"n.	c #1A2A34",
"o.	c #162937",
"p.	c #374F38",
"q.	c #8BB453",
"r.	c #85B541",
"s.	c #A4D362",
"t.	c #97C357",
"u.	c #9CC662",
"v.	c #99C45C",
"w.	c #6A8B4A",
"x.	c #1C2E3E",
"y.	c #1D2F3C",
"z.	c #1C2D38",
"A.	c #192733",
"B.	c #14232D",
"C.	c #112029",
"D.	c #14242E",
"E.	c #182832",
"F.	c #1C2C37",
"G.	c #142835",
"H.	c #385039",
"I.	c #9FCC5F",
"J.	c #729446",
"K.	c #567139",
"L.	c #59743E",
"M.	c #3F5539",
"N.	c #192836",
"O.	c #1A2C3A",
"P.	c #1B2D3A",
"Q.	c #1C2B36",
"R.	c #17252E",
"S.	c #121E25",
"T.	c #131D27",
"U.	c #131E28",
"V.	c #131F29",
"W.	c #0D1A24",
"X.	c #354929",
"Y.	c #8EB756",
"Z.	c #9DC95E",
"`.	c #5A763B",
" +	c #0B1924",
".+	c #111F2A",
"++	c #13212C",
"@+	c #14222E",
"#+	c #152531",
"$+	c #172632",
"%+	c #192731",
"&+	c #152129",
"*+	c #101920",
"=+	c #111922",
"-+	c #0F1821",
";+	c #0C151E",
">+	c #081018",
",+	c #384B23",
"'+	c #8BB34F",
")+	c #58753B",
"!+	c #101F2A",
"~+	c #17232F",
"{+	c #12202C",
"]+	c #0C1B26",
"^+	c #0C161F",
"/+	c #0E161F",
"(+	c #101B25",
"_+	c #0E1720",
":+	c #0C131A",
"<+	c #0E171F",
"[+	c #0D161D",
"}+	c #080D15",
"|+	c #060A10",
"1+	c #384A22",
"2+	c #9DC95F",
"3+	c #5A7742",
"4+	c #182430",
"5+	c #182730",
"6+	c #141E25",
"7+	c #0F181E",
"8+	c #0A151D",
"9+	c #0B141B",
"0+	c #0A121A",
"a+	c #0A111A",
"b+	c #0C0F18",
"c+	c #090C13",
"d+	c #243118",
"e+	c #62803D",
"f+	c #749649",
"g+	c #719445",
"h+	c #90B958",
"i+	c #5B7846",
"j+	c #1A2B39",
"k+	c #182632",
"l+	c #1F2E39",
"m+	c #19242D",
"n+	c #101A22",
"o+	c #041016",
"p+	c #091219",
"q+	c #0E141C",
"r+	c #080F18",
"s+	c #090E18",
"t+	c #0F121B",
"u+	c #0C0F17",
"v+	c #0B131A",
"w+	c #0B1620",
"x+	c #071824",
"y+	c #6D8F42",
"z+	c #9DC95D",
"A+	c #A4D262",
"B+	c #5D7A49",
"C+	c #1A2D3A",
"D+	c #182A37",
"E+	c #1A2E3C",
"F+	c #1B303F",
"G+	c #142635",
"H+	c #0D1C2A",
"I+	c #05111C",
"J+	c #0B141E",
"K+	c #101721",
"L+	c #0D151F",
"M+	c #0D151E",
"N+	c #0C131C",
"O+	c #0A0F16",
"P+	c #080D14",
"Q+	c #060D17",
"R+	c #3D5127",
"S+	c #607D37",
"T+	c #94BE58",
"U+	c #89B150",
"V+	c #8BB355",
"W+	c #82A753",
"X+	c #4D6745",
"Y+	c #415942",
"Z+	c #66864A",
"`+	c #698A4E",
" @	c #68894F",
".@	c #67874A",
"+@	c #668645",
"@@	c #668540",
"#@	c #475E32",
"$@	c #111B25",
"%@	c #111C26",
"&@	c #121E28",
"*@	c #13202B",
"=@	c #101D28",
"-@	c #0C1821",
";@	c #0A1118",
">@	c #080B11",
",@	c #070911",
"'@	c #060911",
")@	c #28361C",
"!@	c #719340",
"~@	c #8BB252",
"{@	c #8BB253",
"]@	c #8DB554",
"^@	c #97C457",
"/@	c #3B5031",
"(@	c #2E4030",
"_@	c #2D3E35",
":@	c #22353E",
"<@	c #64834B",
"[@	c #9DCA5F",
"}@	c #A0CE5C",
"|@	c #A2D061",
"1@	c #A4D162",
"2@	c #A3D161",
"3@	c #76984B",
"4@	c #15232E",
"5@	c #182734",
"6@	c #1B2C3A",
"7@	c #152532",
"8@	c #0B1B25",
"9@	c #0B151D",
"0@	c #0A1017",
"a@	c #090E15",
"b@	c #070B12",
"c@	c #0B0F10",
"d@	c #222E14",
"e@	c #2B3A1A",
"f@	c #2B3A1C",
"g@	c #2B3B20",
"h@	c #3E522C",
"i@	c #86AE4E",
"j@	c #9DBE82",
"k@	c #93A890",
"l@	c #789662",
"m@	c #5F7C40",
"n@	c #233232",
"o@	c #172432",
"p@	c #192734",
"q@	c #152939",
"r@	c #67884C",
"s@	c #A1CF61",
"t@	c #94BD5D",
"u@	c #779B4C",
"v@	c #4A613C",
"w@	c #162733",
"x@	c #10202B",
"y@	c #293A28",
"z@	c #6E8D45",
"A@	c #6F9047",
"B@	c #2E402B",
"C@	c #07121E",
"D@	c #050B15",
"E@	c #05070E",
"F@	c #05070D",
"G@	c #040B14",
"H@	c #06131D",
"I@	c #2D402A",
"J@	c #8AB254",
"K@	c #ABD86D",
"L@	c #AFD480",
"M@	c #9B9FA7",
"N@	c #8763B5",
"O@	c #5D477A",
"P@	c #3E3454",
"Q@	c #332F55",
"R@	c #3D4B49",
"S@	c #48603D",
"T@	c #445E3F",
"U@	c #6F924A",
"V@	c #A4CF71",
"W@	c #99BF71",
"X@	c #566C51",
"Y@	c #232640",
"Z@	c #192333",
"`@	c #121B2B",
" #	c #32432D",
".#	c #6F9542",
"+#	c #77A044",
"@#	c #546F3F",
"##	c #415831",
"$#	c #42582D",
"%#	c #425729",
"&#	c #3F5426",
"*#	c #41572C",
"=#	c #425831",
"-#	c #4E6839",
";#	c #8EB757",
">#	c #BEEE79",
",#	c #B4CB9D",
"'#	c #C5B5D6",
")#	c #CAA6E0",
"!#	c #C696DD",
"~#	c #A47CB7",
"{#	c #8465A1",
"]#	c #67519A",
"^#	c #81987C",
"/#	c #93BC5A",
"(#	c #8FB955",
"_#	c #96C258",
":#	c #A6D467",
"<#	c #98B291",
"[#	c #8281A8",
"}#	c #5D5389",
"|#	c #43366D",
"1#	c #302C50",
"2#	c #252344",
"3#	c #2A2F41",
"4#	c #465A52",
"5#	c #5F7E53",
"6#	c #8EB65A",
"7#	c #90BA57",
"8#	c #92BB57",
"9#	c #93BB5D",
"0#	c #92BC59",
"a#	c #CBFB83",
"b#	c #9BBC81",
"c#	c #A0B498",
"d#	c #B0C09E",
"e#	c #C1B9C3",
"f#	c #D1A2EE",
"g#	c #D6A3F0",
"h#	c #D5A2EB",
"i#	c #C399D8",
"j#	c #AC97C0",
"k#	c #8B939E",
"l#	c #9ABC80",
"m#	c #9ECB5E",
"n#	c #8EB659",
"o#	c #7A8A84",
"p#	c #644AA0",
"q#	c #58448E",
"r#	c #4B3C7A",
"s#	c #3C3164",
"t#	c #312856",
"u#	c #28214B",
"v#	c #282850",
"w#	c #526952",
"x#	c #86AC56",
"y#	c #A7ACB5",
"z#	c #AF89DD",
"A#	c #C395E2",
"B#	c #CD99E7",
"C#	c #D49BEC",
"D#	c #CC96E9",
"E#	c #C898E8",
"F#	c #D3AEEE",
"G#	c #CFCCD1",
"H#	c #A1C871",
"I#	c #9DCB5E",
"J#	c #465A30",
"K#	c #2E3B43",
"L#	c #2F375A",
"M#	c #433C73",
"N#	c #483C7A",
"O#	c #453574",
"P#	c #3B2D64",
"Q#	c #2C2450",
"R#	c #1F1F3B",
"S#	c #202B2D",
"T#	c #2F4030",
"U#	c #7CA04E",
"V#	c #AFCD8E",
"W#	c #BABDB9",
"X#	c #BCA2D6",
"Y#	c #C08CE8",
"Z#	c #C891E9",
"`#	c #CD97EB",
" $	c #CE9EED",
".$	c #C0ADCD",
"+$	c #BBC2B4",
"@$	c #C8D2BD",
"#$	c #C9E3AA",
"$$	c #B2E06C",
"%$	c #A1CF60",
"&$	c #87AC56",
"*$	c #63813E",
"=$	c #263120",
"-$	c #162530",
";$	c #213244",
">$	c #313659",
",$	c #37365F",
"'$	c #36335D",
")$	c #2D2B50",
"!$	c #21213F",
"~$	c #181C2F",
"{$	c #101A25",
"]$	c #0F1A28",
"^$	c #55703C",
"/$	c #779A4A",
"($	c #799B4D",
"_$	c #779947",
":$	c #799B4C",
"<$	c #8AB350",
"[$	c #A8D56A",
"}$	c #ADD57C",
"|$	c #BCC3B4",
"1$	c #CDA3EA",
"2$	c #CC9AEB",
"3$	c #CD95EB",
"4$	c #CF99EA",
"5$	c #CCA0E8",
"6$	c #C5A9E4",
"7$	c #B5C5AC",
"8$	c #9DC862",
"9$	c #5C783E",
"0$	c #0F1422",
"a$	c #0D1319",
"b$	c #18252E",
"c$	c #1F303B",
"d$	c #1F303C",
"e$	c #2C403D",
"f$	c #415840",
"g$	c #435A3C",
"h$	c #415735",
"i$	c #3F5431",
"j$	c #374A2F",
"k$	c #182527",
"l$	c #0F1A25",
"m$	c #0E1822",
"n$	c #07101A",
"o$	c #030B15",
"p$	c #719148",
"q$	c #A0CC65",
"r$	c #A6D368",
"s$	c #B1D586",
"t$	c #CDD5CA",
"u$	c #D9C6E4",
"v$	c #DEACF1",
"w$	c #D19DEA",
"x$	c #CD99E8",
"y$	c #DDB1F0",
"z$	c #D3C0D8",
"A$	c #B4C9A0",
"B$	c #ACD180",
"C$	c #96C358",
"D$	c #5E7A44",
"E$	c #161F2D",
"F$	c #121B22",
"G$	c #192730",
"H$	c #1E303E",
"I$	c #577349",
"J$	c #8BB358",
"K$	c #8AB453",
"L$	c #8DB752",
"M$	c #91BA58",
"N$	c #324730",
"O$	c #070F17",
"P$	c #050911",
"Q$	c #04060E",
"R$	c #040710",
"S$	c #3E5329",
"T$	c #668344",
"U$	c #B4D38F",
"V$	c #C0CBB6",
"W$	c #D5C3E6",
"X$	c #DAB5F2",
"Y$	c #D9A4EE",
"Z$	c #C9A8D8",
"`$	c #C2B1CA",
" %	c #D4C4D4",
".%	c #C7CEB5",
"+%	c #AAD76B",
"@%	c #99C45B",
"#%	c #85AB52",
"$%	c #4F673C",
"%%	c #18212F",
"&%	c #121C24",
"*%	c #17252F",
"=%	c #2C3F3B",
"-%	c #587449",
";%	c #799E51",
">%	c #91BC55",
",%	c #6B8C44",
"'%	c #476133",
")%	c #05131C",
"!%	c #040910",
"~%	c #040409",
"{%	c #07050E",
"]%	c #1A122F",
"^%	c #353844",
"/%	c #779953",
"(%	c #92BC58",
"_%	c #A4D363",
":%	c #C6C9C3",
"<%	c #D6B8EB",
"[%	c #C998EB",
"}%	c #C188E9",
"|%	c #BC86E5",
"1%	c #B0B4AE",
"2%	c #ACD278",
"3%	c #AFD57B",
"4%	c #ADD673",
"5%	c #A8D765",
"6%	c #799D46",
"7%	c #324428",
"8%	c #212E2A",
"9%	c #151F28",
"0%	c #0F1921",
"a%	c #11202A",
"b%	c #3D5438",
"c%	c #8AB257",
"d%	c #A5D463",
"e%	c #A4D161",
"f%	c #76994C",
"g%	c #071E2A",
"h%	c #041119",
"i%	c #050509",
"j%	c #0A0510",
"k%	c #2D1947",
"l%	c #402863",
"m%	c #3E4154",
"n%	c #65814E",
"o%	c #9FCD5B",
"p%	c #C5C3C6",
"q%	c #D8B3F1",
"r%	c #D5A6F0",
"s%	c #C7AAD9",
"t%	c #AEB0B1",
"u%	c #A8C688",
"v%	c #9AC461",
"w%	c #7FA355",
"x%	c #546F39",
"y%	c #0A1521",
"z%	c #0E1721",
"A%	c #101921",
"B%	c #182434",
"C%	c #415744",
"D%	c #92BB5B",
"E%	c #93BD5A",
"F%	c #75994B",
"G%	c #465E2C",
"H%	c #090C19",
"I%	c #141028",
"J%	c #452D71",
"K%	c #5E3E97",
"L%	c #3F2C6C",
"M%	c #5C754C",
"N%	c #99C55A",
"O%	c #C0C0BE",
"P%	c #D3B5E7",
"Q%	c #DDBCE9",
"R%	c #CDCAC3",
"S%	c #A9D767",
"T%	c #8AB256",
"U%	c #324636",
"V%	c #2C3F30",
"W%	c #394D2E",
"X%	c #394C2A",
"Y%	c #314129",
"Z%	c #202632",
"`%	c #272B4A",
" &	c #4B5D5A",
".&	c #8EB75C",
"+&	c #A1D15B",
"@&	c #6C8C41",
"#&	c #3A4D2E",
"$&	c #3E4E3C",
"%&	c #605B87",
"&&	c #7968B2",
"*&	c #5A587C",
"=&	c #6A874E",
"-&	c #9AC75A",
";&	c #B1D08B",
">&	c #B5CA9D",
",&	c #B7C99E",
"'&	c #AAC586",
")&	c #9ECD5B",
"!&	c #8DB45B",
"~&	c #304333",
"{&	c #698943",
"]&	c #8FB857",
"^&	c #91BA56",
"/&	c #7C9E57",
"(&	c #474964",
"_&	c #483B7A",
":&	c #5E6186",
"<&	c #8FB46C",
"[&	c #96C159",
"}&	c #8EB656",
"|&	c #8CB554",
"1&	c #92B66D",
"2&	c #9ABA86",
"3&	c #93B86F",
"4&	c #98C25E",
"5&	c #A1CF5C",
"6&	c #95BF5A",
"7&	c #668544",
"8&	c #89B151",
"9&	c #92BA62",
"0&	c #71886D",
"a&	c #758880",
"b&	c #7C8F88",
"c&	c #9DC76E",
"d&	c #A3D262",
"e&	c #A1CE66",
"f&	c #9CCA5A",
"g&	c #A0D058",
"h&	c #A2CE66",
"i&	c #ADDA71",
"j&	c #A7D761",
"k&	c #C5F681",
"      .           +   +   + + + + @ # $ # % % & * & % = @ $ + - ; ;             ; . + + . + + ; ; ; ; + + + + + ; ; $ ; ; ;     ",
"  -   .     ; ;     * # >   * # +     + * # & , % , & ; ; ; ; $ ; ;         .   + . ; . . ; ; + + + ; + ; ; ; ; ; + ; ; ; ;     ",
".   .       +     ; # + $ $ + # ; + + # * ' * ) ! , + ~   @ ; $ ;               . + ; + + + . . ; + + ; ; ; ; + $ + ; ;       ; ",
"  .             ; # * $ { ] { * -     - * $ { & ) & * { + ; + ;                 ; + . . ; . + ; ; + + ; ; + $ ] ~ + ; + $ $     ",
"              +   ; ; $ ] ^ $ $ . . . . ; + + ; ~ + ; * + + + @ .           .   ; . + ; $ .     ; + $ ; ; $ ' ^ ~ + ; ; ; $ + ; ",
"  . -   ; - / / + + * + { $ + * $ .   $ ; # # $ + * * * + * * ; $               + . . + ;       ; + - + ; ; $ ~ $ + + ; + ; + ; ",
"          +           ; ; + ; ;   . . +   -   $ ; ; + + * * * + ; ;             + ; ; + ; . ;     + -   ; ; ; + ; + ; ; + ; + ; ",
"  $ + $ + + + $     ; * ; ;     . - - - - ;   $ + + ; * + + { { + . .           . + . . ; + ; ; + - +   $   ; ; ; ; + + ; ; ; + ",
"; ( (   @ _ ( ^ + ;   + ; + ; ; . . . . .       # *     * { : < + ; - @ ; $ $ - -   +   ;     ;   -             $ ; # + { ; ; { ",
"$ _ ^ +   ] _ ^ ; + ; + + ;       . .   . . .   ;   + * + { [ < $ ; ; ; ; ; ; ;     ;   .     $                 ; ; + + ; + ; ; ",
"+ + $ } | ] +         ;           .     . . . . ; +   + * * + { + $ + . - @ - $ $ ; -   ; ; ;   - $   -         ; $ $ ; ; { { + ",
"# & + } ( $ # # +                   .   $ . . . .         * * + ; . + ; - $ + ; - + $   ; ; ; - - -   -         { # & ; { & # + ",
"+ * + + +     $         .   -     +       . . $ .         + ; ; ; $   @ $ < ^ - @ ] < $ - ; ; ;   - - .         ; ! % ; { , % & ",
"+ + + ; # * + +                         . . . . . . .     + + + - +   - ~ | <   ; < 1 ~ - ; $   - $ . . - -     @ ! ! ; { = ! , ",
"# * + + + + ; ;             .             . . . . . . .   +     + ; ; - $ ] ] ] ] ] ] +   ;     $ . . $     + ; - , 2 , ) , , & ",
"+ ; ; +       ;                   $           . .           ; ; $ - ; + ; @ $ < | $ -   $ ; ;   - . . -     ; ; ; ] # ! 3 ) { $ ",
"+ + ;           4 . 5 5 / / / 6 5 / $ . . / 4 / $   # ; +     ;       - ; + $ ' : $ + + + ; ; +     - $           - - , 7 - ; ; ",
"    ; ; . ; - ; / 5 8 8 > 4 9 0 5 . $   - / + > * * * ; +       $   - - ; ; $ $ $ + ; ; * ; * +       -         $ $ ; - - ; + $ ",
"      +         4 5 8 7 6 / 9 8 5 . .   . + / > * + $ {   ; ;   - $     ; ; $ + ; ; ; + ~ + ; ;             $ -   + ;   ; + ; ; ",
";   + ;     +   . 4 / 5 a a 9 > 5 . .   / / + > + { b ] + ; ; ; - - - ; + ; ; ; + ; ; ~ : : { +         -   -   - - ; ; ; ; ; ; ",
"6 4 + /       / 5 4 4 5 8 8 5 4 - .     / / $ / ; c d e + # ; ; ; ; ;   ; $ ; ; + ; $ ] : ] + ;                   $           $ ",
"[ f f 4       / / . . 5 - / 5 / / . .   . $ $ / ; g h i j k l +   m k n ; ; ; ; + ; ; + ' $ ; ;         -       $               ",
"f o o [ $ + $ / 4 . . . . f 4 .   .         / / ; p q r s t u     v w x ; + ; + ; ; ; ; $ ; - ;                 - ; ;   + -     ",
"[ [ [ + # $   / . / . . . 5 . 4                 + y z A B C D E F G H I J K + ; $ ; ; ; ; ; ; $                     - $ $       ",
"> * > [ / 4 . / 4 . . . . . . 4 -   $ - -       ; $ L M N O P Q R S T U V W + ; $ ; ; ; + ;         - ; ; - -     - - - - ;   ; ",
"[ * * > / 4 / . . . . 4 4 4 . .       /           + ; @ X Y Z `  ...+.@.#.$.; $ ; ; ; $ ; +     ; + ; $ $ ] $ - ; ] ] $ ; ;   ; ",
"> > > > / / 4 . . . . . 4 . / /             .     ; / $ %.&.*.=.-.;.>.,.#.$.; + $ ;     ; ; +           ] | ^   $ < | ~ - ; $ - ",
"> > > 4 / . . . . . . . / . / /   / -       -   ; @ + $ '.).!.~.{.].^./.(.$.# $         ; + ;       ;   $ < ^ $ $ ^ ^ $ - ; + ; ",
"> / +       4 . . 4 . . . / . / + / /       .   $ ;   ) _.:.<.[.}.|.1.2.3.4.; $ + ; ;         -         +   ] < ] $ + ; ; ; ; $ ",
"+ /       / . . . . 4 . . 4 4 / + 4 $ + .     . . ; ; ) 5.6.7.8.9.0.a.b.c.d.; +         - -     $     $ ; - $ | < $ - ; $ ; - ; ",
"/ + /   /   . . 4 . . . f e.4 / ~ _ f + -   . . - f.g.h.i.j.k.l.m.n.a.o.p.q.; ; ;     ; . .             ;     ] $ $ ; ; ; ; ; ; ",
"+ / + /       . . . - . | r.f 5 f | | + @ s.t.u.v.w.x.y.z.A.B.C.D.E.F.G.H.q.$ ; +     $ - $ ; ; -     - ; ; - @ @ ; $ ; - - $ $ ",
", { { , % & $ ; -   + $ $ $ ] < ^ ~ + - $ I.J.K.L.M.N.O.P.Q.R.S.T.U.V.W.X.Y.+ ; + & ; ] : ' * ; + ; ; ;     ; ; $ ;     ;       ",
"% * { % ! & + ; + +   - - $ ] < ] $ ; ; ; Z.`. +.+++@+#+$+%+&+*+=+-+;+>+,+'+* + { ; $ : } ' { + ; + ; +     $ -     ; -     - $ ",
", & & , , & + ; + + - - - . ] < $   ; + + Z.)+!+~+{+]+^+/+(+_+:+<+[+}+|+1+'+; + + * + { ' { + + $ ; ; ; ;   ; ; $     $     ; $ ",
"& % 3 & $ + * + ; ; $     - ; ; + - ; + + 2+3+2.4+^.5+6+7+8+9+:+0+a+b+c+d+e+f+g+h+# * + + ; * + ; ; ; $ ; ; $ ; - ;   ;   ;   ; ",
"+ % ! & ' + ; + ; ; + + + ; * @ +   + + ; 2+i+j+k+F.l+m+n+o+p+q+r+s+t+u+c+v+w+x+y+z+A++ + { ; $ ; ; ; $ ; ; ; $ ; ; ; ;   -   $ ",
"# * ; ; ; + ; ; ; ; ; ; ; ; + +         ; 2+B+C+D+E+F+G+H+I+J+K+L+;+/+M+N+O+P+Q+R+S+T++ ; ; + ; ; $ ; ; $ ; ; ;   ; $ ;   $ $ ; ",
"- $ ~ + ; + $ ; ; + ; + * + + + + + K U+V+W+X+Y+Z+`+ @.@+@@@#@$@%@&@*@=@-@;@>@,@'@)@!@~@~@{@]@^@; ; $ ; ; $ ; + ; ; + ; ; $ ; $ ",
"; ; ; ; + + ; ; + ; ; * + * + + + ; E /@(@_@:@<@[@}@|@|@1@2@3@.+4@5@6@7@8@9@0@a@b@c@d@e@f@g@h@i@+ ; ; + ; ; + ; ; $ ; ; ; ; ; $ ",
"- . . $ .       ; + ; * ; + ; j@k@l@m@n@o@p@q@r@s@          t@u@v@o@w@x@y@z@A@B@C@D@E@F@G@H@I@J@; ; $ ; $ ; ; $ ; $ $ ; ; + + ; ",
". . . . .       + + ~ ' + K@L@M@N@O@P@Q@R@S@T@U@|@          V@W@X@Y@Z@`@ #.#+#@###$#%#&#*#=#-#;#$ ) 2 2 & ; - >#2 @ + ; ; + + + ",
". - . .   .   . ; $ ^ ] $ ,#'#)#!#~#{#]#^#/#(#_#:#          <#[#}#|#1#2#3#4#5#6#7#8#8#8#9#7#0#I.; @ >#! 2 ; & a#2 & ; ; ; ; ; + ",
". $ . . .       ; + b#c#d#e#f#g#h#i#j#k#l#& ) &         m#n#o#p#q#r#s#t#u#v#w#x#v.; ; $ - $ - - + ; & 2 2 ) , , , ; $ + ; + ; ; ",
"  . -     $ -   - ; y#z#A#B#C#D#E#F#G#H#I#! a#2     .   n#J#K#L#M#N#O#P#Q#R#S#T#U#  $ - - - - $ ; + + # = ! 2 ; ; ; * ; * + ; ; ",
"      - .       V#W#X#Y#Z#`# $.$+$@$#$$$& = 2 -     %$&$*$=$-$;$>$,$'$)$!$~${$]$^$/$($_$:$<$-   ; ; ; + & = , + + ; # * + + + ; ",
"            [$}$|$1$2$3$4$5$6$7$+ { # ! ! & $ ;     8$9$0$a$b$c$d$e$f$g$h$i$j$k$l$m$n$o$o$p$q$r$$ ; ; + + & # { * ; ; ; ; + * + ",
"            s$t$u$v$w$x$y$z$A$B$# $ ; >#! ; $ ;   . C$D$E$F$G$d$H$I$J$K$L$M$U#N$@.O$P$Q$R$S$T$L$+ + + ; ; + + ; + + + $ * ; ; ; ",
". < 1 ] # U$V$W$X$Y$Z$`$ %.%+%;   ;   ; . .   . ; @%#%$%%%&%*%=%-%;%s@; ;   >%,%'%)%!%~%{%]%^%/%(%_%; + + ; * + + ;             ",
"] < ^ $ # :%<%[%}%|%1%2%3%4%5%; ;   -   - . - . - 6%7%8%9%0%a%b%c%s@d%$     A+e%f%g%h%i%j%k%l%m%n%o%; ;   $   ;   ;           ; ",
"< ] $ . ; p%q%r%s%t%u%{ - ; ;   ; ;   - . . . v%w%x%y%z%A%n+B%C%D%;   + $ ;   / E%F%G%H%I%J%K%L%M%N%* ; $ : ' @                 ",
"^ ~ - - + O%P%Q%R%S%; ;     -       -   . . - T%U%V%W%X%Y%Z%`% &.&+ # # ; ; /     +&@&#&$&%&&&*&=&-&; ; ~ _ ] +     ;           ",
"] - ; - + ;&>&,&'&)&; ;           ; . .   -   !&~&{&]&^&/&(&_&:&<&* # + > >   +   s.[&}&|&1&2&3&4&5&+ + + ' ~ ;   / .           ",
"$ ; - ; + ; ; ' } ] $   $     ; ;   . ; -   - 6&7&8&+ # 9&0&a&b&c&+ + * + + $ /         . .   . ; + $ ; ; + + @   + / /     / . ",
". - $ + ; ; ; $ ] ~ + +   $   ;   ;   ;     ; d&e&f&+ + g&h&+%i&j&{ # & @ { + -         . . . . ; + + * ; ; # ; +     + . /     ",
"    + $ + ; ; + ; ; ; ;   +   - -   ; ;   ;   ; ; + + ; * @ % ! * * ) ! a ; ~         . $ . . . + * * * + * * + +   + + .     / ",
"$ + ; $ $       ; ; + ; ; ; ; ; .     $ - # ; + + + ;     @ 2 ! & * & % 7 + + ; .     . $ . . . / 4 > / / 4 4 / / /   / / / / / ",
"; + ; ; ; +     ; ; # + < | ] ; ] e.e.  # $ + # ; ; + + +   ; @ % % % & * + + ;     .   . . . + / > 4 > > / 7 3 8   4 8 k&5 4   ",
"; { $ ; - +     $ - # $ } | ] # ^ 1 <   @ + $ # *           $ $ % ! 2 + { + ; +         . . . . > 4 > > > > 9 8 8 / / 8 k&5 4 . ",
"+ ] ] $ -   + ; + ; ; ; + ~ ] ] ^ $   $ ; # ; ' ] { $ ; ; ; .     ) @ + $ ; ; + +     . . + + + o o 4 > > 4 > 6 5 2 8 5 / / . / ",
"{ : _ $     $ - - + $ ; # ; _ ( ] - # $ $ @ * _ < ] + ;       . $ + ; + + +   + +     /     / 4 o o o { > > 4 > 5 3 0 5 f 4 / + ",
"+ ~ ~ + -   - - ; ; ; ; # + ' _ ~   - + + + * $ : { ; ; . $ .   - + + ; ; + + ; +     + +   / / 4 4 { { > 4 / > / 5 5 / / / / / ",
"+ ; + + - + -     - # ; $ ; ; ; ; + ; # # * ; * * ; # # .     . @ ; + . ;   + ; +   / + / + / > > > > > > > > 4 / [ 4 / / / + / ",
"+ * ; ; $         - # + + + * * - ; ; + + $ { + { + +                 ; ; . ; + /   /   + + > / o [ > > > > / / / / / + /   4 / "};
