/* XPM */
static char * exit_xpm[] = {
"64 64 438 2",
"  	c #4B6AFA",
". 	c #4B73FC",
"+ 	c #4895FB",
"@ 	c #3446D6",
"# 	c #2A46D5",
"$ 	c #364BD7",
"% 	c #436DEB",
"& 	c #346CEB",
"* 	c #2B73E6",
"= 	c #2D63DC",
"- 	c #3346C2",
"; 	c #335CDA",
"> 	c #3365EB",
", 	c #6B86FF",
"' 	c #4978E3",
") 	c #2974D3",
"! 	c #2958CA",
"~ 	c #3868C7",
"{ 	c #3C5CCB",
"] 	c #444CDB",
"^ 	c #3B65EB",
"/ 	c #3B6DEC",
"( 	c #3A5AE5",
"_ 	c #2847CA",
": 	c #254BC1",
"< 	c #417AFF",
"[ 	c #4C7AFB",
"} 	c #716DFF",
"| 	c #6277E9",
"1 	c #5477D7",
"2 	c #3746BD",
"3 	c #2B4CC5",
"4 	c #2A54D4",
"5 	c #2758D9",
"6 	c #3D82FA",
"7 	c #4473EA",
"8 	c #455ACE",
"9 	c #346CE5",
"0 	c #3372EB",
"a 	c #5B69E5",
"b 	c #5363F4",
"c 	c #4C6DF4",
"d 	c #3D73EC",
"e 	c #2C73DD",
"f 	c #427AF3",
"g 	c #264AD8",
"h 	c #4C6BEB",
"i 	c #3463E4",
"j 	c #2B68C9",
"k 	c #345ACE",
"l 	c #3855C9",
"m 	c #4446E5",
"n 	c #3968F5",
"o 	c #3979F8",
"p 	c #5575D9",
"q 	c #4757C9",
"r 	c #5867FA",
"s 	c #536AF9",
"t 	c #3C56DC",
"u 	c #3B57E6",
"v 	c #4787F7",
"w 	c #2A54DC",
"x 	c #446BE4",
"y 	c #3468DB",
"z 	c #3C63DB",
"A 	c #3D6BE2",
"B 	c #4C73DC",
"C 	c #3776D8",
"D 	c #4463DC",
"E 	c #3C64E3",
"F 	c #4D7BF3",
"G 	c #5584FE",
"H 	c #6695F8",
"I 	c #6678F9",
"J 	c #717AF9",
"K 	c #636BEB",
"L 	c #5C77E9",
"M 	c #3B64D5",
"N 	c #3463D2",
"O 	c #345BD4",
"P 	c #2A68D6",
"Q 	c #5373E4",
"R 	c #4D7AEC",
"S 	c #437BEC",
"T 	c #536BE4",
"U 	c #526BF3",
"V 	c #546CEA",
"W 	c #4C74F3",
"X 	c #343EBA",
"Y 	c #3C5BD4",
"Z 	c #3C73F4",
"` 	c #2D75EC",
" .	c #1948CA",
"..	c #4D85EB",
"+.	c #547AEB",
"@.	c #527BE3",
"#.	c #2A57AC",
"$.	c #3B75D4",
"%.	c #4A8AEE",
"&.	c #515EF8",
"*.	c #385AF4",
"=.	c #1C4AE2",
"-.	c #3985E6",
";.	c #6C94FF",
">.	c #6487E9",
",.	c #6869FA",
"'.	c #3C6CD5",
").	c #346CD3",
"!.	c #1D4ABA",
"~.	c #1B45B8",
"{.	c #5D8AFD",
"].	c #6587F8",
"^.	c #536DD6",
"/.	c #4564E3",
"(.	c #3874C8",
"_.	c #3A78E6",
":.	c #5688F8",
"<.	c #7191FA",
"[.	c #636BFC",
"}.	c #4B73ED",
"|.	c #2B69BC",
"1.	c #2959E5",
"2.	c #335DE4",
"3.	c #456BDC",
"4.	c #1967C7",
"5.	c #3D5CEB",
"6.	c #4558E6",
"7.	c #374AE3",
"8.	c #3443DD",
"9.	c #3355D8",
"0.	c #3C5BDC",
"a.	c #4758D6",
"b.	c #4475CB",
"c.	c #5381DC",
"d.	c #4A73D4",
"e.	c #474BC7",
"f.	c #5465CB",
"g.	c #414FF0",
"h.	c #2C65E7",
"i.	c #4B65DA",
"j.	c #4A6BDB",
"k.	c #4B6BE4",
"l.	c #5B75FB",
"m.	c #537BFD",
"n.	c #5564DA",
"o.	c #5363E4",
"p.	c #3266BA",
"q.	c #2B73CD",
"r.	c #2B54E3",
"s.	c #4464D5",
"t.	c #2564C9",
"u.	c #1A54C6",
"v.	c #2A66F2",
"w.	c #3D54D4",
"x.	c #4C6BD4",
"y.	c #4A65D4",
"z.	c #295AE9",
"A.	c #426BCD",
"B.	c #5273F4",
"C.	c #1B69D5",
"D.	c #445DDC",
"E.	c #4B7BD6",
"F.	c #557ADC",
"G.	c #4573DC",
"H.	c #4473E4",
"I.	c #535CDB",
"J.	c #1B5CDA",
"K.	c #4674D4",
"L.	c #5787E9",
"M.	c #4492EE",
"N.	c #3A88FB",
"O.	c #2959B9",
"P.	c #2548BB",
"Q.	c #5D91E7",
"R.	c #4A64EA",
"S.	c #2459E6",
"T.	c #254CE3",
"U.	c #3D72E3",
"V.	c #456BD5",
"W.	c #6669E5",
"X.	c #5992F8",
"Y.	c #437ADB",
"Z.	c #4766CA",
"`.	c #5174C7",
" +	c #4D7ADA",
".+	c #4C5BE3",
"++	c #5B76F7",
"@+	c #445BD3",
"#+	c #3B4DCB",
"$+	c #4884E4",
"%+	c #6895E4",
"&+	c #4274F4",
"*+	c #5258E5",
"=+	c #3C6BDC",
"-+	c #4463EB",
";+	c #4B63E3",
">+	c #2B52EC",
",+	c #1B58E3",
"'+	c #2856C7",
")+	c #5A84F3",
"!+	c #5E8CE3",
"~+	c #4A5AEB",
"{+	c #1C67BB",
"]+	c #4686DB",
"^+	c #4765F5",
"/+	c #3855BD",
"(+	c #1D5AD4",
"_+	c #EBC073",
":+	c #F5D28F",
"<+	c #5C5D39",
"[+	c #DBA654",
"}+	c #344DC7",
"|+	c #395AF9",
"1+	c #5B6AF4",
"2+	c #363AD4",
"3+	c #1A45DA",
"4+	c #193DDA",
"5+	c #263DDC",
"6+	c #1867D6",
"7+	c #9D8346",
"8+	c #A49768",
"9+	c #1B352A",
"0+	c #354630",
"a+	c #F0C27A",
"b+	c #EFC278",
"c+	c #DBAB6A",
"d+	c #AE8B4B",
"e+	c #153229",
"f+	c #112F29",
"g+	c #022625",
"h+	c #062825",
"i+	c #475034",
"j+	c #D4A551",
"k+	c #8E773B",
"l+	c #D5A54D",
"m+	c #D9AA52",
"n+	c #E2B764",
"o+	c #E8BB6E",
"p+	c #5493FC",
"q+	c #2B80F4",
"r+	c #F7CE88",
"s+	c #DDB05A",
"t+	c #D6A852",
"u+	c #A48544",
"v+	c #836A33",
"w+	c #C69A52",
"x+	c #193429",
"y+	c #594519",
"z+	c #AB8942",
"A+	c #D8A84F",
"B+	c #F5CB85",
"C+	c #C69A49",
"D+	c #785D2A",
"E+	c #4491DE",
"F+	c #BA9554",
"G+	c #6E683D",
"H+	c #0E2E28",
"I+	c #3C4A31",
"J+	c #E0A558",
"K+	c #B3883E",
"L+	c #A37B3A",
"M+	c #495BF7",
"N+	c #7A5222",
"O+	c #CEA24F",
"P+	c #2D82D0",
"Q+	c #B38D4A",
"R+	c #6C673C",
"S+	c #756F44",
"T+	c #555836",
"U+	c #B48B54",
"V+	c #6D4C1A",
"W+	c #AE863D",
"X+	c #A47A33",
"Y+	c #9D7432",
"Z+	c #E7BB6C",
"`+	c #704A1B",
" @	c #A07732",
".@	c #C99D4B",
"+@	c #73501C",
"@@	c #2576C8",
"#@	c #678DDB",
"$@	c #64623B",
"%@	c #0B2B26",
"&@	c #34412C",
"*@	c #7C7242",
"=@	c #D6B97D",
"-@	c #3A4E3B",
";@	c #2E412F",
">@	c #4B5234",
",@	c #A68848",
"'@	c #DA9F52",
")@	c #584417",
"!@	c #815E24",
"~@	c #554C26",
"{@	c #736B3D",
"]@	c #434E33",
"^@	c #253A2A",
"/@	c #45523C",
"(@	c #5C8AF4",
"_@	c #7F5C25",
":@	c #4C85DD",
"<@	c #664116",
"[@	c #866024",
"}@	c #6389F5",
"|@	c #A58249",
"1@	c #2B3D2B",
"2@	c #887643",
"3@	c #B88C44",
"4@	c #878159",
"5@	c #936B2C",
"6@	c #986D30",
"7@	c #1C4AD7",
"8@	c #578F9D",
"9@	c #61B4C3",
"0@	c #6FB7C5",
"a@	c #C9A366",
"b@	c #3B4229",
"c@	c #52512E",
"d@	c #574316",
"e@	c #6C4318",
"f@	c #498795",
"g@	c #3A91A4",
"h@	c #459EAF",
"i@	c #71B5C3",
"j@	c #4A2505",
"k@	c #A38D52",
"l@	c #918A61",
"m@	c #837542",
"n@	c #9E7D3B",
"o@	c #3882D6",
"p@	c #27939E",
"q@	c #4EA7B6",
"r@	c #5A542E",
"s@	c #475541",
"t@	c #454CBD",
"u@	c #5459D7",
"v@	c #2E3B27",
"w@	c #2C8B95",
"x@	c #3591A4",
"y@	c #0D8B8B",
"z@	c #01837A",
"A@	c #1B9291",
"B@	c #5DADBD",
"C@	c #C39645",
"D@	c #572C0A",
"E@	c #635B32",
"F@	c #9B8C5F",
"G@	c #7D6936",
"H@	c #118888",
"I@	c #1C909A",
"J@	c #0D8E93",
"K@	c #018883",
"L@	c #2E92A2",
"M@	c #745423",
"N@	c #233525",
"O@	c #082723",
"P@	c #676545",
"Q@	c #906F33",
"R@	c #633B12",
"S@	c #273824",
"T@	c #B7934B",
"U@	c #9C6E25",
"V@	c #168E95",
"W@	c #318F9F",
"X@	c #A3752B",
"Y@	c #5668D8",
"Z@	c #178F98",
"`@	c #C49D61",
" #	c #926623",
".#	c #9E7025",
"+#	c #65572C",
"@#	c #726131",
"##	c #3B3D23",
"$#	c #896A32",
"%#	c #118887",
"&#	c #048B89",
"*#	c #196ECD",
"=#	c #8F6628",
"-#	c #525CEE",
";#	c #3074BE",
">#	c #5263EC",
",#	c #6C6036",
"'#	c #866132",
")#	c #AC8547",
"!#	c #8C6324",
"~#	c #48492A",
"{#	c #1D3326",
"]#	c #7D551B",
"^#	c #A57C47",
"/#	c #6C4915",
"(#	c #41452A",
"_#	c #313A24",
":#	c #132C23",
"<#	c #573A15",
"[#	c #825A1D",
"}#	c #65380D",
"|#	c #8A601F",
"1#	c #55451A",
"2#	c #2C311C",
"3#	c #1C2C1F",
"4#	c #575834",
"5#	c #192C20",
"6#	c #302F1A",
"7#	c #282F1D",
"8#	c #9C732F",
"9#	c #64370D",
"0#	c #A26A26",
"a#	c #754E17",
"b#	c #34321A",
"c#	c #252E1D",
"d#	c #945D1F",
"e#	c #8A5D1E",
"f#	c #525ECA",
"g#	c #383319",
"h#	c #483416",
"i#	c #47401D",
"j#	c #3E3317",
"k#	c #4265BD",
"l#	c #6073DC",
"m#	c #113DC7",
"n#	c #5E3512",
"o#	c #A97733",
"p#	c #2F56F6",
"q#	c #2F3DB7",
"r#	c #5F360F",
"s#	c #462103",
"t#	c #3B4ED5",
"u#	c #694217",
"v#	c #1250B2",
"w#	c #336DCD",
"x#	c #1C62E9",
"y#	c #5C83DC",
"z#	c #5473FB",
"A#	c #1959B7",
"B#	c #5473EB",
"C#	c #3658E9",
"D#	c #143CB8",
"E#	c #1557B9",
"    . + + @ # $ % % & * = - - ; > > , , ' ) ) ! ~ { ] ] ^ / ( _ : & < [ } } | 1 1 2 2 3 4 5 6 6 7 8 8 9 * 0 a a b b b   c d e e ",
"    f + + g _ $ h % * 0 i - - ; > > , , 7 ) ) j k l ] m ^ ^ ; : : n o [ } } | 1 p 2 2 : 4 4 6 6 7 8 q e * 0 a a r s   c c / 9 e ",
"t u / v v ; w ; x x 5 5 5 y z A % 7 B B C C C D z t u $ & A 9 E E F G H I J | K L M N M O O 9 P A Q Q R S R T T h . U V h W 7 7 ",
"X X Y Z o ` ` 0 E E 4  .5 v v ..+.@.#.#.$...%.b &.*.=.=.* ` -.G G ;.;.;.>.>.I ,.,.-.-.C '.).!.~.k {.G ]., ].7 7 R F R ^.^.| I I ",
"X X Y f Z ` ` & /.z 4  .5 v v ..R ' #.#.(.....&.&.*.=.=.* * _.G :.;.;.<.>.>.I ,.[.-.-._.'.'.!.~.N G G , ].].' }.R F +.^.^.| I , ",
"j |.j ) ) ; 1.2.7 7 U s c 3.3.P 4.4.z z ( > > 5.6.7.8.7.9.( 0.a.a.b.c.d.e.q f.^.p m g.( i h.1.1.2.z D i.j.k.l.m.V n.o.J J k.O ! ",
"|.p.q.q.) 1.r.2.7 7 r r U 3.s.t.u.4.E z i 2.v.u u 7.7.7.t t w.a.8 x.b.b.e.e.y.d.d.m m u h.i z.z.2.Y Y s.i.k.I l.a n.n.J J 3.! ! ",
"A.(.~ q.q.5 w 2.}.}.B.U V /.A P C.C.7 7 / Z & t t 9.8.8.9.( 0.D.D.d.E.E.E s.j.F.p m 6.( 2.1.z.z.r.O ; 3.G.H.[ F n.n.I.J J j.N N ",
"K K D t.u.J.J.= B.B.B K.G.v.n n / d L.%.M.N.N.|.O.P.- 2 = i i n ^ L.>.Q.v v %.@.@.V V R.u u S.S.T.J.5 U.' _.* * V.f.f.W.W.Q H.' ",
"W.K D ! t.J.J.h.F B.B d.G.n n & & / L.X.+ N.N.O.O.O.- - y 9 ^ n n L.Q.Q.N.v %.@.@.V V R.u 5.S.S.S.w 5 A H._.* 0 V.f.f.W.W.Q Y.H.",
"> ^ 9 P P /.h x @.+.s.~ ~ M z Z.A.`.S ' ' F. +; z = j N d d % .+.+D 3.3.H.' W c c L ++B.B.[ ^ n > O O 0.s.@+e.#+8 V.V.' $+L.>.%+",
"v.v.h.P P h V V @.@.~ l l Z.Z.Z.`.`.H.7 B 1 1 2.( = ) ) 7 &+7 I.*+D.Y 0.G.H.h     ++++l.G G &+Z ^ O O w.a.e.X e.8 3.s.-.-.Q.%+<.",
"& & & =+=+j.T p F.@.O k k { { d.`.`.U.=+j.B F.-+^ ^ C e 7 S }.o.;+D 0.D A A %     V V }.[ B.% / A D D @+Z.8 e.q 8 z s.-.-...>.>.",
"R.R.+.H H A.(.A.s.V.2.>+r.# g B Q.c.P.P.Y }.}.r [.l.. . L.....%.%.R.6.5.S.,+&+G G |.|.4 8.7.).).' , , E.b.E.;.;.M P.'+)+G k.Y @+",
"R.R.+.H H b.~ (.V.d.z.z.T.g g G.!+c.P.P.O W W [.[.l.[ . ......%.%.R.~+6.,+,+Z G G |.{+! 8.8.'.'.' ]., ]+]+]+;.;.M P.'+)+)+k.Y @+",
"c c ^+% % '+/+l j././ o n 0.0.x S 7 h.i > ^+^+[.[.[.s s ( ( E W W u 8.8.'+_ O 0.Y _ _ ; z ( 0 0 & ( ( =+C U.6.~+4 (+5 E.E.G._+% ",
":+<+[+z.z.: P.}+;+;+f 6 v /././ / / v.o n n |+[.[.[.1+b 8.# >+    7.2+2+: : : 2 2 2+2+t H.G.o o v.3+4+& _.9 5+5+w J.6+b.b.7+8+f ",
":+9+0+7+[+3 : l D /.f 6 o /././ / / a+b+a+a+|+[.[.1+r 1+7.T.7.    7.8.@ 3 '+- - - a+a+b+b+c+o N.v.3+3+9 U.9 2+# 5 J.5 d+<+e+8+&+",
":+f+g+h+i+d+j+A q.q.^ 5.&+X.X.L a o.k+l+m+m+n+o+:+R G p+[.[.b g g ` q+6 m.m.r+b+n+s+m+t+u+v+H H L.l l a.a.w.t.t.f w+<+x+g+g+8+&+",
":+f+g+g+g+g+i+7+[+q.& n % X.X.++a o.5+y+z+m+m+m+A+n+_+B+[.[.b 3+g ` N.o _+o+t+t+m+m+C+D+E+E+H ;.+.l #+a.a.Y t.F+G+g+g+g+g+g+8+/ ",
"a F+<+9+g+g+g+H+I+7+J+x 7 M.$+R B.}.4 5 4 K+t+m+m+m+A+t+L+L+c M+*.N+z+O+m+m+m+m+m+C+D+) P+P+X.X.L.p 1 8 l Q+R+e+g+g+h+h+I+F+; ; ",
"R.k.S+G+T+f+g+g+g+h+i+U+[+) ) S [ [ 4.j q.V+W+t+m+m+j+X+C+Y+B.Z+r `+t+ @O+t+t+m+.@+@t.@@P+@@..L.>.%+#@w+$@9+g+g+g+%@&@*@i+=@: P.",
"h k.-@g+;@G+$@h+g+g+g+g+>@,@'@f [ [ t.t.q.).)@j+m+t+Y+.@t+Y+F Q+[+V+m+m+ @C+m+m+!@~@t.@@@@@@L.L.Q.w+{@g+g+g+g+g+]@G+T+g+g+=@: : ",
"].].-@g+h+h+^@*@/@e+g+g+g+H+]@7+e =+H H (@L.)@j+j+X+O+l+t+_@; :@$+<@.@m+l+X+C+A+[@ . .= _.S }@|@G+x+g+g+g+h+I+{@]@H+g+g+g+=@V o.",
"].]./@h+g+h+g+g+]@G+T+%@g+g+g+e+[+=+H ;.H :.y+.@X+C+t+j+Y+3+5 $+:@c.N+j+t+t+ @O+_@ . .= S f H <+g+g+g+%@1@*@>@H+g+g+g+g+e+=@V V ",
"L )+L 2@I+h+g+g+g+g+0+G+<+g+g+e+3@4@U+X.+.B.)@5@.@t+l+6@w 7@8@9@0@Q L N+O+t+t+Y+V+>+r.2.E 4@W+T+g+g+I+G+<+g+g+g+g+h+9+G+t+D y.y.",
"7 }.' G.a@{@I+g+g+g+g+h+^@2@i+b@c@e+7+_.k.*+d@j+t+m+l+e@h.f@g@h@9@i@K j@C+m+m+t+_@M+n *.@ ;@^@c@I+{@i+e+g+g+g+g+1@<+k@++++V.p.#.",
"7 H.H.G.l@f+>@m@^@h+g+g+g+g+R+n@g+]@_.o@/.*+j@O+A+A+A+e@h.g@p@p@q@9@0@| C+t+m+l+N+n M+u @ 2@g+r@7+f+g+g+g+g+%@S+<+1@s@++++x.#.p.",
"t@2 e.u@l@g+g+g+$@G+I+g+g+g+v@&@g+]@#@!+G.9.9.}+6@A+l+e@w@x@y@z@A@h@B@) C@A+K+D@4+v + . b 2@g+g+E@g+g+g+e+$@S+e+g+g+s@o o N.v M.",
"X X t@u@F@;@h+h+g+e+/@{@&@g+0+i+g+G@%+%+d.4 y+- - 5@l+e@H@I@J@z@K@L@g@q.C@3@w 4+M@+ + [ s r N@O@*@g+;@T+$@^@g+g+g+x+P@q+-.v + + ",
"t@t@e.I.n.c 2@f+g+g+g+e+>@m@7+i+g+Q@L.@.3.O y+w+}+'+Y+R@H@I@y@z@K@L@g@q. @x w c+M@%.v 7 -+^+S@g+T@*@<+;@g+g+g+H+<+|@y & 0 o :.%.",
"a o.1+1+1+e.#+M {@1@g+g+h+g+I+i+g+Q@,+,+z n.y+U@w+}+~.!.H@J@V@K@y@I@W@$.l.I c+X@V+k l j ~ ~ ^@g+*@g+h+g+g+%@$@F+0.z Y _ _ @+^.p ",
"V V V b 1+e.#+M E+E+*@1@g+h+&@&@g+Q@,+S.0.Y@d@U@U@|@P.P.(.H@J@V@Z@y@(.$.{.`@ #.#V+k k ~ j ~ S@g+$@h+h+x+T+Q+M+g.( M O _ _ @+^.^.",
"(.~ H.F . ;+.+R.F v G@<+m@+#@###g+$#x / h c )@U@.# #d+O.^.F.%#J@&#@@*#C.`@=#.#.#V+L.c.E.(.@@^@%@v+E@{@R+E@Z m.G [ f W b -#A q.q.",
";#(.$.N.6 R.>#V [ [ ,#g+g+g+9+G@g+N@'#+.F &+)@U@.#U@ #)#p | @.y@P+C.6+a@!#.#.#.#V+Q.%+E+P+b@g++#b@g+g+g+v@Z p+p+p+G v [.[.U.*#@@",
"(.p.C 6 6 >#>#>#W . 2@%@g+g+1@+#~#h+{#M@F . )@!#U@.#U@]#^#| ' o@P+e U+`+U@.#.#!#/#Q.Q.$+(#g+1@@#_#H+g+g+>@Z p++ v [ . [.r U.*#) ",
"`.d.Y.N.N.n.u@u@m m 2+v@:#E@(#f+{#_#g+:#<#<#d@!#[#U@U@U@/#}#u $+$+'.R@ #.#.#|#[@V+1#<#2#g+3#_#g+b@4#v@H+,@v $+$+*+I.I.;+R._.-.o@",
"Z.x.' N.N.I.u@u@m m # T@c@g+g+g+5#6#7#g+g+H+)@ @8#[#.#.#!#9#u 3@0#M a#.#.#|#=#X++@S@g+g+5#b#c#g+g+g+b@2@N.N.$+:@n.u@I.-+R.H.-.-.",
"=+U.d Z Z D.@+*+1+K a.a.<+g+O@S@c#g+5#b#g+%@y+ @X+ @[#U@U@}#^+U@d#i.e#.#|#=#X+X++@S@g+3#2#g+5#_#:#g+1@= 5 5 b.A.Y $ 9.O O i h.i ",
"` ` & n ^ u t R.J J W.f.f#G@c@v@g+O@c#c#g#h#y+ @X+X+8#[#U@}#r ]#d#;+e#|# #X+X+W++@i#j#7#2#O@g+N@##@#,@ . ._ Z.k#4 3+7@'+! w >+>+",
"` ` & n n Y t /., J l#f.u@@ b@g+3#(#%@g+b#r.y+ @X+X+X+8#[#}#b .#0#o.a#5@X+X+X+ @a#6.h#%@g+##S@g+9+C $. .m#_ k#Z.g 7@3+! ! w >+>+",
"v.h.i ( ( ~ ;#$.p+p+e 6+5 X 2 $#_#:#h+:#n#I.I.5@X+X+X+X+ @}#q .#o#( !#X+X+X+W+8#<@g 3+c#g+%@N@G@y.{.].Q T 3.5 5 z.p#p#|+|+9.O.O.",
"* h.9 i E j |.$.p+p+* 6+(+2 q#2 b@%@6#h#s.I.I.r#8#X+X+X+X+}#8 X+o#E [@X+X+X+ @<@G 3+3+& j#%@5#'#y.].{.+.B ;+5 1.z.p#p#|+|+O #.O.",
"o o d f }.' Y.$+:.:.9 5 5 }+}+@+x.!#M ~ Y a.a.]+:@5@X+X+X+s#t X+o#D.!@X+X+ @<@3.k.z.2.^ / d G.H.7 }.}.h ;+/.& & z.>+>+= ; '.A.~ ",
"+ + p+}@}@{.{.G F F 6.u ( ; ; W G G q a.a.t#w.L.L.7 5@X+X+s#>+X+o#i.[@X+8#`+{ }+}+c c 5.T.T.v + v = = 6.~+-+< < z.7@4 ~ j K.+.+.",
"+ + p+].{.{.{.:.F F -+( ( ; O W )+++a.q l t#w.L.L.x 5+5@ @j@T.X+o#y.!@ @`+V Y 2 }+c   > =.w + + -.; P 6.~+~+< < 1.g (+j ~ d.L L.",
"a K ^.(.~ @.L.+.h R.v N.6 o@o@]+:@:@m m b m.m.n n v. .9#5@j@J.X+o#7@_@u#>+>+g m# .G.G.D @+a.=.S.T.t#t#I.I.I.A.d.B ' U.J.,+6+*#C.",
"W.W.^.p.p.E.@.k.R./.6 N.N.o@o@]+]+Y.m m ^+m.m.n o ,+v#u.,+p#6+Y+=#J.=.=.>+>+7@m#m#G.G.D @+D.=.=.T.t#t#a.u@n.Z.Z.p @.U.,+,+6+C.C.",
"K K k.w#j H.7 7 k.k.f v %.C Y.E.1 E.7.7.6.k.V n ^+h.(+5 x#,+x#R@C.6+,+S.( 2.= 5 5 x.y.Z.8 @+4 5 t 6.u .+>#;+d.A.B +.' & & 9 ) P ",
"l.l.W e * n n / E.E.R W W ;+;+Y@W.l#5 g l t@t@.+~+6.& & ,+,+x#q+o ` ` 0 x.j.$+M.M.e.e.q Z.Z.A.Z.i.r r . [ F E.E.k.R.h ;.;.>.p p ",
"l.m.S * e Z n / E.E.R F W i.;+Y@Y@Y@5 g l t@t@.+~+-+n & ,+,+x#` q+` ` 0 x.^...M.M.e.e.q Z.8 Z.Z./.r r . [ F E.E.k.R.h ;.;.>.p p ",
"t.O.$.y#c.)+(@+.D A $.$.$.B F.y.8 @+p#*.h L l#z#s W }.F ] t#9.j N h.p#n   W / & / ;+.+h F }.f#k#f.p Q t $ ( :.p+L L L ~ ~ 7 B.B.",
"A#A#~ %+y#H H )+E E w#(.(.E.E.Z.l w.|+|+B#>.>.z#z#B.@.+.] ] ] l l C#p#|+.   n > > -+;+c m.m.f#f#Z.1 c.e.2+t#X.X.>.>.@.'+O.A . . ",
"{+O.(.F.y#L | B#x h C (.K.K.d.y.@+D.|+n }.L >.U c V k.B e.#+#+M M 2.> C#7 d & > > h ^+h h W Z.8 d.c.E.a.8.6...:.L L @.O.O.= f W ",
"q.) V.Y@n.m m ~+++++$+c.Y._ _ V , , }.h h /.-+{ { { ~ ~ {+{+q.z#z#'.q.q.{+4.P z.h.< < i - _ / &+S ...._._.9 l l U.S _.~.~.j C ]+",
"q.q.'.Y@Y@m m *+++1+L.:@Y._ _ B#, , W }.h -+;+{ { { ! p.{+{+j z#z#$.q.j |.4.6+z.z.< o E 3 3 / / S $+..S d A { { U.f U.~.D#w#o@C ",
"y.f.x.+.Q -#-#~+5.5.:.L.%.9 9 ;+I.i.' B x ^ ^ 9 / =+M N x % }.s s V.~ '.C _.w#j w#x k.z 9.4 1+1+c > 9 j t.~ +.+.B#+.B#d.d.D O Y ",
"Y@Y@^.R R 1+1+M+>+>+%.X.p+Z Z D.t#e.d.E.U.> v.Z o & '.'.. z#z#s U i.A.V.:.F $.p.p.V.i.z ; ; ,.,.b S.S.u.O.j ].}@| K K !+L.D @ 8.",
"f.Y@Y@F B#U b R.>+C#F X.%.0 0 0.#+8 :@c.H.& i Z n A '.=+h . s b r j.V.s.v %.$.~ p.i.i.z ; ; [.,.b 1.1.'+A#! }@(@++K ++>.!+D @ $ ",
"'.~ R I I =+'.x I I ! A#A#E#E#! 5 ; %+%+y#K.K.0.t /.a a _  .4 ~+~+M+^+  -.-.$.~ ~ y e N ! ! ;+>#~+*.g.# _ O v M.B.z#s >#>#M '+O.",
"w#w#H.I I U.y 7 I I j A#A#E#E#(+5 5 %+%+y#d.d.t t D.a a 4  .g ~+~+&.^+^+-.-.$.~ ~ =+e N ! '+>#-#~+*.g.# : 4 v v m.z#z#o.>#Y '+O.",
"z D T >.| G.=+H.h V '+P.P.E#E#j 0 U.%...).'+! { Y D.o.o.5 = 9 F F ^+^+-+$.K.K.=+=+! ! ! ! ! s.y./.5.^ O k M X.M.m.  z#1+1+D.4 O ",
"~+~+T y#y#' d 7 -+-+3 P.P.E#E#C %.$+` ` 5 D#D#{ 8 a.*+*+9 * -.+ + W R.;+k#k#'.7 U.: : 3 ! ! ~ ~ ).` & ).'.d.:.X.[ . . 1+1+-+u 5.",
"6.~+T y#y#H.7 7 -+/ '+P.P.E#E#C %.$+` * (+D#D#{ { @+*+*+9 * o p++ W R.;+k#p.V.d U.: : '+! ! ~ ~ ).` ` '.'.G.(@(@B.  z#1+1+~+u u "};
