/* XPM */
static char *perso1[] = {
/* columns rows colors chars-per-pixel */
"64 64 254 2 ",
"   c #691E37",
".  c #5E3939",
"X  c #6D213B",
"o  c #742239",
"O  c #39324E",
"+  c #4E354D",
"@  c #6D3049",
"#  c #413F68",
"$  c #594458",
"%  c #4D4C72",
"&  c #775D6B",
"*  c #933038",
"=  c #A73333",
"-  c #B36C3D",
";  c #C86D35",
":  c #8C3A4D",
">  c #934B58",
",  c #AC4A52",
"<  c #B46F5C",
"1  c #91576F",
"2  c #B05278",
"3  c #966679",
"4  c #DB8E34",
"5  c #E49C3B",
"6  c #B38D69",
"7  c #D29B52",
"8  c #EBAE48",
"9  c #D1946F",
"0  c #D8A974",
"q  c #E7B678",
"w  c #FBC147",
"e  c #153EB9",
"r  c #343EBA",
"t  c #304E9D",
"y  c #3A669F",
"u  c #1B47BA",
"i  c #1B5ABA",
"p  c #3458AA",
"a  c #2F50B3",
"s  c #3559BB",
"d  c #1E67BC",
"f  c #3869A9",
"g  c #2F6EB8",
"h  c #3867B9",
"j  c #50598E",
"k  c #6E5B8B",
"l  c #546590",
"z  c #596399",
"x  c #666B97",
"c  c #727496",
"v  c #4957A5",
"b  c #4858B8",
"n  c #5869A8",
"m  c #4F6DB1",
"M  c #4669B9",
"N  c #616EA6",
"B  c #6975AB",
"V  c #757CAC",
"C  c #6A7BB5",
"Z  c #133ECB",
"A  c #303CD6",
"S  c #1C48D9",
"D  c #1B53D0",
"F  c #284BC7",
"G  c #384AC6",
"H  c #2855C7",
"J  c #2A59CA",
"K  c #395ACA",
"L  c #2849D9",
"P  c #384AD8",
"I  c #2957D8",
"U  c #345BD4",
"Y  c #395AD9",
"T  c #1A69D0",
"R  c #2A67C9",
"E  c #3969C7",
"W  c #376ACA",
"Q  c #2B73CC",
"!  c #3774C9",
"~  c #2C66D9",
"^  c #3968D6",
"/  c #3C62DB",
"(  c #2C74D7",
")  c #3976D6",
"_  c #1C4AE2",
"`  c #1C58E3",
"'  c #2958E7",
"]  c #385BE6",
"[  c #3051EC",
"{  c #395AF8",
"}  c #1C62E9",
"|  c #2C66E7",
" . c #3867E6",
".. c #346DEB",
"X. c #3B6CEC",
"o. c #2D74EA",
"O. c #3A74E6",
"+. c #2B6CF2",
"@. c #3867F3",
"#. c #3A69F4",
"$. c #3B76F5",
"%. c #474DC8",
"&. c #4759CB",
"*. c #525DC7",
"=. c #434CDA",
"-. c #455BD5",
";. c #445CDC",
":. c #535BD9",
">. c #4766CB",
",. c #4769C8",
"<. c #5567C8",
"1. c #4775CA",
"2. c #5675C9",
"3. c #4768D8",
"4. c #536CD5",
"5. c #5464DA",
"6. c #546BDA",
"7. c #4A73D4",
"8. c #4776D9",
"9. c #5575D8",
"0. c #656FC6",
"q. c #454BE7",
"w. c #485AE7",
"e. c #515AE8",
"r. c #4859F4",
"t. c #4767E6",
"y. c #4B6BEB",
"u. c #5469E8",
"i. c #4877E6",
"p. c #4472EA",
"a. c #4B74EC",
"s. c #5578E8",
"d. c #4A6AF5",
"f. c #5668F5",
"g. c #4876F7",
"h. c #4D7BF3",
"j. c #5A75F6",
"k. c #5576F9",
"l. c #636BEA",
"z. c #6277E8",
"x. c #646AFA",
"c. c #6678F7",
"v. c #7177FB",
"b. c #B05A88",
"n. c #8B6A9E",
"m. c #977392",
"M. c #AF7996",
"N. c #B873A5",
"B. c #C44F82",
"V. c #C45485",
"C. c #CA6F99",
"Z. c #C976AB",
"A. c #D67BB9",
"S. c #77819D",
"D. c #7586B4",
"F. c #7786B7",
"G. c #3782CE",
"H. c #3A84E6",
"J. c #2C80F4",
"K. c #3B85FA",
"L. c #5290CB",
"P. c #4989D8",
"I. c #5783DB",
"U. c #4A96DA",
"Y. c #589BD8",
"T. c #7589C6",
"R. c #7A95CC",
"E. c #6E8ED3",
"W. c #6599D6",
"Q. c #5BA8D9",
"!. c #66A6D7",
"~. c #77ACD2",
"^. c #76A9D8",
"/. c #69B6DA",
"(. c #4A85E8",
"). c #5888E8",
"_. c #4693EB",
"`. c #5D90E7",
"'. c #4685F6",
"]. c #4788F7",
"[. c #5886F8",
"{. c #4894FB",
"}. c #5692FA",
"|. c #6487E9",
" X c #6592E4",
".X c #7191EE",
"XX c #6587F9",
"oX c #6793FA",
"OX c #57ACE5",
"+X c #58AAE3",
"@X c #6DAFE1",
"#X c #77C5DC",
"$X c #77C5E3",
"%X c #8D8999",
"&X c #AD8C8E",
"*X c #8F92B3",
"=X c #A68BAA",
"-X c #B390AF",
";X c #A5A4AC",
":X c #AEA9B3",
">X c #C99592",
",X c #D7B190",
"<X c #E3BD90",
"1X c #D289AD",
"2X c #CD90B4",
"3X c #CDB1B4",
"4X c #E0A4A4",
"5X c #F1CD8A",
"6X c #D7C5B6",
"7X c #8E9DC4",
"8X c #8597C8",
"9X c #8D94CE",
"0X c #919EC4",
"qX c #A99AC3",
"wX c #92A1C6",
"eX c #94A4C9",
"rX c #9BA7CA",
"tX c #88ADD3",
"yX c #89A5D9",
"uX c #98ABD6",
"iX c #98B8DA",
"pX c #A4ABC8",
"aX c #BDB4C8",
"sX c #AEB2D0",
"dX c #A8B7D5",
"fX c #ACBBD9",
"gX c #8DABE2",
"hX c #89B3E4",
"jX c #94B8E6",
"kX c #AEB8E3",
"lX c #D39CC4",
"zX c #CEACCF",
"xX c #E1A6D2",
"cX c #E0A8D3",
"vX c #C5BFE6",
"bX c #92C0DF",
"nX c #87D7DD",
"mX c #AEC0DB",
"MX c #B6C5DC",
"NX c #8FC9E4",
"BX c #AECBE9",
"VX c #B8C9E3",
"CX c #DCD2D2",
"ZX c #C2CCE3",
"AX c #C7D4E9",
"SX c #D2DCED",
"DX c #D0D8F0",
"FX c #D5E1EF",
"GX c #D5E1F2",
"HX c #D9E6F6",
"JX c #E1EBF7",
"KX c #E2ECF8",
"LX c #EBF9FA",
"PX c #F1F7F2",
/* pixels */
"n ,.<.L.L.p t p b m h M f t v t s h 0.0.m f f t l v v v b M b t t M 1.2.0.0.C n n v j t t a 1.1.M v v h h h n n <.b <.<.M M f f ",
"4.d.p.].{.L A P y.y.o.o. .G r U @. .XXXXi.) ( R ~ K q.P ] X.~ F F @.$.g.x.v.l.6.9.a a F I L K.'.i.&.&.( o.o.u.l.f.f.d.d.d.p.O.! ",
"s r.X.].].Y I U t.t.I I I U Y  .p.X.8.s.) ) ( / 3.P ] P BXy. ./ Y g.[.XXv.v.z.l.s./ U W U U  .( O.u.6.i.i.a.u.u.f.k.f.y.y.d.O.1.",
"v a Y $.$.o.o... . .I D I '.'.i.s.i.h s ) (._.f.r.T.[ n jXyXgXgXyXjXoXoX|.|.c.x.l.H.O.) ^ ^ u u K [.[.XXXX[.i.a.h.h.a.6.4.s.c.z.",
"t r K g.$.o.o.o.t.Y H S I '.'.(.(.i.8Xp ! (.'.d.V % L n B n (.XXeXkXoX.X|.|.c.x.x.H.H.O.^ ^ u u ^ [.[.XXXXXXi.a.s.h.s.4.4.z.c..X",
"p s R ( ( I ' | p.p.t.d.p.p.i.~ R.8X7.K ] 8X% B :.G m N T.T./ C 8XyXyXtX-.&.6.6.9.q.r.]  .| I ' Y  .t.6.s.y.j.k.y.6.u.c.v.y./ s ",
"f h Q Q ( ' ' ] X.p.f.f.d.t.3.R.W R / Y  .3.O $ Y E.0.E.T.F.Y # C &X;XiXuXjX4.4.7.q.q.] |  .' ' ' Y Y 3.3.t.c.j.u.6.6.v.v.t.J p ",
"v ! W Q Q I I ] a.a.k.f.T.N 3.F.~ T O.p. .j O B T.T.D.R.C R.z O % 4 0 q 3XkX6.9.9.q.q.] ~ ' 8XR.8X8X8X8X9Xi.h.h.5.5.5.v.v.3.^ h ",
"<.l.3.R H ` ` ~ d.k.s.C B  .@.p.....).].T.O % N n T.x n j N j + < 5 4 8 pXtX^.jX9.u.u.8X8XR.7XwXeXwX0X0X0XeXo.o.4.<.<.l.l.s.t.1.",
"C u.3.J R T D | a.k.8X9.7.#.@.....@.-XF.%XO j j z F.z C z n % $ $ - 4 8 >X8XB C s.s.u.u.t.t.] /  ./ Y 8.uXP.o...3.<.4.^.gXs.8.2.",
"&.X.| ~ ~ / y.X.i.8X9.E W /  .>.3.3X, 2 *X& j l z x z c &Xz N $ . . 5 4 7 %XT.F.g.s.j.k.d.g.@.@.| U U Y 4.;.%.U -.gXU.^.).).).E.",
"E +.| ~ ~ t.u.y.8XI.E K K >.>.>.&X1X= < B j j % O &XdX1 > %XT.% $ $ 6 7 9 F.T.T.^.kXj.j.[.h.g.$.@.U U Y -.%.r %.^.@X!.(.H.`. X X",
"E @.|  .^ 6.u.8X7X).U K K K K 7.-X>X= %XF.x n % < < FXCX4XM.V B O % c *X4.R.C C T.9XE.E.uXk.p.X. .;.3.-.>.&.G &.+X+X3.H.H.).|.E.",
"*.t.s.}.}.3.! 7X4.3.] ' ' L L 7.E.I.=XV C B C z ;X6XPXPX3X> T.C % *XeXt.' I R.C z z eXVX=.[ ^ ^ 8.XXc.8.1.8.XX^./.hXJ ).].y./ &.",
"<.t.s.oXoX1.E 8X1.7.' ' ' L L 3. XI.K n *XeXs.l.v.v.PX4X= : N T.c *XDXGX| ` R.E.T.VX! W P P / ^ i.XXXX(.P.P.jX/./.K H [.[.t.K M ",
">.d.d.p.p.K s 8X7.t...$.@.Y Y t.i.i.dXeXrXd.d.x.l.GXFX< = = n.j *Xk ZXHXJ F / 3.Y uXF Y Y ] ..O.X. .jXjXO.O.hX/.^.D I 9.8.8.X.4.",
"4.g.@.' ' F a K R.8Xi.K.'.t.t.X.X.kX$.g.g.#.{ f.x.v.DXZX3 zXM.n.F.n.*XDXGXF F G G =.A Y p.) $.$.| S +XjXO...!.~.2XZXvX1.1.8.$.i.",
"4.k.d.I ' F F G 8XwX8X'.$. .3.X.X.i.$.@.@.{ { x.x.uXfXdX0XZXZXN.m.z P Y SXDXG a T.E.uXY 8.O.$.K.+.S _.jXX.^./.R.C.cXvXVX>.8.$.8.",
"<.l.;.u u / y./ ! 8X7Xt.g.}.[.s.BXu.L _ L I I p.uXpX9X*XF.MXSX7 5 6 9 ,XpXDXuXn 8XR.fXH.H._.oXoX(.K +X!.;.^.;XZ.b.m.hXL.!.hX$.8.",
"0.l.;.u u Y p.X.Q ! 8X8Xp.[.}.j.z.uXA A L J J 8.n.Z.A.m.k 2 CX8 5 4 ; 8 x F.R.n 0.9XiXH.H.P.oXoXs.K U.+X^.BXY.R.R.!.@XhXa.h.$.3.",
"<.u.3.G a 3.t.3.) ( i.wXi._.(.h.j.h.kXI I U R ~ N.lXA.Z.1 2 C.9 8 4 4 7 -XuXC # z R.yXQ G.G.{.}.).6.+X+X^.^.#X/.Y.hXg.f.d.t.U E ",
"<.t.3.<.>.<.:.5.P.8.9.iX7X) Q O.h.h.Q tX! W ~ -X1XlXlXsXVXAXCX1X3 R.6 >XmXAXdXB n N C jXG.g _._.|. X@X/./.$XOXU.Y.+.+.f.f.] F a ",
"<.3.>.<.<.5.5.6.P.P.8.9.9.( ( g.h.h.~ kX) W W M.1X-XVXHXJXJXJXJX;XF.x V VXDXDXAX8XF.N C *XQ ).I.hXjX^.!.$X/.U.Q.Q.} +.f.f.P u a ",
"2.XXc.c.c.5.4.s.j.j.u.Y t.h.g.O.o.X.}.5X`.(.8X8XM.0XVXGXDXGXJXHXLXMX=XsXVXGXGXHXAXAXV j l c eXW.U.Y.hXL.nX/.hX+XY.%.&./ w.t.u.<.",
"E.XXXXc.c.6.6.u.j.j.t.Y w.g.k.a.^ ^ 6X5Xc S.S.S.S.mXBXAXAXVXFXPXLXLX*XdXMXAXSXFXHXJXSXMXdXmXrX#XhXhXL.G.nXQ.BXU.W.%.%.Y Y t.u.4.",
"0.[.s.s.s.u.y.a.[.z.3.U Y f.g. ./ / 6X5X,Xq 0 6 0 :XMXmXmXVXJXFXCXzXzXFXAXAXAXVXJXJXSXdXeXpX*XtXbX~./.L.nXP.jX+XY.&.&.w.u.3.>.<.",
",.a.a.8.8.$.#.g.).`.W R R t.w.w.P [ i.6X5X5X5X<X0 0 :XwXdXMXHX:XcXcXcXHXFXzXMXAXAXvXlXVXZX-X%XpXmXVXtX/.nX/.U.OXhXU ;.j.j.3.h p ",
"2.p.p.8.i.$.#.$. X`.W R U u.u.[ P P O.F.3X5Xq 5Xq q &XwXdXMXaX-XcXcXcXFXCX3X6XCX;XcXAXAX-X3X%XsXeXa.R.#XnXY.+XU.U U / j.j.3.p f ",
"v a %.:.*.f.k.h.(.s.3.P 3.k.[.t.L Y ). X*X0 4 8 0 6 C.-X;XfX-X1XlXxXaXSX:XcXcX2X2XMXaX3X6 :X:XsXeXF.W.nXnX/.+XhXU ~ ) $.$.K.'.P.",
"t r b =.:.x.k.h.i.(.w.=.w.k.k. .I I  X.XCXq 7 4 < &X1XA.2X2X2XM.1XfXZXVX1X2XcX2X2X2XzX>X6X6X:XrXeXW./.nX/.OXhXP U ^ o.J.H.].{.U.",
"v b %.:.:.f.a.a.(.H.3.w.y.j.>X3./ *XwX>X0 0 9 9 N.C.2XlXcXxXxX2X1XpXmX-X1X1X-X2X3X=X=XS.;XdX7X7Xw.hX~.!.@XgXP [ U ~ ^ ..o.$.}.P.",
"*.:.x.l.f.%.G 3.P.U.(.].g.:X<X0 =XuX- 4 0 q ,XC.1XlXxXxXxXxXcX2X-XrXrX-X1X&Xb.-X%X%XF.*XrX7X*Xp.t.w.] p.X.p.r.r.Y ^ Y F F -.4.2.",
"<.u.u.f.f.%.G Y P._._.].uX9 8 8 5 ; 4 4 9 9 C.1XA.lXxXxXxXxXxXlXlXBXbXBXsX2X-X2XaX^.yX7XdXV N R.y.q.]  .X. .r.r.[ / U F F -.4.2.",
"m E p.h.k.t.e.t.h.'.).8X*X:X>X>X>X- ; -X*XkX, B.C.lXxXxXxXxXxXlX3XNXeXbXBXBXmX2X2XtXsX!.eXN B ~.P.L L ] ..$.k.[.g.p.d.f.r. .Q h ",
"y ! ) K.K.y.y.u.g.g.7XwXD.N z B n.9 9 aXrX=XB.B.B.A.A.A.A.A.A.A.N.7XeXtXbXbXNXbXbX~.!.nX^.@X^.$XW.Z Z ' @.$.}.[.}.[.].x.x.) T g ",
"f g ) K.$.u.e.u.h.8X*XD.N N N B wX,X0 aXrXb.B.B.B.B.A.A.A.Z.C.C.b.T.fXiXhX@X$X#XQ./.Y.!.nXnXnX$X!.S L @.o.$.}.{.].h.g.x.f.) T G.",
"m 7.8.K.K.5.:.:.q.8X*Xn n V *X0X3X5X,XrXpX3 B.b.2 2 V.b.b.N.=X;XsXwXR.iXdXuXL.Q.nXnXnX#X#X#X$X@X!.#.@.K.K.].(.(.e.w.:.w.y.O.H.1.",
"m 1.8.K.K.u.:.:.9X7X0XD.8X7X8XpX,X5XsX8X0Xb.B.2 B.N.=X-XpXfXfXdXAXc O m R.~.!.nXnX/.~.L.Y.P./.+XjXo...K.K.K.(.P.6.:.:.t.y.p.H.G.",
"M O.$.$.#.;.-.e.8X7X7X7X7XpXzX<X5XzX0X7X0X=Xb.sXdXfXfXfXfXBXSXHXbXl Q.OXaXtX#X#XQ.Q.W.!.Y.OX+XbX~ O.^ ~ I I ) ^ K P Y U U ] | ! ",
"! o...X.t.] Y t.8X7X7X7XeXdX:X3XlX0X7X7X0XfX0XVXVXfXfXAXDXHXDX@X/.+XN.zXcXrX#XY.$X#X+XOXQ.!.NXHX8.) ) D D F >.M I S S H J I [ U ",
"! o...@.@.Y Y t.8X7X7X0X7X7X7X0X8X7X7X7X7XfXfXVXMXMXHXHXGXBX!.jXNXD.@ : b.!.m M M m R.~.BXGXHXLX) ) ) F Z F h ,.L S _ D H I [ Y ",
"E |  .] ] E g ) 8X7X7X7X7X7X0X7X7X7X7X7X7XfXVXVXVXGXGXHXBX$XNXBXHXHXuXb.n.L.$ @ X X k dXAXGXHXHX4.[.XXs.u.8.I I ' { { { { I i p ",
"! | | ~  .R R ) {.7X7X7X7X7X7X7X7XwX7XwXeXMXMXMXVXGXHXGXjXNXGXLXLXHX' qX^.P.@       o %XVXGXHXHX3.XXXXh.3.t.I ' ' [ { [ { U a p ",
"1.$.$.g.a.i.8.P.[.7X7X7X7X7XeXfXrXwX*XwXrXMXVXMXZXHXKXVXBXHXLXLXLXJXw.K P.jX%X: * * @ @ dXAXDXBXp.a.y.y.t.t.+.$.' ' [ | U ^ 1.h ",
"P.{.}.XXXXXX}.[.h.7X7X7X7X0XfXfXkXkXqX9XmXMXAXGXKXKXKXKXLXLXLXLXLX6.&.&.P.y.K G 1 * * * eXuXhX{.'.~ ~ w.w.y.g.$.' D I E R 7.s.9.",
"P.{.}.XXXX[.[.[.h.9X7X7X7X0XdXfXVXZXZXqXfXMXFXJXKXKXKXKXJXLXLXLXJX7.&.BXY.u.U a G 1 * 3 yXyX{.{.H.Y ~ w.r.w.$.g.' L D R W 7.s.L.",
"m l.6.! ! 9.).s.u.t.8X7X7XrXpXMXfXZXZXV qXsXFXKXKXKXKXKXJXLXLXHXi S S _ [ ' L Z Z 8.8.3.-.-._ ' ' P P :.:.:.,.7.8.i.O.` ` T T Q ",
"0.l.4.E g 8.s.y.t.t.K.uXfXfXfXMXfXMXZXwX&X:XkXSXHXAXHXKXHXSXGXT i ` _ _ [ [ S S Z 3.3./ -.;._ _ L P P -.:.5.>.,.9.s.O.` ` T ~ d ",
"0.x.t.W R 8.O.p.t.u.p.'.fXMXAXDXSXGXSXaX&X%XqXDXGXGXAXAXAX' } T T T ' ' ] ] | I I 4.>.>.&.-.I I Y w.] e.u.t.8.,.8.s.i.X.X...( E ",
"0.j.a.o.o.@.@.#.P.8.h.a.h.kXVXGXJXJXJXSXrX& %XDXDXZXX...` ` } o.$.o.o.@X7.3.(._._.%.%.&.,.>.,.>.3.f.f.d.g.h.7.8.y.d.u.oXoX|.9.2.",
"9.h.a.o.( g.@.$.7.7.(.a.a.3.uXfXfXSXZX;X%X*X*XCXVXy.#.@.` ` } ..J.o.+.o.4.4.(._._.%.%.&.>.-.>.>.t.f.f.k.k.h.P.8.u.u.y.oXoX|.9.2.",
"f s ) I.I.[.[.s.3. .) 8.) 8.0XrX=X%Xm.b.3 &X=XZXj.j.a.h.=.P Y R ~ +.{ @.d.a.@.| @.t.w.y.h.a.*.E <.9.u.] P Y [.}.s.s.s.E W a.s.9.",
"t i E W.9.oXoX[. .t.W ! ! 7.8.rX3 1 m.< 3 &XaXj.k.k.i.s.=.=.=.K K ] [ { g.d.@. . . .w.d.k.k.<.*.>.9.I.%.A P }.}.|.|.i.H s  .k.a.",
"f i ! 9.9.s.z.u.t.d.) ! 7.8.7.@ @ @ @ 1 qX*XV u.d.u.u.7.%.G G ^ 3.] ..' O.O...@.@.y.d.y.t.d.3.&.8.I.8.;.P w.i.[.s.s.).a i ~ g.9.",
"g Q ) 4.6.q.q.e.j.j.(.i.8.F m.X X X * m.y.t.8XF.>.&.E E d d Q 7XeX3.Q Q d T ~ ' +.g.g.| G F ..g.i.(.(.O.O. .K K 8.p.O.u u R ) L.",
"f Q ^ 4.6.q.q.:.j.j.).P.P.F @ X @ @ M.y.y.t.t.K T.F.R h d d ! 7Xj.) Q R g T T ' ' g.$. .F F X.t.$.(.(.i.O.O.K >.O.g.O.u u W Q ! ",
"m <.7.s.s.f.e.w.] ] [.).(.@ o X @ *.i.8.t.X. .....8X*XD.3.p.8XwXwX3.E ^ ) O.! R R t.y./ Y I x.f.d.| ^ R R W s.s.s.s.s.7.7.t.U &.",
"m 6.6.i.s.f.f.r.[ [ '.(.+   X @ G %.7.8.O. .+.$.$...^ ^ 8XD.D.V *X3.W 3.[.h.) E h 3.3./ I Y x.x.f.' ' D i R XXXXs.l.l.).).;.P G ",
"n e.6.h.s.f.f.t.[ ] h.+ X o @ -.G Y P.).i.X./ X.#.X.3.3.t.d.d.f.f.t.3.3.].(.) E h 3.3.Y U U f.x.f.' ' J i J XX[.j.l.j.|.).3.G G ",
"M E a.c.c./ ^ p.c.c.%X$ X * & E I Y  X XI.7.8.Y Y t.u.u.F D I w.r.r.d.d.H.H.) E E ~ ( ^ J J y.u.w.{ q.L F U ]._.k.k.f.f.u.^ H p ",
"f W i.c.c.i.^ p.j.c.H *X$ < 6 %XU I `. XI.7.3.Y Y ;.u.u.I D L w.w.r.d.d.H.H.) E E / ( ^ J H t.e.w.{ [ P F J ].'.k.k.f.u.e.Y J p ",
"M w.u.|.s.7.^ p.y.u.H a S.1 = > O.) (.(.W H H K K w.:.u.I ~ ^ h.'.d.r.t.) 7.7.^  .H J J J H 3.>.t.]  .U U ^ }._.k.d.k.f.f.;.I E ",
"&.w.5.I.I.i.O.O.t.d.i u u S.c x (.(.o.o.I u e K %.:.e.e...o.H.{.{.k.t.w.,.h ^ p.O.a F F J J E E ^ o...^ W 8.[.}.h.g.g.f.f.t.] -.",
"v *.,.C C ,.2.,.,.,.d t t t y y 1.L.! g p u t p b n *.b ,.g ) I.P.2.<.M v y m 1.E p t p p p M f f ! ! M M M E.2.9.6.6.0.<.*.&.v "
};
