/* XPM */
static char * perso_front_xpm[] = {
"64 64 262 2",
"  	c #A6D563",
". 	c #A7D568",
"+ 	c #A4D35D",
"@ 	c #ACDB69",
"# 	c #AAD964",
"$ 	c #A0CF5C",
"% 	c #C1F276",
"& 	c #B1E166",
"* 	c #A9DA5E",
"= 	c #BCEC74",
"- 	c #A9D76A",
"; 	c #A8D764",
"> 	c #A6D85E",
", 	c #B9E96F",
"' 	c #9BCB55",
") 	c #B3E36B",
"! 	c #C3F37C",
"~ 	c #9ECD5A",
"{ 	c #A2D357",
"] 	c #98C754",
"^ 	c #95C552",
"/ 	c #A7D862",
"( 	c #68564C",
"_ 	c #9B6B66",
": 	c #96766A",
"< 	c #574946",
"[ 	c #6E5B55",
"} 	c #B59693",
"| 	c #B38F83",
"1 	c #9C7A6E",
"2 	c #A16D58",
"3 	c #B88B77",
"4 	c #83B33E",
"5 	c #93C34D",
"6 	c #846E68",
"7 	c #B39385",
"8 	c #C69F91",
"9 	c #C69985",
"0 	c #BA8371",
"a 	c #C08974",
"b 	c #C58965",
"c 	c #BB8668",
"d 	c #A57B64",
"e 	c #785346",
"f 	c #785C56",
"g 	c #875A44",
"h 	c #D9A68F",
"i 	c #C1866C",
"j 	c #AA7563",
"k 	c #865D53",
"l 	c #90C046",
"m 	c #8BBA46",
"n 	c #876459",
"o 	c #C89376",
"p 	c #D39473",
"q 	c #684D46",
"r 	c #A7745A",
"s 	c #966B5A",
"t 	c #886B5E",
"u 	c #593D37",
"v 	c #A4725C",
"w 	c #B17E5F",
"x 	c #B79179",
"y 	c #8B5D4B",
"z 	c #836356",
"A 	c #867769",
"B 	c #90BF4C",
"C 	c #D7B9A2",
"D 	c #FCDDC2",
"E 	c #FCE1C4",
"F 	c #E8CAAD",
"G 	c #84624E",
"H 	c #675556",
"I 	c #88B744",
"J 	c #65463F",
"K 	c #A47F6C",
"L 	c #DDC0AB",
"M 	c #F6E3C4",
"N 	c #BCA386",
"O 	c #B4937D",
"P 	c #A7897B",
"Q 	c #B8E773",
"R 	c #796458",
"S 	c #FBE4CB",
"T 	c #564135",
"U 	c #AC8C84",
"V 	c #C8ACA1",
"W 	c #C6F87E",
"X 	c #9FD05A",
"Y 	c #AFE06A",
"Z 	c #AEE067",
"` 	c #A88C87",
" .	c #A38375",
"..	c #C6B6A9",
"+.	c #B9A796",
"@.	c #9A8278",
"#.	c #7D6C65",
"$.	c #99CA4D",
"%.	c #B6E570",
"&.	c #BFF079",
"*.	c #B7EA6A",
"=.	c #C7F882",
"-.	c #AA9494",
";.	c #D6BAA7",
">.	c #E4C9B8",
",.	c #9A7C77",
"'.	c #EFD3B3",
").	c #FADBBD",
"!.	c #E8BDA9",
"~.	c #C5A17D",
"{.	c #BEF075",
"].	c #A99489",
"^.	c #C9A597",
"/.	c #D4AA8B",
"(.	c #BA9C8E",
"_.	c #B49B97",
":.	c #EBC09F",
"<.	c #D6B196",
"[.	c #9FD056",
"}.	c #97C854",
"|.	c #D4CACD",
"1.	c #BDB3B5",
"2.	c #925B49",
"3.	c #B9ADB1",
"4.	c #96C84F",
"5.	c #C1C1CB",
"6.	c #9798A8",
"7.	c #B9B9C8",
"8.	c #D5C6D8",
"9.	c #D8D0DD",
"0.	c #A8A6B6",
"a.	c #C2BACB",
"b.	c #D7D7E7",
"c.	c #ECF2EE",
"d.	c #F4F4FC",
"e.	c #F5E9F8",
"f.	c #D6B6B9",
"g.	c #E8D3DA",
"h.	c #FBF4FC",
"i.	c #EBEFF8",
"j.	c #D8E3EC",
"k.	c #BCC1CE",
"l.	c #D5D3F5",
"m.	c #F4FAFD",
"n.	c #F4F5F5",
"o.	c #FBFBFB",
"p.	c #E7E6F4",
"q.	c #CDD6E7",
"r.	c #E7DDEB",
"s.	c #F4FAF4",
"t.	c #9B8CA9",
"u.	c #E4DCF4",
"v.	c #FAF6F6",
"w.	c #F9F5EB",
"x.	c #A58EA2",
"y.	c #F0E5E6",
"z.	c #B3A197",
"A.	c #C9A88C",
"B.	c #E5D7E6",
"C.	c #EAE6E8",
"D.	c #918185",
"E.	c #DFA6A8",
"F.	c #DFB28F",
"G.	c #C5B4C6",
"H.	c #E3DEFB",
"I.	c #E4E1EB",
"J.	c #ACA2A6",
"K.	c #C18685",
"L.	c #F1AC9F",
"M.	c #E5B698",
"N.	c #CDCDEC",
"O.	c #AE7976",
"P.	c #EAAB96",
"Q.	c #8DBC4A",
"R.	c #DFAE93",
"S.	c #C1BED1",
"T.	c #C99A7C",
"U.	c #B29AA2",
"V.	c #85B541",
"W.	c #AF8795",
"X.	c #DEE0F8",
"Y.	c #BBBCD1",
"Z.	c #B18EA6",
"`.	c #A89995",
" +	c #F4CDB7",
".+	c #ECF8F9",
"++	c #ACAFC7",
"@+	c #FDDCC9",
"#+	c #FCDDD5",
"$+	c #A59CA7",
"%+	c #7A7B87",
"&+	c #D2CDE1",
"*+	c #C7C0C7",
"=+	c #FEE1D7",
"-+	c #2E2A35",
";+	c #4B4152",
">+	c #392C39",
",+	c #402D2F",
"'+	c #524449",
")+	c #382D2F",
"!+	c #39343D",
"~+	c #443E4A",
"{+	c #9A9094",
"]+	c #F5D1B7",
"^+	c #85736C",
"/+	c #3C3343",
"(+	c #443844",
"_+	c #6A6368",
":+	c #6A5F64",
"<+	c #534958",
"[+	c #4A424D",
"}+	c #A8806B",
"|+	c #514D63",
"1+	c #36384B",
"2+	c #3D3A47",
"3+	c #424154",
"4+	c #4A495C",
"5+	c #473839",
"6+	c #F3D0AE",
"7+	c #605E79",
"8+	c #585668",
"9+	c #4D5165",
"0+	c #2B364C",
"a+	c #363F50",
"b+	c #3E425C",
"c+	c #5B5B73",
"d+	c #F5CCA7",
"e+	c #62617A",
"f+	c #494C63",
"g+	c #5B5B75",
"h+	c #2D2C3B",
"i+	c #837B84",
"j+	c #857576",
"k+	c #414159",
"l+	c #868691",
"m+	c #BEEE79",
"n+	c #3A3B4A",
"o+	c #616272",
"p+	c #CBFB83",
"q+	c #3E3E55",
"r+	c #5F6273",
"s+	c #8D9098",
"t+	c #423F54",
"u+	c #353344",
"v+	c #323348",
"w+	c #423F5B",
"x+	c #64626C",
"y+	c #282E40",
"z+	c #3E4156",
"A+	c #47424B",
"B+	c #665F6A",
"C+	c #3B3233",
"D+	c #736A62",
"E+	c #6E6255",
"F+	c #56463B",
"G+	c #8F827B",
"H+	c #C5F681",
"I+	c #EEE6D7",
"J+	c #79716D",
"K+	c #746E5A",
"L+	c #5D5B46",
"M+	c #756E74",
"      .           +   +   + + + + @ # $ # % % & * & % = @ $ + - ; ;             ; . + + . + + ; ; ; ; + + + + + ; ; $ ; ; ;     ",
"  -   .     ; ;     * # >   * # +     + * # & , % , & ; ; ; ; $ ; ;         .   + . ; . . ; ; + + + ; + ; ; ; ; ; + ; ; ; ;     ",
".   .       +     ; # + $ $ + # ; + + # * ' * ) ! , + ~   @ ; $ ;               . + ; + + + . . ; + + ; ; ; ; + $ + ; ;       ; ",
"  .             ; # * $ { ] { * -     - * $ { & ) & * { + ; + ;                 ; + . . ; . + ; ; + + ; ; + $ ] ~ + ; + $ $     ",
"              +   ; ; $ ] ^ $ $ . . . . ; + + ; ~ + ; * + + + @ .           .   ; . + ; $ .     ; + $ ; ; $ ' ^ ~ + ; ; ; $ + ; ",
"  . -   ; - / / + + * + { $ + * $ .   $ ; # # $ + * * * + * * ; $               + . . + ;       ; + - + ; ; $ ~ $ + + ; + ; + ; ",
"          +           ; ; + ; ;   . . +   -   $ ; ; + + * * ( _ : ;             + ; ; + ; . ;     + -   ; ; ; + ; + ; ; + ; + ; ",
"  $ + $ + + + $     ; * ; ;     . - - - - ;   $ < < [ [ } | 1 2 3 1 [           . + . . ; + ; ; + - +   $   ; ; ; ; + + ; ; ; + ",
"; 4 4   @ 5 4 ^ + ;   + ; + ; ; . . . . .       # 6 7 8 9 0 a b c d e f ; $ $ - -   +   ;     ;   -             $ ; # + { ; ; { ",
"$ 5 ^ +   ] 5 ^ ; + ; + + ;       . .   . . .   ;   g h i b b b b i j k f ; ; ;     ;   .     $                 ; ; + + ; + ; ; ",
"+ + $ l m ] +         ;           .     . . . . ; n d o p p b b o i 0 _ q @ - $ $ ; -   ; ; ;   - $   -         ; $ $ ; ; { { + ",
"# & + l 4 $ # # +                   .   $ . . . [ k 0 c p p b 3 9 r j s t 6 + ; - + $   ; ; ; - - -   -         { # & ; { & # + ",
"+ * + + +     $         .   -     +       . . $ u 1 v r c w r d x 3 y y z A ^ - @ ] B $ - ; ; ;   - - .         ; ! % ; { , % & ",
"+ + + ; # * + +                         . . . . . e y j s d C D E E F G t H B   ; B I ~ - ; $   - $ . . - -     @ ! ! ; { = ! , ",
"# * + + + + ; ;             .             . . . < J e s K L M M F N O P [ H ] ] ] ] ] +   ;     $ . . $     + ; - , Q , ) , , & ",
"+ ; ; +       ;                   $           . .   t z u R M S T T U V q [ $ B m $ -   $ ; ;   - . . -     ; ; ; ] # ! W ) { $ ",
"+ + ;           X . Y Y / / / Z Y / $ . . / X / $   `  ...z M M T +.@.V #.+ $ ' $.$ + + + ; ; +     - $           - - , %.- ; ; ",
"    ; ; . ; - ; / Y &.&.> X *.=.Y . $   - / + > * * -.;.D E O E S D >.R ; ; $ $ $ + ; ; * ; * +       -         $ $ ; - - ; + $ ",
"      +         X Y &.%.Z / *.&.Y . .   . + / > * + $ ,.'.).!.~.D >.R @.; ; $ + ; ; ; + ~ + ; ;             $ -   + ;   ; + ; ; ",
";   + ;     +   . X / Y {.{.*.> Y . .   / / + > + { ^ ].N D ^./.D (._.; + ; ; ; + ; ; ~ $.$.{ +         -   -   - - ; ; ; ; ; ; ",
"Z X + /       / Y X X Y &.&.Y X - .     / / $ / ; $ 5 ] ].O !.:.<.^.;   ; $ ; ; + ; $ ] $.] + ;                   $           $ ",
"[.}.}.X       / / . . Y - / Y / / . .   . $ $ / ; + $ |.1.n 2.g s ` 3.  ; ; ; ; + ; ; + ' $ ; ;         -       $               ",
"}.4.4.[.$ + $ / X . . . . }.X .   .         / / ; 5.6.7.8._ o h s -.9.6.0.+ ; + ; ; ; ; $ ; - ;                 - ; ;   + -     ",
"[.[.[.+ # $   / . / . . . Y . X                 a.b.c.d.e.f.^.>.} g.h.i.j.k.7.; $ ; ; ; ; ; ; $                     - $ $       ",
"> * > [./ X . / X . . . . . . X -   $ - -     5.l.m.n.o.m.p.9.q.r.h.s.m.m.e.t.; $ ; ; ; + ;         - ; ; - -     - - - - ;   ; ",
"[.* * > / X / . . . . X X X . .       /       a.u.v.w.n.h.m.v.m.h.h.s.c.h.e.x.$ ; ; ; $ ; +     ; + ; $ $ ] $ - ; ] ] $ ; ;   ; ",
"> > > > / / X . . . . . X . / /             . 3.;.;.+.y.b.h.s.h.d.d.s.3.f.f.,.+ $ ;     ; ; +           ] m ^   $ B m ~ - ; $ - ",
"> > > X / . . . . . . . / . / /   / -       - z.A.<.1 B.u.d.s.e.C.s.s.D.E.E.k $         ; + ;       ;   $ B ^ $ $ ^ ^ $ - ; + ; ",
"> / +       X . . X . . . / . / + / /       . z.F.9 } G.H.i.b.I.s.s.n.J.K.L.y $ + ; ;         -         +   ] B ] $ + ; ; ; ; $ ",
"+ /       / . . . . X . . X X / + X $ + .      .M.9 _.a.N.b.I.o.w.s.m.a.O.P.M.-.        - -     $     $ ; - $ m B $ - ; $ ; - ; ",
"/ + /   /   . . X . . . }.Q.X / ~ 5 }.+ -   . K R.U h.7.q.I.h.m.w.s.m.S.(.T.R.U.;     ; . .             ;     ] $ $ ; ; ; ; ; ; ",
"+ / + /       . . . - . m V.}.Y }.m m + @   $ x !.W.h.7.j.n.h.m.w.v.X.Y.z.T.!.Z.+     $ - $ ; ; -     - ; ; - @ @ ; $ ; - - $ $ ",
", { { , % & $ ; -   + $ $ $ ] B ^ ~ + - $ ; `.). +U.8.q..+n.h.m.w.r.l.++..N D W.+ & ; ] $.' * ; + ; ; ;     ; ; $ ;     ;       ",
"% * { % ! & + ; + +   - - $ ] B ] $ ; ; ; ; J.@+C |.k.p.d.m..+h.u.l.N.0.h._.#+| { ; $ $.l ' { + ; + ; +     $ -     ; -     - $ ",
", & & , , & + ; + + - - - . ] B $   ; + + ; $+S C 1.%+p.C.C.C.r.b.b.&+$+*+`.=+| + * + { ' { + + $ ; ; ; ;   ; ; $     $     ; $ ",
"& % W & $ + * + ; ; $     - ; ; + - ; + + ; J.@+;.`.-+;+>+,+'+H )+!+;+~+{+`.#+7 ; # * + + ; * + ; ; ; $ ; ; $ ; - ;   ;   ;   ; ",
"+ % ! & ' + ; + ; ; + + + ; * @ +   + + ; ; `.]+]+^+>+/+(+'+_+:+<+[+/+>+H ..=+}++ ; ; + + { ; $ ; ; ; $ ; ; ; $ ; ; ; ;   -   $ ",
"# * ; ; ; + ; ; ; ; ; ; ; ; + +         ; ; ` ]+).f >+|+<+;+1+2+3+4+|+[+5+V @+T.+ + ; + ; ; + ; ; $ ; ; $ ; ; ;   ; $ ;   $ $ ; ",
"- $ ~ + ; + $ ; ; + ; + * + + + + + ; + ; ; O 6+T.q /+7+8+9+0+a+b+9+c+<+5+1  +d+].; + ; ; ; ; $ ; ; $ ; ; $ ; + ; ; + ; ; $ ; $ ",
"; ; ; ; + + ; ; + ; ; * + * + + + ; ; ; + ; U R./.H 2+e+c+1+;   0+f+g+8+5+U >.M.`.+ { ; ; ; ; $ + ; ; + ; ; + ; ; $ ; ; ; ; ; $ ",
"- . . $ .       ; + ; * ; + ; * & $ + & # $ U O : ^+3+e+|+2+.   h+4+g+e+i+j+P 9 ; + ; ;         ; ; $ ; $ ; ; $ ; $ $ ; ; + + ; ",
". . . . .       + + ~ ' + * * { $ & ; $ $ * ; +     k+e+~+!+.   -+4+e+e+l+m l ; + ; ; $         $ ) Q Q & ; - m+Q @ + ; ; + + + ",
". - . .   .   . ; $ ^ ] $ ; ; $ + + ; * ; ; + + .   3+e+k+n+.   h+k+e+o+l+4 I ;   ; ; ; -       ; @ m+! Q ; & p+Q & ; ; ; ; ; + ",
". $ . . .       ; + ] ] + * ; + & ) & ; ; & ) &     3+7+q+n+    h+q+c+r+s+] $ ;   ; ; $ - $ - - + ; & Q Q ) , , , ; $ + ; + ; ; ",
"  . -     $ -   - ; + + ; ; ; + , W ! $ ~ ! p+Q     3+e+q+n+  - h+3+c+o+l+; - $     $ - - - - $ ; + + # = ! Q ; ; ; * ; * + ; ; ",
"      - .       ; ; - - ; + ; + & = % & & = Q -     t+e+q+n+. ; h+3+c+c+%++ ; ;     -   - $ -   ; ; ; + & = , + + ; # * + + + ; ",
"                    - ;     ; ; + { # ! ! & $ ;     u+|+k+4+    h+3+f+k+; + ; ; - ; ; - - - - - $ ; ; + + & # { * ; ; ; ; + * + ",
"                        - ; ; ; # $ ; m+! ; $ ;   . u+k+k+o+  + h+k+k+v++ ; ; $ $ - $ - - $ - $ + + + ; ; + + ; + + + $ * ; ; ; ",
". B I ] # ; + ; + ; * ; ; + ; ;   ;   ; . .   . ;   u+k+k+o+$ * h+k+k+v+;   $ + >   / +       / + ; ; + + ; * + + ;             ",
"] B ^ $ # + + # * + + ; ; ; ; ; ;   -   - . - . - + u+k+k+o+{ * h+k+k+v+      #           / + + + * ; ;   $   ;   ;           ; ",
"B ] $ . ; { + * * + + { - ; ;   ; ;   - . . . . - + u+k+k+o+* { h+k+k+v+$ ;   /     + /     $ / + + * ; $ $.' @                 ",
"^ ~ - - + + ; ; * ; ; ;     -       -   . . -   ; + u+w+k+x+* * h+k+t+u+; ; /     >       + / + * + ; ; ~ 5 ] +     ;           ",
"] - ; - + ; + $ ] ~ ; ;           ; . .   -   - ; + v+w+k+o+* $ h+k+k+3+3+>   +         + + . . # + + + + ' ~ ;   / .           ",
"$ ; - ; + ; ; ' l ] $   $     ; ;   . ; -   - ;   8+q+b+b+r+* $ y+b+b+z+9++ $ /         . .   . ; + $ ; ; + + @   + / /     / . ",
". - $ + ; ; ; $ ] ~ + +   $   ;   ;   ;     ;   - x+~+3+3+x+& ) h+3+3+3+c+{ + -         . . . . ; + + * ; ; # ; +     + . /     ",
"    + $ + ; ; + ; ; ; ;   +   - -   ; ;   ;   ; ; _+~+[+~+x+% ! -+A+(+A+B+; ~         . $ . . . + * * * + * * + +   + + .     / ",
"$ + ; $ $       ; ; + ; ; ; ; ; .     $ - # ; + + :+5+C+< C+Q ! C+5+< )+)++ + ; .     . $ . . . / X > / / X X / / /   / / / / / ",
"; + ; ; ; +     ; ; # + B m ] ; ] Q.Q.  # $ + # ; D+#.A E+5+; @ < F+A G+5++ + ;     .   . . . + / > X > > / %.W &.  X &.H+Y X   ",
"; { $ ; - +     $ - # $ l m ] # ^ I B   @ + $ # * j+I+I+E+J+$ $ % ( ..w.{+i+; +         . . . . > X > > > > *.&.&./ / &.H+Y X . ",
"+ ] ] $ -   + ; + ; ; ; + ~ ] ] ^ $   $ ; # ; ' ] _+D+K+K+; .     L+K+D+M+M+; + +     . . + + + 4.4.X > > X > Z Y Q &.Y / / . / ",
"{ $.5 $     $ - - + $ ; # ; 5 4 ] - # $ $ @ * 5 B ] + ;       . $ + ; + + +   + +     /     / X 4.4.4.{ > > X > Y W =.Y }.X / + ",
"+ ~ ~ + -   - - ; ; ; ; # + ' 5 ~   - + + + * $ $.{ ; ; . $ .   - + + ; ; + + ; +     + +   / / X X { { > X / > / Y Y / / / / / ",
"+ ; + + - + -     - # ; $ ; ; ; ; + ; # # * ; * * ; # # .     . @ ; + . ;   + ; +   / + / + / > > > > > > > > X / [.X / / / + / ",
"+ * ; ; $         - # + + + * * - ; ; + + $ { + { + +                 ; ; . ; + /   /   + + > / 4.[.> > > > / / / / / + /   X / "};
