/* XPM */
static char * perso1_xpm[] = {
"64 64 258 2",
"  	c #A6D563",
". 	c #A7D568",
"+ 	c #A4D35D",
"@ 	c #ACDB69",
"# 	c #AAD964",
"$ 	c #A0CF5C",
"% 	c #C1F276",
"& 	c #B1E166",
"* 	c #A9DA5E",
"= 	c #BCEC74",
"- 	c #A9D76A",
"; 	c #A8D764",
"> 	c #A6D85E",
", 	c #B9E96F",
"' 	c #9BCB55",
") 	c #B3E36B",
"! 	c #C3F37C",
"~ 	c #9ECD5A",
"{ 	c #A2D357",
"] 	c #98C754",
"^ 	c #95C552",
"/ 	c #06020E",
"( 	c #070112",
"_ 	c #A7D862",
": 	c #08060C",
"< 	c #0C021B",
"[ 	c #090115",
"} 	c #83B33E",
"| 	c #93C34D",
"1 	c #9FD056",
"2 	c #90BF4C",
"3 	c #90C046",
"4 	c #8BBA46",
"5 	c #110522",
"6 	c #150B23",
"7 	c #211730",
"8 	c #291F38",
"9 	c #190F29",
"0 	c #251B33",
"a 	c #2B213A",
"b 	c #11091E",
"c 	c #10061F",
"d 	c #20162F",
"e 	c #1D132A",
"f 	c #180E26",
"g 	c #1A1326",
"h 	c #332844",
"i 	c #281E37",
"j 	c #B8E773",
"k 	c #21192E",
"l 	c #C6F87E",
"m 	c #9FD05A",
"n 	c #AFE06A",
"o 	c #AEE067",
"p 	c #273756",
"q 	c #1B1727",
"r 	c #0F0A19",
"s 	c #B6E570",
"t 	c #BFF079",
"u 	c #B7EA6A",
"v 	c #C7F882",
"w 	c #282134",
"x 	c #1E1A35",
"y 	c #160D2A",
"z 	c #13132D",
"A 	c #241B3B",
"B 	c #210F3A",
"C 	c #110F14",
"D 	c #210E46",
"E 	c #1D334B",
"F 	c #271645",
"G 	c #97C854",
"H 	c #0E0323",
"I 	c #1B0A39",
"J 	c #342A4B",
"K 	c #020004",
"L 	c #96C84F",
"M 	c #7A7785",
"N 	c #8A8794",
"O 	c #282645",
"P 	c #B6B4BA",
"Q 	c #766988",
"R 	c #75717D",
"S 	c #24233C",
"T 	c #193A57",
"U 	c #908D8E",
"V 	c #EBEBED",
"W 	c #D8D8DA",
"X 	c #C8C9CA",
"Y 	c #95949A",
"Z 	c #1E1432",
"` 	c #4A4258",
" .	c #F8F7F8",
"..	c #D8D9E8",
"+.	c #8A95A8",
"@.	c #A3A2AB",
"#.	c #37354B",
"$.	c #1D2639",
"%.	c #A6A4A8",
"&.	c #666276",
"*.	c #556DA6",
"=.	c #7687B9",
"-.	c #4A547B",
";.	c #393552",
">.	c #49ACB8",
",.	c #6AA4AE",
"'.	c #415389",
").	c #6D75AD",
"!.	c #78789C",
"~.	c #868CA4",
"{.	c #9BACD3",
"].	c #C1CCF0",
"^.	c #DEE5F2",
"/.	c #D4DBED",
"(.	c #306E90",
"_.	c #72A5AF",
":.	c #97AAC8",
"<.	c #13042B",
"[.	c #E2E6EE",
"}.	c #677AB5",
"|.	c #89A5D5",
"1.	c #1150A5",
"2.	c #463958",
"3.	c #645487",
"4.	c #656A92",
"5.	c #165078",
"6.	c #A8B7E4",
"7.	c #ACB9D6",
"8.	c #7A95C6",
"9.	c #BCCBED",
"0.	c #C4CBDE",
"a.	c #332D38",
"b.	c #103488",
"c.	c #191A45",
"d.	c #141B3A",
"e.	c #144D8D",
"f.	c #93A9DC",
"g.	c #DAE6EE",
"h.	c #718AB5",
"i.	c #6B85C1",
"j.	c #C9D6E9",
"k.	c #474D77",
"l.	c #C8D6F4",
"m.	c #0A0B2C",
"n.	c #0E0429",
"o.	c #0F134A",
"p.	c #32485B",
"q.	c #314F78",
"r.	c #8298CF",
"s.	c #B0B7DC",
"t.	c #0E0D38",
"u.	c #5A6698",
"v.	c #99CA4D",
"w.	c #14648C",
"x.	c #0D4EC4",
"y.	c #AFCCEA",
"z.	c #C6E7F2",
"A.	c #131232",
"B.	c #3E3A66",
"C.	c #534876",
"D.	c #128EB8",
"E.	c #13789E",
"F.	c #158ADA",
"G.	c #182B45",
"H.	c #E4E8EE",
"I.	c #8CC4EC",
"J.	c #CEE3EF",
"K.	c #173062",
"L.	c #7093D0",
"M.	c #4762B5",
"N.	c #1A4560",
"O.	c #0E0E42",
"P.	c #8095C5",
"Q.	c #5D55C3",
"R.	c #5143AA",
"S.	c #2C366A",
"T.	c #AABCE3",
"U.	c #98A9E5",
"V.	c #C4D1ED",
"W.	c #4C3BB6",
"X.	c #252556",
"Y.	c #B9C5E8",
"Z.	c #433598",
"`.	c #949BC8",
" +	c #7787AB",
".+	c #211153",
"++	c #D4DDF3",
"@+	c #C3CDEA",
"#+	c #E5E9F1",
"$+	c #E1E7F2",
"%+	c #B6C9F4",
"&+	c #37478D",
"*+	c #76B1EE",
"=+	c #ACD0EB",
"-+	c #E4F0F8",
";+	c #335587",
">+	c #261E62",
",+	c #353D85",
"'+	c #32357C",
")+	c #4E3A6B",
"!+	c #EAECF1",
"~+	c #C8CAD9",
"{+	c #1D0D45",
"]+	c #5380CB",
"^+	c #BEEE79",
"/+	c #5A94DC",
"(+	c #2E3373",
"_+	c #2C2B73",
":+	c #A3A9E7",
"<+	c #979DE3",
"[+	c #BCD8D9",
"}+	c #210E52",
"|+	c #CBFB83",
"1+	c #55556A",
"2+	c #333B7C",
"3+	c #8894BA",
"4+	c #82B5BB",
"5+	c #261C5F",
"6+	c #B9B9C6",
"7+	c #536B81",
"8+	c #9AC8CC",
"9+	c #9FB4B7",
"0+	c #2C286D",
"a+	c #3B529D",
"b+	c #B9D6E7",
"c+	c #95A6D7",
"d+	c #9CB5EE",
"e+	c #7994D1",
"f+	c #4F6280",
"g+	c #A2BCF8",
"h+	c #88B744",
"i+	c #BCC4DA",
"j+	c #BCBDE7",
"k+	c #A8A8DE",
"l+	c #8B92E4",
"m+	c #7579D8",
"n+	c #A2A9CA",
"o+	c #B7AAA3",
"p+	c #C4B7AD",
"q+	c #9B8573",
"r+	c #B09B8C",
"s+	c #917F79",
"t+	c #AA9688",
"u+	c #534658",
"v+	c #9D8777",
"w+	c #CEC4BB",
"x+	c #A38D7C",
"y+	c #977D69",
"z+	c #B5A295",
"A+	c #6E5766",
"B+	c #5A4948",
"C+	c #99816E",
"D+	c #8DBC4A",
"E+	c #665A5C",
"F+	c #957B66",
"G+	c #C5F681",
"H+	c #887C79",
"I+	c #1CD8ED",
"      .           +   +   + + + + @ # $ # % % & * & % = @ $ + - ; ;             ; . + + . + + ; ; ; ; + + + + + ; ; $ ; ; ;     ",
"  -   .     ; ;     * # >   * # +     + * # & , % , & ; ; ; ; $ ; ;         .   + . ; . . ; ; + + + ; + ; ; ; ; ; + ; ; ; ;     ",
".   .       +     ; # + $ $ + # ; + + # * ' * ) ! , + ~   @ ; $ ;               . + ; + + + . . ; + + ; ; ; ; + $ + ; ;       ; ",
"  .             ; # * $ { ] { * -     - * $ { & ) & * { + ; + ;                 ; + . . ; . + ; ; + + ; ; + $ ] ~ + ; + $ $     ",
"              +   ; ; $ ] ^ $ $ . . . . ; + + ; ~ + ; * + + + @ .           .   ; . + ; $ . / ( ; + $ ; ; $ ' ^ ~ + ; ; ; $ + ; ",
"  . -   ; - _ _ + + * + { $ + * $ .   $ ; # # $ + * * * + * * ; /               + . . + ;       : ( - + ; ; $ ~ $ + + ; + ; + ; ",
"          +           ; ; + ; ;   . . +   -   $ ; ; + + * * * + ; ;   / / / /   + ; < + ; . ;     ( (   ; ; ; + ; + ; ; + ; + ; ",
"  $ + $ + + + $     ; * ; ;     . - - - - ;   $ + + ; * + + { { + . .           . + . < < [ ; ; + - ( / $   ; ; ; ; + + ; ; ; + ",
"; } }   @ | } ^ + ;   + ; + ; ; . . . . .       # *   [ < < < < < < < [ < [ $ - -   +   [ < < ;   - / (         $ ; # + { ; ; { ",
"$ | ^ +   ] | ^ ; + ; + + ;     / . .   . . .   ;   + * + { 1 2 $ ; ; [ ( [ < < < < ;   .   < [       :         ; ; + + ; + ; ; ",
"+ + $ 3 4 ] +         ;           .     / / . . ; +   + * [ [ < < 5 6 7 8 8 8 8 7 6 < < ; ; ; [ [ $   (         ; $ $ ; ; { { + ",
"# & + 3 } $ # # +                   / ( $ . . . . < < 6 9 0 0 0 0 8 a 7 9 b c d 7 8 8 e f 6 < [ [ [   -         { # & ; { & # + ",
"+ * + + +     $         .   -   ( +       . . < 5 9 e 6 5 g f 6 5 6 5 5 < ( [ 5 5 f 9 d 0 8 7 0 e 7 - .         ; ! % ; { , % & ",
"+ + + ; # * + +                         . < 6 7 d b [ 6 g 5 e 0 a a h a 8 8 i a a 8 0 8 9 9 f g 6 0 a . - -     @ ! ! ; { = ! , ",
"# * + + + + ; ;             .         < 6 d 8 g < < g f f 0 a a a a a 8 a a a a a a a a a 0 8 e 7 < 9 0     [ ; - , j , ) , , & ",
"+ ; ; +       ;                   [ < < < 9 f b f f 6 7 a a a 8 8 8 8 e e e 6 f d k 0 a a 8 0 b d 0 [ [ 6   [ ; ; ] # ! l ) { $ ",
"+ + ;           m . n n _ / _ o n [ < f g g e 0 8 8 a a p a e 6 6 g g g g g 0 0 k k q d d 0 8 d ( r e ( c c <     - - , s - ; ; ",
"    ; ; . ; - ; _ n t t > m u v [ c g g f 0 a a a a 8 7 e c c 9 e g 6 6 0 a a w a a i 0 d g 0 8 f / f d 6 f f [ $ $ ; - - ; + $ ",
"      +         m n t s o _ [ [ [ 6 q c 5 8 a d f c < < 6 e g 6 < 6 g a a a a 0 x d a 0 b k d e 0 g [ ( g d 5 9   + ;   ; + ; ; ",
";   + ;     +   . m < < < [ [ ( < g 6 < d 8 e < < < c f 6 c [ < b g 0 a 0 0 y < z b 0 i q b b A k k a e d i B f q - ; ; ; ; ; ; ",
"o m + _       _ n m m n t e [ ( c g < [ e 0 < 6 g f c < < < < 6 g g w a a 6 < f q g g k 8 0 C D h w E k 0 a F [ g g           $ ",
"1 G G m       _ _ . . n - e c ( f g [ ( e f g f b < < < < c f g f 6 a a a H g e g g g k q w : I h J a E k w B K b q             ",
"G L L 1 $ + $ _ m . . . 0 q c [ g b ( ( e 6 g < ( < b g g g f c 5 0 a a e 6 g c e g b k e g K 5 M N h J N M 9 K c g ;   + -     ",
"1 1 1 + # $   _ . _ . a d g c < g < ( [ d f f [ c g q f 6 5 f e a a a a 6 g < 0 0 q 6 O a 8 K [ P M Q Q R P [ K [ f - $ $       ",
"> * > 1 _ m . _ m . . a f g [ 6 b ( ( b e f r < g g 6 6 7 S T d 8 8 A 9 6 c 6 a 0 w 0 w w h : U V W W X W V Y C c f - - - ;   ; ",
"1 * * > _ m _ . / . a 0 f g < [ ( ( [ e f 6 < f q f e d e S Z e e 5 [ [ < 5 i 8 k e e k q ` W  .V ..+.@. .V V W #.e ] $ ; ;   ; ",
"> > > > _ _ m . . . a d g f < / [ [ 6 e < [ g g g 5 d d e 6 [ < [ [ [ y i a a k k 0 q w S $.%.Y Y %.&.N X Y Y @.f f 4 ~ - ; $ - ",
"> > > m _ . . / . . a 8 e 6 < < < f d < ( < g g f c d 6 [ [ H y e 9 0 J *.=.-.a e w a O ;.O g #.>.,.X X ,.>.#.5 5 ^ ^ $ - ; + ; ",
"> _ +       m / . g 0 a 0 f < 5 9 9 < [ [ g g g < ( f < [ e a '.).!.&.~.{.].^./.Y w k S A (.F i _._.%.%.:.,.E <.<.$ + ; ; ; ; $ ",
"+ _       _ . . . g e a a e c ( [ < < < g g f < ( ( < 5 i a 0 a :./.[.=.}.|./.[.V N g d e J 7 1.h 2.3.4.2.h 5.<.5 $ - ; $ ; - ; ",
"_ + _   _   . . m g f a 0 g f [ 5 6 f g g 6 < 6 e e 0 a a e = p 6./.7.:.8.9.^.0.M 0.a.g k w y b.c.D B D D d.e.<.$ $ ; ; ; ; ; ; ",
"+ _ + _       . . g g 8 0 < f b < [ [ [ ( c 8 a a 8 a 8 d # *.f.g.h.i.f...j./.k.p l.!.m.- $ e b.5.d.n.<.d.5.o.H @ ; $ ; - - $ $ ",
", { { , % & $ ; - f 6 9 0 8 6 5 6 [ ( ( b 8 8 p a k k k p.@ q.r.[.g.7.j.[.[.s.x t.u.y m.v.' * H 1.w.n.<.w.x.n.; $ ;     ;       ",
"% * { % ! & + ; + 5 6 < c d d 5 g f ( [ d 0 f f q q g k ; ; f ; 7.y.g.g.g.z.=.A.B.C.c.v.3 ' { H <.1.D.E.F.o.n.-     ; -     - $ ",
", & & , , & + ; + < f [ [ [ 9 6 < 6 [ 5 O $.< g q G.k g ; + + + i.y.H.I.J.6.}.A.G.B.d.{ ' { + + n.K.F.D.e.t.; ; $     $     ; $ ",
"& % l & $ + * + ; [ < [ [ [ f e < g < 6 e e 6 g b ~ + k ; + + ; }.L.|.8.6.L.M.5.N.O T + + ; * + < H O.O.n.< $ ; - ;   ;   ;   ; ",
"+ % ! & ' + ; + ; [ < + ( ( c e < f < 6 7 6 f f < $ + ; ;     ; ; {.P.s...Q.R.N.z z S.+ + { ; $ ; H 5 H H ; ; $ ; ; ; ;   -   $ ",
"# * ; ; ; + ; ; ; ; < ; ( ( c e < H < 5 7 9 f 6 + + * ;   $   + $ f.T.U.V.W.W.k.6 z X.+ ; ; + ; ; $ ; [ $ ; ; ;   ; $ ;   $ $ ; ",
"- $ ~ + ; + $ ; ; + < + ( ( 5 6 [ < 5 < < 6 6 c [ ; :       $   ; Y.6.U.U.Z.Z.`. +-.x ; ; ; ; $ ; ; $ ; ; $ ; + ; ; + ; ; $ ; $ ",
"; ; ; ; + + ; ; + ; [ * f < < 6 ( ( ( ( [ < 6 6 < + (   ; ; .+.+++V V @+].).Z.Z.@+ +k ; ; ; ; $ + ; ; + ; ; + ; ; $ ; ; ; ; ; $ ",
"- . . $ .     ( ; + ; * g f c 6 [ / / / ( < < 6 c           . .+#+#+9.$+s.%+}.}.++H.#.;         ; ; $ &+*+*+=+l.-+$ $ ; ; + + ; ",
". . . . .     / + + ~ ' + g c 6 c [ ( / [ [ [ A.p ;+>+,+'+.+. )+!+l. +~+..i.=.r.@+V ; $   [ {+  $ .+,+]+& ; - ^+j @ + ; ; + + + ",
". - . .   .   . ; $ ^ ] $ g g 6 5 < [ [ < [ 6 :.*+/+(+O .+&+_+=.$+Y.[ - :+<+T.f.T.[+j.; -   }+y M._+,+! j ; & |+j & ; ; ; ; ; + ",
". $ . . .       ; + ] ] + g g q f c c < < [ 1++.x H [ r A.X.2++.V 3+] -.U.<+++9.h.X 4+$.- $ c.5+,+(+& j j ) , , , ; $ + ; + ; ; ",
"  . -     $ -   - : + + ; ; < 6 f f g f f f h b ( ( ( [ A.A ;.6+H.h.7+9.Y./.%+l./.8+9+x z $.E 0+.++ + a+]+*+=+J.; ; * ; * + ; ; ",
"      - .       ; ( - - ; + c < < [ ( ( ( [ < [ b < < 4.L.S._+6+g.k.+.9.#+l.^.%+b+9.W p.E 5.S.d.2+_+'+5+& = , + + ; # * + + + ; ",
"                  ( / ;     ; 0 d c ( [ c 6 5 c g < ;.1+A.5 7 c+l.:.-.{.Y.d+%+y.T.=.7+N.T ;+;+o.0+'+}++ + & # { * ; ; ; ; + * + ",
"                        - ; ; ; a a 0 e g g 6 g 6 < c < e a O e+U.e+p.f+V.U.g+U.j.3+q.T q.N.G.$.5 H + ; ; + + ; + + + $ * ; ; ; ",
". 2 h+] # ; + ; + ; * ; ; + ; ;   a a a a a 8 0 9 0 8 8 7 5 < -.i.u.G.Y $+%+U.9.H.i+3++ G.E   / + [ ; [ + ; * + + ;             ",
"] 2 ^ $ # + + # * + + ; ; ; ; ; ;   -   i d d d f 6 6 c [ ( < e 6 H [ @.j+$+  %+#+s.      _ + + + * ; ;   $   ;   ;           ; ",
"2 ] $ . ; { + * * + + { - ; ;   ; ;   - . . . . - + < < ( [ [ [ < < e k+j+:+  <+<+  + _     $ _ + + * ; $ v.' @                 ",
"^ ~ - - + + ; ; * ; ; ;     -       -   . . -   ; + + ; { { * * + + # %+l+; l.<+m+>       + _ + * + : ; ~ | ] +     ;           ",
"] - ; - + ; + $ ] ~ ; ;           ; . .   -   - ; + ; # * * * $ $ * /.l+> > ].:+        + + . . # + + + + ' ~ ;   _ .           ",
"$ ; - ; + ; ; ' 3 ] $   $     ; ;   . ; -   - ;   + + # $ $ * $ * i+V 0.+ 7.[...s.      . .   . ; + $ ; ; + + @   + _ _     _ . ",
". - $ + ; ; ; $ ] ~ + +   $   ;   ;   ;     ;   - $ + + { ; & ) P ~+3+n+o+i+@+n+n+      . . . . ; + + * ; ; # ; +     + . _     ",
"    + $ + ; ; + ; ; ; ;   +   - -   ; ;   ;   ; ; + + ; * p+q+r+s+!.)+C.t+Y 3.C.u+v+w+x+$ . . . + * * * + * * + +   + + .     _ ",
"$ + ; $ $       ; ; + ; ; ; ; ; .     $ - # ; + + + ;     x+y+z+x+A+)+2.2.q+2.0 e B+q+p+C+v+. . _ m > _ _ m m _ _ _   _ _ _ _ _ ",
"; + ; ; ; +     ; ; # + 2 4 ] ; ] D+D+  # $ + # ; ; + + +   q+x+y+E+d e w z+U B+E+v+x+v+F+v+. + _ > m > > _ s l t   m t G+n m   ",
"; { $ ; - +     $ - # $ 3 4 ] # ^ h+2   @ + $ # *           q+x+F+x+H+H+r+r+F+F+F+F+C+q+. . . . > m > > > > u t t _ _ t G+n m . ",
"+ ] ] $ -   + ; + ; ; ; + ~ ] ] ^ $   $ ; # ; ' ] { $ ; ; ; .   v+y+y+y+F+y+C+y+v+    . . + + + L L m > > m > o n j t n _ _ . _ ",
"{ v.| $     $ - - + $ ; # ; | } ] - # $ $ @ * | 2 ] + ;       . $ + ; + + +   + +     _     _ m L L L { > > m > n l v n G m _ + ",
"+ I+~ + -   - - ; ; ; ; # + ' | ~   - + + + * $ v.{ ; ; . $ .   - + + ; ; + + ; +     + +   _ _ m m { { > m _ > _ n n _ _ _ _ _ ",
"+ ; + + - + -     - # ; $ ; ; ; ; + ; # # * ; * * ; # # .     . @ ; + . ;   + ; +   _ + _ + _ > > > > > > > > m _ 1 m _ _ _ + _ ",
"+ * ; ; $         - # + + + * * - ; ; + + $ { + { + +                 ; ; . ; + _   _   + + > _ L 1 > > > > _ _ _ _ _ + _   m _ "};
