/* XPM */
static char * perso_left_xpm[] = {
"64 64 254 2",
"  	c #A6D563",
". 	c #A7D568",
"+ 	c #A4D35D",
"@ 	c #ACDB69",
"# 	c #AAD964",
"$ 	c #A0CF5C",
"% 	c #C1F276",
"& 	c #B1E166",
"* 	c #A9DA5E",
"= 	c #BCEC74",
"- 	c #A9D76A",
"; 	c #A8D764",
"> 	c #A6D85E",
", 	c #B9E96F",
"' 	c #9BCB55",
") 	c #B3E36B",
"! 	c #C3F37C",
"~ 	c #9ECD5A",
"{ 	c #A2D357",
"] 	c #98C754",
"^ 	c #95C552",
"/ 	c #A7D862",
"( 	c #4F4343",
"_ 	c #654736",
": 	c #A78473",
"< 	c #9C8478",
"[ 	c #7B645E",
"} 	c #996855",
"| 	c #A07766",
"1 	c #957469",
"2 	c #8A6758",
"3 	c #9A7364",
"4 	c #CA9B82",
"5 	c #D4A289",
"6 	c #BB8C74",
"7 	c #BF7F5D",
"8 	c #BC8569",
"9 	c #A9775E",
"0 	c #79594B",
"a 	c #83B33E",
"b 	c #93C34D",
"c 	c #845D52",
"d 	c #C28669",
"e 	c #C98664",
"f 	c #BB8468",
"g 	c #8B6148",
"h 	c #7E6056",
"i 	c #C49C8C",
"j 	c #C98C6A",
"k 	c #C48566",
"l 	c #946453",
"m 	c #5E423B",
"n 	c #90C046",
"o 	c #8BBA46",
"p 	c #978481",
"q 	c #C28D77",
"r 	c #DDA081",
"s 	c #C69478",
"t 	c #B57E62",
"u 	c #B4785D",
"v 	c #A0654E",
"w 	c #755A55",
"x 	c #594746",
"y 	c #B68C86",
"z 	c #A2795D",
"A 	c #845A49",
"B 	c #96654B",
"C 	c #935C49",
"D 	c #83645B",
"E 	c #8B7676",
"F 	c #846A6C",
"G 	c #B78778",
"H 	c #CFB197",
"I 	c #F7D7BB",
"J 	c #BA947F",
"K 	c #7E5345",
"L 	c #885F58",
"M 	c #987468",
"N 	c #775555",
"O 	c #90BF4C",
"P 	c #A26D5A",
"Q 	c #C5AB99",
"R 	c #C7A689",
"S 	c #704D49",
"T 	c #665356",
"U 	c #88B744",
"V 	c #956F61",
"W 	c #EAC7B3",
"X 	c #87715B",
"Y 	c #655B4C",
"Z 	c #DEC7A5",
"` 	c #FDE0BB",
" .	c #F4CAA9",
"..	c #654C56",
"+.	c #574754",
"@.	c #B8E773",
"#.	c #B69D94",
"$.	c #D6B4A6",
"%.	c #250F0C",
"&.	c #9C988C",
"*.	c #9A856E",
"=.	c #FDDCBC",
"-.	c #D5A995",
";.	c #C6F87E",
">.	c #9FD05A",
",.	c #AFE06A",
"'.	c #AEE067",
").	c #B7A297",
"!.	c #C2A192",
"~.	c #FCDBC6",
"{.	c #E6D9C1",
"].	c #E8C8A8",
"^.	c #A97E76",
"/.	c #7F6363",
"(.	c #99CA4D",
"_.	c #B6E570",
":.	c #BFF079",
"<.	c #B7EA6A",
"[.	c #C7F882",
"}.	c #AD9592",
"|.	c #B4968C",
"1.	c #E5BEAA",
"2.	c #FDDCC4",
"3.	c #FDE3C9",
"4.	c #A77D6A",
"5.	c #5A3D34",
"6.	c #9C755F",
"7.	c #BEF075",
"8.	c #C9ABA6",
"9.	c #F0CAB8",
"0.	c #D19C82",
"a.	c #9FD056",
"b.	c #97C854",
"c.	c #9A7675",
"d.	c #A6A1AD",
"e.	c #BAC2CC",
"f.	c #96C84F",
"g.	c #A99DAB",
"h.	c #CBBAC3",
"i.	c #C79490",
"j.	c #D8BFC9",
"k.	c #DDDBEA",
"l.	c #DFEAF3",
"m.	c #8B8696",
"n.	c #D8CFDB",
"o.	c #DBD4DD",
"p.	c #DCD2D2",
"q.	c #F2EDF5",
"r.	c #F5F8FE",
"s.	c #EAE9EE",
"t.	c #C2C6C8",
"u.	c #817E90",
"v.	c #DBD4E3",
"w.	c #EEECF2",
"x.	c #F2EDFA",
"y.	c #F6F6FB",
"z.	c #FCF8FE",
"A.	c #E7DEE6",
"B.	c #B1ACB8",
"C.	c #F9F7FD",
"D.	c #F5E1E8",
"E.	c #E8CCDA",
"F.	c #C1B0B4",
"G.	c #9E9BA8",
"H.	c #E7E5F1",
"I.	c #F7F7F7",
"J.	c #CCA3A4",
"K.	c #A78B89",
"L.	c #E0DCE9",
"M.	c #F5F5F5",
"N.	c #F9F9F4",
"O.	c #DEB0B0",
"P.	c #E0AAA1",
"Q.	c #AD8B83",
"R.	c #E6E3ED",
"S.	c #ECB89E",
"T.	c #E1A98F",
"U.	c #8DBC4A",
"V.	c #BDBBC6",
"W.	c #EEF2FA",
"X.	c #D3D4F5",
"Y.	c #E3CEE9",
"Z.	c #AE9289",
"`.	c #B99C83",
" +	c #85B541",
".+	c #DCDAE1",
"++	c #F2F3EE",
"@+	c #DDCBEA",
"#+	c #B29491",
"$+	c #B8A386",
"%+	c #D6D2EC",
"&+	c #484453",
"*+	c #443948",
"=+	c #6F6583",
"-+	c #6C657E",
";+	c #775E65",
">+	c #F4CFC0",
",+	c #322C3A",
"'+	c #4A445B",
")+	c #412A21",
"!+	c #EACCBF",
"~+	c #32323D",
"{+	c #4B4A5D",
"]+	c #343443",
"^+	c #2E313E",
"/+	c #3D3C52",
"(+	c #675A61",
"_+	c #A89A8C",
":+	c #262B3B",
"<+	c #42425A",
"[+	c #585669",
"}+	c #2B2B3A",
"|+	c #3F4055",
"1+	c #645C77",
"2+	c #3A3647",
"3+	c #61617B",
"4+	c #37313A",
"5+	c #BEEE79",
"6+	c #3B3A49",
"7+	c #CBFB83",
"8+	c #35354A",
"9+	c #312F45",
"0+	c #5F5F7B",
"a+	c #4D4E61",
"b+	c #5F6065",
"c+	c #474762",
"d+	c #453E56",
"e+	c #2F3344",
"f+	c #3C4262",
"g+	c #3B3F60",
"h+	c #3C405F",
"i+	c #47413C",
"j+	c #3B3F5A",
"k+	c #57473B",
"l+	c #4A3A3A",
"m+	c #6D665B",
"n+	c #5D472F",
"o+	c #64482B",
"p+	c #5E3E25",
"q+	c #54351A",
"r+	c #54505C",
"s+	c #89857B",
"t+	c #ACA69A",
"u+	c #65533D",
"v+	c #A9815E",
"w+	c #845B3B",
"x+	c #613F1C",
"y+	c #6D6C69",
"z+	c #C4B1AD",
"A+	c #3C2B29",
"B+	c #C5F681",
"C+	c #7E847E",
"D+	c #8B8B88",
"E+	c #938B81",
"      .           +   +   + + + + @ # $ # % % & * & % = @ $ + - ; ;             ; . + + . + + ; ; ; ; + + + + + ; ; $ ; ; ;     ",
"  -   .     ; ;     * # >   * # +     + * # & , % , & ; ; ; ; $ ; ;         .   + . ; . . ; ; + + + ; + ; ; ; ; ; + ; ; ; ;     ",
".   .       +     ; # + $ $ + # ; + + # * ' * ) ! , + ~   @ ; $ ;               . + ; + + + . . ; + + ; ; ; ; + $ + ; ;       ; ",
"  .             ; # * $ { ] { * -     - * $ { & ) & * { + ; + ;                 ; + . . ; . + ; ; + + ; ; + $ ] ~ + ; + $ $     ",
"              +   ; ; $ ] ^ $ $ . . . . ; + + ; ~ + ; * + + + @ .           .   ; . + ; $ .     ; + $ ; ; $ ' ^ ~ + ; ; ; $ + ; ",
"  . -   ; - / / + + * + { $ + * $ .   $ ; # # $ + * * * + * * ( _               + . . + ;       ; + - + ; ; $ ~ $ + + ; + ; + ; ",
"          +           ; ; + ; ;   . . +   -   $ ; ; + + * : < [ } | 1 2         + ; ; + ; . ;     + -   ; ; ; + ; + ; ; + ; + ; ",
"  $ + $ + + + $     ; * ; ;     . - - - - ;   $ + + [ 1 3 4 5 6 7 8 9 } 0       . + . . ; + ; ; + - +   $   ; ; ; ; + + ; ; ; + ",
"; a a   @ b a ^ + ;   + ; + ; ; . . . . .       # *   c 6 d d 8 e e d f g h $ - -   +   ;     ;   -             $ ; # + { ; ; { ",
"$ b ^ +   ] b ^ ; + ; + + ;       . .   . . .   ;   < i 5 j 7 j e k k d } l m ;     ;   .     $                 ; ; + + ; + ; ; ",
"+ + $ n o ] +         ;           .     . . . . ; + p 3 q r j s 4 f t u v } 2 w $ ; -   ; ; ;   - $   -         ; $ $ ; ; { { + ",
"# & + n a $ # # +                   .   $ . . . .   x y l t 8 z 2 A B l C l A 2 D + $   ; ; ; - - -   -         { # & ; { & # + ",
"+ * + + +     $         .   -     +       . . $ . E F 2 G 9 g H I J K K c L M N [ ] O $ - ; ; ;   - - .         ; ! % ; { , % & ",
"+ + + ; # * + +                         . . . . . . m K P s I Q R I : 0 S N w T ; O U ~ - ; $   - $ . . - -     @ ! ! ; { = ! , ",
"# * + + + + ; ;             .             . . . . . T w V W X Y Z `  .} 2 N ..+.] ] ] +   ;     $ . . $     + ; - , @., ) , , & ",
"+ ; ; +       ;                   $           . .     #.: $.%.&.*.` =.s -.F +.O o $ -   $ ; ;   - . . -     ; ; ; ] # ! ;.) { $ ",
"+ + ;           >.. ,.,./ / / '.,./ $ . . / >./ $   # ).!.~.*.{.].`  .5 ^./.T ' (.$ + + + ; ; +     - $           - - , _.- ; ; ",
"    ; ; . ; - ; / ,.:.:.> >.<.[.,.. $   - / + > * * * }.|.1.2.3.=.].-.4.5.N $ $ $ + ; ; * ; * +       -         $ $ ; - - ; + $ ",
"      +         >.,.:._.'./ <.:.,.. .   . + / > * + $ { D W 3.=. .4 6.X ; ; $ + ; ; ; + ~ + ; ;             $ -   + ;   ; + ; ; ",
";   + ;     +   . >./ ,.7.7.<.> ,.. .   / / + > + { ^ ] E 8.9.].0.4.: ; + ; ; ; + ; ; ~ (.(.{ +         -   -   - - ; ; ; ; ; ; ",
"'.>.+ /       / ,.>.>.,.:.:.,.>.- .     / / $ / ; $ b ] + E 3 B P M ;   ; $ ; ; + ; $ ] (.] + ;                   $           $ ",
"a.b.b.>.      / / . . ,.- / ,./ / . .   . $ $ / ; + $ { + }.D 6 G c.d.e.; ; ; ; + ; ; + ' $ ; ;         -       $               ",
"b.f.f.a.$ + $ / >.. . . . b.>..   .         / / ; * * ; g.h.$.1.i.j.k.l.e.+ ; + ; ; ; ; $ ; - ;                 - ; ;   + -     ",
"a.a.a.+ # $   / . / . . . ,.. >.                + + ; ; m.n.o.p.j.q.r.r.s.t.+ ; $ ; ; ; ; ; ; $                     - $ $       ",
"> * > a./ >.. / >.. . . . . . >.-   $ - -       ; $ $ / u.v.q.w.x.r.y.z.A.B.+ ; $ ; ; ; + ;         - ; ; - -     - - - - ;   ; ",
"a.* * > / >./ . . . . >.>.>.. .       /           + ; @ d.x.C.C.z.w.A.D.E.F.; $ ; ; ; $ ; +     ; + ; $ $ ] $ - ; ] ] $ ; ;   ; ",
"> > > > / / >.. . . . . >.. / /             .     ; / $ G.H.H.s.I.s.E J.J.K.; + $ ;     ; ; +           ] o ^   $ O o ~ - ; $ - ",
"> > > >./ . . . . . . . / . / /   / -       -   ; @ + $ G.L.L.M.N.q.F O.P.Q.# $         ; + ;       ;   $ O ^ $ $ ^ ^ $ - ; + ; ",
"> / +       >.. . >.. . . / . / + / /       .   $ ;   ) d.R.w.I.N.w.F.y S.G ; $ + ; ;         -         +   ] O ] $ + ; ; ; ; $ ",
"+ /       / . . . . >.. . >.>./ + >.$ + .     . . ; ; ) d.y.y.I.I.x.E.^.T.J ; +         - -     $     $ ; - $ o O $ - ; $ ; - ; ",
"/ + /   /   . . >.. . . b.U.>./ ~ b b.+ -   . . - $   > V.s.y.N.W.X.Y.Z.S.`.; ; ;     ; . .             ;     ] $ $ ; ; ; ; ; ; ",
"+ / + /       . . . - . o  +b.,.b.o o + @   $ -   $ ; - .+.+C.++k.X.@+#+=.$+$ ; +     $ - $ ; ; -     - ; ; - @ @ ; $ ; - - $ $ ",
", { { , % & $ ; -   + $ $ $ ] O ^ ~ + - $ ; ; ; @ ; + + o..+q.k.%+X.v.Z.2.!.+ ; + & ; ] (.' * ; + ; ; ;     ; ; $ ;     ;       ",
"% * { % ! & + ; + +   - - $ ] O ] $ ; ; ; ; ; + + ; ; ; ; v.L.%+X.X.n.Z.~.|.* + { ; $ (.n ' { + ; + ; +     $ -     ; -     - $ ",
", & & , , & + ; + + - - - . ] O $   ; + + ; + $ ~ $ ; @ ; &+m.*+=+-+;+Z.>+|.; + + * + { ' { + + $ ; ; ; ;   ; ; $     $     ; $ ",
"& % ;.& $ + * + ; ; $     - ; ; + - ; + + ; + ~ b ~ + ; ; &+,+'+'+*+)+!.!+K.; + ; # * + + ; * + ; ; ; $ ; ; $ ; - ;   ;   ;   ; ",
"+ % ! & ' + ; + ; ; + + + ; * @ +   + + ; ; + ~ ] $ + ; ; ~+{+'+..T 2 ~.Q.#.; + + ; ; + + { ; $ ; ; ; $ ; ; ; $ ; ; ; ;   -   $ ",
"# * ; ; ; + ; ; ; ; ; ; ; ; + +         ; ; ; + + + * ;   ]+{+{+T D ].3.< ; ; ; + + ; + ; ; + ; ; $ ; ; $ ; ; ;   ; $ ;   $ $ ; ",
"- $ ~ + ; + $ ; ; + ; + * + + + + + ; + ; ; ; + ; ;       ~+^+/+(+).I I _+; { ; + ; + ; ; ; ; $ ; ; $ ; ; $ ; + ; ; + ; ; $ ; $ ",
"; ; ; ; + + ; ; + ; ; * + * + + + ; ; ; + ;   +   +     ; ~+:+<+[+8.$.Q ).+ ; + ; + { ; ; ; ; $ + ; ; + ; ; + ; ; $ ; ; ; ; ; $ ",
"- . . $ .       ; + ; * ; + ; * & $ + & # $ $ ;           ]+}+|+1+;+c x ; @ @ ; ; + ; ;         ; ; $ ; $ ; ; $ ; $ $ ; ; + + ; ",
". . . . .       + + ~ ' + * * { $ & ; $ $ * ; +           2+}+<+3+1++.4+$ o n ; + ; ; $         $ ) @.@.& ; - 5+@.@ + ; ; + + + ",
". - . .   .   . ; $ ^ ] $ ; ; $ + + ; * ; ; + + .         6+]+/+3+3+{+]+~ a U ;   ; ; ; -       ; @ 5+! @.; & 7+@.& ; ; ; ; ; + ",
". $ . . .       ; + ] ] + * ; + & ) & ; ; & ) &           6+8+9+3+3+{+]+^ ] $ ;   ; ; $ - $ - - + ; & @.@.) , , , ; $ + ; + ; ; ",
"  . -     $ -   - ; + + ; ; ; + , ;.! $ ~ ! 7+@.    .   . 6+2+8+3+3+{+]+n ; - $     $ - - - - $ ; + + # = ! @.; ; ; * ; * + ; ; ",
"      - .       ; ; - - ; + ; + & = % & & = @.-       .   ]+]+9+3+3+{+]+' + ; ;     -   - $ -   ; ; ; + & = , + + ; # * + + + ; ",
"                    - ;     ; ; + { # ! ! & $ ;     .   . [+~+}+0+3+a+]+; + ; ; - ; ; - - - - - $ ; ; + + & # { * ; ; ; ; + * + ",
"                        - ; ; ; # $ ; 5+! ; $ ;   . $     b+~+:+c+[+<+~++ ; ; $ $ - $ - - $ - $ + + + ; ; + + ; + + + $ * ; ; ; ",
". O U ] # ; + ; + ; * ; ; + ; ;   ;   ; . .   . ;   ; + (.b+~+:+<+<+|+]+;   $ + >   / +       / + ; ; + + ; * + + ;             ",
"] O ^ $ # + + # * + + ; ; ; ; ; ;   -   - . - . - + + $ (.b+~+}+<+<+|+2+      #           / + + + * ; ;   $   ;   ;           ; ",
"O ] $ . ; { + * * + + { - ; ;   ; ;   - . . . . - + ; + { &+~+,+d+d+&+~+$ ;   /     + /     $ / + + * ; $ (.' @                 ",
"^ ~ - - + + ; ; * ; ; ;     -       -   . . -   ; + + ; { }+~+}+'+'+/+2+; ; /     >       + / + * + ; ; ~ b ] +     ;           ",
"] - ; - + ; + $ ] ~ ; ;           ; . .   -   - ; + ; # * }+e+:+f+g+h+8+> >   +         + + . . # + + + + ' ~ ;   / .           ",
"$ ; - ; + ; ; ' n ] $   $     ; ;   . ; -   - ;   + + # i+4+^+:+h+f+g+j++ + $ /         . .   . ; + $ ; ; + + @   + / /     / . ",
". - $ + ; ; ; $ ] ~ + +   $   ;   ;   ;     ;   - $ + k+Y x l+4+&+/+c+|+a+{ + -         . . . . ; + + * ; ; # ; +     + . /     ",
"    + $ + ; ; + ; ; ; ;   +   - -   ; ;   ;   ; ; m+Y n+o+p+q+2 m l+l+*+r+; ~         . $ . . . + * * * + * * + +   + + .     / ",
"$ + ; $ $       ; ; + ; ; ; ; ; .     $ - # ; + + s+t+u+q+q+v+w+x+o+)+l+x + + ; .     . $ . . . / >.> / / >.>./ / /   / / / / / ",
"; + ; ; ; +     ; ; # + O o ] ; ] U.U.  # $ + # ; ; y+Y z+X 0 w+o+_ k+A+* + + ;     .   . . . + / > >.> > / _.;.:.  >.:.B+,.>.  ",
"; { $ ; - +     $ - # $ n o ] # ^ U O   @ + $ # *     C+t.t+).`.$+_+&.b+{ + ; +         . . . . > >.> > > > <.:.:./ / :.B+,.>.. ",
"+ ] ] $ -   + ; + ; ; ; + ~ ] ] ^ $   $ ; # ; ' ] { $ ; D+D+E+E+s+E+D++ $ ; ; + +     . . + + + f.f.>.> > >.> '.,.@.:.,./ / . / ",
"{ (.b $     $ - - + $ ; # ; b a ] - # $ $ @ * b O ] + ;       . $ + ; + + +   + +     /     / >.f.f.f.{ > > >.> ,.;.[.,.b.>./ + ",
"+ ~ ~ + -   - - ; ; ; ; # + ' b ~   - + + + * $ (.{ ; ; . $ .   - + + ; ; + + ; +     + +   / / >.>.{ { > >./ > / ,.,./ / / / / ",
"+ ; + + - + -     - # ; $ ; ; ; ; + ; # # * ; * * ; # # .     . @ ; + . ;   + ; +   / + / + / > > > > > > > > >./ a.>./ / / + / ",
"+ * ; ; $         - # + + + * * - ; ; + + $ { + { + +                 ; ; . ; + /   /   + + > / f.a.> > > > / / / / / + /   >./ "};
