/* XPM */
static char *perso2[] = {
/* columns rows colors chars-per-pixel */
"64 64 203 2 ",
"   c #020004",
".  c #06020E",
"X  c #08060C",
"o  c #070112",
"O  c #090115",
"+  c #0C021B",
"@  c #0F0A19",
"#  c #10061F",
"$  c #11091E",
"%  c #110F14",
"&  c #0E0323",
"*  c #0E0429",
"=  c #0A0B2C",
"-  c #110522",
";  c #150B23",
":  c #180E26",
">  c #160D2A",
",  c #190F29",
"<  c #13042B",
"1  c #1A1426",
"2  c #1D132A",
"3  c #13132D",
"4  c #171735",
"5  c #120C38",
"6  c #20162F",
"7  c #21192E",
"8  c #210F3A",
"9  c #211730",
"0  c #251B33",
"q  c #281E37",
"w  c #291F38",
"e  c #241B3B",
"r  c #1D2639",
"t  c #282134",
"y  c #2B213A",
"u  c #24233C",
"i  c #332D38",
"p  c #0E0E42",
"a  c #0F134A",
"s  c #1A1745",
"d  c #210E46",
"f  c #210E52",
"g  c #211153",
"h  c #261C5F",
"j  c #271645",
"k  c #182B45",
"l  c #1D334B",
"z  c #193A57",
"x  c #282645",
"c  c #332844",
"v  c #342A4B",
"b  c #37354B",
"n  c #393552",
"m  c #263256",
"M  c #261E62",
"N  c #2C2B73",
"B  c #2E3373",
"V  c #32377C",
"C  c #31336A",
"Z  c #173062",
"A  c #463958",
"S  c #4E3A6B",
"D  c #32485B",
"F  c #1A4560",
"G  c #165078",
"H  c #314F78",
"J  c #544750",
"K  c #665A5C",
"L  c #4A547B",
"P  c #4F4D73",
"I  c #6B6778",
"U  c #6E5766",
"Y  c #957B66",
"T  c #977D69",
"R  c #8B7D79",
"E  c #83B33E",
"W  c #8BBA47",
"Q  c #90BF4C",
"!  c #99816E",
"~  c #9C8675",
"^  c #A38D7C",
"/  c #90C046",
"(  c #96C84F",
")  c #95C64D",
"_  c #95C552",
"`  c #98C754",
"'  c #97C854",
"]  c #9ECD5A",
"[  c #9BCB55",
"{  c #9FD056",
"}  c #9FD05A",
"|  c #A0CF5C",
" . c #A2D357",
".. c #A4D35D",
"X. c #A6D85E",
"o. c #A9DA5E",
"O. c #A6D563",
"+. c #A8D764",
"@. c #A7D862",
"#. c #AAD964",
"$. c #A7D568",
"%. c #A9D76A",
"&. c #ACDB69",
"*. c #AEE067",
"=. c #AFE06A",
"-. c #B1E166",
";. c #B9E96F",
":. c #B4E56B",
">. c #B8E773",
",. c #BAEA73",
"<. c #BFF079",
"1. c #C1F276",
"2. c #C6F87E",
"3. c #C3F37C",
"4. c #353D85",
"5. c #103488",
"6. c #433598",
"7. c #4C3BB6",
"8. c #36508D",
"9. c #146B92",
"0. c #1150A5",
"q. c #1D588E",
"w. c #645487",
"e. c #55678A",
"r. c #75728E",
"t. c #4E68AE",
"y. c #6979B3",
"u. c #494B9A",
"i. c #0D4EC4",
"p. c #5D55C3",
"a. c #7579D8",
"s. c #128EB8",
"d. c #7687B9",
"f. c #718AB5",
"g. c #7787AB",
"h. c #49ACB8",
"j. c #6AA4AE",
"k. c #72A5AF",
"l. c #158ADA",
"z. c #5380CB",
"x. c #5A94DC",
"c. c #6B85C1",
"v. c #7493D0",
"b. c #7A95C6",
"n. c #76B1EE",
"m. c #1CD8ED",
"M. c #908D8E",
"N. c #95949A",
"B. c #8A8794",
"V. c #B09B8C",
"C. c #AA9688",
"Z. c #B5A295",
"A. c #8894BA",
"S. c #8993A7",
"D. c #91B5B9",
"F. c #A5A3A9",
"G. c #B6B2B4",
"H. c #C4B7AD",
"J. c #C7F882",
"K. c #CEC4BB",
"L. c #8197CC",
"P. c #949BC8",
"I. c #96AAD8",
"U. c #93A9CC",
"Y. c #A2A9CA",
"T. c #ACB9D6",
"R. c #B0B7DC",
"E. c #B3B3CE",
"W. c #979DE3",
"Q. c #8B92E4",
"!. c #98A9E5",
"~. c #9CB5EE",
"^. c #A8B7E4",
"/. c #AABCE3",
"(. c #ABB3EA",
"). c #BCC4DA",
"_. c #BCD8D9",
"`. c #AFCCEA",
"'. c #BBC9EB",
"]. c #ACD0EB",
"[. c #B6C9F4",
"{. c #B9D6E7",
"}. c #93C6DC",
"|. c #C6CBDC",
" X c #D8D8DA",
".X c #C8C9CA",
"XX c #C3CDEA",
"oX c #C7D4EA",
"OX c #D8D9E8",
"+X c #D4DBED",
"@X c #C1CCF0",
"#X c #C8D6F4",
"$X c #D4DDF3",
"%X c #CEE3EF",
"&X c #DAE6EE",
"*X c #DEE5F2",
"=X c #C6E7F2",
"-X c #E2E6EE",
";X c #EBEBED",
":X c #E4E8EE",
">X c #E1E7F2",
",X c #E6EAF1",
"<X c #F1F5F8",
/* pixels */
"O.O.+.+.+.| +.+...........+.+.+.+.....$.....$.+.O.O.O.O.O.O.+.+.%...| &.,.1.-.o.-.1.1.#...#.&.........O...O...O.O.O.O.O.$.O.O.O.",
"O.O.+.+.+.+...+.+.+.+.+...+.......+.+.$.$.+.$...O.$.O.O.O.O.+.+.| +.+.+.+.-.;.1.;.-.@.o...O.O...#.o.O.X.#.o.O.O.+.+.O.O.$.O.%.O.",
"+.O.O.O.+.+...| ..+.+.+.+.....+.$.$.......+...$.O.O.O.O.O.O.O.+.| +.&.O.] ..;.3.:.@.[ o.#.....+.#...| | ..#.+.O.O...O.O.O.$.O.$.",
"O.O.| | ..+...] ` | ..+.+.....+.+...$.+.$.$...+.O.O.O.O.O.O.O.O.+...+... .o.-.:.-. .] o.%.O.O.%.o. .`  .| o.#.+.O.O.O.O.O.O.$.O.",
"+...| +.+.+...] _ [ | +.+.| ..+.o . $.| +...$.+.O.$.O.O.O.O.O.$.&.......o.+...] +.O...+.$.$.$.$.| | _ ` | +.+.O...O.O.O.O.O.O.O.",
"+...+...+.....| ] | +.+...%.o X O.O.O.+...$.$...O.O.O.O.O.O.O.. +.o.o...o.o.o...] #.#.+.] +.$.] o...|  ...o.....@.O.%.+.O.%.$.O.",
"+...+...+.+...+...+.+.+.O.o o O.O.+.$.+...+ +...O.. . . . O.+.+...o.o.o.....+.+.] +.%.+...$.$.O.+.+...+.+.O.O.O.O.O...O.O.O.O.O.",
"..+.+.+.....+.+.+.+.O.| . o %...+.+.O + + $...$.O.O.O.O.O.$.$... . .....o.+.....] +.+.%.%.%.%.$.O.O.+.+.o.+.O.O.| ......| ..| O.",
" .+.+. ...#.+.| O.O.O.O.o . %.O.+.+ + O O...O.%.%.| O + O + + + + + + + O +.X.#.O.O.O.$.$.$.$.$.+.+...+...O.+..._ E ) &.O.E E +.",
"+.+...+.....+.+.O.O.O.O.X O.O.O.O + O.%.O.#.+ + + + O o O #.#.| Q  . ...o...O.+.O.$.$.$.O.$.$.. O.O.+.....+...+._ ) ` O..._ ) | ",
".. . .+.+.| | +.O.O.O.O.o O.| O O +.+.+.+ + ; 9 w w w w 6 ; - + + O O o...+...+.$.$.. . O.O.$.O.O.O.O.O.+.O.O.O.O...` W Q | | ..",
"..#.-. .+.-.#. .O.O.O.O.%.O.O O O + ; : 2 q q 9 6 # $ , 9 y w 0 0 0 0 , ; + + $.$.$.$.] o . O.O.O.O.O.O.O.O.O.| @.#.| E Q ..-.#.",
"-.1.;. .+.1.3.+.O.O.O.O.$.%.9 2 0 9 w 0 6 , : - - O o + - - ; - ; : 1 - ; 2 1 - + $.$.+.O.O...o O.%.O.$.O.O.O.O.| O.O... ...o...",
";.3.,. .+.3.3.&.O.O.%.%.$.y 0 ; 1 : , , w 0 w y y q w w y c y y 0 2 - 1 ; O - 2 9 ; + $.O.O.O.O.O.O.O.O.O.O.O.O.....o.#.#.......",
"-.;.;.:.;.>.;.%.+.O O.O.0 , + 9 2 w 0 y y y y y y y y y q w y w y y 0 : : 1 + + 1 w 9 ; + O.O.O.O.$.O.O.O.O.O.O.#.O.........o.@.",
"|  .:.2.3.#.` +.+.O O.; O O 0 6 $ 0 w y y 0 7 6 : ; 2 2 6 w w q w y y y 9 ; : : $ : , + + + O O.O.O.O.O.O.O.O.O.#.O.O.O...#.#...",
"+.+.%.>.;.%.%.O.O.# # # O 6 @ . 6 w 0 6 6 1 7 7 0 0 2 1 1 1 1 ; ; 2 y m y y w w 0 2 1 1 : + O &.&.o.. @.&.=.$.} O.O.O.O.O.+.....",
"| ..+.%.%.O.| | O : ; $ 6 : . : w 0 1 6 0 w y y t y y 0 ; ; 1 2 1 # $ 2 9 w y y y y 0 : 1 1 # O J.;.} X.<.<.=.@.+.%.+.$.+.+.O.O.",
"+.+...+.O.+...O.: # 6 6 . O 1 0 6 6 6 $ 0 y 7 0 0 w y y w 1 : + ; 1 2 ; + + # : 6 y w - # 1 ; O O O @.*.>.<.=.} O.O.O.O...O.O.O.",
"+.+.+.+.+.#.%.1 : 8 0 7 6 w 7 7 0 # $ 1 q 0 $ 3 + , 0 0 y 0 1 # + O # ; : # + + + 2 y 7 + ; 1 + o O o + + + } $.O...O.O.+...O.+.",
"] O.O.O.O.O.1 1 O j y 0 7 l t c d % 0 t 7 1 1 1 ; O ; y y t 1 1 ; + + + + # : 1 ; + 0 2 O + 1 # o O 2 1.&...} =.O.O.O.+.@...} *.",
"+.O.O.+.O.O.1 $   8 t 7 l y v i 8 X t 1 7 1 1 1 6 1 - w y w ; , 1 : & + + + + $ : 1 : 2 o O 1 : o # 2 %.=.$.$.@.O.O.O.+.} ' ' { ",
"O.O.$...O.#.1 #   2 r.M.v c B.r.&   1 2 7 $ 1 2 # 1 - 6 y y 0 - # : 1 1 1 $ + o + 1 ; 2 o o $ 1 O # 1 0 $.$.$.} @.} X.] { ( ( ' ",
"O.O.+...] %.: O   O G.I r.r.r.G.O   y y x ; 1 0 0 + 1 : y y w w 2 : - ; : 1 1 # O : : 6 O o + 1 + # 1 7 y $.@.$.O.+.} #...{ { { ",
"+.O.+.$.%.%., & % N.;X X.X X X;XM.X v t t t t t y ; & : , e w w 6 z u 9 ; ; 1 1 + @ : 2 # o o $ - O 1 : y $.$.] @.$.} @.{ X.o.X.",
"+.O.+.+.] [ 2 b  X;X;X<XF.S.OX;X<X XJ 1 7 2 2 2 t w & + O O - 6 2 2 u 2 6 2 : 1 : + ; : 2 O o o O + 1 : 0 y $.o $.@.} @.X.o.o.{ ",
"%.] +.%.] W : , F.N.N..XB.I F.N.N.F.r u t 1 0 9 7 y y t > O O O + O ; 2 6 6 - 1 1 1 O + 2 ; O O . + : 1 2 y $.$.$.} @.@.X.X.X.X.",
"+...+.%.] _ _ - - b h.j..X.Xj.h.b 1 x n x y t 2 y L d.t.v 0 , 6 > * O O ; 6 - : 1 1 + o + 6 : + + + : 2 y y $.$.. $.$.@.} X.X.X.",
"] %.+.+.+...| < < l j.U.F.F.k.k.q j 9.y y 0 y N.+X-X[.I.S.I r.y.8.y 2 O + : o + 1 1 1 O O + , , - + : 0 y 0 1 $.. } O.O.O...@.X.",
"+.%.+.| +.%.| - < G v n r.w.A v 0.2 v 2 9 1 B.,X-X+XU.y.d.-XOXU.y 0 y y - + o o + : 1 1 + + + O o $ 2 y y 2 1 $.$.$.@.O.O.O.@...",
"+.+.+.+.+.+.| | < q.4 d d 8 d a 5.> t 9 1 i XXR |.*X'.b.U.T.#X^.m 1.2 y y 0 2 2 ; + ; 1 1 : ; - O : 1 0 y 1 1 } $.$.O.@.O.@...@.",
"} | %.%.+.| +.&.- a G 4 * * 4 G 5.2 | %.= r.#Xm L +XoXOXI.f.f.&XI.t.#.2 y y q y y y + o O O O + $ : + 0 0 1 1 $.$.O.O.O.@...@...",
"O.O.O.+.O.O.$.] O.* i.9.* & 9.0.& o.{ ( 5 , e.= 4 R.-X-XoXT.&X>XL.H #.D 6 7 7 y m y q $ o o O ; - ; q 0 , ; : %.+.| -.1.;. . .;.",
"] %.O.O.$.+.+.+.$.* a l.9.s.0.* &  .[ / ( s L S 3 d.=X%X&X&X`.T.#.1 O.#.7 1 1 1 : : 0 6 O o : 1 - 6 6 # + ; - ..+...-.3.1. .o.1.",
"] %.O.O.] +.+.] +.+.5 q.s.l.Z * .... .[  .4 C k 3 y.^.%X}.>X`.c.......#.1 7 k 1 1 + r x - O ; + ; , O O O : + ..+...-.;.;.-.-.;.",
"+.+.+.O.+.+.+.%.+.] + * p a * + ..o.+.....z x F q.t.v.^.v.I.v.y.#.....#.7 X. .$ 1 ; 2 2 ; + 1 + 2 : O O O + O +...o...| -.2.1.-.",
"] +.%.+.+.+.+.+.] +.+.* * & & +.} +. .....C > 3 z 7.p.OXR.L.U.+.+.O.O.+.+...| + : : ; 9 ; + : + 2 # o o ..+ O +...+...[ -.3.1...",
"+.} ] O.#.] +.+.+.+.#.] O #.} +.+...+.+.| m > : L 7.7.XX!.^.I.| ..+.] O.+.o.....; : , 9 - + - + 2 # o o +.+ +.+.+.+...+.+.+.o.#.",
"] +.] $.+...+.+...+.] #.#.| $.$.} +.+.+.#.4 L g.P.6.6.!.!.^.'.+.O.] O.O.+.X +.O # ; ; + + - + O ; - o o ..+ ..+.+.| ..+...] | %.",
"..+.+.#.+.#.] +.+...+.+.} $.@.| | +.+.+.o.7 g.XX6.6.y.'.XX;X;X$Xg g +.+.O.o ..+ ; ; + O o o o o ; + + : o.O +...+.+.....+.+.+.+.",
"+.....+.+.] ] ,X#X].n.n.8.| $.$.+.+.O.O.+.b >X$Xy.y.[.R.>X'.,X,Xg $.+.O.O.O.O.@ ; + + o . . . O ; # : 1 o.+...+.o O.O.$.| $.$.%.",
"......+.+...&.,.<.%.+.-.y.4.g ] O.d O O.] +.;XXXL.d.c.+X|.g.#X;XS $.f V 4.M 8.m 3 O O O . o O # ; # 1 ..[ ] ..... O.O.$.$.$.$.$.",
"..+.+.+.+.%.=.,.J.:.+.>.3.4.N t.> f O.%.@.oX_./.I./.W.!.%.O '.>Xf.B 8.f x B x.n.U.1 O + O O + - ; 1 1 | ` _ | +.$.O.$.O.$.$.%.$.",
"+.+...+...} +.,.;.;.:.;.>.%.V 4.h s ] %.r D..Xf.@X$XW.!.L ` A.;XS.V h 5 $ O & 9 S.P O + + # # : 1 1 1 ..` ` ..+.O.O.O.$.$.$.| $.",
"+.+...o.+.o.+.+.%X].n.z.8.} } g N l r 1 4 D.}.&X#X[.+X'.'.e.f.,XE.b e 5 o o o o % c : : : 1 : : ; + +.+.....X %.O.%.| O.O.%.$.O.",
"+.......o.+.+...X.;.;.=.M V B V 4 C G l D  X'._.[.>X#X,X'.S.L &XE.B C v.e.+ + $ O + o o o o O + + # ..+.%.%.o +.O.O.O.$.%.O.O.O.",
"..o...+.+.+.+.o. .#.*...O.f V N a 8.8.z F e.d./.`.[.~.'.U.L Y.#XU.9 - 3 P A O 1 $ - ; # O o # 6 0 +.O.O.+.. o O.O.O.O.O.O.O.O.O.",
"+.+.#.@.} ......O.....+.+.O.@ = r r F H z H A.oX!.~.!.XXe.D v.!.L.x y 6 $ $ + ; 1 ; 1 1 2 0 y y +.+.+.%.O.O.O.O.O.O.O.O.O.O.O.O.",
"O.O.O.O.O.O.+.....o.+...O +.O ... O.l k ..A.).:X'.!.[.>XN.k e.c.L + - 9 w w 0 , 0 w y w y w w O.+.+...+.+.o.+...+...+.#.` W Q +.",
"+.O.O.O.O.O.+.O.+.O. .O.+.+.@.......@.O.O.O.R.,X[.+.,XR.F.O < - 2 + o O # ; ; : 9 9 9 w +.%.+.+.+.+.+.+.+.....o.#.....#.| _ Q ` ",
"O.O.O.O.O.O.O.O.&.[ ( ] +.o.....@.| O.O.@...O.W.W.+.(.(.R., O # O O O o + + ..%.$.$.$.$.%.O.+.+.O.+.+.%. .....o.o... .+.$.| ` Q ",
"O.O.O.O.O.+.O.O...' ( ] +.X ..o...O...O.O.O.X.a.W.#X&.Q.[.#.....o.o. . .+.....+.O.%.$.$.O.%.O.O.O.%.O.O.+.+.+.o.+.+.....%.$.] _ ",
"O.O.O.O.O.$.@.O.+.] [ ........#.$.$.....O.O.O.+.(.@Xo.o.Q.+Xo.| | o.o.o.#.+...+.%.O.%.O.$.$.+.O.O.O.O.O.+.+.] ` | ..+...%.+.%.` ",
"$.@.O.O.@.@...O.&.....+.+.| ..+.$.O.$.$.O.O.O.R.OX-XR.#.|.;X|.o.| o.| | +.....#.+.%.O.%.+.$.O.+.+.O.O.| O.| ` / [ +.+...+.%.+.| ",
"O.O.@.$...O.O...+.#.+.+.o.....+.$.$.$.$.O.O.%.Y.Y.XXR.Z.Y.A.|.E.=.-.+. .....| %.O.+.O.O.+.O.+.O.+.O.| O.....] ` | +.+.+...] %.$.",
"@.O.O.$.....O.....o.o...o.o.o...$.$.$.| ^ K.~ J P w.N.C.P S r.R V.~ H.o.+.| O.+.+.O.+.O.+.+.O.%.%.O...O.+.+.+.+...+.+...| ..O.+.",
"@.@.@.@.@.O.@.@.@.} } @.@.X.} @.$.$.~ ~ H.~ J 2 0 A ~ A A S U ^ Z.T ^ O.O.O.......+.#.%.| O.O.$.#.#.+.+.+...+.+.+.O.O.] | +...| ",
"+.} =.3.<.} O.<.2.>.@.X.X.} X.@...$.~ Y ~ ^ ~ K J M.Z.q 2 9 K T ^ ~ O.......+.+.#...| #.+.W W ` O.` W Q ..#.+.+.O.O.O.+.+.+...+.",
"$.} =.J.<.@.@.<.,.;.X.X.X.X.} X.$.$.$.$.~ T Y Y Y Y V.V.R R ^ Y ^ ~ O.O.O.O.O.o.#.| ..&.+.Q W _ #.` W / | #.%.| O.O...%.+.|  .+.",
"@.$.@.@.=.<.>.=.=.X.{ X.X.} ( ( ......+.O.O.+.~ T ! T Y T Y T ~ O.+.O.#.+.|  .` [ +.+.+.| O.] _ ` ` ] ..+.+.+...+...O.$.| ` ` ..",
"..@.} ' =.J.2.=.X.} X.X. .( ( ( } @.O.O.#.O.O.....O.......+...| $.O.O.O.+...` Q ) o.&.| | #.%.` E ) O.+.+.| ..%.%.| O.O.| ) (  .",
"@.@.@.@.@.=.=.@.X.@.} X. . .} } @.@.O.....O.O...#... .#.+.....%.O.$.| $.+.+. .( | o.......%.O.] ) [ ..+.+.+.+.+.%.%.O.%...] m...",
"@...@.@.@.} { @.} X.X.X.X.X.X.X.X.@...@...O.O...+...O.+.$...+.&.$.O.O.O.#.@.#.o.o.+.o.#.#.+...+.+.+.+.| +.#.%.O.O.%...%.....#...",
"@.} O.@.X.@.@.@.@.@.X.X.X.X.{ ( @.X.....O.@.O.O...+.$.+.+.O.O.O.O.O.O.O.#..... ... .| ....+.+.%.o.o.......+.%.O.O.O.O.| +.O.o..."
};
