/* XPM */
static char * perso_back_xpm[] = {
"64 64 259 2",
"  	c #A6D563",
". 	c #A7D568",
"+ 	c #A4D35D",
"@ 	c #ACDB69",
"# 	c #AAD964",
"$ 	c #A0CF5C",
"% 	c #C1F276",
"& 	c #B1E166",
"* 	c #A9DA5E",
"= 	c #BCEC74",
"- 	c #A9D76A",
"; 	c #A8D764",
"> 	c #A6D85E",
", 	c #B9E96F",
"' 	c #9BCB55",
") 	c #B3E36B",
"! 	c #C3F37C",
"~ 	c #9ECD5A",
"{ 	c #A2D357",
"] 	c #98C754",
"^ 	c #95C552",
"/ 	c #A7D862",
"( 	c #A38C87",
"_ 	c #867675",
": 	c #957877",
"< 	c #97766A",
"[ 	c #A47C6C",
"} 	c #876A67",
"| 	c #9D8379",
"1 	c #674947",
"2 	c #BA8E79",
"3 	c #AD7C6C",
"4 	c #B68177",
"5 	c #C79884",
"6 	c #D4AA98",
"7 	c #9C7462",
"8 	c #6C6665",
"9 	c #83B33E",
"0 	c #93C34D",
"a 	c #7B6157",
"b 	c #936B5C",
"c 	c #B9856A",
"d 	c #C2886C",
"e 	c #C5846D",
"f 	c #9E6A5C",
"g 	c #775956",
"h 	c #896257",
"i 	c #C68665",
"j 	c #D59978",
"k 	c #B87E67",
"l 	c #956C61",
"m 	c #90C046",
"n 	c #8BBA46",
"o 	c #9F8985",
"p 	c #9F705E",
"q 	c #D2916F",
"r 	c #C98A69",
"s 	c #C5926B",
"t 	c #CA916C",
"u 	c #C28B74",
"v 	c #938183",
"w 	c #A3918C",
"x 	c #A56B58",
"y 	c #C99675",
"z 	c #CCA07B",
"A 	c #7C6866",
"B 	c #83594A",
"C 	c #9D6654",
"D 	c #A4664D",
"E 	c #B17A5E",
"F 	c #AE7761",
"G 	c #9C694F",
"H 	c #8F654F",
"I 	c #815C53",
"J 	c #90BF4C",
"K 	c #A56553",
"L 	c #A16A54",
"M 	c #9D6952",
"N 	c #946654",
"O 	c #7C564D",
"P 	c #88B744",
"Q 	c #885C56",
"R 	c #75534D",
"S 	c #685656",
"T 	c #B8E773",
"U 	c #6B504C",
"V 	c #8C6255",
"W 	c #A69797",
"X 	c #C6F87E",
"Y 	c #9FD05A",
"Z 	c #AFE06A",
"` 	c #AEE067",
" .	c #6B5452",
"..	c #7F5347",
"+.	c #99CA4D",
"@.	c #B6E570",
"#.	c #BFF079",
"$.	c #B7EA6A",
"%.	c #C7F882",
"&.	c #714D4B",
"*.	c #6C4E50",
"=.	c #BEF075",
"-.	c #6C4A46",
";.	c #744C46",
">.	c #584747",
",.	c #9FD056",
"'.	c #97C854",
").	c #BAB8C5",
"!.	c #A59AA5",
"~.	c #7A5D67",
"{.	c #C2C1CC",
"].	c #96C84F",
"^.	c #BEC6D1",
"/.	c #C9C9D8",
"(.	c #CBCFE2",
"_.	c #D1CCDB",
":.	c #C6B3C2",
"<.	c #DCBECF",
"[.	c #E2BBD1",
"}.	c #CEAEC3",
"|.	c #CCD0DF",
"1.	c #D7C8D7",
"2.	c #EEF9FA",
"3.	c #E5ECF3",
"4.	c #E5DDEE",
"5.	c #E3CFE3",
"6.	c #E1D3E1",
"7.	c #E5D1DF",
"8.	c #F5F5FA",
"9.	c #FAF4FC",
"0.	c #ABA6B1",
"a.	c #EBE4F6",
"b.	c #ECF7F3",
"c.	c #F7EBF9",
"d.	c #E5E6EC",
"e.	c #E9E7E7",
"f.	c #EDEBF4",
"g.	c #FCF7EF",
"h.	c #A09EB2",
"i.	c #EDDCED",
"j.	c #FAEDEC",
"k.	c #F7F9F6",
"l.	c #EEE3DF",
"m.	c #D4A9A7",
"n.	c #AC9695",
"o.	c #CBAA9A",
"p.	c #C8AAA8",
"q.	c #8F7164",
"r.	c #D59C92",
"s.	c #F4FAFB",
"t.	c #F5F4F4",
"u.	c #CBA187",
"v.	c #DB9B82",
"w.	c #A96C63",
"x.	c #BCA7AE",
"y.	c #DCDAE5",
"z.	c #D9D7F4",
"A.	c #A4725B",
"B.	c #D3A076",
"C.	c #AB8977",
"D.	c #F3ECF4",
"E.	c #DFD7E4",
"F.	c #C8B5B5",
"G.	c #8DBC4A",
"H.	c #D4A27A",
"I.	c #BD9D8C",
"J.	c #D6D4E8",
"K.	c #D4DBE2",
"L.	c #B9969B",
"M.	c #D6A686",
"N.	c #B9967B",
"O.	c #85B541",
"P.	c #E9BCA5",
"Q.	c #B7A58F",
"R.	c #B9BAE6",
"S.	c #B699A4",
"T.	c #DFBDA3",
"U.	c #FEDBC5",
"V.	c #D9D4D0",
"W.	c #F9D8BC",
"X.	c #BA9789",
"Y.	c #A77E73",
"Z.	c #B2A6B8",
"`.	c #AA7A63",
" +	c #54475E",
".+	c #716D78",
"++	c #8C8A96",
"@+	c #9286A8",
"#+	c #918B94",
"$+	c #95889A",
"%+	c #4B4957",
"&+	c #AC8F85",
"*+	c #F4CFB7",
"=+	c #948B9C",
"-+	c #34293B",
";+	c #3D393E",
">+	c #443649",
",+	c #423151",
"'+	c #473847",
")+	c #443B44",
"!+	c #322D3C",
"~+	c #2E2D3B",
"{+	c #F3CFAD",
"]+	c #EDD3C1",
"^+	c #4A353E",
"/+	c #544D55",
"(+	c #564C65",
"_+	c #3A3542",
":+	c #3D3A45",
"<+	c #F4D0AB",
"[+	c #51373D",
"}+	c #5B5A64",
"|+	c #585568",
"1+	c #504F75",
"2+	c #3C3C51",
"3+	c #3B3B4A",
"4+	c #44435B",
"5+	c #F3CE9E",
"6+	c #4A3036",
"7+	c #363339",
"8+	c #33334A",
"9+	c #282C52",
"0+	c #4D5665",
"a+	c #2E3244",
"b+	c #323843",
"c+	c #2E3037",
"d+	c #D7A26F",
"e+	c #2B2E41",
"f+	c #2A2C4C",
"g+	c #272B39",
"h+	c #2D303B",
"i+	c #BCA099",
"j+	c #615E6A",
"k+	c #333243",
"l+	c #BEEE79",
"m+	c #929296",
"n+	c #312F43",
"o+	c #2B2B35",
"p+	c #92929B",
"q+	c #CBFB83",
"r+	c #7E8087",
"s+	c #6D6F78",
"t+	c #73737A",
"u+	c #434154",
"v+	c #423E52",
"w+	c #3F405C",
"x+	c #3F4155",
"y+	c #8E9297",
"z+	c #3E3E5A",
"A+	c #35353B",
"B+	c #423E5B",
"C+	c #484460",
"D+	c #33302F",
"E+	c #757474",
"F+	c #C5F681",
"G+	c #56524E",
"H+	c #5B5653",
"I+	c #5C575A",
"J+	c #59554A",
"      .           +   +   + + + + @ # $ # % % & * & % = @ $ + - ; ;             ; . + + . + + ; ; ; ; + + + + + ; ; $ ; ; ;     ",
"  -   .     ; ;     * # >   * # +     + * # & , % , & ; ; ; ; $ ; ;         .   + . ; . . ; ; + + + ; + ; ; ; ; ; + ; ; ; ;     ",
".   .       +     ; # + $ $ + # ; + + # * ' * ) ! , + ~   @ ; $ ;               . + ; + + + . . ; + + ; ; ; ; + $ + ; ;       ; ",
"  .             ; # * $ { ] { * -     - * $ { & ) & * { + ; + ;                 ; + . . ; . + ; ; + + ; ; + $ ] ~ + ; + $ $     ",
"              +   ; ; $ ] ^ $ $ . . . . ; + + ; ~ + ; * + + + @ .           .   ; . + ; $ .     ; + $ ; ; $ ' ^ ~ + ; ; ; $ + ; ",
"  . -   ; - / / + + * + { $ + * $ .   $ ; # # $ + * * * + * * ( _               + . . + ;       ; + - + ; ; $ ~ $ + + ; + ; + ; ",
"          +           ; ; + ; ;   . . +   -   $ ; ; + + * : < [ } : |           + ; ; + ; . ;     + -   ; ; ; + ; + ; ; + ; + ; ",
"  $ + $ + + + $     ; * ; ;     . - - - - ;   $ + + ; * 1 < 2 3 4 5 6 7 < } 8   . + . . ; + ; ; + - +   $   ; ; ; ; + + ; ; ; + ",
"; 9 9   @ 0 9 ^ + ;   + ; + ; ; . . . . .       # *   a b c d d e e e c f } $ - -   +   ;     ;   -             $ ; # + { ; ; { ",
"$ 0 ^ +   ] 0 ^ ; + ; + + ;       . .   . . .   ;   g h 3 d i i i i i j k l ; ;     ;   .     $                 ; ; + + ; + ; ; ",
"+ + $ m n ] +         ;           .     . . . . ; o h p d i q r s j s t u [ v $ $ ; -   ; ; ;   - $   -         ; $ $ ; ; { { + ",
"# & + m 9 $ # # +                   .   $ . . . . w l x k r j r y z s c c l 1 ; - + $   ; ; ; - - -   -         { # & ; { & # + ",
"+ * + + +     $         .   -     +       . . $ . A B C D x E F F F F G H I A - @ ] J $ - ; ; ;   - - .         ; ! % ; { , % & ",
"+ + + ; # * + +                         . . . . . } b C K D L M x K K M N O v   ; J P ~ - ; $   - $ . . - -     @ ! ! ; { = ! , ",
"# * + + + + ; ;             .             . . . . g O Q f L G L M L C N R S 8 ] ] ] ] +   ;     $ . . $     + ; - , T , ) , , & ",
"+ ; ; +       ;                   $           . .   U I V C L M G N f Q 1 W $ J n $ -   $ ; ;   - . . -     ; ; ; ] # ! X ) { $ ",
"+ + ;           Y . Z Z / / / ` Z / $ . . / Y / $   #  .g I V V B ..Q g A + $ ' +.$ + + + ; ; +     - $           - - , @.- ; ; ",
"    ; ; . ; - ; / Z #.#.> Y $.%.Z . $   - / + > * * * _  .g O O O O I g v ; $ $ $ + ; ; * ; * +       -         $ $ ; - - ; + $ ",
"      +         Y Z #.@.` / $.#.Z . .   . + / > * + $ { _ U R R &.&.*.S ; ; $ + ; ; ; + ~ + ; ;             $ -   + ;   ; + ; ; ",
";   + ;     +   . Y / Z =.=.$.> Z . .   / / + > + { ^ ] + g 1 -.;.1 >.; + ; ; ; + ; ; ~ +.+.{ +         -   -   - - ; ; ; ; ; ; ",
"` Y + /       / Z Y Y Z #.#.Z Y - .     / / $ / ; $ 0 ] + # *.&.-.>.;   ; $ ; ; + ; $ ] +.] + ;                   $           $ ",
",.'.'.Y       / / . . Z - / Z / / . .   . $ $ / ; + $ { ).!.~.: : ~.!.{.; ; ; ; + ; ; + ' $ ; ;         -       $               ",
"'.].].,.$ + $ / Y . . . . '.Y .   .         / / ; {.^./.(._.:.<.[.}._.|./.{.1.+ ; ; ; ; $ ; - ;                 - ; ;   + -     ",
",.,.,.+ # $   / . / . . . Z . Y                 _./.2.2.3.4.5.6.7.1.4.3.8.9._._.$ ; ; ; ; ; ; $                     - $ $       ",
"> * > ,./ Y . / Y . . . . . . Y -   $ - -       0.a.8.b.b.9.c.d.e.f.8.9.g.9.a.h.$ ; ; ; + ;         - ; ; - -     - - - - ;   ; ",
",.* * > / Y / . . . . Y Y Y . .       /         !.i.j.e.b.9.9.9.k.8.8.8.l.j.i.h.; ; ; $ ; +     ; + ; $ $ ] $ - ; ] ] $ ; ;   ; ",
"> > > > / / Y . . . . . Y . / /             .   : m.m.n.b.8.8.8.k.8.a.c.n.o.p.v $ ;     ; ; +           ] n ^   $ J n ~ - ; $ - ",
"> > > Y / . . . . . . . / . / /   / -       -   q.r.r.: e.s.t.e.t.8.a.i.: u.u._         ; + ;       ;   $ J ^ $ $ ^ ^ $ - ; + ; ",
"> / +       Y . . Y . . . / . / + / /       .   [ v.w.x.y.2.t.t.y.y.z.6.p.A.B.C.+ ; ;         -         +   ] J ] $ + ; ; ; ; $ ",
"+ /       / . . . . Y . . Y Y / + Y $ + .     . 2 j 3 :.y.s.g.9.D.y.(.E.F.3 B.C.        - -     $     $ ; - $ n J $ - ; $ ; - ; ",
"/ + /   /   . . Y . . . '.G.Y / ~ 0 '.+ -   . 1.5 H.I.E.J.9.g.8.9.D.K.K.6.L.M.N.;     ; . .             ;     ] $ $ ; ; ; ; ; ; ",
"+ / + /       . . . - . n O.'.Z '.n n + @   $ }.P.M.Q.y.R.c.g.s.9.9.b.K.E.S.M.T.F.    $ - $ ; ; -     - ; ; - @ @ ; $ ; - - $ $ ",
", { { , % & $ ; -   + $ $ $ ] J ^ ~ + - $ ; ; L.U.N.V.).z.J.f.8.9.8.s.3.).1.5 W.n.& ; ] +.' * ; + ; ; ;     ; ; $ ;     ;       ",
"% * { % ! & + ; + +   - - $ ] J ] $ ; ; ; ; ; X.U.Y.9.Z.J.J.z.a.f.f.D.d.0.9.`.W.n.; $ +.m ' { + ; + ; +     $ -     ; -     - $ ",
", & & , , & + ; + + - - - . ] J $   ; + + ; + X.U.: Z. +.+++@+#+#+$+$+.+%+0.[ U.W * + { ' { + + $ ; ; ; ;   ; ; $     $     ; $ ",
"& % X & $ + * + ; ; $     - ; ; + - ; + + ; + &+*+| =+-+;+>+,+'+)+'+>+!+~+$+C.*+W # * + + ; * + ; ; ; $ ; ; $ ; - ;   ;   ;   ; ",
"+ % ! & ' + ; + ; ; + + + ; * @ +   + + ; ; + C.{+]+^+>+/+(+(+>+_+%+(+(+:+'+*+{+( ; ; + + { ; $ ; ; ; $ ; ; ; $ ; ; ; ;   -   $ ",
"# * ; ; ; + ; ; ; ; ; ; ; ; + +         ; ; ; 5 <+T.[+'+}+|+1+2+3+4+|+}+:+^+P.5+I.+ ; + ; ; + ; ; $ ; ; $ ; ; ;   ; $ ;   $ $ ; ",
"- $ ~ + ; + $ ; ; + ; + * + + + + + ; + ; ; ; o.H.5 6+-+7+8+9+0+0+a+a+b+c+^+y d+6 ; + ; ; ; ; $ ; ; $ ; ; $ ; + ; ; + ; ; $ ; $ ",
"; ; ; ; + + ; ; + ; ; * + * + + + ; ; ; + ;   o.M.I.'+-+7+e+f+  ; g+a+h+h+'+5 j o.+ { ; ; ; ; $ + ; ; + ; ; + ; ; $ ; ; ; ; ; $ ",
"- . . $ .       ; + ; * ; + ; * & $ + & # $ $ i+q. .=+!+c+h+~+  ; j+k+~+e+$+;.7 ; + ; ;         ; ; $ ; $ ; ; $ ; $ $ ; ; + + ; ",
". . . . .       + + ~ ' + * * { $ & ; $ $ * ; +     =+~+7+!+~+  J #+!+k+e+=+m ; + ; ; $         $ ) T T & ; - l+T @ + ; ; + + + ",
". - . .   .   . ; $ ^ ] $ ; ; $ + + ; * ; ; + + .   m+~+k+n+o+  n p+k+n+~+m+P ;   ; ; ; -       ; @ l+! T ; & q+T & ; ; ; ; ; + ",
". $ . . .       ; + ] ] + * ; + & ) & ; ; & ) &     m+~+k+n+o+  $ ++k+n+~+m+$ ;   ; ; $ - $ - - + ; & T T ) , , , ; $ + ; + ; ; ",
"  . -     $ -   - ; + + ; ; ; + , X ! $ ~ ! q+T     m+~+k+n+o+- ; r+k+n+~+m+- $     $ - - - - $ ; + + # = ! T ; ; ; * ; * + ; ; ",
"      - .       ; ; - - ; + ; + & = % & & = T -     m+~+k+n+o+; ; s+k+n+~+m+; ;     -   - $ -   ; ; ; + & = , + + ; # * + + + ; ",
"                    - ;     ; ; + { # ! ! & $ ;     m+~+k+k+    ; t+n+k+~+m+; ; - ; ; - - - - - $ ; ; + + & # { * ; ; ; ; + * + ",
"                        - ; ; ; # $ ; l+! ; $ ;   . m+~+k+k+  + ; ++!+k+~+m+; $ $ - $ - - $ - $ + + + ; ; + + ; + + + $ * ; ; ; ",
". J P ] # ; + ; + ; * ; ; + ; ;   ;   ; . .   . ;   m+_+u+2+$ * ; m+k+v+3+m+$ + >   / +       / + ; ; + + ; * + + ;             ",
"] J ^ $ # + + # * + + ; ; ; ; ; ;   -   - . - . - + m+:+u+2+{ * ; m+3+u+3+m+  #           / + + + * ; ;   $   ;   ;           ; ",
"J ] $ . ; { + * * + + { - ; ;   ; ;   - . . . . - + p+3+u+u+* { # p+u+u+3+m+  /     + /     $ / + + * ; $ +.' @                 ",
"^ ~ - - + + ; ; * ; ; ;     -       -   . . -   ; + p+2+w+u+j+* + p+u+x+3+y+/     >       + / + * + ; ; ~ 0 ] +     ;           ",
"] - ; - + ; + $ ] ~ ; ;           ; . .   -   - ; + p+2+z+4+A+$ $ p+u+x+3+y+  +         + + . . # + + + + ' ~ ;   / .           ",
"$ ; - ; + ; ; ' m ] $   $     ; ;   . ; -   - ;   + p+3+z+z+_+$ * p+u+B+z+%+$ /         . .   . ; + $ ; ; + + @   + / /     / . ",
". - $ + ; ; ; $ ] ~ + +   $   ;   ;   ;     ;   - $ p+3+B+B+k+) * m+u+B+B+8++ -         . . . . ; + + * ; ; # ; +     + . /     ",
"    + $ + ; ; + ; ; ; ;   +   - -   ; ;   ;   ; ; + #+3+4+B+k+! * m+v+C+B+8+~         . $ . . . + * * * + * * + +   + + .     / ",
"$ + ; $ $       ; ; + ; ; ; ; ; .     $ - # ; + + + ;+)+u+v+k+! & m+u+v+v+v++ ; .     . $ . . . / Y > / / Y Y / / /   / / / / / ",
"; + ; ; ; +     ; ; # + J n ] ; ] G.G.  # $ + # ; ; D+;+_+:+%+@ % E+_+>+:+_++ ;     .   . . . + / > Y > > / @.X #.  Y #.F+Z Y   ",
"; { $ ; - +     $ - # $ m n ] # ^ P J   @ + $ # *   G+G+/+/+$ $ % ! ;+/+/+G+H++         . . . . > Y > > > > $.#.#./ / #.F+Z Y . ",
"+ ] ] $ -   + ; + ; ; ; + ~ ] ] ^ $   $ ; # ; ' ] { H+H+H+I+.     ) E+I+H+J+; + +     . . + + + ].].Y > > Y > ` Z T #.Z / / . / ",
"{ +.0 $     $ - - + $ ; # ; 0 9 ] - # $ $ @ * 0 J ] + ;       . $ + ; + + +   + +     /     / Y ].].].{ > > Y > Z X %.Z '.Y / + ",
"+ ~ ~ + -   - - ; ; ; ; # + ' 0 ~   - + + + * $ +.{ ; ; . $ .   - + + ; ; + + ; +     + +   / / Y Y { { > Y / > / Z Z / / / / / ",
"+ ; + + - + -     - # ; $ ; ; ; ; + ; # # * ; * * ; # # .     . @ ; + . ;   + ; +   / + / + / > > > > > > > > Y / ,.Y / / / + / ",
"+ * ; ; $         - # + + + * * - ; ; + + $ { + { + +                 ; ; . ; + /   /   + + > / ].,.> > > > / / / / / + /   Y / "};
