/* XPM */
static char *perso[] = {
/* columns rows colors chars-per-pixel */
"64 64 222 2 ",
"   c #0A0B1D",
".  c #17171B",
"X  c #0B0C29",
"o  c #180F22",
"O  c #171329",
"+  c #090B31",
"@  c #0E1630",
"#  c #15163B",
"$  c #151737",
"%  c #0F1027",
"&  c #201A26",
"*  c #271A39",
"=  c #11253D",
"-  c #1F233E",
";  c #2D2332",
":  c #362B39",
">  c #3E393E",
",  c #1A1848",
"<  c #220E56",
"1  c #221154",
"2  c #25165B",
"3  c #132542",
"4  c #182A49",
"5  c #1B2E51",
"6  c #193856",
"7  c #17304D",
"8  c #23224C",
"9  c #382E57",
"0  c #28375A",
"q  c #32274D",
"w  c #291C63",
"e  c #38236B",
"r  c #2E2E79",
"t  c #2D2972",
"y  c #343779",
"u  c #34356A",
"i  c #44325D",
"p  c #513B67",
"a  c #523D71",
"s  c #4D3769",
"d  c #16435A",
"f  c #195657",
"g  c #35404E",
"h  c #114C63",
"j  c #254569",
"k  c #2A517B",
"l  c #374F71",
"z  c #136179",
"x  c #504F53",
"c  c #685A5B",
"v  c #4A5667",
"b  c #564677",
"n  c #4A5878",
"m  c #51426B",
"M  c #745F70",
"N  c #5D6176",
"B  c #606060",
"V  c #636569",
"C  c #776769",
"Z  c #756E78",
"A  c #866E5E",
"S  c #957A65",
"D  c #967D6A",
"F  c #827474",
"G  c #8A7467",
"H  c #99816D",
"J  c #9D8674",
"K  c #9F8A79",
"L  c #A18B7A",
"P  c #343B86",
"I  c #363787",
"U  c #362895",
"Y  c #372CB0",
"T  c #503C93",
"R  c #543BA4",
"E  c #4836AE",
"W  c #38428A",
"Q  c #335D8D",
"!  c #3B4C98",
"~  c #355390",
"^  c #156F84",
"/  c #366298",
"(  c #3E55A2",
")  c #3A6BA3",
"_  c #5E5483",
"`  c #5B5C99",
"'  c #525391",
"]  c #64568B",
"[  c #57688F",
"{  c #707794",
"}  c #405AA7",
"|  c #4562A6",
" . c #4866AE",
".. c #4967B1",
"X. c #5B75B3",
"o. c #5674B8",
"O. c #5070B3",
"+. c #6A7AA8",
"@. c #6677B2",
"#. c #6977A5",
"$. c #473ACA",
"%. c #5747CC",
"&. c #4B76C6",
"*. c #6B72CF",
"=. c #6C70F4",
"-. c #3081BF",
";. c #4E9082",
":. c #7686AE",
">. c #7788B8",
",. c #6682B2",
"<. c #74A7B4",
"1. c #6F8694",
"2. c #6986C4",
"3. c #738CC7",
"4. c #7B91C4",
"5. c #7591D3",
"6. c #5791E2",
"7. c #7E83F6",
"8. c #609BE7",
"9. c #5CA5F6",
"0. c #62ADFE",
"q. c #7BBBF5",
"w. c #76B9F8",
"e. c #73B6EF",
"r. c #828185",
"t. c #838A98",
"y. c #979797",
"u. c #939091",
"i. c #A89687",
"p. c #B09E8F",
"a. c #B6A69A",
"s. c #AFA095",
"d. c #8795B7",
"f. c #939AA4",
"g. c #99BFB8",
"h. c #A5A4A4",
"j. c #BDB1A8",
"k. c #B6B2B2",
"l. c #C3B7AD",
"z. c #C9BDB5",
"x. c #8599C5",
"c. c #869BD5",
"v. c #8488C5",
"b. c #93A2C6",
"n. c #99A6C9",
"m. c #8BA3DB",
"M. c #89A1D7",
"N. c #93A9DD",
"B. c #9BADDB",
"V. c #99AAD3",
"C. c #80BCDF",
"Z. c #A4ADC9",
"A. c #ABB8D8",
"S. c #B4BDD1",
"D. c #8589F6",
"F. c #8C93FC",
"G. c #9499F6",
"H. c #8C96E1",
"J. c #8CA6E4",
"K. c #94ACE3",
"L. c #98ADE9",
"P. c #98B4EB",
"I. c #81BEF5",
"U. c #97B1F0",
"Y. c #AEBFE6",
"T. c #A6B9E9",
"R. c #ABADF3",
"E. c #A4A9F6",
"W. c #A2BBF6",
"Q. c #B3B9F7",
"!. c #B9BDE3",
"~. c #8CCAC5",
"^. c #B8C2D9",
"/. c #B0CFC9",
"(. c #94D2F4",
"). c #A3C7E7",
"_. c #B3C4ED",
"`. c #BCCBED",
"'. c #B9C6E8",
"]. c #A8D3EA",
"[. c #ABC2F7",
"{. c #B2C6F2",
"}. c #BDCDF5",
"|. c #B9CAF8",
" X c #A5D1F0",
".X c #BDD5F5",
"XX c #B8DCEF",
"oX c #B2E3EB",
"OX c #C5C8CA",
"+X c #D0CDCA",
"@X c #C7CDD8",
"#X c #CCD1DC",
"$X c #D1E1DE",
"%X c #C2CEEB",
"&X c #C7CEE4",
"*X c #CCD3E4",
"=X c #CCD4EF",
"-X c #C4D1EE",
";X c #DBDEED",
":X c #D3D9E8",
">X c #C4CAF4",
",X c #CCDAF5",
"<X c #C8D7F7",
"1X c #D4DDF3",
"2X c #D2DEFB",
"3X c #D9DDF1",
"4X c #DEE2ED",
"5X c #DFECED",
"6X c #C6E2F2",
"7X c #DBE1F0",
"8X c #D8EAF9",
"9X c #C6EBEE",
"0X c #E4E4E6",
"qX c #E1E4EC",
"wX c #E6E8EF",
"eX c #EBEBEC",
"rX c #EAE9E7",
"tX c #E2E6F0",
"yX c #E5E9F3",
"uX c #E7EBF4",
"iX c #E3F3FB",
"pX c None",
/* pixels */
"pXpXpXpXpXpXpXpXpXpXpXpXpXpXpXpXpXpXpXpXpXpXpXpXpXpXpXpXpXpXpXpXpXpXpXpXpXpXpXpXpXpXpXpXpXpXpXpXpXpXpXpXpXpXpXpXpXpXpXpXpXpXpXpX",
"pXpXpXpXpXpXpXpXpXpXpXpXpXpXpXpXpXpXpXpXpXpXpXpXpXpXpXpXpXpXpXpXpXpXpXpXpXpXpXpXpXpXpXpXpXpXpXpXpXpXpXpXpXpXpXpXpXpXpXpXpXpXpXpX",
"pXpXpXpXpXpXpXpXpXpXpXpXpXpXpXpXpXpXpXpXpXpXpXpXpXpXpXpXpXpXpXpXpXpXpXpXpXpXpXpXpXpXpXpXpXpXpXpXpXpXpXpXpXpXpXpXpXpXpXpXpXpXpXpX",
"pXpXpXpXpXpXpXpXpXpXpXpXpXpXpXpXpXpXpXpXpXpXpXpXpXpXpXpXpXpXpXpXpXpXpXpXpXpXpXpXpXpXpXpXpXpXpXpXpXpXpXpXpXpXpXpXpXpXpXpXpXpXpXpX",
"pXpXpXpXpXpXpXpXpXpXpXpXpXpXpXpXpXpXpXpXpXpXpXpXpXpXpXpXpXpXpXpXpXpXpXpXpXpXpXpXpXpXpXpXpXpXpXpXpXpXpXpXpXpXpXpXpXpXpXpXpXpXpXpX",
"pXpXpXpXpXpXpXpXpXpXpXpXpXpXpXpXpXpXpXpXpXpXpXpXpXpXpXpXpXpXpXpXpXpXpXpXpXpXpXpXpXpXpXpXpXpXpXpXpXpXpXpXpXpXpXpXpXpXpXpXpXpXpXpX",
"pXpXpXpXpXpXpXpXpXpXpXpXpXpXpXpXpXpXpXpXpXpXpXpXpXpXpXpXpXpXpXpXpXpXpXpXpXpXpXpXpXpXpXpXpXpXpXpXpXpXpXpXpXpXpXpXpXpXpXpXpXpXpXpX",
"pXpXpXpXpXpXpXpXpXpXpXpXpXpXpXpXpXpXpXpXpXpXpXpXpXpXpXpXpXpXpXpXpXpXpXpXpXpXpXpXpXpXpXpXpXpXpXpXpXpXpXpXpXpXpXpXpXpXpXpXpXpXpXpX",
"pXpXpXpXpXpXpXpXpXpXpXpXpXpXpXpXpXpXpXpXpXpXpXpXpXpXpXpXpXpXpXpXpXpXpXpXpXpXpXpXpXpXpXpXpXpXpXpXpXpXpXpXpXpXpXpXpXpXpXpXpXpXpXpX",
"pXpXpXpXpXpXpXpXpXpXpXpXpXpXpXpXpXpXpXpXpXpXpXpXpXpXpXpXpX| ..pXpXpXpXpXpXpXpXpXpXpXpXpXpXpXpXpXpXpXpXpXpXpXpXpXpXpXpXpXpXpXpXpX",
"pXpXpXpXpXpXpXpXpXpXpXpXpXpXpXpXpXpXpXpXpXpXpXpXpXpXpXpXpXpX3.P.T..XpXpXpXpXpXpXpXpXpXpXpXpXpXpXpXpXpXpXpXpXpXpXpXpXpXpXpXpXpXpX",
"pXpXpXpXpXpXpXpXpXpXpXpXpXpXpXpXpXpXpXpXpXpXpX .5.T.pXpXpX}.{.<X7X7X7XeXpXpXpXpXpXpXpXpXpXpXpXpXpXpXpXpXpXpXpXpXpXpXpXpXpXpXpXpX",
"pXpXpXpXpXpXpXpXpXpXpXpXpXpXpXpXpXpXpXpXpXpXpXo.m.4X4XwX:Xb.>.x.1X,X;XqXeXpXpXpXpXpXpXpXpXpXpXpXpXpXpXpXpXpXpXpXpXpXpXpXpXpXpXpX",
"pXpXpXpXpXpXpXpXpXpXpXpXpXpXpXpXpXpXpXpXpXpXpXpXJ.}.,XwXd.X.3.J._.1XeX0XrXuXpXpXpXpXpXpXpXpXpXpXpXpXpXpXpXpXpXpXpXpXpXpXpXpXpXpX",
"pXpXpXpXpXpXpXpXpXpXpXpXpXpXpXpXpXpXpXpXpXpXpXpXL.7X0Xn.x.b.2.).eXqX1XN k.iXpXpXpXpXpXpXpXpXpXpXpXpXpXpXpXpXpXpXpXpXpXpXpXpXpXpX",
"pXpXpXpXpXpXpXpXpXpXpXpXpXpXpXpXpXpXpXpXpXpXO.5.7X#XX.3.L.{.;X'.7X7X:.  n.2X%XpX+ pXpXpXpXpXpXpXpXpXpXpXpXpXpXpXpXpXpXpXpXpXpXpX",
"pXpXpXpXpXpXpXpXpXpXpXpXpXpXpXpXpXpXpXpXpX| 2._.eX@Xb.X.2.A.wX7X7XL.$ X 0 {.>.+ + pXpXpXpXpXpXpXpXpXpXpXpXpXpXpXpXpXpXpXpXpXpXpX",
"pXpXpXpXpXpXpXpXpXpXpXpXpXpXpXpXpXpXpXpXpXpXpXJ.4X9X5X=X7XwX7XyXtXv.O @ 8 b @ + + pXpXpXpXpXpXpXpXpXpXpXpXpXpXpXpXpXpXpXpXpXpXpX",
"pXpXpXpXpXpXpXpXpXpXpXpXpXpXpXpXpXpXpXpXpXpXpXpXK.,X{.7XrX7X7XoX<X` $ , ] u m + pXpXpXpXpXpXpXpXpXpXpXpXpXpXpXpXpXpXpXpXpXpXpXpX",
"pXpXpXpXpXpXpXpXpXpXpXpXpXpXpXpXpXpXpXpXpXpXpXpX3.N.;XeX(.(.rX5Xq.` # $ _ q 8 # pXpXpXpXpXpXpXpXpXpXpXpXpXpXpXpXpXpXpXpXpXpXpXpX",
"pXpXpXpXpXpXpXpXpXpXpXpXpXpXpXpXpXpXpXpXpXpXpX| X.<.6X6XK. X%Xe.*.[ X @ 5 _ @ pXpXpXpXpXpXpXpXpXpXpXpXpXpXpXpXpXpXpXpXpXpXpXpXpX",
"pXpXpXpXpXpXpXpXpXpXpXpXpXpXpXpXpXpXpXpXpXpXpXpXpX3.J.J.2.M.B.C.%.O.h ^ = 9 6 pXpXpXpXpXpXpXpXpXpXpXpXpXpXpXpXpXpXpXpXpXpXpXpXpX",
"pXpXpXpXpXpXpXpXpXpXpXpXpXpXpXpXpXpXpXpXpXpXpXpXpX[ n.X.3.^.rXH.$.I z h % # d pXpXpXpXpXpXpXpXpXpXpXpXpXpXpXpXpXpXpXpXpXpXpXpXpX",
"pXpXpXpXpXpXpXpXpXpXpXpXpXpXpXpXpXpXpXpXpXpXpXpXpX2.T.).1XB.:XR $.*.- X @ # % pXpXpXpXpXpXpXpXpXpXpXpXpXpXpXpXpXpXpXpXpXpXpXpXpX",
"pXpXpXpXpXpXpXpXpXpXpXpXpXpXpXpXpXpXpXpXpXpXpXpXpX'.J.[.H.[.2X$.T R @.  $ X   pXpXpXpXpXpXpXpXpXpXpXpXpXpXpXpXpXpXpXpXpXpXpXpXpX",
"pXpXpXpXpXpXpXpXpXpXpXpXpXpXpXpXpXpXpXpXpXpXpXpXpX%Xm.K.K.{.}.E E E B.@._ n . I pXpXpXpXpXpXpXpXpXpXpXpXpXpXpXpXpXpXpXpXpXpXpXpX",
"pXpXpXpXpXpXpXpXpXpXpXpXpXpXpXpXpXpXpXpXpXpX< pXpXeXwXqX-Xc.H.' Y e ] %Xc.@.. * pXpXpXpXpXpXpXpXpXpXpXpXpXpXpXpXpXpXpXpXpXpXpXpX",
"pXpXpXpXpXpXpXpXpXpXpXpXpXpXpXpXpXpXpXpXpXpX1 < ,XtXeXyXyX:X2XT.T Y U !._.b.> & pXpXpXpXpXpXpXpXpXpXpXpXpX0.q.].XX6XpXpXpXpXpXpX",
"pXpXpXpXpXpXpXpXpXpXpXpXpXpXpXpXpXpXpXpXpXpX1 < eXyXyX_.-X4XB.<XP.+.@.|.1XwXu.. pXpXpX< pXpXpXpXpXpXpXP 9.0.w.].].6XiXpXpXpXpXpX",
"pXpXpXpXpXpXpXpXpXpXpXpXpXpXpXpX< w ! r pXpXpX2 eXuX>X:.S.eX#X4.4.>.4.n.eXeXqXpXpXpXpXpX< pXpXpXpXW t &.0.pXpXpXpXpXpXpXpXpXpXpX",
"pXpXpXpXpXpXpXpXpXpXpXpXpXw.9.W P } P < < ! # :.yXyXA.V Z 4X4X*.v.c.M.V.rXrX1XpXpXpXpXpX< pXpXpX< < W pXpXpXpXpXpXpXpXpXpXpXpXpX",
"pXpXpXpXpXpXpXpXpXpXpX6X Xq.0.0.pXpX< < ! t W B.8XyXZ.B B ` G.|.Q.N.N.7.rXoXoXpXpXpXpXpX< pXpX&.P < ( pXpXpXpXpXpXpXpXpXpXpXpXpX",
"pXpXpXpXpXpXpXpXpXpXpX8X6XpXpXpXpXpXpXpX&.w ) t.yX8Xv x V ` Q.F.D.-X_.c.<.z.g.pXpXpXpXpX1 , 2 } y &.pXpXpXpXpXpXpXpXpXpXpXpXpXpX",
"pXpXpXpXpXpXpXpXpXpXpXiXpXpXpXpXpXpXpXpXpXpXpXrXeX8Xl 0 t.!.F.>XtX`._.=X<.$X/.;.f pXpX) 7 r P 2 < pXpXpXpX0.I.].XXpXpXpXpXpXpXpX",
"pXpXpXpXpXpXpXpXpXpXpXpXpXpXpXpXpXpXpXpXpXpXpXwXeX)./ { &X|.3X4XuX`.=X7X%X~./.h.x = pX6 4 w 1 2 pXpXO...} 6.w.pXpX8XpXpXpXpXpXpX",
"pXpXpXpXpXpXpXpXpXpXpXpXpXpXpXpXpXpXq.8.&.r W tXwXf.v t.>X2XeX%XyXyX.XY.,X`.rXf.v - Q h 5 # 8 y < ( w w r pXpXpXpXpXpXpXpXpXpXpX",
"pXpXpXpXpXpXpXpXpXpXpXpXpXpXpXpXpX8X XpXpXpXt 2X,X#Xn { +.2X;XW.<X|.[.T.[.M./.1.6 = ) 7 / # 1 ! ..r < pXpXpXpXpXpXpXpXpXpXpXpXpX",
"pXpXpXpXpXpXpXpXpXpXpXpXpXpXpXpXpXpXpXpXpXpXpX[.|.L.c.0 [ %XT.L.W.W.W.N._.,.6 d j 6 Q / k 4 1 1 < pXpXpXpXpXpXpXpXpXpXpXpXpXpXpX",
"pXpXpXpXpXpXpXpXpXpXpXpXpXpXpXpXpXpXpXpXpXpXO.5.J.J.,.l 6 d.<XN.W.[.N.&X!.@.1.h = / 6 3 3 pXpXpXpXpXpXpXpXpXpXpXpXpXpXpXpXpXpXpX",
"pXpXpXpXpXpXpXpXpXpXpXpXpXpXpXpXpXpXpXpXpXpXpX5.J.5.X.7 3 OX1XT.L.J._.3XrXb.0Xk 6 3 Q j pXpXpXpXpXpXpXpXpXpXpXpXpXpXpXpXpXpXpXpX",
"pXpXpXpXpXpXpXpXpXpXpXpXpXpXpXpXpXpXpXpXpXpXpXpXpXpXg pXpXeXeX3X{.pX`.7XwXS.pXpXpXpX3 3 pXpXpXpXpXpXpXpXpXpXpXpXpXpXpXpXpXpXpXpX",
"pXpXpXpXpXpXpXpXpXpXpXpXpXpXpXpXpXpXpXpXpXpXpXpXpXpXpXpXpXqXE.rX<XpX{.7X;XpXpXpXpXpXpX3 pXpXpXpXpXpXpXpXpXpXpXpXpXpXpXpXpXpXpXpX",
"pXpXpXpXpXpXpXpXpXpXpXpXpXpXpXpXpXpXpXpXpXpXpXpXpXpXpXpX3XE.R.Q.E.pXG.Q.7.pXpXpXpXpXpXpXpXpXpXpXpXpXpXpXpXpXpXpXpXpXpXpXpXpXpXpX",
"pXpXpXpXpXpXpXpXpXpXpXpXpXpXpXpXpXpXpXpXpXpXpXpXpXpXpXpX=XG.R.G.pX`.D.Q.pXpXpXpXpXpXpXpXpXpXpXpXpXpXpXpXpXpXpXpXpXpXpXpXpXpXpXpX",
"pXpXpXpXpXpXpXpXpXpXpXpXpXpXpXpXpXpXpXpXpXpXpXpXpXpXpXqX2XE.pXpXpX>XR.D.pXpXpXpXpXpXpXpXpXpXpXpXpXpXpXpXpXpXpXpXpXpXpXpXpXpXpXpX",
"pXpXpXpXpXpXpXpXpXpXpXpXpXpXpXpXpXpXpXpXpXpXpXpXpXpX'.;XF.=.pXpX,XE.Q.G.pXpXpXpXpXpXpXpXpXpXpXpXpXpXpXpXpXpXpXpXpXpXpXpXpXpXpXpX",
"pXpXpXpXpXpXpXpXpXpXpXpXpXpXpXpXpXpXpXpXpXpXpXpXpXpX*XrX4XpXpXpX_.eXR.T.pXpX+XpXpXpXpXpXpXpXpXpXpXpXpXpXpXpXpXpXpXpXpXpXpXpXpXpX",
"pXpXpXpXpXpXpXpXpXpXpXpXpXpXpXpXpXpXpXpXpXpXpXpXpXpX*X0X;XpXpXc.*XrX:X:XpXpXh.eXpXpXpXpXpXpXpXpXpXpXpXpXpXpXpXpXpXpXpXpXpXpXpXpX",
"pXpXpXpXpXpXpXpXpXpXpXpXpXpXpXpXpXpXpXrXpXpXpXpXOXA.*X>.Y.B.pX!.:X*XZ.A.B.pXZ k.pXpXpXpXpXpXpXpXpXpXpXpXpXpXpXpXpXpXpXpXpXpXpXpX",
"pXpXpXpXpXpXpXpXpXpXpXpXpXpXpXpXpXpXpXpXpXpXpXz.D Z.#.a a A l.r.n.d.b a Z L +Xk.pXpXpXpXpXpXpXpXpXpXpXpXpXpXpXpXpXpXpXpXpXpXpXpX",
"pXpXpXpXpXpXpXpXpXpXpXpXpXpXpXpXpXpXpXpXa.S S a.S G a a s p G S M a i q : A J p.a.pXpXpXpXpXpXpXpXpXpXpXpXpXpXpXpXpXpXpXpXpXpXpX",
"pXpXpXpXpXpXpXpXpXpXpXpXpXpXpXpXpXpXpXpXpXS H j.i.S p p i ; x L A q & o . c S a.l.H D pXpXpXpXpXpXpXpXpXpXpXpXpXpXpXpXpXpXpXpXpX",
"pXpXpXpXpXpXpXpXpXpXpXpXpXpXpXpXpXpXpXpXpXS J K D i.: * O . O l.i.M : : C i.J a.J D S pXpXpXpXpXpXpXpXpXpXpXpXpXpXpXpXpXpXpXpXpX",
"pXpXpXpXpXpXpXpXpXpXpXpXpXpXpXpXpXpXpXpXpXS i.i.S i.G q * c F j.a.D L J J S G S S pXpXpXpXpXpXpXpXpXpXpXpXpXpXpXpXpXpXpXpXpXpXpX",
"pXpXpXpXpXpXpXpXpXpXpXpXpXpXpXpXpXpXpXpXpXpXpXpXS S D s.a.i.K H S S S S S S pXpXpXpXpXpXpXpXpXpXpXpXpXpXpXpXpXpXpXpXpXpXpXpXpXpX",
"pXpXpXpXpXpXpXpXpXpXpXpXpXpXpXpXpXpXpXpXpXpXpXpXpXpXS S D S S S pXpXpXpXpXpXpXpXpXpXpXpXpXpXpXpXpXpXpXpXpXpXpXpXpXpXpXpXpXpXpXpX",
"pXpXpXpXpXpXpXpXpXpXpXpXpXpXpXpXpXpXpXpXpXpXpXpXpXpXpXpXpXpXpXpXpXpXpXpXpXpXpXpXpXpXpXpXpXpXpXpXpXpXpXpXpXpXpXpXpXpXpXpXpXpXpXpX",
"pXpXpXpXpXpXpXpXpXpXpXpXpXpXpXpXpXpXpXpXpXpXpXpXpXpXpXpXpXpXpXpXpXpXpXpXpXpXpXpXpXpXpXpXpXpXpXpXpXpXpXpXpXpXpXpXpXpXpXpXpXpXpXpX",
"pXpXpXpXpXpXpXpXpXpXpXpXpXpXpXpXpXpXpXpXpXpXpXpXpXpXpXpXpXpXpXpXpXpXpXpXpXpXpXpXpXpXpXpXpXpXpXpXpXpXpXpXpXpXpXpXpXpXpXpXpXpXpXpX",
"pXpXpXpXpXpXpXpXpXpXpXpXpXpXpXpXpXpXpXpXpXpXpXpXpXpXpXpXpXpXpXpXpXpXpXpXpXpXpXpXpXpXpXpXpXpXpXpXpXpXpXpXpXpXpXpXpXpXpXpXpXpXpXpX",
"pXpXpXpXpXpXpXpXpXpXpXpXpXpXpXpXpXpXpXpXpXpXpXpXpXpXpXpXpXpXpXpXpXpXpXpXpXpXpXpXpXpXpXpXpXpXpXpXpXpXpXpXpXpXpXpXpXpXpXpXpXpXpXpX",
"pXpXpXpXpXpXpXpXpXpXpXpXpXpXpXpXpXpXpXpXpXpXpXpXpXpXpXpXpXpXpXpXpXpXpXpXpXpXpXpXpXpXpXpXpXpXpXpXpXpXpXpXpXpXpXpXpXpXpXpXpXpXpXpX",
"pXpXpXpXpXpXpXpXpXpXpXpXpXpXpXpXpXpXpXpXpXpXpXpXpXpXpXpXpXpXpXpXpXpXpXpXpXpXpXpXpXpXpXpXpXpXpXpXpXpXpXpXpXpXpXpXpXpXpXpXpXpXpXpX",
"pXpXpXpXpXpXpXpXpXpXpXpXpXpXpXpXpXpXpXpXpXpXpXpXpXpXpXpXpXpXpXpXpXpXpXpXpXpXpXpXpXpXpXpXpXpXpXpXpXpXpXpXpXpXpXpXpXpXpXpXpXpXpXpX"
};
