/* XPM */
static char * perso_right_xpm[] = {
"64 64 585 2",
"  	c #A6D563",
". 	c #A7D568",
"+ 	c #A4D35D",
"@ 	c #ACDB69",
"# 	c #AAD964",
"$ 	c #A0CF5C",
"% 	c #C1F276",
"& 	c #B1E166",
"* 	c #A9DA5E",
"= 	c #BCEC74",
"- 	c #A9D76A",
"; 	c #A8D764",
"> 	c #A6D85E",
", 	c #B9E96F",
"' 	c #9BCB55",
") 	c #B3E36B",
"! 	c #C3F37C",
"~ 	c #9ECD5A",
"{ 	c #A2D357",
"] 	c #98C754",
"^ 	c #95C552",
"/ 	c #A7D862",
"( 	c #A8D35E",
"_ 	c #9BB059",
": 	c #5B4137",
"< 	c #63634C",
"[ 	c #A4D063",
"} 	c #96A857",
"| 	c #977A6D",
"1 	c #9F7866",
"2 	c #8F6755",
"3 	c #8C766F",
"4 	c #9A8379",
"5 	c #A4B66A",
"6 	c #A5BE67",
"7 	c #A2C463",
"8 	c #A2CA63",
"9 	c #A5CD62",
"0 	c #7B684D",
"a 	c #916A57",
"b 	c #B07D63",
"c 	c #BC8363",
"d 	c #BA8163",
"e 	c #BB8E7C",
"f 	c #D5A492",
"g 	c #C39484",
"h 	c #A37D72",
"i 	c #846D6B",
"j 	c #97AF62",
"k 	c #83B33E",
"l 	c #93C34D",
"m 	c #A6D25D",
"n 	c #7E6056",
"o 	c #986B57",
"p 	c #B88369",
"q 	c #C38767",
"r 	c #C58663",
"s 	c #C58764",
"t 	c #BE856B",
"u 	c #C4886E",
"v 	c #BC816A",
"w 	c #BC8B7A",
"x 	c #937772",
"y 	c #A6D063",
"z 	c #5F403A",
"A 	c #926657",
"B 	c #A87058",
"C 	c #C48669",
"D 	c #C48464",
"E 	c #C58665",
"F 	c #C48766",
"G 	c #CA8D6D",
"H 	c #C18160",
"I 	c #CA8A6C",
"J 	c #D7A18A",
"K 	c #A17D73",
"L 	c #A3C067",
"M 	c #90C046",
"N 	c #8BBA46",
"O 	c #745B54",
"P 	c #92675A",
"Q 	c #9B6554",
"R 	c #A46850",
"S 	c #B4785E",
"T 	c #B67F64",
"U 	c #B58368",
"V 	c #C9997D",
"W 	c #C18E68",
"X 	c #CB926D",
"Y 	c #DEA27F",
"Z 	c #BC886D",
"` 	c #886657",
" .	c #9BAA65",
"..	c #94A45F",
"+.	c #8A655D",
"@.	c #835548",
"#.	c #976251",
"$.	c #925B47",
"%.	c #9A6550",
"&.	c #966953",
"*.	c #805943",
"=.	c #89654D",
"-.	c #AC8460",
";.	c #BC8A65",
">.	c #AC7654",
",.	c #A06E55",
"'.	c #A58476",
").	c #493C38",
"!.	c #7A6955",
"~.	c #73544F",
"{.	c #977069",
"].	c #895F58",
"^.	c #83584E",
"/.	c #7E5345",
"(.	c #77513E",
"_.	c #CDAC95",
":.	c #EDD0B8",
"<.	c #C9AB91",
"[.	c #896044",
"}.	c #B68368",
"|.	c #B2816D",
"1.	c #805B53",
"2.	c #8A7D71",
"3.	c #8DB353",
"4.	c #90BF4C",
"5.	c #9BBE63",
"6.	c #6E5656",
"7.	c #785B5D",
"8.	c #775656",
"9.	c #744F4B",
"0.	c #7C584D",
"a.	c #BE9A86",
"b.	c #FFDDC3",
"c.	c #C5A88C",
"d.	c #D2B9A5",
"e.	c #F3D0BB",
"f.	c #AB7B68",
"g.	c #9B675A",
"h.	c #784D4A",
"i.	c #53383E",
"j.	c #88B744",
"k.	c #94B35F",
"l.	c #5E4B50",
"m.	c #654D55",
"n.	c #775555",
"o.	c #89594C",
"p.	c #9C6851",
"q.	c #F7D3B3",
"r.	c #FEE0BF",
"s.	c #C4B297",
"t.	c #5E584C",
"u.	c #99806F",
"v.	c #F3CEBB",
"w.	c #946D60",
"x.	c #78615D",
"y.	c #6A7749",
"z.	c #B8E773",
"A.	c #879D5D",
"B.	c #5B474E",
"C.	c #876868",
"D.	c #C49484",
"E.	c #CA9479",
"F.	c #FEDEBB",
"G.	c #FDDFBC",
"H.	c #9A8974",
"I.	c #ACA899",
"J.	c #341E19",
"K.	c #FFDFCC",
"L.	c #9D7D70",
"M.	c #A2BD65",
"N.	c #C6F87E",
"O.	c #9FD05A",
"P.	c #AFE06A",
"Q.	c #AEE067",
"R.	c #879D5B",
"S.	c #7E6362",
"T.	c #B68A7B",
"U.	c #D3A288",
"V.	c #F6CCAA",
"W.	c #FCE1BF",
"X.	c #E2CBAC",
"Y.	c #EEE1CC",
"Z.	c #B59787",
"`.	c #FEDBC8",
" +	c #B18E81",
".+	c #A7C569",
"++	c #99CA4D",
"@+	c #B6E570",
"#+	c #BFF079",
"$+	c #B7EA6A",
"%+	c #C7F882",
"&+	c #90A959",
"*+	c #644338",
"=+	c #A67E6A",
"-+	c #DCAF92",
";+	c #EAC7A8",
">+	c #FEDEBE",
",+	c #FDE4CA",
"'+	c #FFDFC7",
")+	c #D9B2A1",
"!+	c #A6857A",
"~+	c #A9C76B",
"{+	c #9ECB57",
"]+	c #8B705C",
"^+	c #A88068",
"/+	c #CEA084",
"(+	c #F6CEAF",
"_+	c #FDDCBF",
":+	c #FFE3CB",
"<+	c #E6C1B3",
"[+	c #A99289",
"}+	c #BEF075",
"|+	c #A4D15E",
"1+	c #AAA174",
"2+	c #A67A65",
"3+	c #D5A488",
"4+	c #EFCCAC",
"5+	c #F0CCB6",
"6+	c #B49790",
"7+	c #A89D8A",
"8+	c #ABD568",
"9+	c #71473B",
"0+	c #9C674F",
"a+	c #9E6D4D",
"b+	c #9E7766",
"c+	c #917C7B",
"d+	c #A7D166",
"e+	c #9FD056",
"f+	c #97C854",
"g+	c #B9C0BB",
"h+	c #B4A4AB",
"i+	c #896562",
"j+	c #B68371",
"k+	c #B9886A",
"l+	c #94776B",
"m+	c #AAB67E",
"n+	c #96C84F",
"o+	c #BDCCD6",
"p+	c #DFEAF2",
"q+	c #E7DDE7",
"r+	c #D9BABC",
"s+	c #C79588",
"t+	c #F2D0B7",
"u+	c #CEADA6",
"v+	c #BDB1BD",
"w+	c #ADBF9B",
"x+	c #BCC5C2",
"y+	c #F2F1F7",
"z+	c #F5F9FF",
"A+	c #F4F9FB",
"B+	c #ECE9F0",
"C+	c #D3C4CD",
"D+	c #DFD7D7",
"E+	c #DED3DE",
"F+	c #BDB8C8",
"G+	c #A3A0AF",
"H+	c #B7B2BA",
"I+	c #F5EAF5",
"J+	c #FDF9FF",
"K+	c #F3F8FC",
"L+	c #F3F9FE",
"M+	c #F3F0FA",
"N+	c #EBEAF1",
"O+	c #F0EDF7",
"P+	c #C2BFD0",
"Q+	c #A29FAD",
"R+	c #C0B1B4",
"S+	c #EED1DA",
"T+	c #F4E2E8",
"U+	c #DEDCE0",
"V+	c #F5F7FB",
"W+	c #F9F7FC",
"X+	c #FCFBFE",
"Y+	c #F8F6FF",
"Z+	c #EFECF9",
"`+	c #C3C0CD",
" @	c #A88B87",
".@	c #CFA0A0",
"+@	c #C9A5A7",
"@@	c #9F9397",
"#@	c #F4F2F6",
"$@	c #F3F3F3",
"%@	c #EBEAEE",
"&@	c #EDEBF5",
"*@	c #E7E4F1",
"=@	c #BCBAC4",
"-@	c #AF8980",
";@	c #E3AAA2",
">@	c #DEB0B0",
",@	c #9F8D95",
"'@	c #F9F5FA",
")@	c #F9F8F5",
"!@	c #F1F1F2",
"~@	c #DFDDE7",
"{@	c #BEBCC6",
"]@	c #B88B7C",
"^@	c #EEAF9E",
"/@	c #BC8986",
"(@	c #CFBAC6",
"_@	c #F3EEF7",
":@	c #F7F8F3",
"<@	c #FAFAFA",
"[@	c #EEEDF2",
"}@	c #E4E1EE",
"|@	c #C1BFC9",
"1@	c #BF937F",
"2@	c #E5A991",
"3@	c #AB7B78",
"4@	c #E1CDE3",
"5@	c #F9F5FF",
"6@	c #F7F8F8",
"7@	c #F6F6F4",
"8@	c #F9F8FB",
"9@	c #F7F5FD",
"0@	c #BFBDC7",
"a@	c #8DBC4A",
"b@	c #A6C564",
"c@	c #C09A81",
"d@	c #F4C6A6",
"e@	c #B08C89",
"f@	c #E0CEEE",
"g@	c #D9D6F6",
"h@	c #F0F3F8",
"i@	c #FAFBF6",
"j@	c #F6F5FA",
"k@	c #DCDAE2",
"l@	c #CECCD4",
"m@	c #85B541",
"n@	c #A4CA61",
"o@	c #C0A185",
"p@	c #FDDAB8",
"q@	c #B39391",
"r@	c #DBCCF0",
"s@	c #D3D1F4",
"t@	c #DDDFE8",
"u@	c #F6F7F2",
"v@	c #F7F6FA",
"w@	c #BEBCC5",
"x@	c #BCCDAD",
"y@	c #C1A291",
"z@	c #FFDCC1",
"A@	c #AD938B",
"B@	c #D8D1E8",
"C@	c #D3D6F7",
"D@	c #D2D1EA",
"E@	c #E3DDE8",
"F@	c #F4EEF8",
"G@	c #C2BDC5",
"H@	c #B0CD8E",
"I@	c #B3968B",
"J@	c #FFDBC6",
"K@	c #AE9389",
"L@	c #D7D1E1",
"M@	c #D5D7F5",
"N@	c #D6D1EF",
"O@	c #DDD4E6",
"P@	c #EBE4EE",
"Q@	c #BEB8C1",
"R@	c #A5CB75",
"S@	c #B39590",
"T@	c #F9D5C4",
"U@	c #AF948A",
"V@	c #6E5F6A",
"W@	c #6D667F",
"X@	c #625873",
"Y@	c #41394B",
"Z@	c #8C8692",
"`@	c #332E38",
" #	c #A0C76B",
".#	c #A78B89",
"+#	c #F4D5C5",
"@#	c #C1A093",
"##	c #402A2D",
"$#	c #463847",
"%#	c #50445A",
"&#	c #4D4659",
"*#	c #3D3746",
"=#	c #3E3C45",
"-#	c #A1CE62",
";#	c #BAB29C",
">#	c #CFAF9E",
",#	c #F8DBC6",
"'#	c #7F6457",
")#	c #644E4D",
"!#	c #5D505D",
"~#	c #423E52",
"{#	c #474453",
"]#	c #2D2B36",
"^#	c #A1CE61",
"/#	c #B4C385",
"(#	c #C1A692",
"_#	c #FCE1C7",
":#	c #D6B6A0",
"<#	c #71584C",
"[#	c #5F535A",
"}#	c #48465B",
"|#	c #494858",
"1#	c #2F2D38",
"2#	c #9FCC5B",
"3#	c #ABC577",
"4#	c #CEBCAF",
"5#	c #F3D5BD",
"6#	c #F4D5BC",
"7#	c #BA9E92",
"8#	c #5C525C",
"9#	c #3E3F53",
"0#	c #333544",
"a#	c #292933",
"b#	c #A4D262",
"c#	c #AAA693",
"d#	c #C4A89D",
"e#	c #E3BCAE",
"f#	c #CBACAC",
"g#	c #564F66",
"h#	c #44465B",
"i#	c #313244",
"j#	c #282A36",
"k#	c #A0CE5B",
"l#	c #A5CC6A",
"m#	c #5F4542",
"n#	c #845E58",
"o#	c #7C5E66",
"p#	c #595472",
"q#	c #3D3F54",
"r#	c #313445",
"s#	c #292B37",
"t#	c #9CCA5A",
"u#	c #A5D364",
"v#	c #38323D",
"w#	c #594F5E",
"x#	c #655D73",
"y#	c #595774",
"z#	c #42425A",
"A#	c #313346",
"B#	c #2F313D",
"C#	c #ADDC64",
"D#	c #BEEE79",
"E#	c #333442",
"F#	c #515166",
"G#	c #606079",
"H#	c #585873",
"I#	c #35354D",
"J#	c #36374B",
"K#	c #30323F",
"L#	c #A5D268",
"M#	c #CBFB83",
"N#	c #5A5A75",
"O#	c #24253B",
"P#	c #38394C",
"Q#	c #333541",
"R#	c #94C253",
"S#	c #595973",
"T#	c #2A2B40",
"U#	c #38394B",
"V#	c #353742",
"W#	c #87B545",
"X#	c #54546E",
"Y#	c #2F3044",
"Z#	c #353746",
"`#	c #2E313A",
" $	c #92BF52",
".$	c #333341",
"+$	c #525267",
"@$	c #65657E",
"#$	c #50506A",
"$$	c #2C2D3F",
"%$	c #2F313E",
"&$	c #81A650",
"*$	c #30303E",
"=$	c #48485D",
"-$	c #52526B",
";$	c #3E3E56",
">$	c #2C2E3B",
",$	c #84A853",
"'$	c #343543",
")$	c #404055",
"!$	c #42425B",
"~$	c #393951",
"{$	c #2C2E3A",
"]$	c #2F313B",
"^$	c #7D9F51",
"/$	c #363644",
"($	c #3F4055",
"_$	c #404059",
":$	c #3A3B53",
"<$	c #2F323B",
"[$	c #80A452",
"}$	c #36303F",
"|$	c #453F54",
"1$	c #463F57",
"2$	c #3E374C",
"3$	c #342F3A",
"4$	c #32303A",
"5$	c #5E7249",
"6$	c #A5D263",
"7$	c #3B3547",
"8$	c #433D57",
"9$	c #47405C",
"0$	c #403950",
"a$	c #2F2B39",
"b$	c #302D3B",
"c$	c #2D2C37",
"d$	c #A4D162",
"e$	c #A1CD62",
"f$	c #32334A",
"g$	c #3D3F5F",
"h$	c #3A3D5F",
"i$	c #373A57",
"j$	c #272B3F",
"k$	c #313345",
"l$	c #282933",
"m$	c #90B954",
"n$	c #6B7E6A",
"o$	c #3B3F5A",
"p$	c #3A4061",
"q$	c #3C4364",
"r$	c #343A56",
"s$	c #282D3F",
"t$	c #2F313C",
"u$	c #3F3A3C",
"v$	c #61684D",
"w$	c #616271",
"x$	c #3F4057",
"y$	c #44445D",
"z$	c #3E3D54",
"A$	c #42404F",
"B$	c #2F2A30",
"C$	c #4B4140",
"D$	c #5D4C44",
"E$	c #604D40",
"F$	c #604F41",
"G$	c #9BC755",
"H$	c #676168",
"I$	c #483D45",
"J$	c #4A383B",
"K$	c #48322F",
"L$	c #684E40",
"M$	c #886754",
"N$	c #55321C",
"O$	c #634128",
"P$	c #65462C",
"Q$	c #5C4530",
"R$	c #71665A",
"S$	c #92B959",
"T$	c #666755",
"U$	c #4B3A39",
"V$	c #492F22",
"W$	c #66462F",
"X$	c #6A4522",
"Y$	c #8A5C3B",
"Z$	c #996E4C",
"`$	c #553215",
" %	c #573B21",
".%	c #7A6855",
"+%	c #A7A097",
"@%	c #8D9381",
"#%	c #8FB356",
"$%	c #392F2D",
"%%	c #594638",
"&%	c #634B32",
"*%	c #6E502E",
"=%	c #825B3D",
"-%	c #816044",
";%	c #8C7862",
">%	c #A09482",
",%	c #6D675C",
"'%	c #747962",
")%	c #C5F681",
"!%	c #667A48",
"~%	c #9E988E",
"{%	c #AAA08B",
"]%	c #B3A488",
"^%	c #B29984",
"/%	c #B3A392",
"(%	c #B4B0A8",
"_%	c #9C9F9A",
":%	c #9CC360",
"<%	c #A6D464",
"[%	c #869E5F",
"}%	c #8C9D69",
"|%	c #8E9A67",
"1%	c #979A6E",
"2%	c #949C6F",
"3%	c #909D76",
"4%	c #9DC268",
"      .           +   +   + + + + @ # $ # % % & * & % = @ $ + - ; ;             ; . + + . + + ; ; ; ; + + + + + ; ; $ ; ; ;     ",
"  -   .     ; ;     * # >   * # +     + * # & , % , & ; ; ; ; $ ; ;         .   + . ; . . ; ; + + + ; + ; ; ; ; ; + ; ; ; ;     ",
".   .       +     ; # + $ $ + # ; + + # * ' * ) ! , + ~   @ ; $ ;               . + ; + + + . . ; + + ; ; ; ; + $ + ; ;       ; ",
"  .             ; # * $ { ] { * -     - * $ { & ) & * { + ; + ;                 ; + . . ; . + ; ; + + ; ; + $ ] ~ + ; + $ $     ",
"              +   ; ; $ ] ^ $ $ . . . . ; + + ; ~ + ; * + + + @ .           .   ; . + ; $ .     ; + $ ; ; $ ' ^ ~ + ; ; ; $ + ; ",
"  . -   ; - / / + + * + { $ + * $ .   $ ; # # $ + * * * + ( _ : < [             + . . + ;       ; + - + ; ; $ ~ $ + + ; + ; + ; ",
"          +           ; ; + ; ;   . . +   -   $ ; ; + + } | 1 2 3 4 5 6 7 8     + ; ; + ; . ;     + -   ; ; ; + ; + ; ; + ; + ; ",
"  $ + $ + + + $     ; * ; ;     . - - - - ;   $ + + 9 0 a b c d e f g h i j     . + . . ; + ; ; + - +   $   ; ; ; ; + + ; ; ; + ",
"; k k   @ l k ^ + ;   + ; + ; ; . . . . .       # m n o p q r s t u v w x $ $ - -   +   ;     ;   -             $ ; # + { ; ; { ",
"$ l ^ +   ] l ^ ; + ; + + ;       . .   . . .   y z A B C D E F G H I J K L ; ;     ;   .     $                 ; ; + + ; + ; ; ",
"+ + $ M N ] +         ;           .     . . . . O P Q R S T U V W X Y Z `  .- $ $ ; -   ; ; ;   - $   -         ; $ $ ; ; { { + ",
"# & + M k $ # # +                   .   $ . . ..+.@.#.$.%.&.*.=.-.;.>.,.'.).+ ; - + $   ; ; ; - - -   -         { # & ; { & # + ",
"+ * + + +     $         .   -     +       . . !.~.{.].^./.(._.:.<.[.}.|.1.2.3.- @ ] 4.$ - ; ; ;   - - .         ; ! % ; { , % & ",
"+ + + ; # * + +                         . . . 5.6.7.8.9.0.a.b.c.d.e.f.g.h.i.4.  ; 4.j.~ - ; $   - $ . . - -     @ ! ! ; { = ! , ",
"# * + + + + ; ;             .             . . k.l.m.n.o.p.q.r.s.t.u.v.w.x.y.] ] ] ] ] +   ;     $ . . $     + ; - , z., ) , , & ",
"+ ; ; +       ;                   $           . A.B.C.D.E.F.G.H.I.J.K.L.M.@ $ 4.N $ -   $ ; ;   - . . -     ; ; ; ] # ! N.) { $ ",
"+ + ;           O.. P.P./ / / Q.P./ $ . . / O./ $ R.S.T.U.V.W.X.Y.Z.`. +.++ $ ' ++$ + + + ; ; +     - $           - - , @+- ; ; ",
"    ; ; . ; - ; / P.#+#+> O.$+%+P.. $   - / + > * * &+*+=+-+;+>+,+'+)+!+~+; $ $ $ + ; ; * ; * +       -         $ $ ; - - ; + $ ",
"      +         O.P.#+@+Q./ $+#+P.. .   . + / > * + $ {+]+^+/+(+_+:+<+[+; ; $ + ; ; ; + ~ + ; ;             $ -   + ;   ; + ; ; ",
";   + ;     +   . O./ P.}+}+$+> P.. .   / / + > + { ^ ] |+1+2+3+4+5+6+7++ ; ; ; + ; ; ~ ++++{ +         -   -   - - ; ; ; ; ; ; ",
"Q.O.+ /       / P.O.O.P.#+#+P.O.- .     / / $ / ; $ l ] + 8+9+0+a+b+c+d+; $ ; ; + ; $ ] ++] + ;                   $           $ ",
"e+f+f+O.      / / . . P.- / P./ / . .   . $ $ / ; + $ { g+h+i+j+k+l+m+  ; ; ; ; + ; ; + ' $ ; ;         -       $               ",
"f+n+n+e+$ + $ / O.. . . . f+O..   .         / / ; * * o+p+q+r+s+t+u+v+w+; + ; + ; ; ; ; $ ; - ;                 - ; ;   + -     ",
"e+e+e++ # $   / . / . . . P.. O.                + + x+y+z+A+B+C+D+E+F+G++ ; + ; $ ; ; ; ; ; ; $                     - $ $       ",
"> * > e+/ O.. / O.. . . . . . O.-   $ - -       ; $ H+I+J+K+L+M+N+O+P+Q+; + + ; $ ; ; ; + ;         - ; ; - -     - - - - ;   ; ",
"e+* * > / O./ . . . . O.O.O.. .       /           + R+S+T+U+V+W+X+Y+Z+`+; ; ; $ ; ; ; $ ; +     ; + ; $ $ ] $ - ; ] ] $ ; ;   ; ",
"> > > > / / O.. . . . . O.. / /             .     ;  @.@+@@@#@$@%@&@*@=@; ; ; + $ ;     ; ; +           ] N ^   $ 4.N ~ - ; $ - ",
"> > > O./ . . . . . . . / . / /   / -       -   ; @ -@;@>@,@'@)@!@~@*@{@$ ; # $         ; + ;       ;   $ 4.^ $ $ ^ ^ $ - ; + ; ",
"> / +       O.. . O.. . . / . / + / /       .   $ ; ]@^@/@(@_@:@<@[@}@|@+ * ; $ + ; ;         -         +   ] 4.] $ + ; ; ; ; $ ",
"+ /       / . . . . O.. . O.O./ + O.$ + .     . . ; 1@2@3@4@5@6@7@8@9@0@{ ; ; +         - -     $     $ ; - $ N 4.$ - ; $ ; - ; ",
"/ + /   /   . . O.. . . f+a@O./ ~ l f++ -   . . - b@c@d@e@f@g@h@i@j@k@l@{ + ; ; ;     ; . .             ;     ] $ $ ; ; ; ; ; ; ",
"+ / + /       . . . - . N m@f+P.f+N N + @   $ -   n@o@p@q@r@s@t@u@v@w@x@; + $ ; +     $ - $ ; ; -     - ; ; - @ @ ; $ ; - - $ $ ",
", { { , % & $ ; -   + $ $ $ ] 4.^ ~ + - $ ; ; ; @ ; y@z@A@B@C@D@E@F@G@H@$ ; + ; + & ; ] ++' * ; + ; ; ;     ; ; $ ;     ;       ",
"% * { % ! & + ; + +   - - $ ] 4.] $ ; ; ; ; ; + + ; I@J@K@L@M@N@O@P@Q@R@; + * + { ; $ ++M ' { + ; + ; +     $ -     ; -     - $ ",
", & & , , & + ; + + - - - . ] 4.$   ; + + ; + $ ~ $ S@T@U@V@W@X@Y@Z@`@ #; + ; + + * + { ' { + + $ ; ; ; ;   ; ; $     $     ; $ ",
"& % N.& $ + * + ; ; $     - ; ; + - ; + + ; + ~ l ~ .#+#@###$#%#&#*#=#-#+ ; ; + ; # * + + ; * + ; ; ; $ ; ; $ ; - ;   ;   ;   ; ",
"+ % ! & ' + ; + ; ; + + + ; * @ +   + + ; ; + ~ ] $ ;#>#,#'#)#!#~#{#]#^#; + ; + + ; ; + + { ; $ ; ; ; $ ; ; ; $ ; ; ; ;   -   $ ",
"# * ; ; ; + ; ; ; ; ; ; ; ; + +         ; ; ; + + + /#(#_#:#<#[#}#|#1#2#+ ; ; ; + + ; + ; ; + ; ; $ ; ; $ ; ; ;   ; $ ;   $ $ ; ",
"- $ ~ + ; + $ ; ; + ; + * + + + + + ; + ; ; ; + ; ; 3#4#5#6#7#8#9#0#a#b#+ ; { ; + ; + ; ; ; ; $ ; ; $ ; ; $ ; + ; ; + ; ; $ ; $ ",
"; ; ; ; + + ; ; + ; ; * + * + + + ; ; ; + ;   +   +   c#d#e#f#g#h#i#j#k#; + ; + ; + { ; ; ; ; $ + ; ; + ; ; + ; ; $ ; ; ; ; ; $ ",
"- . . $ .       ; + ; * ; + ; * & $ + & # $ $ ;       l#m#n#o#p#q#r#s#t#; @ @ ; ; + ; ;         ; ; $ ; $ ; ; $ ; $ $ ; ; + + ; ",
". . . . .       + + ~ ' + * * { $ & ; $ $ * ; +       u#v#w#x#y#z#A#B#C#$ N M ; + ; ; $         $ ) z.z.& ; - D#z.@ + ; ; + + + ",
". - . .   .   . ; $ ^ ] $ ; ; $ + + ; * ; ; + + .       E#F#G#H#I#J#K#L#~ k j.;   ; ; ; -       ; @ D#! z.; & M#z.& ; ; ; ; ; + ",
". $ . . .       ; + ] ] + * ; + & ) & ; ; & ) &         E#F#G#N#O#P#Q#R#^ ] $ ;   ; ; $ - $ - - + ; & z.z.) , , , ; $ + ; + ; ; ",
"  . -     $ -   - ; + + ; ; ; + , N.! $ ~ ! M#z.    .   E#F#G#S#T#U#V#W#M ; - $     $ - - - - $ ; + + # = ! z.; ; ; * ; * + ; ; ",
"      - .       ; ; - - ; + ; + & = % & & = z.-       . E#F#G#X#Y#Z#`# $' + ; ;     -   - $ -   ; ; ; + & = , + + ; # * + + + ; ",
"                    - ;     ; ; + { # ! ! & $ ;     .   .$+$@$#$$$%$&$; ; + ; ; - ; ; - - - - - $ ; ; + + & # { * ; ; ; ; + * + ",
"                        - ; ; ; # $ ; D#! ; $ ;   . $   *$=$-$;$>$B#,$$ + ; ; $ $ - $ - - $ - $ + + + ; ; + + ; + + + $ * ; ; ; ",
". 4.j.] # ; + ; + ; * ; ; + ; ;   ;   ; . .   . ;   ; + '$)$!$~${$]$^$; ;   $ + >   / +       / + ; ; + + ; * + + ;             ",
"] 4.^ $ # + + # * + + ; ; ; ; ; ;   -   - . - . - + + $ /$($_$:${$<$[$$       #           / + + + * ; ;   $   ;   ;           ; ",
"4.] $ . ; { + * * + + { - ; ;   ; ;   - . . . . - + ; + }$|$1$2$3$4$5$+ $ ;   /     + /     $ / + + * ; $ ++' @                 ",
"^ ~ - - + + ; ; * ; ; ;     -       -   . . -   ; + + 6$7$8$9$0$a$b$c$d$; ; /     >       + / + * + ; ; ~ l ] +     ;           ",
"] - ; - + ; + $ ] ~ ; ;           ; . .   -   - ; + ; e$f$g$h$i$j$k$l$m$> >   +         + + . . # + + + + ' ~ ;   / .           ",
"$ ; - ; + ; ; ' M ] $   $     ; ;   . ; -   - ;   + + n$o$p$q$r$s$t$u$v$+ + $ /         . .   . ; + $ ; ; + + @   + / /     / . ",
". - $ + ; ; ; $ ] ~ + +   $   ;   ;   ;     ;   - $ + w$x$y$z$A$B$C$D$E$F$G$+ -         . . . . ; + + * ; ; # ; +     + . /     ",
"    + $ + ; ; + ; ; ; ;   +   - -   ; ;   ;   ; ; + + H$I$J$K$L$M$N$O$P$Q$R$S$        . $ . . . + * * * + * * + +   + + .     / ",
"$ + ; $ $       ; ; + ; ; ; ; ; .     $ - # ; + + + ; T$U$V$W$X$Y$Z$`$ %.%+%@%; .     . $ . . . / O.> / / O.O./ / /   / / / / / ",
"; + ; ; ; +     ; ; # + 4.N ] ; ] a@a@  # $ + # ; ; + #%$%%%&%*%=%-%;%>%,%'%+ ;     .   . . . + / > O.> > / @+N.#+  O.#+)%P.O.  ",
"; { $ ; - +     $ - # $ M N ] # ^ j.4.  @ + $ # *       !%~%{%]%^%/%(%_%:%+ ; +         . . . . > O.> > > > $+#+#+/ / #+)%P.O.. ",
"+ ] ] $ -   + ; + ; ; ; + ~ ] ] ^ $   $ ; # ; ' ] { $ ; <%[%}%|%1%2%3%4%$ ; ; + +     . . + + + n+n+O.> > O.> Q.P.z.#+P./ / . / ",
"{ ++l $     $ - - + $ ; # ; l k ] - # $ $ @ * l 4.] + ;       . $ + ; + + +   + +     /     / O.n+n+n+{ > > O.> P.N.%+P.f+O./ + ",
"+ ~ ~ + -   - - ; ; ; ; # + ' l ~   - + + + * $ ++{ ; ; . $ .   - + + ; ; + + ; +     + +   / / O.O.{ { > O./ > / P.P./ / / / / ",
"+ ; + + - + -     - # ; $ ; ; ; ; + ; # # * ; * * ; # # .     . @ ; + . ;   + ; +   / + / + / > > > > > > > > O./ e+O./ / / + / ",
"+ * ; ; $         - # + + + * * - ; ; + + $ { + { + +                 ; ; . ; + /   /   + + > / n+e+> > > > / / / / / + /   O./ "};
