/* XPM */
static char *enemy7[] = {
/* columns rows colors chars-per-pixel */
"64 64 137 2 ",
"   c #8C5EDE",
".  c #955BDC",
"X  c #8265D6",
"o  c #8565DD",
"O  c #8B61DD",
"+  c #9E7FD6",
"@  c #A573DB",
"#  c #AC77DF",
"$  c #A57CDB",
"%  c #AA79DB",
"&  c #8D5EE3",
"*  c #8F5CE9",
"=  c #9A56E5",
"-  c #945AE4",
";  c #9D5CE6",
":  c #9756EE",
">  c #9B54ED",
",  c #9459EB",
"<  c #9B5AEB",
"1  c #9E4FF7",
"2  c #9F4FFB",
"3  c #9656F1",
"4  c #9D52F4",
"5  c #9359F1",
"6  c #9E51F9",
"7  c #A052ED",
"8  c #A35CED",
"9  c #A24FF6",
"0  c #A14FF9",
"q  c #A150F5",
"w  c #A35BF1",
"e  c #A050F8",
"r  c #8B60E1",
"t  c #9462E7",
"y  c #9C68E4",
"u  c #9F61EB",
"i  c #A063E6",
"p  c #A56BE5",
"a  c #AB6EE6",
"s  c #A465EB",
"d  c #A966EB",
"f  c #A56AEA",
"g  c #AB6DEA",
"h  c #A772E5",
"j  c #AC75E4",
"k  c #A57CE4",
"l  c #AA79E4",
"z  c #AD75EA",
"x  c #AA78E9",
"c  c #B073EB",
"v  c #B27AEB",
"b  c #A360F0",
"n  c #AA65F0",
"m  c #AD6BF2",
"M  c #AF74F2",
"N  c #B273F1",
"B  c #A888D7",
"V  c #B78BDF",
"C  c #AB92DD",
"Z  c #B396D6",
"A  c #B993DE",
"S  c #BD9CDF",
"D  c #BEA0DD",
"F  c #BB86E5",
"G  c #B58BE4",
"H  c #BB8EE7",
"J  c #B985EB",
"K  c #B68AE8",
"L  c #BC8DEA",
"P  c #B791E7",
"I  c #BC95E4",
"U  c #B49BE4",
"Y  c #BD98E5",
"T  c #BD95EC",
"R  c #BD99EB",
"E  c #BC84F0",
"W  c #BB8FF0",
"Q  c #BE97F0",
"!  c #BFA2E1",
"~  c #C5A4DF",
"^  c #C7AEDE",
"/  c #C196E6",
"(  c #C29DE2",
")  c #C196EB",
"_  c #C198EA",
"`  c #C89FEC",
"'  c #C394F2",
"]  c #C5A2E5",
"[  c #C7ADE6",
"{  c #CAACE5",
"}  c #C6A2EA",
"|  c #CAA4EC",
" . c #CBA9EC",
".. c #CCB3E3",
"X. c #CEB0E9",
"o. c #CCBBEB",
"O. c #D3B6E6",
"+. c #D5BFE6",
"@. c #D4B6ED",
"#. c #D4BBEC",
"$. c #D8BDEB",
"%. c #CCA7F2",
"&. c #CCA8F2",
"*. c #D5B6F3",
"=. c #D9B7F0",
"-. c #D3B8F0",
";. c #DBBEF2",
":. c #D7C8E7",
">. c #D6C4ED",
",. c #DAC4EC",
"<. c #DAC4F1",
"1. c #DFCFF3",
"2. c #E2D1EE",
"3. c #E3CEF2",
"4. c #E4D3F1",
"5. c #E9D6F5",
"6. c #E6D9F4",
"7. c #EADCF4",
"8. c #E9D6F8",
"9. c #EDE4F4",
"0. c #EDE8F3",
"q. c #EEE6F9",
"w. c #EDECF8",
"e. c #F0E5F6",
"r. c #F3EDF5",
"t. c #F2E4F8",
"y. c #F3EBF8",
"u. c #EDF7FB",
"i. c #EEFFFE",
"p. c #F6F3F5",
"a. c #F7FCF6",
"s. c #FBFCF6",
"d. c #F6F4F9",
"f. c #FDF6FC",
"g. c #F5FCFD",
"h. c #FBFBFB",
"j. c None",
/* pixels */
"j.j.j.j.j.j.j.j.j.j.j.j.j.j.j.j.j.j.j.j.j.j.j.j.j.j.j.j.j.j.j.j.j.j.j.j.j.j.j.j.j.j.j.j.j.j.j.j.j.j.j.j.j.j.j.j.j.j.j.j.j.j.j.j.",
"j.j.j.j.j.j.j.j.j.j.j.j.j.j.j.j.j.j.j.j.j.j.j.j.j.j.j.j.j.j.j.j.j.j.j.j.j.j.j.j.j.j.j.j.j.j.j.j.j.j.j.j.j.j.j.j.j.j.j.j.j.j.j.j.",
"j.j.j.j.j.j.j.j.j.j.j.j.j.j.j.j.j.j.j.j.j.j.j.j.j.j.j.j.j.j.j.j.j.j.j.j.j.j.j.j.j.j.j.j.j.j.j.j.j.j.j.j.j.j.j.j.j.j.j.j.j.j.j.j.",
"j.j.j.j.j.j.j.j.j.j.j.j.j.j.j.j.j.j.j.j.j.j.j.j.j.j.j.j.j.j.j.j.j.j.j.j.j.j.j.j.j.j.j.j.j.j.j.j.j.j.j.j.j.j.j.j.j.j.j.j.j.j.j.j.",
"j.j.j.j.j.j.j.j.j.j.j.j.j.j.j.j.j.j.j.j.j.j.j.j.j.j.j.j.j.j.j.j.j.j.j.j.j.j.j.j.j.j.j.j.j.j.j.j.j.j.j.j.j.j.j.j.j.j.j.j.j.j.j.j.",
"j.j.j.j.j.j.j.j.j.j.j.j.j.j.j.j.j.j.j.j.j.j.j.j.j.j.j.j.j.j.j.j.j.j.j.j.j.j.j.j.j.j.j.j.j.j.j.j.j.j.j.j.j.j.j.j.j.j.j.j.j.j.j.j.",
"j.j.j.j.j.j.j.j.j.j.j.j.j.j.j.j.j.j.j.j.j.j.j.j.j.j.j.j.j.j.j.j.j.j.j.j.j.j.j.j.j.j.j.j.j.j.j.j.j.j.j.j.j.j.j.j.j.j.j.j.j.j.j.j.",
"j.j.j.j.j.j.j.j.j.j.j.j.j.j.j.j.j.j.j.j.j.j.j.j.j.j.j.j.j.j.j.j.j.j.j.j.j.j.j.j.j.j.j.j.j.j.j.j.j.j.j.j.j.j.j.j.j.j.j.j.j.j.j.j.",
"j.j.j.j.j.j.j.j.j.j.j.j.j.j.j.j.j.j.j.j.j.j.j.j.j.j.j.j.j.j.j.j.j.j.j.j.j.j.j.j.j.j.j.j.j.j.j.j.j.j.j.j.j.j.j.j.j.j.j.j.j.j.j.j.",
"j.j.j.j.j.j.j.j.j.j.j.j.j.j.j.j.j.j.j.j.j.j.j.j.j.j.j.j.j.j.j.j.j.j.j.j.j.j.j.j.j.j.j.j.j.j.j.j.j.j.j.j.j.j.j.j.j.j.j.j.j.j.j.j.",
"j.j.j.j.j.j.j.j.j.j.j.j.j.j.j.j.j.j.j.j.j.j.j.j.j.j.j.j.j.j.j.j.j.j.j.j.j.j.j.j.j.j.j.j.j.j.j.j.j.j.j.j.j.j.j.j.j.j.j.j.j.j.j.j.",
"j.j.j.j.j.j.j.j.j.j.j.j.j.j.j.j.j.j.j.j.j.j.j.j.j.j.j.j.j.j.j.j.j.j.j.j.j.j.j.j.j.j.j.j.j.j.j.j.j.j.j.j.j.j.j.j.j.j.j.j.j.j.j.j.",
"j.j.j.j.j.j.j.j.j.j.j.j.j.j.j.j.j.j.j.j.j.j.j.j.j.j.j.j.j.j.j.j.j.j.j.j.j.j.j.j.j.j.j.j.j.j.j.j.j.j.j.j.j.j.j.j.j.j.j.j.j.j.j.j.",
"j.j.j.j.j.j.j.j.j.j.j.j.j.j.j.j.j.j.j.j.j.j.j.j.j.j.j.j.j.j.j.j.j.j.j.j.j.j.j.j.j.j.j.j.j.j.j.j.j.j.j.j.j.j.j.j.j.j.j.j.j.j.j.j.",
"j.j.j.j.j.j.j.j.j.j.j.j.j.j.j.j.j.j.j.j.j.j.j.j.j.j.j.j.j.j.j.j.j.j.j.j.j.j.j.j.j.j.j.j.j.j.j.j.j.j.j.j.j.j.j.j.j.j.j.j.j.j.j.j.",
"j.j.j.j.j.j.j.j.j.j.j.j.j.j.j.j.j.j.j.j.j.j.j.j.j.j.j.j.j.j.j.j.j.j.j.j.j.j.j.j.j.j.j.j.j.j.j.j.j.j.j.j.j.j.j.j.j.j.j.j.j.j.j.j.",
"j.j.j.j.j.j.j.j.j.j.j.j.j.j.j.j.j.j.j.j.j.j.j.j.j.j.j.j.j.j.j.j.j.j.j.j.j.j.j.j.j.j.j.j.j.j.j.j.j.j.j.j.j.j.j.j.j.j.j.j.j.j.j.j.",
"j.j.j.j.j.j.j.j.j.j.j.j.j.j.j.j.j.j.j.j.j.j.j.j.j.j.j.j.j.j.j.j.j.j.j.j.j.j.j.j.j.j.j.< > j.j.j.j.j.j.j.j.j.j.j.j.j.j.j.j.j.j.j.",
"j.j.j.j.j.j.j.j.j.j., - & r j.j.j.j., , j.j.j.j.j.j.j.j.j.j.j.j.j.j.j.j.j.j.j.j.j.j.r q 6 3 j.j.j.j.j.j.j.j.j.j.j.j.j.j.j.j.j.j.",
"j.j.j.j.j.j.j.j.j., 6 q 3 , j.j.j., 6 e 4 j.j.j.j.j.j.j.j.j.j.j.j.j.j.j.j.j.j.j.j.j.j., 4 q , j.j.j.j.j.j.j.j.j.j.j.j.j.j.j.j.j.",
"j.j.j.j.j.j.j.j.j.3 e , j.j.j.j.j.: 3 4 3 4 j.j.j.i.g.g.j.j.j.j.j.j.j.j.j.j.j.j.j.j.j.j., e q j.j.j.j.j.j.j.j.j.j.j.j.j.j.j.j.j.",
"j.j.j.j.j.j.j.j.j.4 , j.j.j.j.j.j.X j.j.j., q r B 2.h.h.w.j.j.j.j.j.j.j.j.j.j.j.j.j.j.j.j., r j.j.j.j.j.j.j.j.j.j.j.j.j.j.j.j.j.",
"j.j.j.j.j.j.j.j.j., j.j.j.j.j.j.j.j.j.j.j.j.4 4 4 _ h.h.p.o.G j.j.j.j.j.j.j.4 j.j.j.j.j.j.j.j.j.j.j.j.j.j.j.j.j.j.j.j.j.j.j.j.j.",
"j.j.j.j.j.j.j.j.j.r j.j.j.j.j.j.j.j.j.j.j.j.- $.6.q.h.h.h.h.T   j.j.j.j.  , > - . & r , O j.j.j.j.j.j.j.j.j.j.j.j.j.j.j.j.j.j.j.",
"j.j.j.j.j.j.j.j.j.j.j.j.j.j.j.j.j.j.j.5 ; [ f.h.h.h.h.h.h.a.h.f.B j.j.3 w { f.h.h.h.f.c 3 j.j.j.j.j.j.j.j.j.j.j.j.j.j.j.j.j.j.j.",
"j.j.j.j.j.j.j.j.j.j.j.j.j.j.j.j.j.j.j.3 c h.h.h.h.h.h.h.@.4.h.s.4.- - 7 %.h.h.h.h.h.h.&.j.j.j.j.j.j.j.j.j.j.j.j.j.j.j.j.j.j.j.j.",
"j.j.j.j.j.j.j.j.j.j.j.j.j.j.j.j.j.j.j.< <.h.h.h.h.a.h.h.} g _ _ J > 9 } h.h.h.h.h.s.s.f.j.j.j.j.j.j.j.j.j.j.j.j.j.j.j.j.j.j.j.j.",
"j.j.j.j.j.j.j.j.j.j.j.j.j.j.j.j.j.j.j.. h.h.h.s.h.,.,.f.5.> = > > = > 5.h.s.h.h.h.h.h.h.6.j.j.j.j.j.j.j.j.j.j.j.j.j.j.j.j.j.j.j.",
"j.j.j.j.j.j.j.j.j.j.j.j.j.j.- , j.u.h.k f.h.h.h.$.G 8.6.<.| h.f.h.f.| ;.9.h.a.s.s.s.h.a.9.j.j.j.j.j.j.j.j.j.j.j.j.j.j.j.j.j.j.j.",
"j.j.j.j.j.j.j.j.j.j.j.j.j.j., 9 s 4.s.z ,.a.g.f.< 9 4 G  .a.h.h.h.h.h.[ f 1.h.,.,.h.h.h.h.h.R j.j.j.j.j.j.O , q & j.j.j.j.j.j.j.",
"j.j.j.j.j.j.j.j.j.j.j.j.j.j., 1 > g 2.M w $.f.f.> 4 L r.h.a.f.h.h.h.a.f.} g I ..X.>.h.h.h.h.R j.j.j.j.j.j.j.j., * j.j.j.j.j.j.j.",
"j.j.j.j.j.j.j.j.j.j.j.j.j.j., $.5.6.r.M q i l % 9 9 @.f.h.,.j $ h.h.h.h.5.G 5.p.d.0.h.s.s.h.R j.j.j.j.j.j.j.j.j.j.j.j.j.j.j.j.j.",
"j.j.j.j.j.j.j.j.j.j.j.j.j.x ,.h.h.h.s.z z f.f.f.j d #.h.6.; <.s.h.h.h.f.Z h.h.h.f.0.a.h.d.6.K j.j.j.j.j.j.j.j.j.j.O j.j.j.j.j.j.",
"j.j.j.j.j.j.j.j.j.j.j.j.g.h.h.h.h.h.3.f %.9.=.y.h.@.@.h.6./ f.h.h.h.h.s.h.a.h.h.e.~ *.*.| > > j.j.j.j.j.j.j.j.j.< 3 j.j.j.j.j.j.",
"j.j.j.j.j.j.j.j.j.j.j.9.h.h.s.h.h.4.a } h.@.3 F / } 7.h.5.Y h.h.h.h.$.0.f.a.h.h.h.7.v q 1 4 4 j.j.j.j.j.j.j.j.j.4 4 j.j.j.j.j.j.",
"j.j.j.j.j.j.j.j.j.j.> 8.h.h.h.s.h.q.4.d.h.O.} 5.6.e.[ x j w ;.f.7.c { d.7.{ f.a.s.s.e.7.5.} > j.j.j.j.j.j.j.j.3 4 & j.j.j.j.j.j.",
"j.j.j.j.j.j.j.j.j.j.0 . f.h.h.7.$ h.h.h.d.9.h.h.f.6.( 7.5.q > = > 4 @.s.h.O.- $.h.h.h.h.s.f.%.t j.j.j.j.j.j.3 : , j.j.j.j.j.j.j.",
"j.j.j.j.j.j.j.j.j.o./ Y y.#.@.( { h.h.h.9.+.h.a.} g 2.h.5.4 e 0 7 1 H @.@.L q 4 h.h.h.h.h.h.h.l ] j.j.j.j.j.o j.j.j.j.j.j.j.j.j.",
"j.j.j.j.j.j.j.j.j.s.h.h.y.L > 5.h.h.h.h.h.h.h.f.< ' h.f.L 1 4 6 0 0 9 4 > v v < h.h.h.h.h.s.h.c [ 1.j.j.- * j.j.j.j.j.j.j.j.j.j.",
"j.j.j.j.j.j.j.j.j.h.h.h.h.r.J h h.h.h.h.h.h.a.f.> w ,.L 4 9 q q q 2 4 4 a e.T #.h.h.h.h.h.h.h.z j *.j.j.o j.j.j.j.j.j.j.j.j.j.j.",
"j.j.j.j.j.j.j.j.B f.h.h.h.#.> p h.h.h.h.h.h.h.x 9 4 s j g 6 6 9 q 0 9 5.f.O.@.h.s.h.h.h.h.h.h.A f.#.4 O j.j.j.j.j.j.j.j.j.j.j.j.",
"j.j.j.j.j.j.j.j.l h.h.h.h.4.a 5.g.h.h.h.h.h.4.f 4 m 3.h.5.4 4 2 q 4 q 6.y.{ [ y.h.h.h.h.h.h.h.h.h.*.4 j.j.j.j.j.j.j.j.j.j.j.j.j.",
"j.j.j.j.j.j.j.j.l h.h.h.s.h.4.] h.h.h.h.h.s.4.p ` _ s.h.r.@.v 2 e 0 q V y.4.4.r.h.h.h.h.h.h.h.{ ) v 4 j.j.j.j.j.j.j.j.j.j.j.j.j.",
"j.j.j.j.j.j.j.j.8 %.s.h.h.h.h.7.I f.h.h.h.h.a.7.5./ h.s.h.h._ q 9 4 4 > f.h.a.h.h.h.h.h.h.f.f.z 9 0 e j.j.j.j.j.j.j.j.j.j.j.j.j.",
"j.j.j.j.j.j.j.j., ' a.s.h.h.h.h.I h.h.h.6.e.a.h.h.,.,.h.h.s._ m c n 9 = f.h.h.f.9.h.e.6.;., > 4 4 4 < j.j.j.j.j.j.j.j.j.j.j.j.j.",
"j.j.j.j.j.j.j.j.j.C 9.h.s.h.h.h.h.h.h.,.= _ h.h.a.h.h.s.h.9.] 9.h.4.g = f.9.O.@.{ 9.v 6 q 9 q e 2 > j.j.j.j.j.j.j.j.j.j.j.j.j.j.",
"j.j.j.j.j.j.j.j.j.j.v q.h.h.h.s.h.s.h.z > g 2.f.h.h.h.a.9.] 7.h.h.h.2.@.f.@.4 } 9.v q q 4 6 4 6 q , j.j.j.j.j.j.j.j.j.j.j.j.j.j.",
"j.j.j.j.j.j.j.j.j.j.* h f.s.h.h.h.h.h.7.5.} f z #  .s.a.p...:.a.h.h.s.A j s 4 a g 1 e 6 e q e 6 q 3 j.j.j.j.j.j.j.j.j.j.j.j.j.j.",
"j.j.j.j.j.j.j.j.j.j.* = f.h.9.@ f.s.h.h.h.,.v j f.,.{ 6.h.h.f.h.h.h.h.7.=.8 j z z j j c c z c < 4 j.j.j.j.j.j.j.j.j.j.j.j.j.j.j.",
"j.j.j.j.j.j.j.j.j.r , . ,.h._ 4 h.h.h.h.h.h.h.h.a.h.$.S f.h.h.h.h.7.*.! _ ;.h.h.h.h.h.h.h.f.4.s j.j.j.j.j.j.j.j.j.j.j.j.j.j.j.j.",
"j.j.j.j.j.j.j.j.j.j.j.j.y _ g 4 | h.h.h.h.h.h.s.h.h.a.s.h.h.h.s.9.v 4 5.s.h.h.h.h.h.h.h.e.R z j.j.j.j.j.j.j.j.j.j.j.j.j.j.j.j.j.",
"j.j.j.j.j.j.j.j.j.j.j.j.j.j.4 4 w &.h.s.h.h.h.h.h.h.s.h.h.f.%.c z G 6.f.s.h.h.h.h.h.^ 7.d.| > j.j.j.j.j.j.j.j.j.j.j.j.j.j.j.j.j.",
"j.j.j.j.O j.j.j.j.j.j.j.j.j.j.q q > | f.h.h.s.h.h.h.9.6.$.- 4 9 z f.h.h.s.r.r.h.h.r.y.f.h.>.3 j.j.j.j.j.j.j.j.j.j.j.j.j.j.j.j.j.",
"j.j., 6 3 j.j.j.j.j.j.j.j.j.j., 8 _ Y ..h.h.h.h.@.@.v 4 q e 4 J [ h.h.h.r.H L @.=.L @.s.g.j.j.O j.j.j.j.j.j.j.j.j.j.j.j.j.j.j.j.",
"j.j.4 4 4 j.j.j.j.j.j.j.j.j.j.j.z f.f.:.h.3.' _ < q 9 q 4 9 ) e.s.h.h.a.5.> 4 4 4 4 U j.j.j.j.j.j.j.j.j.j.j.j.j.j.j.j.j.j.j.j.j.",
"j.j.j.j., , j.j.j.j.j.j.j.j.j.j.4  .h.h.9.p > 4 4 > > 7 q 6 *.h.h.h.h.d.@ q 4 q 4 , j.j.j.j.j.j.j.j.j.j.j.j.j.j.j.j.j.j.j.j.j.j.",
"j.j.j.j.j.j.j.< 4 , j.j.j.j.< 4 4 4 O.h.s.h.h.h.f.h.h.T z c ,.s.h.,.% 7.d.` 6 6 : j.j.j.j.j.j.j.j.j.j.j.j.j.j.j.j.j.j.j.j.j.j.j.",
"j.j.j.j.j.j.j.j.4 < 4 4 : 3 4 3 > < L y.g.h.h.h.h.h.h.h.h.h.h.h.s.g.h.<.| > q q , j.j.j.j.j.j.j.j.r j.j.j.j.j.j.j.j.j.j.j.j.j.j.",
"j.j.j.j.j.j.j.j.j., 4 3 j.j.j.j.j.j.j.Y  .h.h.h.h.h.h.h.h.h.h.h.f.2.2.j.j.j.j.< 4 j.j.j.j.j.j.j., 6 j.j.j.j.j.j.j.j.j.j.j.j.j.j.",
"j.j.j.j.j.j.j.j.j.j.r j.j.j.j.j.j.j.j.j.j.h.h.h.h.h.h.h.h.h.h.h.g.r.r.j.j.j.j.j.4 4 j.j.j.j.j., e 4 j.j.j.j.j.j.j.j.j.j.j.j.j.j.",
"j.j.j.j.j.j.j.j.j.j.j.j.j.j.j.j.j.j.j.j.j.j.0.6.h.h.h.h.h.h.9.6.h.h.g.j.j.j.j.j., 3 j.j.j.j., 4 e 4 j.j.j.j.j.j.j.j.j.j.j.j.j.j.",
"j.j.j.j.j.j.j.j.j.j.j.j.j.j.j.j.j.j.j.j.j.j.j.O g.g.g.g.g.g.! j.j.j.j.j.j.j.j.j.j.j.j.j.j.4 q q , j.j.j.j.j.j.j.j.j.j.j.j.j.j.j.",
"j.j.j.j.j.j.j.j.j.j.j.j.j.j.j.j.j.j.j.j.j.j.j.j.j.j.j.j.j.j.j.j.j.j.j.j.j.j.j.j.j.j.j.j.j.j.j.j.j.j.j.j.j.j.j.j.j.j.j.j.j.j.j.j.",
"j.j.j.j.j.j.j.j.j.j.j.j.j.j.j.j.j.j.j.j.j.j.j.j.j.j.j.j.j.j.j.j.j.j.j.j.j.j.j.j.j.j.j.j.j.j.j.j.j.j.j.j.j.j.j.j.j.j.j.j.j.j.j.j."
};
