/* XPM */
static char *enemy8[] = {
/* columns rows colors chars-per-pixel */
"64 64 139 2 ",
"   c #572F7F",
".  c #4C357C",
"X  c #423C7B",
"o  c #48387B",
"O  c #53317E",
"+  c #572F87",
"@  c #513180",
"#  c #6931A7",
"$  c #6E5294",
"%  c #7048A0",
"&  c #7643AD",
"*  c #7855A1",
"=  c #7C41BC",
"-  c #8157AF",
";  c #9176AF",
":  c #9675BD",
">  c #8D5FDD",
",  c #945ADF",
"<  c #A475D5",
"1  c #A573DC",
"2  c #AB73DE",
"3  c #A37EDA",
"4  c #A979DD",
"5  c #944EEA",
"6  c #8C5FE4",
"7  c #8F5BE8",
"8  c #9A56E4",
"9  c #925BE4",
"0  c #9C5CE5",
"q  c #9557EB",
"w  c #9B55EC",
"e  c #9459EB",
"r  c #9E52F4",
"t  c #9E51F9",
"y  c #A151ED",
"u  c #A55EED",
"i  c #A85FED",
"p  c #A24FF6",
"a  c #A14FF9",
"s  c #A150F5",
"d  c #A55EF1",
"f  c #A050F9",
"g  c #8B61E1",
"h  c #A261E6",
"j  c #A46AE1",
"k  c #AA6DE7",
"l  c #A565ED",
"z  c #A965ED",
"x  c #A36AE9",
"c  c #AA6CEB",
"v  c #A671E3",
"b  c #AC74E4",
"n  c #A77BE2",
"m  c #AA78E5",
"M  c #AD75EB",
"N  c #B073EB",
"B  c #B27BEB",
"V  c #A161F1",
"C  c #A966F1",
"Z  c #AB6CF3",
"A  c #B273F1",
"S  c #B379F0",
"D  c #9682AB",
"F  c #AE8EDC",
"G  c #B08CDC",
"H  c #B595DA",
"J  c #B992DC",
"K  c #B8AAC8",
"L  c #BCB2CA",
"P  c #AA81E8",
"I  c #B58BE4",
"U  c #B98AE4",
"Y  c #B483EF",
"T  c #BA85EC",
"R  c #B789EA",
"E  c #BD8CEC",
"W  c #B793E2",
"Q  c #B893E0",
"!  c #B59BE2",
"~  c #BE99E2",
"^  c #BD95EA",
"/  c #BC85F1",
"(  c #B988F2",
")  c #BC90F1",
"_  c #C0ABD5",
"`  c #C4AFDD",
"'  c #C8ACDE",
"]  c #C6B7D2",
"[  c #C08DE7",
"{  c #C08CEC",
"}  c #C49DE5",
"|  c #C195EA",
" . c #C398EA",
".. c #C99EEE",
"X. c #C196F0",
"o. c #C5A3E2",
"O. c #C7AEE1",
"+. c #CAABE4",
"@. c #C5A1EB",
"#. c #C9A1EC",
"$. c #CDABEB",
"%. c #D3B5EC",
"&. c #D8B4EF",
"*. c #D4BAEC",
"=. c #D8BCEB",
"-. c #CBAAF2",
";. c #D5B5F2",
":. c #D1CADA",
">. c #D9C6E6",
",. c #D6C3EA",
"<. c #DAC3EC",
"1. c #D9C9EC",
"2. c #DCC2F2",
"3. c #E2D1EE",
"4. c #E8D9EF",
"5. c #E9CDF6",
"6. c #E4D3F3",
"7. c #E8D4F2",
"8. c #E5D8F3",
"9. c #EADCF4",
"0. c #ECDAF8",
"q. c #F0DFF7",
"w. c #EEE4F5",
"e. c #EDE9F4",
"r. c #EAE0F8",
"t. c #EEECF8",
"y. c #F1E3F5",
"u. c #F2EDF5",
"i. c #F3EAF9",
"p. c #F8EFFB",
"a. c #EFFDFE",
"s. c #F6F4F7",
"d. c #F8F1F7",
"f. c #FBFBF6",
"g. c #F7F5FB",
"h. c #FDF6FD",
"j. c #F4FBFC",
"k. c #FBFBFB",
"l. c None",
/* pixels */
"l.l.l.l.l.l.l.l.l.l.l.l.l.l.l.l.l.l.l.l.l.l.l.l.l.l.l.l.l.l.l.l.l.l.l.l.l.l.l.l.l.l.l.l.l.l.l.l.l.l.l.l.l.l.l.l.l.l.l.l.l.l.l.l.",
"l.l.l.l.l.l.l.l.l.l.l.l.l.l.l.l.l.l.l.l.l.l.l.l.l.l.l.l.l.l.l.l.l.l.l.l.l.l.l.l.l.l.l.l.l.l.l.l.l.l.l.l.l.l.l.l.l.l.l.l.l.l.l.l.",
"l.l.l.l.l.l.l.l.l.l.l.l.l.l.l.l.l.l.l.l.l.l.l.l.l.l.l.l.l.l.l.l.l.l.l.l.l.l.l.l.l.l.l.l.l.l.l.l.l.l.l.l.l.l.l.l.l.l.l.l.l.l.l.l.",
"l.l.l.l.l.l.l.l.l.l.l.l.l.l.l.l.l.l.l.l.l.l.l.l.l.l.l.l.l.l.l.l.l.l.l.l.l.l.l.l.l.l.l.l.l.l.l.l.l.l.l.l.l.l.l.l.l.l.l.l.l.l.l.l.",
"l.l.l.l.l.l.l.l.l.l.l.l.l.l.l.l.l.l.l.l.l.l.l.l.l.l.l.l.l.l.l.l.l.l.l.l.l.l.l.l.l.l.l.l.l.l.l.l.l.l.l.l.l.l.l.l.l.l.l.l.l.l.l.l.",
"l.l.l.l.l.l.l.l.l.l.l.l.l.l.l.l.l.l.l.l.l.l.l.l.l.l.l.l.l.l.l.l.l.l.l.l.l.l.l.l.l.l.l.l.l.l.l.l.l.l.l.l.l.l.l.l.l.l.l.l.l.l.l.l.",
"l.l.l.l.l.l.l.l.l.l.l.l.l.l.l.l.l.l.l.l.l.l.l.l.l.l.l.l.l.l.l.l.l.l.l.l.l.l.l.l.l.l.l.l.l.l.l.l.l.l.l.l.l.l.l.l.l.l.l.l.l.l.l.l.",
"l.l.l.l.l.l.l.l.l.l.l.l.l.l.l.l.l.l.l.l.l.l.l.l.l.l.l.l.l.l.l.l.l.l.l.l.l.l.l.l.l.l.l.l.l.l.l.l.l.l.l.l.l.l.l.l.l.l.l.l.l.l.l.l.",
"l.l.l.l.l.l.l.l.l.l.l.l.l.l.l.l.l.l.l.l.l.l.l.l.l.l.l.l.l.l.l.l.l.l.l.l.l.l.l.l.l.l.l.l.l.l.l.l.l.l.l.l.l.l.l.l.l.l.l.l.l.l.l.l.",
"l.l.l.l.l.l.l.l.l.l.l.l.l.l.l.l.l.l.l.l.l.l.l.l.l.l.l.l.l.l.l.l.l.l.l.l.l.l.l.l.l.l.l.l.l.l.l.l.l.l.l.l.l.l.l.l.l.l.l.l.l.l.l.l.",
"l.l.l.l.l.l.l.l.l.l.l.l.l.l.l.l.l.l.l.l.l.l.l.l.l.l.l.l.l.l.l.l.l.l.l.l.l.l.l.l.l.l.l.l.l.l.l.l.l.l.l.l.l.l.l.l.l.l.l.l.l.l.l.l.",
"l.l.l.l.l.l.l.l.l.l.l.l.l.l.l.l.l.l.l.l.l.l.l.l.l.l.l.l.l.l.l.l.l.l.l.l.l.l.l.l.l.l.l.l.l.l.l.l.l.l.l.l.l.l.l.l.l.l.l.l.l.l.l.l.",
"l.l.l.l.l.l.l.l.l.l.l.l.l.l.l.l.l.l.l.l.l.l.l.l.l.l.l.l.l.l.l.l.l.l.l.l.l.l.l.l.l.l.l.l.l.l.l.l.l.l.l.l.l.l.l.l.l.l.l.l.l.l.l.l.",
"l.l.l.l.l.l.l.l.l.l.l.l.l.l.l.l.l.l.l.l.l.l.l.l.l.l.l.l.l.l.l.l.l.l.l.l.l.l.l.l.l.l.l.l.l.l.l.l.l.l.l.l.l.l.l.l.l.l.l.l.l.l.l.l.",
"l.l.l.l.l.l.l.l.l.l.l.l.l.l.l.l.l.l.l.l.l.l.l.l.l.l.l.l.l.l.l.l.l.l.l.l.l.l.l.l.l.l.l.l.l.l.l.l.l.l.l.l.l.l.l.l.l.l.l.l.l.l.l.l.",
"l.l.l.l.l.l.l.l.l.l.l.l.l.l.l.l.l.l.l.l.l.l.l.l.l.l.l.l.l.l.l.l.l.l.l.l.l.l.l.l.l.l.l.l.l.l.l.l.l.l.l.l.l.l.l.l.l.l.l.l.l.l.l.l.",
"l.l.l.l.l.l.l.l.l.l.l.l.l.l.l.l.l.l.l.l.l.l.l.l.l.l.l.l.l.l.l.l.l.l.l.l.l.l.l.l.l.l.l.l.l.l.l.l.l.l.l.l.l.l.l.l.l.l.l.l.l.l.l.l.",
"l.l.l.l.l.l.l.l.l.l.l.l.l.l.l.l.l.l.l.l.l.l.l.l.l.l.l.l.l.l.l.l.l.l.l.l.l.l.l.l.l.l.l.l.l.l.l.l.l.l.l.l.l.l.l.l.l.l.l.l.l.l.l.l.",
"l.l.l.l.l.l.l.l.l.l.l.l.l.l.l.l.l.l.l.l.l.l.l.l.l.l.l.l.l.l.l.l.l.l.l.l.l.l.l.l.l.l.l.l.l.l.l.l.l.l.l.l.l.l.l.l.l.l.l.l.l.l.l.l.",
"l.l.l.l.l.l.l.l.l.l.l.l.l.l.l.l.l.l.l.l.l.l.l.l.l.l.l.l.l.l.l.l.l.l.l.l.l.l.l.l.l.l.l.l.l.l.l.l.l.l.l.l.l.l.l.l.l.l.l.l.l.l.l.l.",
"l.l.l.l.l.l.l.l.l.l.l.l.l.l.l.l.l.l.l.l.l.l.l.l.l.l.l.l.l.l.l.l.l.l.l.l.l.l.l.l.l.l.l.l.l.l.l.l.l.l.l.l.l.l.l.l.l.l.l.l.l.l.l.l.",
"l.l.l.l.l.l.l.l.l.l.l.l.l.l.l.l.l.l.l.l.l.l.l.l.l.l.l.l.l.l.l.l.l.l.l.l.l.l.l.l.l.l.l.l.l.l.l.l.l.l.l.l.l.l.l.l.l.l.l.l.l.l.l.l.",
"l.l.l.l.l.l.l.l.l.l.l.l.l.l.l.l.l.l.l.l.l.l.l.l.l.l.l.l.l.l.l.l.l.l.l.l.l.l.l.l.l.l.l.l.l.l.l.l.l.l.l.l.l.l.l.l.l.l.l.l.l.l.l.l.",
"l.l.l.l.l.l.l.l.l.l.l.l.l.l.l.l.l.l.l.l.l.l.l.l.l.l.l.l.l.l.l.l.l.l.l.l.l.l.l.l.l.l.l.l.l.l.l.l.l.l.l.l.l.l.l.l.l.l.l.l.l.l.l.l.",
"l.l.l.l.l.l.l.l.l.l.l.l.l.l.l.l.l.l.l.l.l.l.l.l.l.P r w w e l.l.l.l.l.l.l.l.l.l.l.l.l.l.l.l.l.l.l.l.l.l.l.l.l.l.l.l.l.l.l.l.l.l.",
"l.l.l.l.l.l.l.l.l.l.l.l.l.l.l.l.l.l.l.l.l.l.l.-.;.) s t r w ^ l.l.l.l.l.l.l.l.l.l.l.l.l.l.l.l.l.l.l.l.l.l.l.l.l.l.l.l.l.l.l.l.l.",
"l.l.l.l.l.l.l.l.l.l.l.l.l.l.l.l.l.l.l.l.l.l.q p t t r f r B o.y.h.6.c s s e g l.l.l.l.l.l.l.l.l.l.l.l.l.l.l.l.l.l.l.l.l.l.l.l.l.",
"l.l.l.l.l.l.l.l.l.l.l.l.l.l.l.l.l.l.l.l.l.q s p t ( 9.1 5.$.u Z A x w p v ..r e l.l.l.l.l.l.l.l.l.l.l.l.l.l.l.l.l.l.l.l.l.l.l.l.",
"l.l.l.l.l.l.l.l.l.l.l.l.l.l.l.l.l.l.l.a.8.s r t s  .k.9., h d p p T T w 0.%.f t q > l.l.l.l.l.l.l.l.l.l.l.l.l.l.l.l.l.l.l.l.l.l.",
"l.l.l.l.l.l.l.l.l.l.l.l.l.l.l.l.l.l.l.k.8.t B u a X.h.+.| ,.=.l d | ^ y C E t s f e l.l.l.l.l.l.l.l.l.l.l.l.l.l.l.l.l.l.l.l.l.l.",
"l.l.l.l.l.l.l.l.l.l.l.l.l.l.l.l.l.e Y y.i.;.0.3 ;.6.k.h.h.h.k.<.<.h.k.5.#.w s r l E @.l.l.l.l.l.l.l.l.l.l.l.l.l.l.l.l.l.l.l.l.l.",
"l.l.l.l.l.l.l.l.l.l.l.l.l.l.l.l.9 t t c Q f.k.w.k.2.B b W h.k.f.n 2 m 9.d.#.s 8 <.x x l.l.l.l.l.l.l.l.l.l.l.l.l.l.l.l.l.l.l.l.l.",
"l.l.l.l.l.l.l.l.l.l.l.l.l.l.l.l.r p t w 7.8.8.g.k.<.m 9.w.' w.2 c q.| =.k.<.m 9.6.y r l.l.l.l.l.l.l.l.l.l.l.l.l.l.l.l.l.l.l.l.l.",
"l.l.l.l.l.l.l.l.l.l.l.l.l.l.l.g.w r B i i | | w.u.6.h.k.e.;.B s s B B 8 ;.6.k.h.w.B r 9 l.l.l.l.l.l.l.l.l.l.l.l.l.l.l.l.l.l.l.l.",
"l.l.l.l.l.l.l.l.l.l.l.l.l.l.6 I ..m 9.M N k.f.k.6. .k.` i.*.B #.&.=.B w %.3.k.f.w.' B 8 h.l.l.l.l.l.l.l.l.l.l.l.l.l.l.l.l.l.l.l.",
"l.l.l.l.l.l.l.l.l.l.l.l.l.l.y t k  .h.0.0.k.k.f.p.y.k.9.s.f.~ 7.k.f.y.v b O.h.f.I w.w.< g.l.l.l.l.l.l.l.l.l.l.l.l.l.l.l.l.l.l.l.",
"l.l.l.l.l.l.l.l.l.l.l.l.l.w t r E h.f.m 1 y.k.9.H >.>.k.k.k.k.y.k.k.k.k.h.%.*.k.U w.k.h.> l.l.l.l.l.l.l.l.l.l.l.l.l.l.l.l.l.l.l.",
"l.l.l.l.l.l.l.l.l.l.l.l.r t t U h.f.k.A p B ;.j g.f.f.h.k.k.k.O.k.k.k.f.k.%.;.j.w.,.f.k., l.l.l.l.l.l.l.l.l.l.l.l.l.l.l.l.l.l.l.",
"l.l.l.l.l.l.l.l.l.l.l.e r a E ..$.k.f.2.8 w r w 0.,.k.k.k.k.k.k.k.k.k.k.f.%.B y.f.k.k.h.8 6 l.l.l.l.l.l.l.l.l.l.l.l.l.l.l.l.l.l.",
"l.l.l.l.l.l.l.l.l.l.l.w r t ;.2 B h.k.k.7.8.6.6.H i.k.k.k.k.k.f.k.k.k.k.f.*.y c J h.f.k.w q l.l.l.l.l.l.l.l.l.l.l.l.l.l.l.l.l.l.",
"l.l.l.l.l.l.l.l.l.l.l.r t s w %.H k.w.v M f.k.n N h.k.f.k.k.k.k.k.k.k.k.j.%.s v h.k.k.0.8 s e l.l.l.l.l.l.l.l.l.l.l.l.l.l.l.l.l.",
"l.l.l.l.l.l.l.l.l.l.l.w t t r 8 ;.;.B T $.k.k.b z 6.f.f.k.k.k.k.1.h.f.f.*.^ B y.k.k.k.B r t t l.l.l.l.l.l.l.l.l.l.l.l.l.l.l.l.l.",
"l.l.l.l.l.l.l.l.l.l.l.l.w r E l t s U t.k.k.k.B f c 3.f.k.k.k.k.h | | ^ r r B y.f.f.h.<.= r r l.l.l.l.l.l.l.l.l.l.l.l.l.l.l.l.l.",
"l.l.l.l.l.l.l.l.l.l.l.l.> I p.M p t z w.k.k.k.2 w w z 9.k.k.k.k.9 8 w w 8 r y c h.h.h.; $ #.e l.l.l.l.l.l.l.l.l.l.l.l.l.l.l.l.l.",
"l.l.l.l.l.l.l.l.l.l.l.l.l.l.k.Q r t r 8.g.e.h.f.h.2.i w 9 } k.k.h.h.h.h.h.%.s t 8 & O O g.,.l.l.l.l.l.l.l.l.l.l.l.l.l.l.l.l.l.l.",
"l.l.l.l.l.l.l.l.l.l.l.l.l.l.1.%.R t s 6.8.| f.k.h.j.=.V p  .k.k.k.k.k.k.j.3.c t 5 - $ + ] a.l.l.l.l.l.l.l.l.l.l.l.l.l.l.l.l.l.l.",
"l.l.l.l.l.l.l.l.l.l.l.l.l.l.9 s T w r (  .3.,.y.k.k.k.2.k 6.k.k.f.k.k.$.$.f.6.%.;.6.:.K L l.l.l.l.l.l.l.l.l.l.l.l.l.l.l.l.l.l.l.",
"l.l.l.l.l.l.l.l.l.l.l.l.l.l.l.e c 7.U t N k.w.G k.h.f.h.=.+.k.f.k.k.+.0 M h.k.k.k.k.k.j.j.l.l.l.l.l.l.l.l.l.l.l.l.l.l.l.l.l.l.l.",
"l.l.l.l.l.l.l.l.l.l.l.l.l.l.l.l.F k.j.[ M k.h.b r  .k.W 0 $.h.k.6...%.k.h.j.f.f.,.+.j.l.l.l.l.l.l.l.l.l.l.l.l.l.l.l.l.l.l.l.l.l.",
"l.l.l.l.l.l.l.l.l.l.l.l.l.l.l.l.l.k.k.h.} ;.;.x s | k.h.+.g.k.f.I w =.k.k.w.;.*.+.k.l.l.l.l.l.l.l.l.l.l.l.l.l.l.l.l.l.l.l.l.l.l.",
"l.l.l.l.l.l.l.l.l.l.l.l.l.l.l.l.l.l.,.^ R t p ..;.#.3.k.D ] k.f.u.%.9.k.J B r @.k.j.l.l.l.l.l.l.l.l.l.l.l.l.l.l.l.l.l.l.l.l.l.l.",
"l.l.l.l.l.l.l.l.l.l.l.l.l.l.l.l.l.l.^ t r s w 7.k.L % * + D k.h.h.f.k.h.0 f w 8.j.a.l.l.l.l.l.l.l.l.l.l.l.l.l.l.l.l.l.l.l.l.l.l.",
"l.l.l.l.l.l.l.l.l.l.l.l.l.l.l.l.l.l.l.t t t r 8 7.%.M 0 # : R 8 4 h.f.9.w t r l.l.l.l.l.l.l.l.l.l.l.l.l.l.l.l.l.l.l.l.l.l.l.l.l.",
"l.l.l.l.l.l.l.l.l.l.l.l.l.l.l.l.l.l.l.w r p p s r A %.l r v Z f l %.*.z s c n l.l.l.l.l.l.l.l.l.l.l.l.l.l.l.l.l.l.l.l.l.l.l.l.l.",
"l.l.l.l.l.l.l.l.l.l.l.l.l.l.o l.l.l.l.l.x E w t r t r t a c c w r r w 7 l.l.l.l.l.l.l.l.l.l.l.l.l.l.l.l.l.l.l.l.l.l.l.l.l.l.l.l.",
"l.l.l.l.l.l.l.l.l.l.l.l.l.l.l.l.l.l.l.l.l.t.7.c c #.f t s U 8.l.l.l.l.l.l.l.l.l.l.l.l.l.l.l.l.l.l.l.l.l.l.l.l.l.l.l.l.l.l.l.l.l.",
"l.l.l.l.l.l.l.l.l.l.l.l.l.l.l.l.l.l.l.l.l.l.j.3 e 6 7 9 9 ! a.l.l.l.l.l.l.l.l.l.l.l.l.X . l.l.l.l.l.l.l.l.l.l.l.l.l.l.l.l.l.l.l.",
"l.l.l.l.l.l.l.l.l.l.l.l.l.l.l.l.l.l.l.l.l.l.l.l.l.l.l.l.l.l.l.l.l.l.l.l.l.l.l.l.l.l.l.l.l.l.l.l.l.l.l.l.l.l.l.l.l.l.l.l.l.l.l.l.",
"l.l.l.l.l.l.l.l.l.l.l.l.l.l.l.l.l.l.l.l.l.l.l.l.l.l.l.l.l.l.l.l.l.l.l.l.l.l.l.l.l.l.l.l.l.l.l.l.l.l.l.l.l.l.l.l.l.l.l.l.l.l.l.l.",
"l.l.l.l.l.l.l.l.l.l.l.l.l.l.l.l.l.l.l.l.l.l.l.l.l.l.l.l.l.l.l.l.l.l.l.l.l.l.l.l.l.l.l.l.l.l.l.l.l.l.l.l.l.l.l.l.l.l.l.l.l.l.l.l.",
"l.l.l.l.l.l.l.l.l.l.l.l.l.l.l.l.l.l.l.l.l.l.l.l.l.l.l.l.l.l.l.l.l.l.l.l.l.l.l.l.l.l.l.l.l.l.l.l.l.l.l.l.l.l.l.l.l.l.l.l.l.l.l.l.",
"l.l.l.l.l.l.l.l.l.l.l.l.l.l.l.l.l.l.l.l.l.l.l.l.l.l.l.l.l.l.l.l.l.l.l.l.l.l.l.l.l.l.l.l.l.l.l.l.l.l.l.l.l.l.l.l.l.l.l.l.l.l.l.l.",
"l.l.l.l.l.l.l.l.l.l.l.l.l.l.l.l.l.l.l.l.l.l.l.l.l.l.l.l.l.l.l.l.l.l.l.l.l.l.l.l.l.l.l.l.l.l.l.l.l.l.l.l.l.l.l.l.l.l.l.l.l.l.l.l.",
"l.l.l.l.l.l.l.l.l.l.l.l.l.l.l.l.l.l.l.l.l.l.l.l.l.l.l.l.l.l.l.l.l.l.l.l.l.l.l.l.l.l.l.l.l.l.l.l.l.l.l.l.l.l.l.l.l.l.l.l.l.l.l.l."
};
