/* XPM */
static char *enemy6[] = {
/* columns rows colors chars-per-pixel */
"64 64 21 1 ",
"  c #8C5FDF",
". c #8763DE",
"X c #8D5DE4",
"o c #8E5BE9",
"O c #945AE5",
"+ c #9756ED",
"@ c #9A55EE",
"# c #9459EA",
"$ c #9858EB",
"% c #9F4FF7",
"& c #9F4FFB",
"* c #9756F1",
"= c #9F50F6",
"- c #9F50F9",
"; c #A34FF6",
": c #A14FF9",
"> c #A050F6",
", c #A050F8",
"< c #8D60E3",
"1 c #9160E8",
"2 c None",
/* pixels */
"2222222222222222222222222222222222222222222222222222222222222222",
"2222222222222222222222222222222222222222222222222222222222222222",
"2222222222222222222222222222222222222222222222222222222222222222",
"2222222222222222222222222222222222222222222222222222222222222222",
"2222222222222222222222222222222222222222222222222222222222222222",
"2222222222222222222222222222222222222222222222222222222222222222",
"2222222222222222222222222222222222222222222222222222222222222222",
"2222222222222222222222222222222222222222222222222222222222222222",
"2222222222222222222222222222222222222222222222222222222222222222",
"2222222222222222222222222222222222222222222222222222222222222222",
"2222222222222222222222222222222222222222222222222222222222222222",
"22222222222222222222222222222222222O2222222222222222222222222222",
"2222222222222222222222222222222222#@2222222222222222222222222222",
"2222222222222222222222222222222222=-*222222222222222222222222222",
"222222222222222222222222222222222*;,=222222222222222222222222222",
"222222222222222222222222222222222*,,=222222222222222222222222222",
"222222222222222222222222222222222=,==<22222222222222222222222222",
"22222222222222222222222222222222=->==X2222222222222222$.22222222",
"22222222222#*222222222222222222#==-=>X22222222222222>=#222222222",
"22222222222#=X22222222222222222>,=-==X222222222222*=,*2222222222",
"222222222222***+2222+*O2222222**>>==><222222222X*@;>=22222222222",
"222222222222#,->>222@,*2222222=>>-=,,O222222222>,>,=222222222222",
"2222222222222$==>>**,>>@$=>*@=%>,=>,*#222222+*>>,,=<222222222222",
"22222222222222;->>>>==,,-=>;*======-==22222>>>=,=*X2222222222222",
"22222222222222*;>,,,=>==>>>--==%====>;>#2@--=;;-;@22222222222222",
"22222222222222*>>=>-=:===>==,>===,>===-;,>=,,=,>=222222222222222",
"222222222222222*>-=--=-;-==-=%====%:%=%->%,,-==*2222222222222222",
"222222222222222X>-=>%===:%=>==:%->=-,==%-=%,=>*22222222222222222",
"2222222222222222*>=,==%===%==:>-->=,==,==>-=>=222222222222222222",
"2222222222222222>,=-,=->%=->==%=%=%==%:==-=>>=222222222222222222",
"222222222222222@>>->=>===>-===%===%=%===>=,>>,O22222222222222222",
"22222222222222=->====--==%=%%==,-;=,==%=-=>=>:=22222222222222222",
"2222O@#2222222=->===,==%;=->===-=%=;-=-=%=;;===+2222222222222222",
"2222O=>**2222*=;==%-=%==-=%==:=%===%=%=%=--%-=>=2222222222222222",
"22222O>>,>@O==%=;-=;%======%%==>-=%-===%%>=%--,,#222222222222222",
"222222*>,,,*>==-=-=%->:=-%,=%=%=%==>=:-===,===>>,222222222222222",
"2222222==>,>=-=%==%-%=>===%=%==-=%=%%%>=%=>===->=+22222222222222",
"22222222>>=,====%=%==-%-%=:-==%>=->===%-->-%==:=>=*#222222222222",
"22222222#>,,---=%>=>%>======:=%=;-%=:==>%===%=>-,=,--,@*22222222",
"222222222**>;%=%==%-==%=:=%===========%-==%=:==%===;=,,*#2222222",
"2222222222>,>=-=-===;=%-%=>==;:=%%===%=-==-%-=>-,=>>-,$222222222",
"22222222222>>=;==:%--=%===-%=--==-=%,==;=%==%=%===-@*#2222222222",
"22222222222#>======>%===-%=-==%%-;>-%=====%=%>->,,=#222222222222",
"22222222222=>->-=%%==,=%=%=;%-=====%->%,;%->-==,=$22222222222222",
"22222222222#==>==%=%=%=>=>-=-====%,=%=%=-=%=,=-=>$22222222222222",
"222222222222$%-%=->=,=%-%=%=%>%%=-=%->==%====%=>=#22222222222222",
"222222222222#===-:=,%===%=:==>==%%==%:=%-==,>==->#22222222222222",
"2222222222222>->==%====:====%-=:==,======%%=-%%,+222222222222222",
"2222222222222#,-:==>====%==%%==-=%=%:====-=-====X222222222222222",
"2222222222222@=--:=%=%%==,,==-%==->===%=%=%;>==*2222222222222222",
"2222222222222>,>>=%=>====%=%%===;->-==:======-=O2222222222222222",
"222222222222*===--==-%:==->==-;%%=%==%-==%->===22222222222222222",
"22222222222O>->-======->:=%==:>-======%%-==%->=22222222222222222",
"22222222222=,-=====-=->,==-====%-%=%%-==:===%-=<2222222222222222",
"2222222222#>:=->==>=,=,>%--===%=%=-:=====-%>---*2222222222222222",
"2222222222*>=,-,======,>;==%%=>-==>=-=--==-;%;%*2222222222222222",
"222222222*,>>>==:,2#>>,*=:==;=,>==-;:=>=;>;==>;=$222222222222222",
"222222222+,,>==*#222O=,>=;=%-,>,-%=>=>=>,=,;==;>=222222222222222",
"22222222@>=,>#222222222>======,>>===,>*;=*>>;==,@@22222222222222",
"2222222@>=>@X222222222222@=:-%,;;-=#X22O;=1X*-;,=@22222222222222",
"222222<>>**222222222222222*;***@*@222222$*222@@>;><2222222222222",
"222222*>2222222222222222222@>2222222222222222222*:-2222222222222",
"2222222222222222222222222222222222222222222222222222222222222222",
"2222222222222222222222222222222222222222222222222222222222222222"
};
